<?xml version="1.0" standalone="no"?>
<!DOCTYPE svg PUBLIC "-//W3C//DTD SVG 1.1//EN" "http://www.w3.org/Graphics/SVG/1.1/DTD/svg11.dtd" >
<svg xmlns="http://www.w3.org/2000/svg">
<metadata></metadata>
<defs>
<font id="garamond_mtregular" horiz-adv-x="681" >
<font-face units-per-em="2048" ascent="1638" descent="-410" />
<missing-glyph horiz-adv-x="481" />
<glyph horiz-adv-x="2048" />
<glyph horiz-adv-x="2048" />
<glyph unicode="&#xd;" horiz-adv-x="481" />
<glyph unicode=" "  horiz-adv-x="481" />
<glyph unicode="&#x09;" horiz-adv-x="481" />
<glyph unicode="&#xa0;" horiz-adv-x="481" />
<glyph unicode="!" horiz-adv-x="448" d="M102 88q0 25 11.5 44.5t28 32.5t35 20.5t32.5 7.5q27 0 59.5 -27t32.5 -76q0 -45 -31.5 -79t-72.5 -34q-27 0 -45.5 12.5t-28.5 29t-15.5 36t-5.5 33.5zM248 317q8 51 18 95.5t21.5 91.5t27 101t33.5 126q8 41 21.5 103.5t29 128t29.5 125t25 92.5q20 57 40.5 77.5 t51.5 20.5q35 0 52 -17.5t17 -35.5q0 -23 -8 -53.5t-18 -59.5t-20.5 -51.5t-12.5 -28.5q0 -2 -16.5 -47t-38 -101.5t-42 -110.5t-28.5 -75q-10 -23 -32.5 -77t-47 -115.5t-47 -114.5t-31.5 -74q-16 -2 -24 0z" />
<glyph unicode="&#x22;" horiz-adv-x="860" d="M256 739l31 297q6 53 13 105.5t23.5 92.5t45 64.5t75.5 24.5q45 0 61.5 -24.5t16.5 -45.5q0 -16 -4 -33.5t-14 -42t-26.5 -59.5t-39.5 -84l-139 -295h-43zM690 739l31 293q6 57 13 110.5t23.5 93.5t46.5 63.5t79 23.5q25 0 39 -8t22 -19.5t10 -22.5t2 -20q0 -18 -11 -54 t-24.5 -70.5t-26.5 -62.5t-15 -34l-142 -293h-47z" />
<glyph unicode="#" horiz-adv-x="1368" d="M154 344v90h233l84 406h-317v90h335l89 416h86l-89 -416h457l86 416h88l-88 -416h213v-90h-231l-82 -406h313v-90h-332l-86 -412h-90l88 412h-456l-86 -412h-88l88 412h-215zM473 436h457l84 404h-457z" />
<glyph unicode="$" horiz-adv-x="897" d="M23 266q0 20 13 45t46 25q25 0 38 -13.5t20 -33t9.5 -42t2.5 -40.5q2 -16 9 -52t40 -77l211 590q-41 59 -67 120.5t-26 133.5q0 55 18.5 110t56.5 101.5t94.5 78t132.5 37.5l14 39q20 2 26.5 2t16.5 -2l-14 -41q14 -2 27.5 -4t26.5 -6t29.5 -10t38.5 -17l31 78h41 q0 -6 -5 -20.5t-10 -30.5t-10.5 -30.5t-7.5 -20.5q43 -33 68 -66t35 -61.5t12 -50t2 -29.5q0 -23 -14.5 -50.5t-44.5 -27.5q-37 0 -50.5 30t-13.5 62l2 62q0 29 -6 45t-12 26l-185 -514q4 -8 17.5 -27.5t28 -40t26.5 -40t17 -27.5q14 -33 24 -71.5t10 -86.5q0 -96 -51 -182 t-145 -131q-35 -16 -74 -22.5t-80 -10.5l-69 -190h-43q4 12 14 41t21.5 61.5t20.5 58t9 31.5q-39 6 -65.5 13.5t-57.5 19.5q-6 -12 -18.5 -47t-25.5 -73t-24.5 -68.5t-15.5 -36.5h-41q2 8 14.5 42t27 75t27.5 77.5t17 53.5q-47 31 -77.5 63.5t-49 64t-25.5 59.5t-7 48z M231 51q35 -18 64 -28.5t65 -8.5l175 490q-16 27 -45 60.5t-50 60.5zM403 14q45 0 86 20.5t73 54.5t50.5 80t18.5 99q0 35 -12.5 84.5t-53.5 108.5q-8 -18 -30.5 -82t-49 -137.5t-50 -139t-32.5 -88.5zM430 969q0 -41 8 -75t31 -67l133 375q-16 0 -45 -10t-56.5 -37t-49 -72 t-21.5 -114zM496 774q2 -10 16 -30.5t29.5 -41t29 -38t15.5 -19.5l184 516q-23 23 -57.5 35t-63.5 10z" />
<glyph unicode="%" horiz-adv-x="1536" d="M147 842q0 57 24 136t69 149.5t112.5 119.5t157.5 49q55 0 89 -24.5t51.5 -59t22.5 -72.5t5 -67q0 -88 -32 -172t-82 -148.5t-112.5 -104.5t-123.5 -40q-49 0 -84 22.5t-56.5 56.5t-31 75t-9.5 80zM248 774q0 -53 14 -90t62 -37q41 0 76.5 32t64.5 82t51.5 110.5 t37.5 116.5t23.5 101.5t8.5 63.5q0 35 -15.5 71t-62.5 36q-61 0 -110.5 -59.5t-82 -140.5t-50 -162t-17.5 -124zM326 -66q27 45 48 81t42.5 70t44 68.5t53.5 77.5q23 31 77 116t124.5 197.5t148.5 236.5t145.5 232.5t116 186.5t62.5 96q8 2 30.5 0t28.5 -2l-422 -684 q-2 -4 -14 -24.5t-26.5 -43t-25.5 -40.5l-11 -19q-8 -8 -20.5 -25.5t-27 -39t-28 -44t-23.5 -38.5q-2 -4 -6 -11.5t-9 -16.5t-10.5 -16t-7.5 -9l-231 -351zM973 221q0 57 23.5 136t69.5 150t113.5 120t157.5 49q55 0 89 -24.5t50.5 -59.5t21.5 -74t5 -67q0 -88 -31.5 -171 t-81 -147.5t-111.5 -104.5t-124 -40q-49 0 -84 22.5t-56.5 56t-31.5 74.5t-10 80zM1075 154q0 -55 14.5 -91t61.5 -36q41 0 77 31.5t64.5 81.5t51 110.5t38 117t23.5 101.5t8 63q0 35 -15.5 71t-62.5 36q-61 0 -110 -59.5t-82 -140.5t-50.5 -161.5t-17.5 -123.5z" />
<glyph unicode="&#x26;" horiz-adv-x="1855" d="M188 420q0 39 11.5 90t32 104.5t50 102.5t66.5 82q25 20 53.5 43.5t64.5 43t78 33t91 13.5q45 0 77.5 -9.5t54 -23.5t35 -31.5t21.5 -31.5l11 -25q10 8 40.5 39t63.5 67.5t61.5 68.5t36.5 42q35 41 54.5 71.5t19.5 61.5q-10 2 -23.5 5t-24.5 10.5t-19.5 21.5t-8.5 37 q0 33 25.5 69.5t79.5 36.5q35 0 58.5 -25.5t23.5 -53.5q0 -76 -60.5 -155t-161.5 -189l-278 -306q-10 -10 -31.5 -34.5t-45 -52t-45 -53.5t-30.5 -34q-12 -12 -39.5 -41.5t-57.5 -62.5t-54.5 -58.5t-28.5 -31.5q160 -141 402 -142q37 0 90 8.5t109.5 21.5t108.5 32.5 t87 44.5q45 29 73.5 49.5t53 42t50.5 50t62 73.5q61 72 100.5 137.5t65.5 128.5q-18 14 -44.5 34.5t-52.5 40t-50.5 36t-40.5 26.5q-47 29 -72.5 37t-46.5 8q-12 0 -32.5 -4t-41 -16t-36 -36.5t-15.5 -65.5q0 -23 7.5 -48.5t23.5 -33.5q4 -2 14 -1t17 1q4 31 13 56.5 t44 25.5q33 0 42 -25t9 -39q0 -41 -29.5 -58.5t-58.5 -17.5q-53 0 -88 41t-35 103q0 39 17.5 74.5t47 62.5t69.5 43t83 16q45 0 84 -10t79 -29.5t84 -48t99 -67.5q111 -78 174 -78q14 0 33 7t35 22.5t28.5 41t12.5 62.5q0 33 -10 54.5t-23.5 32.5t-27 15t-19.5 4 q-8 0 -12 -3t-4 -15q4 -4 9 -16.5t5 -22.5q0 -25 -18.5 -33t-30.5 -8q-35 0 -44 21.5t-9 33.5q0 25 20.5 54.5t73.5 29.5q51 0 90 -42t39 -109q0 -35 -15.5 -72t-44 -68.5t-68.5 -52t-91 -20.5q-53 0 -90 13t-62 24q-12 -20 -26.5 -47t-29.5 -54.5t-30.5 -53.5t-29.5 -46 q-47 -74 -90.5 -125t-85.5 -90t-81.5 -69.5t-82.5 -59.5q-72 -47 -136.5 -76t-125 -44t-116 -20t-106.5 -5q-76 0 -164 26.5t-163.5 79.5t-126 136t-50.5 198zM309 455q0 -16 9 -66.5t44 -107.5q2 0 30 31.5t70 77.5t92 100.5t94 103.5t76 85t40 46q-45 2 -61.5 17.5 t-16.5 50.5q0 8 8 30.5t8 30.5q0 12 -10 18.5t-24.5 9.5t-26.5 4t-14 1q-35 0 -66 -12.5t-56.5 -31t-47 -40l-39.5 -39.5q-68 -72 -88.5 -153t-20.5 -156z" />
<glyph unicode="'" horiz-adv-x="438" d="M266 739l31 297q6 55 13 106.5t22.5 91.5t44.5 64.5t76 24.5t62 -23.5t15 -46.5q0 -16 -3 -31.5t-12 -38t-24.5 -58t-41.5 -91.5l-140 -295h-43z" />
<glyph unicode="(" horiz-adv-x="555" d="M145 100q0 100 16.5 213t54.5 233t100.5 240.5t154.5 235.5q100 127 191.5 200.5t144.5 108.5l22 -26q-41 -35 -93 -84.5t-109.5 -119t-116.5 -162.5t-115 -212q-92 -205 -125.5 -396.5t-33.5 -344.5q0 -154 23.5 -270.5t57.5 -225.5l-30 -16q-70 147 -106 305t-36 321z " />
<glyph unicode=")" horiz-adv-x="555" d="M-209 -504q145 123 257 275.5t187.5 322.5t114.5 356.5t39 376.5q0 72 -6 132.5t-16.5 118t-24.5 114.5t-31 123l29 16q53 -121 95 -277.5t42 -346.5q0 -227 -61.5 -422t-156.5 -350.5t-212 -271.5t-227 -187z" />
<glyph unicode="*" horiz-adv-x="874" d="M147 840q20 8 72.5 19t109 21.5t104.5 19.5t61 13q-12 14 -44 47t-69 70l-73 73t-58 60q18 23 28.5 31t26.5 25q35 -41 72 -85t68.5 -81t55 -63.5t31.5 -35.5q12 37 25.5 82t27 91.5t25 89.5t17.5 77q20 -6 32.5 -10t40.5 -12q-6 -20 -22 -69.5t-34.5 -104t-34 -101.5 t-17.5 -61q12 2 38.5 11t56.5 19.5t55.5 18.5t35.5 10q12 4 39 10.5t53.5 12.5t47.5 9l20 3q6 -23 10 -35t8 -39q-20 -6 -72.5 -16t-108.5 -21.5t-105 -20.5t-62 -13q6 -8 43 -43t80 -76t81 -80t50 -53q-14 -14 -23.5 -22.5t-31.5 -28.5q-16 14 -50 53t-71 82t-70.5 80 t-48.5 49q-6 -18 -18 -59.5t-23.5 -84.5t-20.5 -76.5t-9 -35.5q-2 -20 -4.5 -31.5t-3.5 -21t-4 -16.5t-5 -19q-25 6 -37 10t-34 16q0 2 13 48.5t30.5 102.5t34 107.5t20.5 67.5q-10 -2 -37 -9t-55.5 -15.5t-54 -16.5t-33.5 -10q-78 -23 -162 -37z" />
<glyph unicode="+" horiz-adv-x="1366" d="M213 592v88h492v491h88v-491h491v-88h-491v-492h-88v492h-492z" />
<glyph unicode="," horiz-adv-x="448" d="M-37 -295q37 25 78 52.5t75 60t55.5 69.5t21.5 78q0 16 -8.5 27.5t-39.5 46.5q-12 16 -20 36.5t-8 37.5q0 14 6 36.5t17.5 44t28.5 36t42 14.5q41 0 73.5 -46t32.5 -112q0 -31 -16 -83t-55 -111.5t-105.5 -118t-165.5 -103.5z" />
<glyph unicode="-" horiz-adv-x="532" d="M86 356q2 6 7 18.5t12.5 27t13.5 26.5l8 16q6 0 21.5 1t33 2.5t31.5 1.5h20l82 2q6 0 23.5 -1t36 -1t35 -1.5t22.5 -1.5h53.5t44.5 -2q-6 -16 -17 -45.5t-21 -48.5q-10 0 -23.5 -2t-19.5 -2l-17 4l-57 -2q-4 0 -22.5 2t-24.5 2q-10 0 -32 -1t-46.5 -1t-47 -1t-30.5 -1 q-4 0 -17.5 3t-17.5 3q-14 2 -23.5 2h-27.5z" />
<glyph unicode="." horiz-adv-x="448" d="M84 80q0 16 7 35.5t20.5 36t34 27.5t47.5 11q47 0 73.5 -33.5t26.5 -74.5q0 -47 -32 -79t-73 -32q-29 0 -48 12.5t-31.5 30t-18.5 36t-6 30.5z" />
<glyph unicode="/" horiz-adv-x="1044" d="M37 -387l958 1702h86l-958 -1702h-86z" />
<glyph unicode="0" horiz-adv-x="960" d="M109 420q0 76 17 170t52 191.5t85 189.5t116.5 163.5t147.5 115.5t175 44q82 0 134.5 -41t81 -104.5t39 -138t10.5 -142.5q0 -170 -53.5 -330.5t-136.5 -285.5t-184 -201t-200 -76q-78 0 -132 43t-88 109t-49 143.5t-15 149.5zM238 287q0 -41 4 -87t19 -85t45 -64.5 t81 -25.5q49 0 88 21.5t71 54t55.5 72.5t41.5 79q27 55 62.5 152.5t67.5 208t54.5 221t22.5 192.5q0 31 -5 70t-21.5 72.5t-45 57t-78.5 23.5q-78 0 -142 -56t-115.5 -146.5t-90.5 -201t-64.5 -217t-37.5 -198.5t-12 -143z" />
<glyph unicode="1" horiz-adv-x="960" d="M305 965q31 14 86 41.5t119.5 68.5t132.5 95.5t127 123.5h66l-367 -1294h-137l309 1092l-4 4q-115 -84 -193.5 -124t-136.5 -63z" />
<glyph unicode="2" horiz-adv-x="960" d="M35 0l6 27q113 106 187.5 177.5t130 124t97.5 95.5t89 90q80 82 136 146.5t92 121t52.5 109.5t16.5 113q0 8 -1 26.5t-6.5 40t-15.5 45t-28 41.5q-20 23 -50 35t-82 12q-61 0 -106 -19.5t-79 -51t-60.5 -75.5t-48.5 -93h-56q33 96 77 159.5t94 101.5t104.5 53t105.5 15 q76 0 133.5 -21.5t96 -60t57 -90t18.5 -108.5q0 -31 -5 -69t-30.5 -88t-79 -116.5t-149.5 -152.5q-55 -47 -122.5 -107.5t-137.5 -123t-137.5 -123t-122.5 -109.5h571l-34 -125h-713z" />
<glyph unicode="3" horiz-adv-x="960" d="M45 -25l8 41q127 6 225.5 41t170 85.5t120.5 111.5t79 119.5t42 108.5t12 81q0 27 -8 54.5t-24.5 51t-44 38t-64.5 14.5q-29 0 -62.5 -13.5t-64.5 -32t-53.5 -34.5t-28.5 -23q-16 14 -20 20.5t-8 16.5q14 12 26 22.5t28.5 22t39 26.5t57.5 36q57 35 112.5 70.5t98.5 76.5 t69.5 90.5t26.5 108.5q0 53 -33.5 78.5t-78.5 25.5q-6 0 -29 -2t-52.5 -16t-61 -46t-56.5 -89l-41 18q18 63 54 105.5t77 67t82 34.5t72 10q61 0 102 -15t66.5 -41t36 -57.5t10.5 -62.5q0 -41 -12.5 -71.5t-43 -62.5t-86 -71t-141.5 -96q20 -4 53 -14t65 -34t55.5 -64.5 t23.5 -106.5q0 -92 -52.5 -204.5t-153.5 -208t-250.5 -157t-342.5 -53.5z" />
<glyph unicode="4" horiz-adv-x="960" d="M33 381l8 74l815 839h51l-239 -825h239l-20 -88h-244l-108 -381h-144l109 381h-467zM129 469h397l168 582l-4 4z" />
<glyph unicode="5" horiz-adv-x="960" d="M31 6q2 6 6 14q33 2 83 8.5t109.5 22t122 43t119.5 74.5q39 33 76 78t64.5 95t44 102.5t16.5 101.5q0 31 -10.5 62.5t-32 58t-53 44t-76.5 17.5q-53 0 -97.5 -22.5t-72.5 -40.5l207 610q49 4 74.5 4t50.5 -2q10 0 32.5 -1t48.5 -1q25 -2 47.5 -3t30.5 -1q49 0 78 1t43 5 t21.5 10t13.5 17q10 12 45 8l-37 -127q-8 -20 -10 -26.5t-8 -12.5q-29 -4 -47.5 -6t-57.5 -2q-18 0 -63 1t-95.5 2t-94.5 3t-60 2l-107 -309q31 10 51.5 13t45.5 3q47 0 95 -16.5t87 -50t63.5 -85t24.5 -120.5q0 -47 -12.5 -105.5t-45 -121t-89 -125t-144.5 -119.5 q-70 -45 -134.5 -71t-124.5 -39t-116.5 -17.5t-109.5 -6.5q-4 25 -2 31z" />
<glyph unicode="6" horiz-adv-x="960" d="M115 279q0 141 57 284.5t156.5 272.5t234.5 234.5t289 172.5q6 2 31.5 11.5t52.5 17.5t50 15l22 7q8 0 16 -6t12 -8q-2 -29 -10 -36t-37 -15q-78 -20 -156.5 -69.5t-149.5 -112t-130 -131t-98 -128.5q-31 -47 -72 -123.5t-77 -161.5t-60.5 -168t-24.5 -145 q0 -51 13.5 -82.5t33 -49t40 -23.5t34.5 -6q80 0 149.5 53t122 130t83 165t30.5 160q0 45 -28.5 81.5t-69.5 36.5q-20 0 -46 -6t-44 -14q-4 -2 -14.5 -9.5t-12.5 -7.5q-10 0 -13 13.5t-3 17.5q0 18 19.5 32.5t46 24t56 13.5t48.5 4q53 0 90 -22.5t59.5 -56.5t31.5 -73t9 -73 q0 -104 -47 -198.5t-119 -167.5t-158 -115t-163 -42q-96 0 -147.5 41t-75 93.5t-27.5 101.5t-4 68z" />
<glyph unicode="7" horiz-adv-x="960" d="M166 -12q0 14 10 28.5t21 24.5q18 18 36.5 46t35 57.5t32.5 58t31 51.5q23 35 67.5 104.5t100 155.5t118 180t118 179t98.5 153t63 98q-104 2 -206.5 2t-207.5 -4q-6 0 -22.5 -2t-34.5 -5t-34.5 -5t-22.5 -2q-29 0 -47.5 7t-18.5 20q0 2 3 9t3 9l35 100q133 -4 265 -4 h265q10 0 30 1t42 3q23 2 42.5 3t27.5 1q4 0 24.5 -3t20.5 -19q0 -8 -50 -84t-141 -205q-10 -16 -41.5 -63t-76.5 -116t-100.5 -152t-112 -166.5t-109.5 -163.5t-95 -143.5t-70.5 -103.5t-33.5 -46q-14 -16 -34 -17q-4 0 -17.5 1t-13.5 12z" />
<glyph unicode="8" horiz-adv-x="960" d="M94 223q0 74 42 140.5t101.5 122t125 98t112.5 71.5q-14 16 -37.5 46t-47 70t-40 89t-16.5 105q0 43 22.5 99t69.5 107.5t118.5 87t172.5 35.5q90 0 141 -27.5t77 -64.5t32 -71.5t6 -49.5q0 -59 -27.5 -109t-75 -95.5t-111 -89.5t-136.5 -91q27 -31 57.5 -68.5t56 -81.5 t42 -95.5t16.5 -108.5q0 -76 -29 -142.5t-80 -116.5t-122.5 -79t-157.5 -29q-82 0 -141.5 25t-97.5 62.5t-55.5 80.5t-17.5 80zM229 190q0 -47 17.5 -78.5t44 -52t59.5 -30t64 -9.5q55 0 101 21.5t80 57.5t53.5 85t19.5 105q0 51 -16.5 99t-40 90t-51 78t-52.5 65 q-31 -20 -78 -57.5t-91 -90.5t-77 -123.5t-33 -159.5zM467 997q0 -41 12.5 -78.5t30.5 -71.5t40 -63.5t40 -54.5q45 33 92 72t85 84t62.5 98t24.5 117q0 51 -18.5 81.5t-45 47t-53 21.5t-41.5 5q-57 0 -100 -24.5t-71.5 -62.5t-43 -84t-14.5 -87z" />
<glyph unicode="9" horiz-adv-x="960" d="M57 -12q2 29 10.5 37t36.5 14q78 20 157 69.5t150.5 113t131 132t98.5 127.5q31 47 71 124t75.5 163t60 169t24.5 142q0 51 -13 83t-32.5 50.5t-40 24.5t-34.5 6q-78 0 -147.5 -53t-122 -132t-83 -167t-30.5 -158q0 -47 27.5 -84t68.5 -37q23 0 48.5 7.5t41.5 15.5 q4 2 15.5 9t13.5 7q10 0 12 -13t2 -17q0 -18 -19.5 -33t-46 -24t-55 -13t-47.5 -4q-53 0 -90 21.5t-59.5 55t-32.5 72.5t-10 74q0 104 47 199.5t118.5 167t158.5 114.5t165 43q94 0 145.5 -41t75 -93t27.5 -101t4 -68q0 -141 -57.5 -284.5t-156.5 -272.5t-233.5 -235.5 t-287.5 -173.5q-8 -4 -33 -12.5t-53 -16.5q-33 -10 -70 -21q-8 0 -17.5 5.5t-13.5 7.5z" />
<glyph unicode=":" horiz-adv-x="448" d="M29 84q0 57 36.5 83t69.5 26q41 0 75 -29t34 -70q0 -47 -31 -80.5t-76 -33.5q-41 0 -74.5 30.5t-33.5 73.5zM221 698q0 59 36 87t71 28q43 0 72.5 -35t29.5 -73q0 -37 -27.5 -74t-80.5 -37q-47 0 -74 31.5t-27 72.5z" />
<glyph unicode=";" horiz-adv-x="448" d="M-20 -283q6 4 18 14.5t26.5 20.5t26.5 19.5t17 13.5q49 41 76.5 86t27.5 80q0 18 -10 30.5t-43 43.5q-39 33 -39 81q0 16 6 39t18.5 44.5t29 37t34.5 15.5q45 0 78 -51.5t33 -122.5q0 -82 -37 -150t-86.5 -118t-97.5 -80.5t-68 -41.5zM248 705q0 53 34.5 81.5t75.5 28.5 q47 0 74 -31.5t27 -70.5q0 -8 -6 -37t-39 -60q-16 -10 -28.5 -14t-29.5 -4q-37 0 -72.5 26.5t-35.5 80.5z" />
<glyph unicode="&#x3c;" horiz-adv-x="1366" d="M111 598v78l1071 452v-96l-955 -395l955 -397v-99z" />
<glyph unicode="=" horiz-adv-x="1366" d="M213 360v89h1071v-89h-1071zM213 823v88h1071v-88h-1071z" />
<glyph unicode="&#x3e;" horiz-adv-x="1366" d="M231 141v97l955 395l-955 397v98l1072 -456v-78z" />
<glyph unicode="?" horiz-adv-x="747" d="M227 72q-2 35 9.5 59.5t28 39.5t34.5 21.5t31 6.5q20 0 35.5 -10.5t25.5 -26t15.5 -32.5t5.5 -32q0 -20 -7.5 -41.5t-19.5 -40t-30.5 -30t-43.5 -11.5q-41 0 -62.5 32t-21.5 65zM254 434q0 59 19.5 109.5t52 93.5t73.5 79t84 66q78 57 133.5 98.5t90 76t51 67.5t16.5 72 q0 35 -17.5 63.5t-43 50t-57 33.5t-62.5 12q-55 0 -92 -17t-60.5 -44t-36 -55.5t-20.5 -53.5q-20 -4 -28.5 -4t-22.5 2q12 76 49 120t79 66.5t80 28t56 5.5q14 0 56 -7.5t87 -35t79 -80t34 -144.5q0 -59 -17.5 -104t-46 -81t-68.5 -66.5t-83 -63.5q-86 -57 -146.5 -100 t-100.5 -80t-58.5 -72t-18.5 -74t30 -64.5t71 -25.5q27 0 50 17.5t40.5 41t29 47t15.5 35.5q16 -2 31 -14q-2 -35 -19.5 -66.5t-42 -55t-54.5 -38t-58 -14.5q-33 0 -62 15.5t-49.5 40t-31.5 56t-11 64.5z" />
<glyph unicode="@" horiz-adv-x="1884" d="M143 344q0 211 76 391t205 310.5t301 204t365 73.5q182 0 316 -58.5t223 -154.5t132 -220t43 -253q0 -115 -34.5 -240t-104.5 -228t-173 -171t-241 -68q-66 0 -108.5 31t-42.5 107q0 41 5 75.5t13 67.5l-4 4q-31 -39 -74 -88t-93 -93t-107.5 -74t-116.5 -30 q-47 0 -81 22.5t-56.5 57.5t-32.5 75t-10 77q0 119 54 242.5t136 226t178.5 168t182.5 65.5q63 0 108 -32.5t62 -106.5h4l30 111l158 22l-117 -399q-33 -113 -52 -179.5t-28.5 -105.5t-11.5 -58.5t-2 -37.5q0 -6 3 -19.5t11.5 -26t22.5 -21.5t37 -9q72 0 147.5 50t137 138.5 t101.5 208t40 256.5q0 131 -46 243t-131 195t-205 130t-265 47q-201 0 -359.5 -83t-269.5 -217t-170 -305t-59 -348q0 -180 58 -327.5t162.5 -252t248 -161.5t313.5 -57q106 0 221 27.5t221.5 92t199.5 170t161 263.5h57q-49 -154 -141 -269.5t-209 -192.5t-250 -115 t-266 -38q-184 0 -344 65.5t-276.5 183.5t-184.5 281t-68 357zM700 193q0 -49 31 -95.5t84 -46.5q68 0 140.5 56.5t133 146.5t100.5 200.5t40 219.5q0 53 -32 98t-91 45q-49 0 -98.5 -33.5t-94.5 -89t-83.5 -124t-67.5 -138.5t-45.5 -133t-16.5 -106z" />
<glyph unicode="A" horiz-adv-x="1492" d="M-168 25q8 2 32.5 5t51.5 6t50.5 5t31.5 4q18 4 32.5 10t33 21.5t45 42t69.5 74.5q8 8 56.5 54t116 110.5t145 139t146.5 139t116 110t53 53.5q51 49 122 117.5t143.5 141t137 139.5t101.5 112h59q0 -6 -1 -19.5t-3 -29t-3 -29.5t-1 -19q0 -10 -3 -65t-9 -134t-12.5 -171 t-12.5 -174t-10 -143.5t-6 -80.5q-4 -37 -6 -59.5t-3 -41.5t-2.5 -40.5t-1.5 -56.5l-12 -178v-5q0 -6 2 -8t25.5 -6t53.5 -9t57.5 -11t37.5 -9l-4 -36q-18 4 -46 7t-56 5q-29 2 -55.5 3t-42.5 1t-52.5 -2t-77.5 -6t-74.5 -6t-47.5 -2h-15.5h-26t-26.5 1t-16 1q0 20 2 30 q10 2 34.5 6.5t52 8.5t51 7t34.5 3q16 2 25.5 5t14.5 11.5t7 24.5t6 47q8 76 12 121t7.5 77.5t4.5 59.5t3 64q0 10 1 18t3 18h-33q-6 0 -22.5 -1t-34 -1t-33 -1t-21.5 -1h-65t-131 -1t-158 -3t-145 -6q-27 -23 -74 -65.5t-95 -89t-87 -84t-50 -50.5q-31 -33 -50 -52 t-28.5 -31.5t-12.5 -17.5t-3 -11q0 -23 27 -28t43 -5l121 -16q-4 -16 -5 -21.5t-6 -15.5q-45 4 -71.5 7t-44 4t-30.5 1h-30q-18 0 -62 -2t-93 -4t-93.5 -3t-60.5 1zM598 532q0 -6 9 -9t16 -3h28.5h60h65.5t44 2q9 -1 36 -1h31q54 1 115.5 4t114.5 7.5t66 8.5q2 10 6 54 t9 105.5t10 131t9.5 130t7.5 104.5t3 54q-6 -4 -20.5 -15t-32 -25.5l-35 -29t-31.5 -26.5q-55 -53 -115.5 -109.5t-118 -110.5t-106.5 -99.5t-80 -71.5l-21.5 -21.5t-30.5 -33t-28 -32.5z" />
<glyph unicode="B" horiz-adv-x="1193" d="M-10 5q0 5 6 18q8 2 34.5 4t56.5 4t56.5 5t36.5 7q8 4 16.5 15.5t22.5 50.5q16 45 34.5 98t37 104t34 94.5t23.5 67.5l111 334q2 4 12 32.5t24.5 68.5t31 88t30.5 90t23.5 74t9.5 40q0 33 -24.5 41t-78.5 16q-10 2 -35.5 6.5t-33.5 4.5q-16 0 -29 10l10 27h36h53.5t53 1 t36.5 1l67 -2q8 0 27.5 1t43 1t43 1t27.5 1q80 0 136.5 -3t97.5 -9.5t69.5 -15.5t51.5 -21q55 -31 94 -89.5t39 -121.5q0 -51 -12.5 -88t-33 -64t-45 -46.5t-48.5 -37.5q-18 -14 -34 -23.5t-35 -19.5t-50 -22.5t-80 -30.5v-4q31 -10 71 -26.5t74.5 -49.5t59 -84t24.5 -129 q0 -53 -17.5 -105.5t-46 -100.5t-68.5 -86t-85 -62q-29 -16 -62.5 -31.5t-79.5 -28t-110.5 -19.5t-156.5 -7q-12 0 -37 1t-50.5 3l-51 4t-40.5 6q-18 2 -31.5 2h-39.5q-16 0 -48 -1t-68 -3t-69.5 -4t-54.5 -4q-12 -2 -20.5 -3t-12.5 -1l-24 6q-2 10 -2 15zM369 88 q0 -25 16 -33t27 -12q8 -2 23.5 -5t29.5 -5t26.5 -4t16.5 -2q63 0 113.5 3t90.5 12t75.5 26.5t72.5 48.5q23 18 49.5 50t48 74t36 90t14.5 99q0 57 -11.5 96t-30 64.5t-43 41t-51.5 27.5q-6 2 -21 7.5t-30.5 8.5t-29 6t-15.5 3q-12 0 -40.5 -1t-61.5 -3t-63 -3t-42 -1 q-35 -100 -55 -160.5t-32.5 -95.5t-19.5 -53.5t-13 -34.5q-12 -31 -26.5 -66t-26 -68.5t-19.5 -62.5t-8 -47zM586 731q32 -2 68 -3h24q25 0 51 1q39 2 75 6t64 13q61 14 108.5 46.5t80.5 75.5t50 89.5t17 89.5q0 55 -23.5 102t-49.5 68q-29 20 -84.5 32.5t-120.5 12.5 q-18 0 -41 -1t-33 -1q-16 -16 -22.5 -26.5t-12.5 -33.5l-14 -49t-22.5 -74t-22.5 -74.5t-14 -50.5q-10 -29 -23.5 -64.5t-25 -69.5t-19.5 -59.5t-10 -29.5z" />
<glyph unicode="C" horiz-adv-x="1366" d="M199 457q0 53 13 110.5t30.5 106.5t34 84t22.5 43q41 59 69.5 97t58.5 69.5t67.5 63.5t97.5 79q39 20 93 54t97 50q53 20 88 33t67 22t67.5 17t93.5 21q35 6 70.5 9t68.5 4t56.5 2t33.5 1q47 0 95 -4t91 -9t76 -11.5t49 -10.5l-15 -45t-24.5 -67.5t-25.5 -66.5t-17 -44 l-34 -2v22.5t2 24.5q0 6 3 21.5t6 32t6 31.5t3 22q0 23 -21.5 33t-86.5 22q-16 4 -49 9t-66 5q-162 0 -291 -51t-246 -123q-119 -72 -198.5 -166t-127.5 -188t-68.5 -178t-20.5 -136q0 -25 1 -60.5t8 -76.5t22.5 -81t43.5 -70q18 -23 51 -47.5t75 -47t93.5 -37t108.5 -14.5 q201 0 309 82q18 14 38 32.5t37 35t28.5 31t15.5 18.5q18 27 28.5 44t16.5 26.5t9 14.5t8 9l26 -2q0 -14 -11 -49t-24.5 -73t-25 -66.5t-11.5 -30.5l-92 -45q-23 -10 -65.5 -22.5t-95 -22.5t-108.5 -17.5t-103 -7.5q-78 0 -144.5 12.5t-121 32t-92.5 42t-56 42.5 q-72 76 -104.5 161t-32.5 200z" />
<glyph unicode="D" horiz-adv-x="1556" d="M-2 -4l8 35q10 2 40 6t40 4q41 0 65.5 3t38 8t19.5 13.5t10 18.5q49 113 82 203t59.5 170t50 155.5t52.5 161.5q18 55 30.5 89t23.5 62.5t21.5 60.5t26.5 83q0 4 9.5 28.5t20.5 52.5t19.5 51.5t8.5 27.5q0 23 -20.5 25.5t-65.5 7.5q-20 2 -40 3t-36 3q-37 0 -45 4 q4 16 12 37h555q123 0 205 -7.5t136 -20.5t88 -31.5t63 -39.5q86 -63 124.5 -157.5t38.5 -216.5q0 -92 -33.5 -185.5t-91 -180.5t-133 -163t-161.5 -133q-53 -35 -109.5 -66.5t-127.5 -56t-160 -39t-206 -14.5l-243 2h-76t-135 -4h-164zM383 111q0 -47 64.5 -59.5 t185.5 -12.5h36.5t32.5 2q63 6 121 18.5t115 28.5q6 2 21.5 9t33 16.5t33.5 16.5t23 11q4 2 14 10.5t21.5 16.5t21.5 16.5t14 10.5q49 29 113.5 96t124.5 164q33 53 54.5 110.5t33.5 109.5t17 95t5 68q0 41 -10 84t-22.5 77.5t-23.5 58t-13 27.5q-25 37 -48.5 63t-50 43 t-56.5 28.5t-68 23.5q-10 2 -40 6t-64 8.5t-61.5 6.5t-29.5 2q-41 0 -99.5 -2t-95.5 -9q-12 -31 -36.5 -98t-54 -152t-61.5 -175.5t-58.5 -166t-44 -126t-17.5 -54.5q-23 -55 -46.5 -116.5t-41.5 -114.5t-30.5 -93t-12.5 -48z" />
<glyph unicode="E" horiz-adv-x="1472" d="M-20 -10v24q26 14 65 14h3q3 0 6 -1q37 0 63 6q33 6 49 9t35 21q12 12 18 33t14 45q2 2 16.5 46t36 105.5t44 127t39.5 115.5l100 292q27 82 44 130.5t28.5 78t18.5 49t15 43.5q4 12 9.5 34t5.5 44q0 14 -4 23.5t-23.5 15.5t-58.5 11.5t-107 13.5l9 33q10 2 36.5 2 t57.5 -2q31 0 57.5 -1.5t34.5 -3.5q2 0 30.5 1t70.5 2.5t92.5 2.5t97.5 2t85 1t54 2l82 -2h60h88h87h58h34.5h52t53.5 1t38 1l-55 -224q-16 -2 -33 0l-2 78l4 58q0 16 -4 24t-19 19q-20 2 -54 3t-116 1q-18 0 -63 -1t-94 -1t-92 -1t-60 -1q-80 0 -125 -1t-66.5 -5.5 t-28.5 -12.5t-13 -20q-8 -23 -26.5 -77t-39 -113.5t-39 -113t-24.5 -73.5q-10 -29 -22.5 -71t-16.5 -64q6 0 42 2t86 4t109.5 5t113.5 6t98 5t65 2q49 2 81.5 7.5t58.5 22.5t49.5 49t53.5 87l39 2q-6 -23 -26.5 -83t-43 -126.5t-43 -125t-28.5 -78.5l-29 2q2 23 6.5 59.5 t4.5 62.5q0 23 -9.5 43.5t-35.5 24.5q-4 0 -21.5 1t-42 2t-52.5 2t-48 1q-4 0 -57.5 -2t-125 -5t-145.5 -8t-119 -11q-4 -10 -11 -32t-15.5 -46.5t-14.5 -44t-8 -25.5q-4 -10 -18.5 -45t-31.5 -81t-36.5 -98t-37 -97t-28 -79t-10.5 -42q0 -16 14.5 -25.5t33 -13.5t34.5 -5 l15 -1q2 0 32.5 1t74.5 2t97.5 2t102.5 3t88 4t57 4q92 10 174 39t164 88l36 36t77 97h17t16 -2q4 -10 2 -17t-13 -24q-14 -33 -30.5 -72.5t-34 -77.5t-30.5 -68t-21 -42q-10 0 -34 -1t-50.5 -1h-50h-31.5l-336 -4l-221 -4h-76q-82 0 -148.5 -1t-89.5 -3z" />
<glyph unicode="F" horiz-adv-x="1216" d="M-10 -12q0 10 1 16t7 23q10 2 41 4t63.5 5t58 5t29.5 4q10 6 21.5 28.5t23 53.5t21.5 64.5t18 60.5q8 25 28 83t41.5 122.5t40.5 121t28 78.5q18 74 33.5 127.5t28.5 98.5t26.5 85t27.5 83q4 12 12.5 38.5t16.5 55.5t14.5 52.5t6.5 29.5q0 23 -20.5 28t-37.5 7 q-4 0 -23.5 1t-43 2t-46 1h-32.5l6 39q15 1 43 1h30q50 -1 107 -3q59 0 109.5 -1.5t68.5 -1.5t61.5 1t91.5 2.5t90 2.5t58 1h64t63 -2h54q12 0 43.5 1t67.5 1t67 1t43 1q0 -8 -8.5 -40t-19.5 -69t-20.5 -69.5t-11.5 -38.5h-36q4 16 7 35.5t3 41.5q0 37 -12.5 56.5t-34 29 t-48 9.5h-55.5l-39 2q-8 0 -27.5 -1t-41 -1t-41 -1t-25.5 -1l-143 2q-12 0 -31.5 -2t-42 -4.5t-45 -5.5t-39.5 -5q-12 -39 -27.5 -93t-27.5 -91q-6 -16 -17.5 -55t-23.5 -82t-23.5 -82t-15.5 -53q-4 -10 -5 -17.5t-5 -21.5h299l116 4q41 2 66 4t43 16.5t37.5 44t50.5 86.5 l29 -4q-2 -12 -13.5 -46t-25.5 -73t-27.5 -74.5t-19.5 -50.5q-2 -8 -8.5 -28.5t-13.5 -43t-13 -42t-8 -27.5q-14 -2 -19.5 -2h-13.5q0 8 4 30.5t8 47t7 47.5t3 31q0 14 -5 22t-23.5 11.5t-54 4.5t-95.5 1q-12 0 -32.5 -1t-94.5 -3l-86 2q-6 0 -24.5 -1t-40 -2t-41 -2.5 t-25.5 -1.5q-8 -23 -24.5 -77t-35 -114t-34.5 -113.5t-25 -73.5q-25 -66 -38 -105t-21 -64.5t-12 -45t-10 -46.5l3 -9t5 -7q12 -4 40.5 -7t60.5 -6t60.5 -6t38.5 -5q0 -12 -1 -17.5t-3 -15.5l-61 -2q-12 0 -42 1t-65 5t-63.5 5t-38.5 1q-18 0 -62 -1t-96 -5q-49 -4 -92 -5 t-59 -1z" />
<glyph unicode="G" horiz-adv-x="1409" d="M184 477q0 68 12.5 134.5t41.5 127.5q4 8 23.5 45t55 87.5t88 106.5t119.5 103q53 37 121 76t127 57q88 37 136 49.5t89 18.5q45 6 82 11t75 8.5t80 5.5t97 2q33 0 78 -3t89 -8.5t81 -10.5t53 -7q0 -12 -10 -45t-24.5 -67.5t-28 -66.5t-17.5 -40l-41 6q0 8 3.5 31.5 t8.5 48t8 46t3 28.5q0 18 -12.5 24t-42.5 10q-31 4 -46.5 6.5t-25.5 2.5h-75.5t-47 -1t-33 -2t-32.5 -4q-16 -4 -56.5 -8t-75.5 -8q-12 -2 -33.5 -7t-42 -12.5t-37 -12.5t-20.5 -7q-53 -20 -102 -43.5t-99.5 -56.5t-103.5 -79t-114 -114q-35 -37 -67 -87t-57.5 -108.5 t-41 -124t-15.5 -132.5q0 -86 28 -175t105 -163q59 -55 144.5 -78t171.5 -23l33 1q34 1 77 7.5t86 18.5t64 35q14 16 33.5 60t36 93.5t29 90.5t12.5 53q0 27 -17.5 34t-46.5 11q-4 0 -25.5 3t-48 6t-49 6t-24.5 3q0 6 1 11.5t5 17.5h153q20 0 73.5 1t112 1h109.5t70 -2v-15 t-4 -16q-47 -12 -76 -19t-44 -16.5t-23.5 -23.5t-14.5 -39q-4 -16 -18.5 -57t-29.5 -86t-28.5 -85t-17.5 -55q-4 -18 -9 -22t-22 -8q-84 -16 -143.5 -27.5t-108.5 -19t-98 -10.5t-113 -3q-88 0 -163.5 21.5t-106.5 36.5q-49 27 -99.5 59.5t-91 82.5t-66.5 125t-26 185z" />
<glyph unicode="H" horiz-adv-x="1642" d="M8 27q10 0 35 2t53.5 5t53 8t34.5 11q33 39 57.5 118t57.5 177q33 96 59.5 183t42.5 122l119 336q29 82 45.5 129t23.5 73t8 37t-1 21q-8 2 -29.5 3t-44 3t-43 3.5t-28.5 3.5l-35 4q-2 16 0 26.5t4 16.5h98q43 -2 88 -4t88 -5q12 0 50 1.5t79 3.5q43 2 80 3t47 1 q2 -16 1 -22.5t-5 -16.5q-8 0 -36.5 -5t-37.5 -5q-39 0 -72.5 -4.5t-47.5 -12.5q-10 -25 -25.5 -67.5t-32 -91t-32 -94.5t-23.5 -77q-4 -8 -14.5 -35.5t-23.5 -61.5t-24.5 -66.5t-17.5 -49.5q10 -4 36 -6t36 -2l252 -2q14 0 52 1t79 1t77.5 1t51.5 1h41l100 -4h105 q4 4 19 45t35.5 100.5t43 127l42 126t33 97.5t13.5 41q0 6 -2 13t-2 11l-19.5 6.5t-23.5 4.5q-63 4 -89 6t-48 6l6 35h168h166q53 0 99 -1t64 -1v-18.5t-2 -16.5q-10 -2 -36.5 -4t-56.5 -5t-53.5 -7.5t-25.5 -6.5q-2 -4 -18 -54t-36.5 -113.5t-40 -123t-28.5 -81.5 q-6 -16 -19 -58.5t-32.5 -97.5t-40 -114.5t-38 -111t-29 -85t-13.5 -35.5q-4 -12 -21.5 -57.5t-35.5 -97.5t-32.5 -98t-14.5 -61q10 -10 21.5 -12t56.5 -8q8 -2 26.5 -4t40 -5t40 -5t24.5 -4q-4 -10 -6 -15.5t-6 -15.5q-10 2 -23.5 3t-28.5 1l-184 2l-68 2q-14 0 -49 -1 t-75 -3q-39 -2 -73 -3t-48 -1l8 33q25 2 39 4t23.5 3t15.5 2t14 1q55 6 70.5 9t25.5 9l17 47q16 47 39.5 110.5t46 129.5t35.5 102q14 41 37.5 98.5t33.5 100.5h-57q-4 0 -17.5 3t-17.5 3l-156 -2l-59 -2l-455 -6q-35 0 -45 -1t-28 -5q-2 -4 -9.5 -26.5t-16.5 -51.5 t-17.5 -55.5t-10.5 -34.5q-16 -41 -38.5 -104.5t-45 -126t-40 -112.5t-21.5 -65q10 -2 39 -5t59.5 -8t58 -8t38.5 -5q0 -8 -1.5 -18.5t-5.5 -20.5h-45t-33.5 1t-32 2t-40.5 3q-27 2 -70 3t-71 1q-14 0 -47 -1t-68 -3q-37 -2 -69 -4t-44 -2q-3 10 -3 15q0 1 3 22z" />
<glyph unicode="I" d="M12 -8q-1 5 -1 9t1 7q2 6 6 17q10 2 35 5t50.5 8t49 10t29.5 9q14 8 24.5 22.5t26.5 63.5q10 33 38 109t57.5 161t55.5 159.5t36 103.5q25 78 57.5 167t57.5 167q4 14 16 45.5t24.5 66.5t21.5 65t9 40q0 23 -21.5 29t-33.5 8q-8 0 -28.5 1t-42 2t-41 3t-25.5 2v37 q12 4 17 4h20q8 0 29.5 -1t45 -1t45 -1t29.5 -1t28.5 1t43 1t43 1t26.5 1h215v-31q-10 -2 -32.5 -5t-48 -7t-47 -8.5t-29.5 -8.5q-10 -4 -24.5 -27.5t-26.5 -49.5q-14 -31 -29 -70q-4 -8 -18.5 -47t-31 -86t-31.5 -89t-20 -55q-12 -35 -30.5 -89t-40 -116.5t-44 -128 t-43 -123t-35.5 -101.5t-24 -62q-12 -35 -20 -54.5t-12 -30.5t-5.5 -18.5t-1.5 -15.5q0 -33 13.5 -40t46.5 -11q8 0 28.5 -2t42 -5t41 -5t25.5 -4l-4 -35h-94l-101 6q-10 0 -22 1t-25 3q-14 0 -25.5 1t-21.5 1q-12 0 -31.5 -1t-41 -2t-42 -3t-34.5 -2h-105z" />
<glyph unicode="J" horiz-adv-x="704" d="M-324 -401q0 4 2.5 16t11.5 25.5t25.5 22.5t46.5 9q29 -10 48.5 -31.5t35.5 -43.5q6 -10 20.5 -26.5t41.5 -16.5q31 0 59.5 18t52 43t40 47.5t22.5 32.5q23 35 35 63.5t28 67.5q16 37 33 82t32 91t29.5 91t26.5 80l76 219q2 10 11 38t14 36q8 29 28.5 94.5t46 146 t52 166.5t50 159t38 121t16.5 52q4 10 -2 23q-16 10 -32.5 17t-63.5 18q-10 2 -44 5t-44 7l6 35h65q16 0 66.5 -2t108.5 -3q21 -1 42 -1q35 0 68 1q53 3 78 9q18 2 47 2h49q0 -8 -1 -13.5t-5 -17.5q-4 0 -28.5 -5t-53.5 -11t-53.5 -13.5t-30.5 -13.5t-19.5 -40t-27.5 -75 t-26.5 -77.5t-14.5 -47.5q0 -2 -9 -31.5t-24.5 -73.5t-32 -95t-32 -96.5t-26.5 -77t-13 -35.5q-35 -106 -55.5 -173t-40 -122t-41 -115.5t-56.5 -156.5q-10 -29 -29.5 -74t-45 -95.5t-55 -99.5t-60.5 -82q-29 -31 -66 -62.5t-76.5 -56t-81.5 -41t-79 -16.5q-2 0 -31 3 t-62.5 14.5t-61.5 31t-28 54.5z" />
<glyph unicode="K" horiz-adv-x="1216" d="M10 4q0 2 1 5t5 20q16 2 43 6t54.5 13t50 21.5t33.5 28.5q10 16 16 28.5t13 30t16.5 44t23.5 69.5q18 57 43 130t51.5 148t52 146.5t46.5 128.5l116 326q16 41 18.5 54.5t-1.5 29.5q-20 12 -34.5 16t-43.5 8q-35 6 -64.5 9.5t-58.5 5.5l2 37q10 0 43 -2t73 -4.5t81 -4.5 t72 -2h30q23 0 52.5 2t61.5 4.5t61.5 4.5t52.5 2q8 -27 -11 -47q-23 -4 -48 -5.5t-48 -5.5q-16 -2 -26.5 -6t-20.5 -21.5t-25.5 -55.5t-40.5 -107q-18 -53 -46.5 -124t-49.5 -122q-4 -10 -13 -34.5t-19.5 -51.5t-19.5 -49.5t-11 -30.5l4 -4q25 23 66.5 49.5t70.5 48.5 q12 10 43 33t64.5 47.5t63.5 47t40 32.5q6 4 33.5 26.5t67.5 54.5t84 70t82 71.5t62.5 59t26.5 36.5q-10 8 -21 14t-28.5 11t-42 9.5t-63.5 8.5v45q18 -2 45.5 -4t68.5 -9q31 -4 69 -5t60 -1q4 0 15.5 1t23.5 3q14 0 25.5 1t15.5 1h105v-32l-27 -11q-41 -6 -80 -23.5 t-82 -46t-91 -67.5t-107 -88q-16 -10 -52 -38.5t-77 -60.5t-77 -59.5t-50 -35.5q-10 -8 -34 -25.5t-50.5 -37t-49 -37t-30.5 -23.5l21 -37q20 -37 45.5 -81t47 -81t21.5 -39q4 -8 21.5 -36.5t41 -67.5t50 -83t51 -82t45 -66.5t31.5 -37.5q16 -12 30.5 -21t32.5 -15.5 t46 -13.5t73 -17l4 -43h-57q-57 8 -127 13t-129 9q-10 12 -34 50t-53.5 90.5t-63.5 112t-64.5 112.5t-55 95t-37.5 60q-2 2 -10 17.5t-18.5 32t-18.5 32t-10 19.5q-4 -4 -16.5 -11.5t-25.5 -16.5t-25.5 -17t-14.5 -13q-6 -10 -18.5 -43.5t-25.5 -73.5t-24.5 -76t-17.5 -50 q-41 -106 -58.5 -170t-17.5 -68q0 -12 18.5 -22.5t46 -18.5t62.5 -14t68 -12l4 -37q-51 2 -133 5t-152 5l-80 -4h-17t-28 -2q-14 -2 -26.5 -3t-16.5 -1h-86q-4 4 -4 14z" />
<glyph unicode="L" horiz-adv-x="1323" d="M-10 -8l4 39q8 2 30.5 4t47 4t46 4t29.5 4q45 10 58.5 33.5t21.5 48.5q2 6 9.5 27.5t16.5 47t17.5 48t12.5 33.5l180 510q6 14 19.5 55t28.5 84t26.5 76.5t11.5 36.5q6 16 12 36.5t11.5 40t8.5 33.5t3 19q0 23 -13.5 36t-31 20t-32.5 9t-18 2q-16 2 -42.5 5t-55.5 7l4 37 q106 -2 173 -2h107h60.5h36.5h57q6 0 23.5 1t37 1h37h23.5q-4 -16 -6 -22t-8 -21q-59 -2 -103.5 -12t-54.5 -18t-25.5 -43t-29.5 -77t-27.5 -83t-19.5 -62l-117 -336q-2 -6 -9 -23t-14.5 -35.5t-13.5 -36t-8 -23.5q-4 -10 -14.5 -41t-24.5 -72t-28.5 -85t-27.5 -82 t-21.5 -63.5t-8.5 -29.5q-2 -10 -2 -15.5v-9.5q0 -45 26.5 -55t67.5 -14q18 -2 47 -4t59.5 -3t60.5 -1h50q135 0 239.5 12t192.5 63q25 14 58 40t64.5 55.5t59 57.5t44.5 48l39 -2q-4 -10 -16.5 -36.5t-30 -60.5t-36 -71t-33.5 -67.5t-26.5 -51t-11.5 -22.5h-240l-186 2 l-76 2l-200 -2q-61 0 -111.5 2t-91.5 4t-70.5 2h-54.5q-6 0 -21.5 -1t-33.5 -3q-16 -2 -33 -3t-23 -1h-110z" />
<glyph unicode="M" horiz-adv-x="1622" d="M-61 -4l10 37q8 2 32.5 7t52 11t54.5 16.5t43 24.5q20 18 64.5 99t95.5 198q10 25 32.5 75t51 112.5t59.5 130t58.5 129t49 109.5t31.5 71q12 29 26.5 59.5t27 58t20.5 50t8 33.5q0 35 -15 44t-36 13l-176 14l2 35q37 0 87 1h51h50q52 -1 100 -3t83 -4q8 -92 13 -165 t9 -147.5t7.5 -160.5t7.5 -203q0 -6 1 -37t2 -74t3 -92t3 -92t2 -73.5t3 -36.5q14 16 51 69t84 131q23 37 52.5 88t52.5 88l188 310q18 31 42 69.5t47.5 78.5t47 79t43.5 70l68 102q23 2 52.5 2h59.5h41t60 -1t57.5 -1h34.5q4 -16 4 -20.5t-2 -14.5q-8 -2 -27.5 -7t-41 -10 t-41 -9.5t-27.5 -6.5q-12 -8 -20.5 -15t-14.5 -19.5t-11 -31t-14 -50.5q-2 -8 -14 -56.5t-31.5 -123t-43 -167t-48 -188.5t-48 -186t-42 -162t-30 -115t-11.5 -45q0 -14 8 -23.5t33 -13.5q8 -2 27.5 -5t42 -7t43 -8t30.5 -6q4 -16 2 -19.5t-8 -19.5q-10 0 -55 3t-98.5 6 t-102.5 5t-67 2q-8 0 -26.5 -1t-39 -3t-39 -3t-24.5 -1h-58q-4 12 -5 18.5t3 24.5q51 4 83 7t50.5 8t27.5 12.5t20 21.5q8 10 21 53t28.5 94.5t28 99.5t16.5 67l209 804l-4 4q-8 -10 -13.5 -18t-21.5 -37l-217 -350q-29 -45 -45.5 -70.5t-32 -51t-34.5 -59.5t-52 -91 q-2 -10 -15 -25l-206 -332q-35 -55 -70 -110.5t-70 -108.5h-34q0 12 1 44t2 68t1 66.5v42.5q0 25 -2 84.5t-4.5 126t-4.5 124.5t-2 81l-12 344q0 8 -2 36t-3 58.5t-3 57t-2 32.5h-4q-18 -33 -46 -93t-60 -135t-64.5 -151.5t-59 -141t-44 -106.5t-17.5 -44 q-6 -16 -27.5 -66.5t-45 -106t-42.5 -99.5l-18 -44q-4 -10 -8.5 -25.5t-4.5 -19.5q0 -8 7.5 -18t31.5 -17q8 -2 34 -7t53.5 -11t52 -11t32.5 -7l-8 -43q-37 2 -80 4t-90 6t-93 5t-83 1h-31.5h-46h-45h-28.5z" />
<glyph unicode="N" horiz-adv-x="1642" d="M-6 0q0 29 14 37q6 0 29.5 2t50.5 5t50.5 6t33.5 7q14 6 24.5 13.5t21.5 28t24.5 56t36.5 97.5q2 8 10 33.5t16 54.5t16.5 56.5t12.5 41.5q18 55 33.5 100.5t29 88.5t25.5 87l27 99q6 20 15 47t18.5 54.5t17.5 54t14 47.5l47 190q0 23 -20.5 31t-67.5 18q-6 0 -23.5 2.5 t-36 4.5t-35 4t-22.5 4l6 35h363l291 -543q41 -78 84 -159t76 -157q2 -8 12 -26.5t21.5 -38t20.5 -37.5t13 -25q4 -10 17.5 -38.5t29 -59.5t26.5 -55.5t13 -26.5l144 418q4 12 19 59.5t35.5 112t43 138t41 138t31 113.5t12.5 64q0 31 -8.5 42t-34.5 17q-37 10 -80 14.5 t-82 10.5q-14 4 -16 39q39 0 113.5 -4.5t152.5 -4.5q47 0 82 1t61 3q25 0 41.5 1.5t22.5 1.5q0 -10 -1 -32t-12 -22q-6 -2 -22.5 -3t-32.5 -2t-31.5 -2t-21.5 -3q-20 -6 -32.5 -12t-24 -26.5t-24.5 -62.5t-36 -120t-54.5 -174t-65 -196.5t-65.5 -197t-57 -174.5l-22 -53 q-10 -35 -33.5 -108.5t-52.5 -153.5h-43q-2 4 -11.5 25.5t-21.5 48t-25.5 52.5t-23.5 40q-4 6 -14.5 30.5t-14.5 30.5q-6 12 -22.5 41t-33.5 61t-33.5 59.5l-22.5 37.5q-4 6 -34 64.5t-74 144.5t-96 186.5t-99.5 189.5t-83 153.5t-48.5 78.5q-8 -18 -21 -59t-27.5 -90 t-28 -98.5t-21.5 -82.5q-14 -41 -36.5 -111.5t-47 -154.5t-50.5 -172t-46.5 -160.5t-32.5 -122t-12 -55.5t3 -14t3 -12q18 -8 32.5 -10.5t49.5 -10.5l149 -35v-15t-4 -15q-20 2 -60 4t-85 4q-47 4 -89 5t-65 1q-8 0 -29.5 -1t-43.5 -3q-23 -2 -41.5 -2h-20.5q-6 0 -20.5 1 t-29.5 2t-29.5 2t-20.5 1z" />
<glyph unicode="O" horiz-adv-x="1429" d="M238 520q0 78 17 160t53 162t90.5 154.5t127.5 138.5q39 33 82 66.5t103.5 60t140 44t192.5 17.5q10 0 40 -3t69 -15.5t84 -37t88 -65.5q18 -18 47 -50t55.5 -84t45 -128t18.5 -184q0 -70 -24.5 -156t-69.5 -173t-112.5 -169t-151.5 -145.5t-186.5 -102.5t-219.5 -39 q-115 0 -205 51.5t-153.5 131t-97 177t-33.5 189.5zM389 442q0 -104 25.5 -171.5t42.5 -92.5q57 -92 121.5 -128t142.5 -36q6 0 20.5 2t29.5 4.5t27.5 4.5t16.5 2q41 6 81 26.5t76 46t64.5 53t48.5 48.5q37 37 81 108.5t82 159.5t63.5 184.5t25.5 182.5q0 74 -16 151.5 t-57 140.5q-41 66 -105.5 106t-163.5 40q-131 0 -241.5 -76t-191.5 -195.5t-127 -268t-46 -292.5z" />
<glyph unicode="P" horiz-adv-x="1130" d="M27 -12l2 43q10 2 33.5 5t51 8t53.5 13.5t40 20.5q6 6 20.5 46t30.5 89t32.5 97t22.5 69q6 18 29 84.5t53.5 158t64.5 194t63.5 190.5t48 148t18.5 69q0 27 -37 32q-10 0 -33.5 1t-50.5 3.5t-49.5 3.5t-30.5 3q4 16 6 22t8 23q6 0 35 -1t64 -3t66.5 -3t41.5 -1h78 q14 0 44 2t65 4t65.5 4t40.5 2q100 0 173 -33t121 -84t70.5 -113.5t22.5 -119.5q0 -113 -45 -190t-112.5 -124t-143.5 -67.5t-137 -20.5q-33 0 -99.5 12.5t-127.5 38.5l6 33q35 -8 56.5 -12t36.5 -6t27.5 -3t28.5 -1q33 0 72 10t72.5 24.5t58.5 28.5t31 21q23 23 45 48 t40.5 58t30 73t11.5 91t-14.5 115.5t-77.5 117.5q-39 33 -104.5 46.5t-151.5 13.5q-18 0 -28.5 -4t-12.5 -8q-66 -199 -113 -341.5t-82 -246t-58.5 -175t-43 -130t-38 -111.5t-38.5 -119q-4 -8 -7 -27.5t-3 -21.5t5 -13.5t27 -21.5q18 -4 41 -8q18 -4 43 -7t52 -5 q0 -10 -1 -19.5t-8 -25.5q-16 0 -51 2t-76 4q-39 2 -72.5 4t-47.5 2t-46 -2t-68 -4t-67.5 -4t-44.5 -2h-28z" />
<glyph unicode="Q" horiz-adv-x="1409" d="M-129 -328q0 16 12.5 47t50 61t105 52.5t178.5 22.5q29 -2 62.5 -7.5t48.5 -9.5l63 -16q4 4 14.5 14t20.5 21.5t20.5 20.5t14.5 13t25.5 31t37.5 47q-25 8 -53.5 19.5t-57 27t-57 37t-49.5 49.5q-102 137 -102 320q0 94 32.5 197.5t92 202t141.5 187.5t179.5 155.5 t207 106.5t225.5 40q51 0 91 -7.5t73 -21.5t59.5 -35.5t53.5 -52.5q66 -76 93.5 -170t27.5 -195q0 -135 -45 -253.5t-105.5 -211t-119 -152.5t-85.5 -79q-80 -57 -143 -92t-125.5 -52.5t-130.5 -22.5t-156 -5q-33 -39 -66.5 -77t-68.5 -77q45 -14 81 -25t70 -23.5t71.5 -28 t89.5 -37.5q18 -8 64 -20.5t99.5 -25t105.5 -20.5t85 -8q102 0 180 25.5t156 95.5l20 -21q-33 -47 -82 -83.5t-106.5 -64.5t-115.5 -42t-110 -14q-66 0 -127 3t-138 23.5t-178 63.5t-249 123q-4 -2 -29.5 -27t-67.5 -53.5t-96.5 -53t-111.5 -26.5l-59 -2q-14 0 -34 6 t-38 20.5t-31.5 34t-13.5 45.5zM-86 -330q0 -12 6 -22.5t12 -20.5q16 -10 32 -18t52 -8q49 0 97.5 17t87.5 41t66.5 47.5t37.5 35.5q-6 2 -24.5 6t-38 10t-38 10.5t-26.5 6.5q-2 0 -12 1t-21.5 3t-21.5 3l-10 1q-6 0 -39 -3t-68 -15.5t-63.5 -35t-28.5 -59.5zM315 295 q0 -18 2 -49t15.5 -66t41.5 -70.5t81 -64.5q37 -20 78.5 -25.5t50.5 -5.5q27 0 64.5 4.5t80.5 18.5t91 39.5t98 66.5q33 27 69.5 63t72.5 73.5t66.5 76.5t51.5 74q35 57 71.5 121.5t66.5 132.5t49 137.5t19 141.5q0 47 -15 100t-48 100q-35 47 -86 77t-127 30 q-33 0 -101.5 -19.5t-156.5 -81.5q-47 -33 -82 -63.5t-68.5 -67.5t-69.5 -82t-83 -104q-51 -86 -94 -160t-74 -140.5t-47.5 -130t-16.5 -126.5z" />
<glyph unicode="R" horiz-adv-x="1280" d="M0 -10l4 33q8 2 39 6t65.5 12t64.5 20.5t40 28.5q4 8 16.5 40t27.5 77t32.5 96t33 96t26.5 79t16 44q33 96 72.5 210t74.5 211t57.5 164t22.5 71q0 45 -42 55t-147 16l7 39l102 4q41 2 65.5 2h42t32 -1t34.5 -3h2q10 0 38 2t57.5 3t56 3t37.5 2q66 0 138 -7t132 -38 q49 -27 79.5 -61.5t47 -69t21.5 -65.5t5 -49q0 -68 -24.5 -121t-62 -96t-87 -74t-98.5 -51q-8 -4 -26.5 -10.5t-40 -12.5t-40 -12t-26.5 -8q6 -10 19.5 -45t28.5 -75t30.5 -79t21.5 -59q31 -88 56.5 -145.5t50 -91.5t50.5 -50.5t54 -22.5q8 -2 24.5 -5t34 -7t32 -8t20.5 -6 q1 -10 1 -18q0 -19 -7 -23q-6 0 -20.5 1t-30 1t-28.5 1t-18 1q-37 0 -85 3t-113 3h-53q-12 0 -63.5 -3t-108.5 -7l6 41q29 4 56.5 6t47.5 4q39 4 50.5 7t23.5 11q4 8 0 17l-152 399q-4 10 -7 18.5t-9 20.5t-17.5 33.5t-29.5 62.5q-23 -2 -53.5 -3t-75.5 -1q-35 0 -53.5 1 t-36.5 3q-6 -12 -10.5 -23.5t-10.5 -30.5t-16 -53t-27 -89q-6 -18 -23.5 -64.5t-36 -98.5t-33.5 -97t-15 -60q0 -16 16 -26.5t61 -14.5q2 0 18.5 -3t35 -7t36 -8t23.5 -6l-4 -35h-99t-71 4q-23 2 -36 3t-22.5 2t-19.5 1h-24q-16 0 -56.5 -3t-87.5 -5q-23 0 -60.5 -3 t-78.5 -3zM563 662q23 -4 53.5 -6.5t65.5 -2.5q119 0 205 34t143 87t85 115.5t28 122.5q0 57 -24.5 112.5t-74.5 92.5q-33 25 -78.5 32.5t-86.5 7.5q-2 0 -14.5 -1t-27 -2t-27.5 -2t-17 -1l-27 -6q-12 -20 -33.5 -81.5t-43 -130t-40 -128t-24.5 -74.5q-4 -10 -12.5 -33.5 t-18.5 -50t-19.5 -51t-11.5 -34.5z" />
<glyph unicode="S" horiz-adv-x="831" d="M45 14l5 38t11.5 84t11.5 85t5 43q10 0 16 -1t17 -3q4 -98 36.5 -157.5t59.5 -71.5q33 -16 57.5 -21.5t77.5 -5.5q8 0 31.5 1t56.5 8t67.5 21.5t63.5 41.5q31 39 48.5 68.5t24.5 53t9 40t2 32.5q0 74 -35 156t-92 199q-37 74 -60.5 126t-36.5 92t-18.5 71.5t-5.5 64.5 q0 76 29 137.5t80 105.5t118.5 68.5t145.5 24.5q74 0 146.5 -15.5t136.5 -44.5q-4 -45 -14.5 -95t-34.5 -116l-33 3q-4 51 -14.5 94t-32 74.5t-56 49t-88.5 17.5q-47 0 -90 -15.5t-75.5 -46t-53 -75.5t-20.5 -103q0 -39 5 -71.5t18.5 -72.5t38 -92t65.5 -128q2 -6 21.5 -47 t41 -97.5t38.5 -118t17 -106.5q0 -88 -38.5 -152.5t-103 -106.5t-146.5 -62.5t-170 -20.5q-111 0 -181.5 18.5t-101.5 28.5z" />
<glyph unicode="T" horiz-adv-x="1130" d="M213 -12l12 37q8 2 31 5t47.5 7t47 7t30.5 7q29 10 39 27.5t14 27.5l242 695q16 47 36.5 106.5t41 122t41 121.5t36.5 106q-16 0 -43.5 -1t-57.5 -2t-56.5 -2t-40.5 -3q-57 -6 -91 -9t-55.5 -6t-35 -8t-31.5 -18q-41 -27 -71 -64.5t-58 -82.5h-16.5t-16.5 2q2 8 10 29.5 t16.5 44t15.5 43t9 28.5q14 47 27.5 83t23.5 59h33q8 -10 15.5 -19.5t19.5 -17.5q27 -16 74 -17q27 0 93.5 1t139 3.5t137 3.5t89.5 1l389 2q43 4 59 15t31 28h39q0 -6 -8.5 -47t-18.5 -91.5t-20.5 -95.5t-12.5 -59h-19t-16 2v17q0 63 -13 100q-15 41 -48 60t-79 22.5 t-105 3.5h-69t-42 -2.5t-25.5 -4.5t-21.5 -4q-6 -14 -28.5 -81.5t-55.5 -164t-72 -209t-74.5 -217t-65.5 -188.5t-44 -123q-29 -76 -40 -121t-17 -75q6 -12 14 -18.5t22.5 -9.5t39 -4t65.5 -3q49 -2 62.5 -3t19.5 -7l-6 -37q-14 0 -48 2t-72 3t-70.5 3t-45.5 2q-20 0 -53 -1 t-67.5 -3t-68.5 -4t-54 -4h-109z" />
<glyph unicode="U" horiz-adv-x="1536" d="M295 299q0 72 25.5 150.5t48.5 146.5q47 145 96 284.5t88 286.5q2 8 2 29q-4 14 -12 21.5t-47 17.5q-10 2 -17.5 4t-17.5 4t-24.5 3t-37.5 5q6 23 9.5 32.5t7.5 19.5q29 0 58.5 -2.5t60.5 -4.5t62.5 -3t64.5 -3q20 -1 39 -1q38 0 70 3q48 4 77 8h74v-45q-70 -6 -111 -12 t-64.5 -21.5t-36 -42t-26.5 -73.5q-4 -12 -14.5 -45t-20.5 -69t-20.5 -67.5l-14.5 -43.5q-16 -49 -45.5 -136.5t-58.5 -181.5t-50.5 -178t-21.5 -127q0 -72 29 -120t77 -76.5t108.5 -41t121.5 -12.5q129 0 215 34t144 85q57 51 89.5 110.5t57.5 110.5q41 90 67.5 169 t55.5 171q2 6 12 39t23.5 78t29 96t28.5 98.5t21.5 83t8.5 47.5q0 35 -9.5 55.5t-33 34t-60.5 21.5t-92 21l4 38q106 -12 209 -12q22 0 44 1q124 3 216 9l-6 -45q-8 -2 -27.5 -6t-41 -9t-40 -9t-24.5 -8q-53 -29 -90 -131.5t-76 -245.5q-41 -152 -80 -275t-81 -218 t-89 -163.5t-104 -111.5q-55 -41 -114.5 -62.5t-115 -32t-103.5 -12.5t-81 -2q-63 0 -145 17.5t-140 52.5q-68 43 -109.5 112.5t-41.5 149.5z" />
<glyph unicode="V" horiz-adv-x="1579" d="M338 1262v41l571 -3l-16 -43q-10 0 -32.5 -2t-48.5 -4t-47.5 -4t-29.5 -4q-25 -8 -39 -18.5t-21 -36t-9 -73.5t-4 -132q0 -23 -4 -97.5t-6.5 -173t-5.5 -206t-6 -198.5t-5 -152l-2 -60q12 12 46 45t70.5 69t67.5 65.5t37 35.5q12 12 30.5 28.5t30.5 31.5l250 258 q20 20 47 46.5t53.5 54.5t53.5 53.5t47 45.5q20 25 49 55.5t55.5 59.5t49 53.5t34.5 34.5q12 12 36 35t50.5 50.5t50 57t38.5 56.5q-18 18 -45 22t-35 7q-27 2 -42.5 3t-26.5 1t-18.5 1t-17.5 3v39q14 0 49 -2t80 -4.5t93.5 -2.5t88.5 2q6 0 20.5 1.5t34 1.5h41t38.5 -3v-34 q-10 -2 -39 -5.5t-37 -7.5q-39 -16 -67.5 -30.5t-60.5 -38t-72 -61.5t-99 -101q-10 -12 -38 -39t-58.5 -57.5t-58 -57t-38.5 -37.5q-31 -33 -49 -53t-34.5 -36.5t-34 -33t-43.5 -40.5q-6 -6 -36 -37t-67 -69t-71.5 -73.5t-53.5 -54.5l-246 -250l-98 -98l-137 -125h-49 q2 55 3 123t3 139.5t4 139t6 122.5v41q0 4 2 48t4 98.5t4 103.5t2 64q0 20 1 71.5t2.5 107.5t2.5 105.5t1 67.5q0 27 -8.5 38t-32.5 17q-10 2 -33 5t-47.5 4t-47 3.5t-30.5 2.5z" />
<glyph unicode="W" horiz-adv-x="1771" d="M330 1255l2 41q14 0 32.5 1t32.5 1l56 -4h59t81 -1t81 -3t57 -4q0 -6 1 -11t-3 -18q-6 -2 -21.5 -5t-32 -6t-30.5 -7t-18 -6q-20 -10 -24.5 -33.5t-4.5 -34.5q0 -14 -2 -47t-4 -68.5t-3 -67.5t-1 -44l-4 -176v-84q0 -10 -2 -64.5t-4 -119t-5.5 -118.5t-3.5 -65v-21.5 t-1 -33.5t-2 -33.5t-1 -21.5l-4 -31q0 -8 2 -17.5t4 -13.5q2 2 28 31t62.5 71t80.5 91t82 92t64.5 72.5t28.5 31.5q2 37 8.5 123t14.5 182.5t14 180.5t6 116l2 39q0 20 -5 32.5t-20 22t-41 16.5t-67 17v37q8 0 28.5 1t43.5 1h43.5h30.5h203q41 0 57 -2t33 -6l2 -26 q-6 -2 -26.5 -6.5t-44.5 -9.5t-44.5 -10t-28.5 -9q-20 -10 -24 -37t-6 -96q-2 -18 -5.5 -67.5t-6.5 -104t-6 -101.5t-5 -63l-2 -58q6 6 24.5 28t43 49.5t50 57t46.5 54.5q18 23 59 71t82 99t72 91t33 44q2 6 2 12q0 14 -13.5 20.5t-35.5 14.5q-4 2 -15.5 5t-24 6t-23.5 7.5 t-13 6.5l2 30h81h96h101.5h96.5q2 -16 0 -22t-7 -17q-35 -6 -63.5 -14t-62 -29.5t-78.5 -62.5t-113 -115q-23 -25 -48.5 -56.5t-52 -64t-52 -64.5t-46.5 -56l-143 -164q-8 -10 -9 -13.5t-1 -15.5q0 -18 -3 -59t-6.5 -91.5t-6.5 -104.5t-6 -100t-5 -78t-2 -38 q18 20 68.5 76.5t109 122t113.5 126t84 91.5l274 315q10 12 36 41t58.5 66t68.5 77.5t64.5 76.5t48 62.5t19.5 35.5q0 10 -6 12t-35 6q-23 4 -46 9t-46 12v34q27 2 50.5 2h33.5h244l-2 -39q-37 -16 -60.5 -26t-40 -20.5t-31 -23.5t-34.5 -36q-33 -35 -92.5 -100.5 t-135 -150.5t-162.5 -182t-175.5 -195.5t-172 -191.5t-151.5 -169t-115 -129t-63 -70q-12 -2 -20.5 -2t-26.5 4q0 4 3 69.5t7 149.5t8 162t6 107q-10 -8 -44 -45t-80 -88.5t-96 -109.5t-96 -110.5t-80 -90.5t-44 -48h-51q0 14 1 49t2 73t2 70.5t1 45.5q0 57 1 121.5t3 131 t5 131t5 124.5q0 25 3 91t5 138t4.5 131t2.5 74l2 39q0 25 -14.5 47t-43.5 22t-40 1t-25 5z" />
<glyph unicode="X" horiz-adv-x="1449" d="M-106 -18q10 23 15 28.5t21 14.5q51 23 80 36t50.5 23t40 23.5t49.5 35.5q51 39 115.5 89.5t124 98.5t107.5 88t70 58q12 12 47 38t73 53.5t72 52t46 34.5q-6 18 -21.5 57.5t-35 87.5t-41 100t-41 97t-34 78t-18.5 43q-12 25 -21 48.5t-21.5 43t-32 33.5t-50.5 21 q-6 2 -24.5 4t-37.5 4t-37.5 4t-24.5 4q-2 14 -2.5 19.5t2.5 15.5h98q44 -3 76 -3h15h15q31 0 70 -3q10 0 33.5 1t48.5 3q25 0 44 1t23 1h144l-8 -41q-25 0 -57.5 -2t-63.5 -8.5t-52.5 -16.5t-21.5 -28v-10.5t4 -18.5q29 -78 75 -190.5t103 -266.5q6 6 22.5 19.5t35 29 t34 29.5t21.5 18q20 16 70.5 57.5t105.5 87.5t104.5 86t67.5 54q6 4 18.5 14.5t24.5 23.5t22.5 27.5t10.5 26.5q0 4 -6 20.5t-23 22.5q-6 2 -26.5 7.5t-42 10.5t-40 9t-20.5 4q0 12 1 18.5t3 16.5h88q23 0 75 -2t110.5 -4t111 -4t70.5 -2l-4 -31q-43 -14 -79 -27.5t-77 -36 t-93 -59.5t-132 -96q-16 -12 -50 -40t-77 -63t-92 -73.5t-92 -74.5t-78 -64.5t-49 -41.5q10 -20 28.5 -64t41 -100.5t47 -117t46 -112.5t39 -91t25.5 -49q51 -72 108.5 -99.5t118.5 -50.5q0 -10 -2 -16t-6 -16q-14 2 -50 5t-75 6t-73.5 5t-49.5 2h-56t-84 1t-83 1h-53v39h39 q23 4 45 6t39.5 8t28 17.5t10.5 31.5q0 29 -13.5 60t-23.5 57q-35 98 -74 197.5t-80 195.5q-6 -2 -26.5 -17t-50 -39t-64.5 -49.5t-66.5 -51t-57.5 -45t-36 -27.5q-23 -18 -67.5 -58t-91 -84t-80 -85t-33.5 -60q0 -29 42 -43t111 -28q-4 -16 -5 -23.5t-5 -17.5q-6 0 -21.5 1 t-32 2t-30.5 2t-16 1q-23 2 -36 4t-25.5 4t-26 2h-35.5q-10 0 -42 -2t-72 -5t-83 -6t-75 -5z" />
<glyph unicode="Y" horiz-adv-x="1323" d="M250 1278v35q29 0 60.5 -1t47.5 -3q47 -4 95.5 -8.5t119.5 -4.5h21.5t41 1t49.5 4.5t48 7.5v-31t-2 -18q-90 -6 -120.5 -12.5t-39.5 -26.5q6 -14 21.5 -49t32 -74t32 -74t21.5 -47l119 -287l16 -31q6 4 12 8.5t13.5 11.5t19.5 19.5t31 32.5q20 20 69.5 70.5t103.5 106 t102 104.5t67 67q6 4 19.5 20.5t26.5 37t24.5 40t11.5 29.5q0 27 -24.5 40.5t-57.5 17.5q-26 3 -52 3h-13q-33 -1 -48 -1v43q16 4 31.5 5t40.5 1q10 0 36.5 -2t49.5 -4q29 -4 52.5 -4h33.5h32.5t59.5 1t66.5 2t56.5 5v-47q-6 -2 -18.5 -5.5t-26.5 -6.5t-27.5 -6t-17.5 -5 q-51 -20 -93 -58t-77 -73l-92 -92l-72 -72t-62.5 -63.5t-63.5 -65.5t-75 -80t-96 -104q-6 -6 -22.5 -51t-37 -102.5t-38 -110t-25.5 -72.5q-29 -78 -43 -123t-14 -80q0 -12 11 -29.5t46 -27.5q8 -2 29.5 -4t44 -4t44 -3t30.5 -1q0 -31 -2 -39h-197q-16 4 -65.5 6t-84.5 6 q-27 -2 -50 -2t-52 -4q-51 -4 -84 -5t-63 1q2 16 4 22t6 17q57 4 93 8t58.5 9t33.5 12.5t22 19.5q8 12 24.5 49t33.5 86t37.5 106.5t38 110.5t31 96t21.5 68q-10 23 -26.5 60.5t-35 80.5t-38 87t-34.5 81t-26.5 61.5t-13.5 30.5q-4 12 -21.5 51t-37 81t-36 77t-22.5 39 q-20 16 -59 22.5t-86 12.5z" />
<glyph unicode="Z" horiz-adv-x="1193" d="M-31 0v25q23 23 71 69.5t108.5 106t126 123t125 122t105.5 103.5t66 65l44 44t75 74t80 77t57 53q82 84 156 160q63 66 128 130.5t101 102.5q-70 2 -147.5 2t-146 -2t-121 -6t-70.5 -6q-23 -4 -55.5 -12t-69.5 -29.5t-72.5 -60.5t-64.5 -105h-24.5t-24.5 4q2 6 14 43 t29.5 81t33 82t23.5 48h911v-30l-262 -254q-41 -39 -90 -88.5t-100 -101.5t-101.5 -102t-89.5 -89q-53 -53 -87.5 -87t-65.5 -63.5t-67 -64.5t-91 -90q-29 -31 -51.5 -51.5t-41 -37t-34.5 -32t-33 -33.5l-127 -131q41 -2 85 -2q33 0 66 1q79 3 142 7h60q78 0 133 5t93 12.5 t63.5 17.5t43.5 22q20 12 36 23.5t34.5 32t45 52.5t69.5 85l43 2q-2 -4 -18.5 -47t-37 -95.5t-40 -98.5t-25.5 -56h-1010z" />
<glyph unicode="[" horiz-adv-x="618" d="M14 -457l498 1747h385l-10 -39h-340l-477 -1669h336l-11 -39h-381z" />
<glyph unicode="\" horiz-adv-x="1044" d="M166 1315h86l958 -1702h-86z" />
<glyph unicode="]" horiz-adv-x="618" d="M-229 -457l10 39h340l477 1669h-336l10 39h381l-497 -1747h-385z" />
<glyph unicode="^" horiz-adv-x="905" d="M119 784l448 539l447 -539l-64 -53l-383 461l-385 -461z" />
<glyph unicode="_" horiz-adv-x="1024" d="M-12 -154h1048v-102h-1048v102z" />
<glyph unicode="`" d="M399 1208q0 29 19.5 37t30.5 8q41 0 68.5 -26.5t39.5 -42.5q4 -4 24.5 -32t48 -63.5t56.5 -75.5t47 -69q-12 0 -17 1t-16 9q-86 61 -137 96t-78.5 55.5t-39 29t-17.5 14.5q-16 16 -22.5 30.5t-6.5 28.5z" />
<glyph unicode="a" horiz-adv-x="831" d="M78 90q0 35 10 81t29.5 95t45 96.5t56.5 86.5q51 63 107.5 116t116 92t120 60.5t115.5 21.5q33 0 48.5 -4t31.5 -12q2 4 7 14.5t11 21.5t11.5 20t9.5 12q10 2 19 2h22q10 0 15 -1t15 -6q2 -6 2 -12q0 -5 -1 -11q-3 -13 -21 -61q-8 -20 -24.5 -65t-38 -101.5t-44 -117 t-42 -111.5t-32 -85t-12.5 -36l-8 -20q-8 -21 -16 -44.5t-15.5 -44t-5.5 -22.5q6 -6 14.5 -2t19.5 12.5t21.5 17.5t18.5 13q18 16 44 39t81 82l12 -9t10 -11q-20 -29 -55 -68t-74.5 -72.5t-81.5 -57.5t-77 -24q-16 0 -31.5 6.5t-15.5 28.5q0 20 17 68.5t37.5 98.5t39.5 89 l18 39l-4 4q-4 -6 -23.5 -29.5t-43 -52t-45 -54.5t-31.5 -34q-35 -33 -56.5 -52t-38 -32.5t-33 -24t-40.5 -22.5q-6 -2 -18.5 -7t-28 -11t-33.5 -10.5t-33 -4.5q-59 0 -80.5 32t-21.5 83zM193 137q0 -2 1 -13t6 -24.5t15 -23.5t31 -10l37 2q41 10 90 50t93 84t74.5 79.5 t34.5 42.5q61 86 98.5 165.5t37.5 131.5q0 4 -2 15t-9.5 22.5t-21.5 20.5t-39 9q-49 0 -101.5 -30.5t-101.5 -80t-94 -110.5t-78 -122.5t-52 -117t-19 -90.5z" />
<glyph unicode="b" horiz-adv-x="831" d="M137 76q0 41 25.5 139t62.5 221t82 256t82 248t62.5 193.5t25.5 93.5q0 8 -3 15t-13 20q-14 10 -40 14t-54 4v29q23 4 60.5 6t64.5 2q2 0 17 1t35.5 2t38 3t21.5 2q0 -2 -12 -42t-30.5 -98.5t-41 -128t-43 -136t-38 -118.5t-23.5 -77q-25 -80 -39.5 -128t-24.5 -82 t-19 -62.5t-22 -67.5l4 -4q6 10 13.5 20.5t19.5 27.5t32.5 45t55.5 75q8 10 28.5 33.5t42 50t42 50.5t29.5 32q10 10 30.5 27.5t46 35t56 29.5t63.5 12q45 0 75 -43t30 -98q0 -80 -25 -159t-62.5 -149.5t-86 -131t-97.5 -103.5q-29 -25 -74 -53.5t-94 -53t-96 -41t-82 -16.5 q-61 0 -93 31t-32 74zM236 82q0 -6 3 -18.5t10 -23.5t20.5 -19.5t33.5 -8.5q39 0 85 32t89 75t80 87t55 70q18 25 47 75t56.5 108.5t48 118t20.5 102.5q0 23 -10 36t-22 19q-14 8 -33 8q-27 0 -60.5 -19t-78.5 -62.5t-104.5 -115t-135.5 -175.5q-20 -27 -38.5 -69t-33 -85 t-23.5 -80t-9 -55z" />
<glyph unicode="c" horiz-adv-x="555" d="M98 145q0 90 44 211t130 238q20 29 52 67.5t71 73.5t85 59.5t98 24.5q27 0 47 -13t33.5 -31.5t19.5 -39t6 -37.5q0 -43 -22.5 -53t-28.5 -10q-10 0 -19.5 2t-13.5 4q-8 6 -13 12t-10.5 14.5t-11.5 21.5t-16 36q-4 10 -14.5 18.5t-22.5 8.5q-29 0 -62.5 -32t-66.5 -84 t-63.5 -117.5t-54 -133.5t-38 -131.5t-14.5 -110.5q0 -45 11.5 -60t31.5 -15q33 0 67.5 27.5t65.5 63.5t53.5 67.5t26.5 37.5q16 4 24.5 4h18.5q0 -6 -10 -24.5t-25.5 -42t-35 -50t-38.5 -49.5q-57 -72 -108 -99.5t-92 -27.5q-37 0 -57.5 18.5t-31 44t-13.5 55.5t-3 52z" />
<glyph unicode="d" horiz-adv-x="831" d="M90 113q0 61 22.5 135t61.5 148.5t91 144t111.5 124t122 87t122.5 32.5q57 0 81.5 -23.5t40.5 -45.5l109 340q2 8 9 33.5t15.5 54t14.5 53.5t6 31q0 23 -34 36t-91 29l8 29q59 0 113.5 2t97.5 16q2 0 12.5 3.5t14.5 3.5q8 0 12 -1.5t14 -3.5q-2 -10 -18 -61t-40.5 -126 t-52.5 -161t-52.5 -167t-45 -146.5t-26.5 -95.5q-2 -8 -15.5 -50t-32 -98.5t-40 -119t-38.5 -116t-29 -88.5l-13 -36q0 -2 2 -3t2 -3q12 2 32.5 17t45.5 40t52.5 53.5t53.5 59.5q12 -6 16.5 -10.5l8.5 -8.5q-37 -55 -80 -102t-84 -82t-76.5 -54.5t-58.5 -19.5q-4 0 -11 2 t-12 2q-4 12 -4 17q0 12 10.5 54t25 89t27.5 90t17 59l-4 5q-10 -12 -22.5 -25.5t-51.5 -56.5q-6 -6 -41.5 -44t-87 -81t-111 -77t-112.5 -34q-31 0 -48 19.5t-26.5 45t-11.5 50t-2 35.5zM211 152q0 -29 16.5 -60t59.5 -31q35 0 81 32t92 78t87 95t65 86q27 41 46.5 90.5 t33 92.5t19.5 71.5t6 30.5q0 27 -22.5 58.5t-49.5 31.5q-55 0 -103 -32.5t-88 -78t-72 -93.5t-50 -81q-6 -12 -26.5 -46t-41 -78t-37 -89t-16.5 -77z" />
<glyph unicode="e" horiz-adv-x="598" d="M104 197q0 76 19.5 143.5t47.5 125.5t59.5 105t54.5 80q12 16 34.5 45t54.5 56.5t69.5 47t80.5 19.5q31 0 53.5 -13t38 -34.5t23.5 -47.5t8 -50q0 -49 -28.5 -108.5t-88.5 -94.5q-29 -20 -53 -33.5t-56 -25t-74 -21.5t-105 -22q-33 -94 -33 -185q0 -16 4 -38.5t13.5 -45 t26.5 -38t44 -15.5t57.5 19.5t59 50t52 69.5t38.5 78h22t17 -2q-10 -41 -39 -90t-70 -93t-90 -74t-100 -30q-37 0 -63.5 21.5t-44 53.5t-25 71t-7.5 76zM258 418q27 0 80 17.5t105.5 54t92 94t39.5 135.5q0 23 -14 45t-41 22q-37 0 -80 -47t-80.5 -108.5t-65.5 -122.5 t-36 -90z" />
<glyph unicode="f" horiz-adv-x="448" d="M-375 -434q0 10 6.5 25.5t22.5 25.5q4 2 12 5t17 3q27 0 41 -19.5t28 -41.5q27 -43 68 -43q51 0 94 43t78 108q35 63 62.5 137t45.5 138l99 338q4 16 16 59t24.5 89t22.5 84t12 46q12 39 24.5 79t25.5 73h-36h-53.5t-53 -1t-34.5 -1q2 23 3.5 31t3.5 18q12 2 37.5 3t54 3 t56.5 3t42 1q10 35 27.5 88t41 113.5t56.5 122t75 109.5t92 79t112 31q45 0 72.5 -14.5t43 -33t20.5 -36t5 -23.5q0 -20 -14.5 -39.5t-36.5 -19.5q-23 0 -37.5 9t-22.5 21.5t-13 27t-7 26.5q-2 2 -11.5 18.5t-37.5 16.5q-23 0 -42.5 -12.5t-35.5 -28.5q-18 -18 -35 -41 q-33 -47 -59.5 -117t-47 -135.5t-32 -112.5t-11.5 -49q8 0 31 -1t47.5 -1h46h29.5q0 -14 -1 -23.5t-5 -27.5l-164 -6l-131 -453q-6 -18 -19.5 -60t-26.5 -89.5t-25.5 -89t-18.5 -58.5q-35 -109 -85 -208t-134 -185q-35 -35 -67 -54.5t-59.5 -28.5t-50 -10t-38.5 -1 q-12 0 -37 1t-50.5 10t-44 26.5t-18.5 52.5z" />
<glyph unicode="g" horiz-adv-x="661" d="M-190 -293q0 31 15 47.5t25 26.5q18 16 65.5 41.5t101 51.5t101 46.5t70.5 30.5q-12 10 -30.5 25.5t-35 31t-28.5 29.5t-12 24q0 18 13.5 29.5t47.5 28.5q23 10 63 34.5t68 41.5q-4 6 -17 20t-26.5 29.5t-24.5 27.5l-11 11q-16 35 -23.5 64.5t-7.5 68.5q0 49 19.5 118.5 t61.5 133t105.5 107.5t151.5 44q14 0 46 -6t46 -12q25 -12 39 -17.5t47 -5.5q6 0 20.5 1t29.5 2t28.5 1h19.5q3 -28 3 -39q0 -13 -9 -24q-20 -4 -43.5 1t-81.5 19q12 -29 19.5 -55.5t7.5 -79.5q0 -76 -29 -147.5t-74 -130t-99 -97.5t-105 -49q-12 -2 -38 -8t-50.5 -15.5 t-43 -23.5t-18.5 -35q0 -25 21.5 -46t55.5 -40.5t74 -35t74 -27.5q18 -8 47 -22.5t57.5 -31t53.5 -35t37 -32.5q14 -16 27.5 -43t13.5 -78q0 -76 -52.5 -118t-119 -62.5t-127 -25.5t-76.5 -5q-109 0 -188.5 11.5t-167.5 50.5q-20 8 -45 23.5t-45.5 34.5t-33.5 43t-13 48z M-78 -295q0 -33 11.5 -49.5t19.5 -24.5q39 -37 88 -57t97 -29.5t90 -10.5t69 -1q70 0 120 13.5t89 31.5q53 23 70.5 45.5t17.5 50.5q0 31 -16.5 56.5t-38 46t-45 34t-35.5 19.5t-44 19.5t-69 27.5t-70.5 27.5t-48.5 19.5q-31 -10 -69.5 -27.5t-75.5 -36t-65.5 -37 t-41.5 -28.5q-29 -27 -41 -43t-12 -47zM248 332q0 -33 20.5 -68t67.5 -43q29 4 49.5 13.5t36.5 24.5t32.5 39t34.5 58q49 90 72 171t23 139q0 6 -3 24.5t-12.5 38t-28 34.5t-51.5 15q-55 0 -89.5 -43t-67.5 -114q-4 -10 -17.5 -42t-29 -75t-26.5 -89t-11 -83z" />
<glyph unicode="h" horiz-adv-x="854" d="M72 -2q0 14 13 50t30.5 78t34 79t22.5 53l283 809q2 8 12 34.5t19.5 56.5t17.5 54.5t8 30.5q0 23 -31 29q-29 6 -42 10t-29 10l4 21q23 2 55.5 5t67 6t66.5 5t52 2q-4 -12 -18 -52t-30.5 -86t-32 -87t-21.5 -57q-12 -33 -25.5 -75t-28 -86t-28.5 -85t-27 -74 q-18 -47 -47.5 -118.5t-62.5 -170.5l4 -4q8 12 28.5 41t45 61.5t46 62.5t29.5 40q45 57 83 92t69 54.5t55.5 25.5t46.5 6q45 0 70 -24.5t37 -56t14 -60.5t2 -37q0 -53 -15 -124t-43 -146.5t-67 -147t-86 -129t-101 -92.5t-112 -35q-29 0 -46 11.5t-26.5 25.5t-13.5 28.5 t-4 20.5q0 12 14.5 27.5t43.5 15.5q25 0 36 -12t33 -43q6 -4 13.5 -10t15.5 -6q18 0 45 36.5t56.5 95t58 132t51 146.5t37 138.5t14.5 110.5q0 35 -10 63.5t-45 28.5q-27 0 -62 -25.5t-72.5 -63.5t-75.5 -84t-70 -88t-53.5 -71.5t-25.5 -37.5q-18 -29 -41.5 -75t-47 -96.5 t-43 -95.5t-29.5 -69q-16 -35 -24.5 -55.5t-17 -31t-16.5 -13.5t-20 -3q-43 0 -43 31z" />
<glyph unicode="i" horiz-adv-x="468" d="M76 25q0 29 12 68.5t29.5 79.5t37 78t33.5 64l162 308q4 10 17.5 37.5t17.5 35.5q8 8 12 25q4 10 -3 13t-9 3q-35 0 -69.5 -22.5t-65.5 -51t-51.5 -54t-24.5 -31.5l-31 20q33 43 75 83t85 70.5t85 49t73 18.5q20 0 33.5 -10t13.5 -31q0 -23 -14.5 -63.5t-37 -93 t-51 -108.5t-54 -106.5t-47 -90.5t-32.5 -56q-6 -10 -19 -36.5t-28.5 -56.5t-27 -55.5t-11.5 -33.5q0 -18 19 -19q14 0 38.5 15.5t53.5 40t57.5 58.5t51.5 71h40q-25 -47 -61.5 -95.5t-78.5 -87t-86 -62.5t-83 -24q-23 0 -42 10.5t-19 39.5zM424 1182q0 37 25.5 64.5 t64.5 27.5q45 0 63.5 -31t18.5 -49q0 -29 -18.5 -60.5t-75.5 -31.5q-23 0 -50.5 17.5t-27.5 62.5z" />
<glyph unicode="j" horiz-adv-x="425" d="M-444 -412q0 25 13 36t23 18q4 2 14.5 4t18.5 2q23 0 39.5 -18.5t20.5 -35.5q10 -29 17 -41t24 -12q61 0 108 35t91 103.5t89 172t101 238.5l133 324q4 8 12 26.5t16.5 40t15.5 40t11 24.5q31 68 44 100.5t13 56.5q0 10 -7 17.5t-13 7.5q-4 0 -17.5 -5t-36 -22.5 t-56 -50.5t-78.5 -90q-10 4 -14.5 7t-12.5 12q2 4 32.5 44t79 87t110 84.5t122.5 37.5q16 -12 16 -26q0 -35 -15 -87t-36.5 -111.5t-48.5 -120t-47 -109.5q-4 -10 -13.5 -31.5t-18.5 -46.5t-18 -45.5t-14 -28.5q-72 -184 -133 -321t-125.5 -227.5t-141.5 -135.5t-177 -45 q-63 0 -102 26.5t-39 65.5zM438 1163q0 18 19.5 48t68.5 30q27 0 42.5 -21.5t15.5 -45.5q0 -4 -1 -15.5t-9.5 -24t-23.5 -22.5t-44 -10q-31 0 -49.5 19t-18.5 42z" />
<glyph unicode="k" horiz-adv-x="1067" d="M66 -8q0 8 15 43t34.5 76t38 78.5t24.5 54.5q113 246 201 446q37 86 73.5 168t65.5 149.5t48.5 113.5t21.5 59q2 10 2 15v9q0 35 -37 43q-29 8 -37 10.5t-18 6.5l8 26q49 0 102.5 4t130.5 27h37q-8 -20 -37.5 -86t-69.5 -154t-86 -186t-86 -184t-67 -145.5t-29 -69.5 q25 16 62 49t108 98q31 27 67 55.5t75 53t82 40t90 15.5q63 0 111 -38t48 -97q0 -27 -16 -70t-59 -84t-116 -70.5t-185 -29.5q-45 0 -75 2t-87 10q6 -23 13 -46.5t23.5 -56t44 -78.5t72.5 -114q6 -10 28 -32.5t52.5 -47t68.5 -43t77 -18.5q57 0 91 30.5t34 59.5 q0 12 -9.5 20.5t-15.5 8.5q-8 0 -34.5 -10.5t-35.5 -10.5q-16 0 -38.5 10.5t-22.5 40.5q0 25 22.5 43.5t65.5 18.5q12 0 30.5 -7.5t36 -21.5t29 -36.5t11.5 -55.5t-16.5 -57.5t-41 -41t-54.5 -24.5t-56 -8q-123 0 -209 55t-143.5 132t-89 159t-50.5 137q-6 -10 -27.5 -52 t-47 -94t-51 -106.5t-42.5 -89.5q-25 -49 -39 -74.5t-25.5 -38t-19.5 -14.5t-18 -2q-20 0 -47 8q-4 8 -5 11.5t-1 7.5zM463 485q18 -6 42.5 -11t53.5 -5q84 0 164 13.5t141.5 40t99 63.5t37.5 86q0 10 -12 26.5t-55 16.5q-55 0 -117.5 -17.5t-125 -48.5t-121 -73t-107.5 -91 z" />
<glyph unicode="l" horiz-adv-x="448" d="M74 6q0 12 11 46t28.5 79t40 97.5t43 100.5t37 87t24.5 59q4 10 19.5 47t35 88.5t42 109.5t42 109.5t34.5 90t22 53.5q49 117 74.5 181.5t25.5 80.5q0 27 -29.5 38t-68.5 21l2 27q6 0 32.5 2t61.5 4t71.5 3t63.5 1q0 -12 -5 -30.5t-23.5 -69.5t-57.5 -149.5t-106 -270.5 q-53 -145 -107.5 -288.5t-114.5 -284.5q-4 -6 -14 -32t-22.5 -53.5t-21.5 -50t-9 -24.5q0 -4 2 -7t2 -5q37 4 100.5 56t122.5 140q18 4 25.5 4t17.5 -2q-31 -55 -76 -107.5t-96 -93t-102 -65.5t-92 -25q-10 0 -22.5 6.5t-12.5 26.5z" />
<glyph unicode="m" horiz-adv-x="1280" d="M49 -6q0 6 26.5 59t66.5 130t87 165t87 167t67 135.5t29 68.5q-12 4 -15 4q-18 0 -42.5 -16.5t-50 -42t-52.5 -55t-49 -56.5l-39 4q20 35 59 79t84 83t91 65.5t83 26.5q29 0 40 -16.5t11 -24.5q0 -18 -21.5 -67.5t-49 -105.5t-54 -106.5t-36.5 -70.5l4 -4q14 14 48 54 t71.5 83t71.5 81t48 50q53 51 109.5 89t128.5 38q4 0 14.5 -2t20.5 -7t17 -15.5t7 -26.5q0 -47 -19.5 -99.5t-47 -105.5t-55 -103.5t-44.5 -91.5l5 -4q8 12 30.5 40t48 58.5t49 56.5t33.5 36q6 6 20.5 22.5t32 34t32 32.5t20.5 21q170 150 260 150q10 0 32.5 -12.5 t22.5 -53.5q0 -25 -6 -48t-22.5 -59t-46 -90.5t-76.5 -140.5q-8 -14 -25.5 -44.5t-40 -66.5t-46.5 -72t-42 -60q-20 -27 -38.5 -57.5t-18.5 -36.5q0 -8 6 -9q8 0 28.5 12.5t48 34t59.5 47t63 54.5l30 -8q-20 -33 -58 -73t-87 -74t-102.5 -56.5t-104.5 -22.5q-16 0 -22.5 5.5 t-14.5 11.5q2 14 7 25.5t30 49.5l166 271q66 106 105.5 173.5t60.5 115.5q10 23 21.5 51t11.5 37q0 27 -25 26q-16 0 -43 -17.5t-54.5 -40t-51 -45t-31.5 -32.5q-98 -106 -163 -178t-110 -129t-78.5 -108.5t-70.5 -114.5q-20 -35 -31.5 -54.5t-22 -28.5t-21.5 -11.5 t-32 -2.5q-23 0 -31 1t-20 6q2 14 16.5 38.5t26.5 47.5q12 20 40 70t63.5 114.5t73.5 135.5t70 133.5t52.5 109.5t20.5 65q0 16 -7.5 27.5t-17.5 11.5q-43 0 -107.5 -62.5t-187.5 -197.5q-100 -111 -153.5 -189.5t-77.5 -121.5q-2 -4 -16.5 -28.5t-30.5 -53.5 q-20 -33 -43 -74q-16 -23 -29.5 -28t-44.5 -5q-16 0 -27 5q-4 8 -4 14z" />
<glyph unicode="n" horiz-adv-x="874" d="M92 -8q0 10 13.5 44t35.5 95q6 14 19.5 46t28 67t27.5 66.5t17 43.5l129 338q-6 14 -14 15q-20 0 -44.5 -21.5t-48.5 -49.5t-43 -54.5t-28 -38.5q-10 -2 -16 -2t-18 2q27 55 69.5 107t87.5 92t87 62q39 21 66 21h5q16 -16 16 -37q0 -18 -20.5 -78.5t-47 -131t-51 -135 t-32.5 -89.5l4 -4q4 6 16 24.5t26.5 39t27 39t18.5 24.5q121 154 219 252t176 98q27 0 41 -9t21.5 -21.5t8.5 -22.5t1 -12q0 -29 -19.5 -89.5t-49 -133t-64.5 -151.5t-64.5 -144.5t-49 -111.5t-19.5 -52q0 -4 3 -9t5 -8q16 2 37.5 20.5t45 45.5t45 56.5t40.5 56.5l41 -2 q-2 -4 -29 -46t-69 -91.5t-93 -90.5t-104 -41q-16 0 -32.5 7.5t-16.5 25.5t7 44t15 49.5t16.5 43t12.5 27.5l145 317q10 25 23.5 56.5t26 61.5t21.5 51.5t9 25.5q2 12 2 20.5v12.5q0 16 -7 21t-17 5q-23 0 -57 -23.5t-70.5 -61.5t-74.5 -82t-71 -85t-56.5 -72.5t-29.5 -41.5 q-29 -43 -51.5 -80t-44 -77t-45 -87t-51.5 -111q-14 -33 -26.5 -38t-37.5 -5q-18 0 -39 5q-4 8 -4 12z" />
<glyph unicode="o" horiz-adv-x="724" d="M115 223q0 96 39 201.5t101 193t142 144.5t162 57q20 0 36 -5t26 -9q37 -16 58 -44t31.5 -61.5t13.5 -68.5t3 -64q0 -119 -39 -226.5t-101.5 -188t-139 -129t-152.5 -48.5q-68 0 -103.5 34t-53 77t-20.5 83t-3 54zM207 111q0 -20 7 -44t30 -36q16 -6 30.5 -8.5t22.5 -2.5 q39 0 72.5 27t62.5 65t51.5 79.5t36.5 70.5q10 20 31.5 66.5t44 106t39 124t16.5 121.5q0 29 -17.5 60.5t-51.5 31.5q-41 0 -85 -35t-86 -92t-79 -129t-64.5 -145.5t-44 -142t-16.5 -117.5z" />
<glyph unicode="p" horiz-adv-x="831" d="M-289 -502q0 6 6 19q10 2 39 6t59.5 9t56.5 10t30 9q6 6 22.5 40t34.5 82t38.5 103.5t39 104.5t31 85t14.5 44l137 389q6 20 24.5 73.5t38 111t35 104.5t17.5 55q-6 0 -22.5 -4t-37 -9t-39 -9t-26.5 -6q-4 -2 -16.5 -6t-24.5 -8.5t-23.5 -7.5t-13.5 -3q-6 0 -13 3t-12 5 q-8 20 10.5 31.5t37.5 20.5q47 20 90 29t108 24q16 43 25.5 70.5t16.5 49t12.5 39t11.5 35.5t11 32.5t15 27.5q10 0 22 1h10q13 0 36 -1q2 -4 9 -12.5t7 -18.5q0 -8 -11 -40t-23 -68q-14 -43 -33 -97q34 3 61 3q13 0 25 -1q35 -2 78 -10q2 0 35.5 -11t73.5 -42t72 -86.5 t32 -145.5q0 -63 -19.5 -124.5t-47.5 -113.5t-59.5 -92t-54.5 -61q-92 -82 -175 -116.5t-148 -34.5q-43 0 -74 8t-65 22q-20 -39 -43 -96t-44.5 -117.5t-40 -114t-26.5 -81.5q-8 -25 -12 -41.5t0 -25.5t21.5 -12t51.5 -3q20 0 40 -3t34 -11q4 -10 5 -11.5t1 -5.5 q0 -6 -4 -10h-33.5h-24.5h-22.5h-27.5q-14 0 -43 1t-58 3q-29 0 -53.5 1t-28.5 1q-20 -2 -40.5 -3t-39.5 -1q-16 -2 -29.5 -2h-19.5l-47 2v12zM231 104q0 -43 33 -58t70 -15q61 0 104 26.5t111 81.5q61 66 95 130.5t51.5 118.5t21.5 92t4 52q0 43 -8 82t-33 70t-69 49.5 t-115 18.5h-27.5t-28.5 -2q-23 -66 -43 -129.5t-43 -126.5q-10 -29 -30.5 -85.5t-41 -118t-36 -113.5t-15.5 -73z" />
<glyph unicode="q" horiz-adv-x="874" d="M78 137q0 70 21.5 133.5t57.5 122t80 110.5t91 99q20 20 61 58t90 73t101.5 61.5t97.5 26.5q35 0 82 -20.5t78 -40.5q23 27 33 38t30 27q14 0 23 -6q0 -12 -8.5 -38.5t-18.5 -56.5t-19.5 -55.5t-11.5 -35.5q-2 -6 -18.5 -56.5t-41 -125t-56 -162.5t-62.5 -168 q-4 -10 -11 -35t-14.5 -52.5t-15.5 -52t-10 -32.5q-18 -53 -29.5 -86t-20.5 -58.5t-18.5 -52t-21.5 -65.5q-2 -6 -7 -25.5t-11.5 -41t-11.5 -40t-5 -22.5q0 -10 4 -15.5t12 -11.5l66 -6q33 -4 41 -9t2 -28q-4 -2 -21.5 -3t-21.5 -1t-29.5 1t-57.5 1t-60.5 1t-40.5 1l-113 -2 l-103 -4q-6 0 -12 2t-16 14q2 10 3 13.5t11 7.5l55 4q68 4 99.5 13t50.5 32q8 10 19.5 38.5t24.5 64.5t25.5 75t24.5 72l119 338q2 6 6 21.5t10 35.5t12.5 40.5t12.5 35.5q12 33 15 42t5 17l-4 4q-6 -10 -23.5 -33.5t-37 -49t-37.5 -47t-25 -29.5q-29 -31 -65.5 -71 t-79.5 -76t-90 -59.5t-94 -23.5q-43 0 -68 21.5t-36 50t-14 57.5t-3 45zM195 160q0 -41 15 -74t66 -33q39 0 87.5 35t93.5 82t81.5 93t55.5 71q14 18 42 57t54.5 87t46 100.5t19.5 101.5q0 59 -25.5 77.5t-42.5 18.5q-29 0 -77 -29.5t-102 -77.5t-110.5 -111.5 t-101.5 -132.5t-73.5 -137.5t-28.5 -127.5z" />
<glyph unicode="r" horiz-adv-x="618" d="M115 10q0 6 1 12.5t6 19.5t13 35.5t23 63.5q12 33 30.5 88.5t40 117t43 125t39 114.5t27.5 85t10 38q0 12 -5 16t-9 6q-8 0 -15 -2q-18 -12 -28 -21.5t-23.5 -25.5t-34 -44t-57.5 -79l-43 -2q10 20 40 63.5t70 87.5t86 77.5t89 33.5q14 0 28.5 -13t14.5 -34 q0 -23 -10.5 -63.5t-24.5 -87t-29.5 -90.5t-25.5 -68q-4 -10 -14.5 -37t-22.5 -55.5t-23.5 -54t-13.5 -33.5l4 -4q8 16 28.5 55t44 83t43 83t27.5 53q43 80 77 131t65.5 82t62.5 42t66 11q8 0 25.5 -5t34 -16.5t28.5 -30.5t12 -48q0 -8 -3 -24.5t-12 -33t-25.5 -28.5 t-45.5 -12q-35 0 -45 17t-12 46q-2 10 -5 29.5t-26 19.5q-29 0 -56.5 -39t-49.5 -76q-43 -68 -78 -126t-69 -118.5t-66.5 -127t-69.5 -150.5q-4 -6 -11.5 -24.5t-15.5 -37t-16 -32.5t-10 -16q-8 -6 -17.5 -8.5t-17.5 -2.5q-10 0 -29.5 5.5t-19.5 29.5z" />
<glyph unicode="s" horiz-adv-x="598" d="M53 102q0 16 11.5 41t50.5 25t56 -27.5t36 -70.5q4 -10 17.5 -25.5t39.5 -15.5q14 0 33.5 6t37 21.5t30 41t12.5 64.5q0 18 -2 33.5t-7.5 35t-14.5 47t-23 68.5q-14 37 -24.5 87t-10.5 91q0 6 4 53.5t28.5 100.5t77 96t148.5 43q68 0 96.5 -34.5t28.5 -69.5 q0 -27 -14.5 -47.5t-38.5 -20.5q-33 0 -54.5 19.5t-29.5 27.5q-14 16 -23.5 26.5t-16.5 15.5t-16.5 7t-23.5 2q-37 0 -54.5 -29.5t-17.5 -54.5q0 -55 15.5 -110t25.5 -88q27 -78 41 -137.5t14 -114.5q0 -45 -22.5 -87t-59 -74t-85 -50t-99.5 -18q-53 0 -86 13t-50 32.5 t-23.5 41t-6.5 35.5z" />
<glyph unicode="t" horiz-adv-x="512" d="M80 18q0 6 3 17.5t7 25t8 23.5t4 14q0 2 10.5 22.5t21.5 46.5t21.5 49.5t14.5 31.5l152 356q2 6 9 23.5t15 37t14.5 37t8.5 23.5h-29h-53.5h-53h-28.5q2 14 4 22.5t12 26.5q49 2 79 3t47.5 1t26.5 1t19 3q8 20 20.5 49t24 54.5t19.5 44t8 22.5q2 2 9 20.5t15.5 38 t15.5 37.5l7 17q12 2 20.5 3t28.5 1q16 0 23.5 -1t23.5 -5q4 -16 1 -24.5t-13 -34.5q-6 -12 -19.5 -45t-29 -68t-28.5 -66.5t-17 -44.5q6 0 18 -2t17 -2h151q0 -23 -2 -29t-10 -20q-12 -2 -43 -2t-63.5 -2t-60.5 -4t-36 -6q-6 -16 -28.5 -67.5t-51 -119t-60.5 -142.5 t-58.5 -137.5t-44 -103.5t-17.5 -43q0 -8 6 -14q23 -6 57.5 17.5t70.5 57.5t69 71.5t51 60.5q12 -6 16 -9t13 -12q-53 -66 -87 -102.5t-59.5 -61t-51.5 -43t-62 -42.5q-31 -20 -53.5 -33t-53.5 -13q-23 0 -36 9.5t-13 31.5z" />
<glyph unicode="u" horiz-adv-x="874" d="M78 14q0 18 7 41t21.5 55.5t38 77.5t54.5 105q8 14 25.5 51t41 83t48 96t44 93t32.5 72t13 33t-4 8l-4 4q-12 -4 -23.5 -12t-32 -26.5t-54 -52.5t-90.5 -91l-31 8q10 20 48 63.5t86 88.5t98 78.5t87 33.5q25 0 36 -17.5t11 -27.5q0 -18 -21.5 -69.5t-54 -120t-71.5 -144 t-74 -144.5t-60.5 -120t-29.5 -69q-6 -18 -2 -25q4 -2 16 -2q8 0 33 20.5t58.5 51t71.5 67.5t72 72t59.5 60.5l35.5 35.5q45 45 83 91t71 96.5t63.5 107.5t65.5 129q10 2 20.5 3t24.5 1q18 0 24.5 -4t12.5 -12q-8 -23 -32 -83.5t-54.5 -139t-65.5 -163.5t-64.5 -158 t-49 -121t-19.5 -52q-2 -4 -2 -16q10 -2 33.5 17t42.5 36q6 6 18.5 22.5t26.5 34t27.5 33.5t17.5 23l33 -5q-18 -35 -52 -78.5t-73 -83.5t-76 -67t-61 -27q-16 0 -34 8.5t-18 34.5q0 37 13.5 73t27.5 71l142 330q4 6 5 8l3 6l-4 4q-12 -12 -41 -46t-63 -73t-64.5 -74.5 t-44.5 -50.5q-63 -63 -122 -116.5t-110 -92.5t-91 -60.5t-66 -21.5q-20 0 -26.5 14.5t-6.5 24.5z" />
<glyph unicode="v" horiz-adv-x="704" d="M109 29q0 14 2 26.5t8 33t18.5 52t34.5 84.5q12 33 41 103.5t56.5 145.5t49 138.5t21.5 83.5q0 16 -7 28.5t-18 12.5q-18 0 -40.5 -25.5t-43 -59.5t-37 -67.5t-22.5 -49.5q-16 -2 -23.5 -2.5t-15.5 -0.5q16 43 44 95.5t61.5 97.5t70.5 75.5t72 30.5q33 0 51.5 -25.5 t18.5 -62.5q0 -29 -3.5 -56.5t-17.5 -71.5t-41 -114.5t-74 -187.5q-16 -41 -32.5 -83t-30.5 -78.5t-22.5 -63.5t-8.5 -35q0 -4 2 -13t4 -13q2 0 7.5 -2t9.5 -2q12 0 36.5 13t57.5 37.5t70.5 58.5t74.5 75q37 39 72 84t61.5 90t43 90t16.5 88v19.5t-1 14.5t-2 18.5t-3 31.5 q0 6 -3 18.5t-6.5 26.5t-5.5 27.5t-2 17.5q0 10 3 27.5t10.5 33t19.5 26.5t31 11q2 0 12 -3t20.5 -13t18.5 -29.5t8 -52.5q0 -129 -71.5 -278.5t-212.5 -294.5q-98 -100 -171 -144.5t-139 -44.5q-27 0 -50 13.5t-23 44.5z" />
<glyph unicode="w" horiz-adv-x="1087" d="M72 -14q0 16 8 30q49 80 74.5 128.5t43 91.5t34 92t44.5 131q0 2 7.5 21.5t15.5 48t14 62.5t6 62q0 18 -7 38t-29 20q-27 0 -52.5 -38t-54.5 -91l-26 10q2 6 15 42t36.5 77t57.5 74.5t77 33.5q29 0 46 -14t27.5 -37t14.5 -50.5t4 -55.5q0 -70 -20.5 -147t-51 -153.5 t-66.5 -150.5t-67 -137q47 16 100.5 51t105.5 82t101.5 103.5t86 116.5t58 120.5t21.5 116.5q0 20 -7 35.5t-21 15.5q-12 0 -23.5 -5t-24 -20.5t-29 -41t-40.5 -66.5l-29 16q12 29 32.5 66.5t45.5 72.5t53.5 58.5t57.5 23.5q33 0 52 -15.5t29.5 -40t13.5 -52t3 -52.5 q0 -57 -18.5 -132.5t-47 -155.5t-63.5 -157t-70 -136l4 -4q82 37 152 86t149 135q27 29 54.5 63.5t51 77.5t38 96.5t14.5 118.5q0 4 -1 16.5t-1 25v22.5v14q4 31 14.5 60.5t38.5 29.5q12 0 36 -10t24 -51q0 -84 -32 -167t-76 -153.5t-91 -126t-78 -82.5q-35 -31 -107.5 -90 t-181.5 -108q-12 -6 -37.5 -17.5t-53 -22.5t-50 -19.5t-28.5 -8.5t-13.5 3t-11.5 5q-2 16 1 22.5t19 22.5q35 51 68 106.5t60.5 109t48 100.5t30.5 84l-4 4q-35 -59 -65.5 -103.5t-72.5 -86.5t-104.5 -88t-160.5 -109q-68 -43 -105 -56.5t-47 -13.5t-15 7t-5 16z" />
<glyph unicode="x" horiz-adv-x="1024" d="M18 61q0 25 10.5 47.5t27 40t36 27.5t37.5 10q10 0 19.5 -2t13.5 -4q-6 -16 -14.5 -36.5t-10.5 -39t3 -31t28 -14.5q20 0 71.5 38t107.5 89.5t107.5 101.5t75.5 74q-10 23 -31.5 64t-46 85t-48 83t-37.5 57q-6 10 -20.5 26.5t-37.5 16.5q-10 0 -21.5 -8t-11.5 -37 q-2 -14 -6 -50t-10 -67q-16 12 -32.5 37t-16.5 90q0 27 8 54.5t22.5 50t32 37t33.5 14.5q49 0 88 -47t74 -102q8 -14 27.5 -48t42 -71t42 -70t27.5 -45q16 14 57.5 52t87.5 80t86 79t56 49q70 57 112 87t80 30q29 0 40.5 -23.5t11.5 -44.5q0 -25 -6.5 -50t-18.5 -46.5 t-29.5 -36t-37.5 -14.5q-10 0 -20.5 2t-14.5 4q23 31 32 44t9 30q0 33 -31 33q-23 0 -58.5 -22.5t-78.5 -56.5t-87 -73t-80 -72.5t-59.5 -57.5t-25.5 -26q12 -25 34.5 -67.5t47 -87.5t47 -83t33.5 -48q12 -12 28 -13q12 0 22.5 8.5t17.5 18.5t11 19l3 10q0 10 -2.5 36.5 t-0.5 34.5q14 0 19.5 -4t11.5 -16q4 -10 9.5 -36t5.5 -46q0 -4 -4.5 -27.5t-14.5 -51.5t-29.5 -49.5t-52.5 -21.5q-35 0 -61.5 28t-73.5 95q0 2 -18.5 32t-41 69t-43 74.5t-28.5 48.5q-14 -14 -50 -48t-76 -72t-75 -72t-49 -46q-43 -39 -95 -74t-97 -35q-37 0 -65 22.5 t-28 63.5z" />
<glyph unicode="y" d="M-440 -406q0 23 16 36.5t33 13.5q39 0 63.5 -18.5t44.5 -41.5q18 -20 34 -27.5t54 -7.5q49 0 99.5 18.5t98.5 49.5t94 73t89 91q51 59 80 145t42.5 170t15.5 149.5t2 84.5q0 74 -3.5 149.5t-13.5 149.5q-4 35 -18.5 58.5t-36.5 23.5q-23 0 -39 -20.5t-30.5 -49.5 t-23.5 -60.5t-16 -54.5q-8 -2 -13 -1t-21 12q12 45 27.5 95t36 92t48 68.5t64.5 26.5q35 0 59.5 -25.5t39.5 -64.5t24.5 -85t12.5 -86t4 -68.5t1 -30.5q0 -41 -3 -93.5t-8 -105.5t-11.5 -101t-12.5 -77q-12 -55 -15 -70.5t-5 -29.5q6 6 22.5 30.5t35 56t35.5 61.5t26 44 q16 29 37.5 82t41 118.5t32.5 139.5t13 145q0 6 -1 18.5t-1 28v27.5v19q8 51 22.5 59t31.5 8q10 0 30.5 -7t20.5 -52q0 -18 -9.5 -62.5t-26.5 -106t-41 -133t-51.5 -144t-59 -140.5t-64.5 -119q-23 -37 -56.5 -85t-73.5 -100t-84 -102.5t-89 -89.5q-111 -96 -215.5 -136 t-181.5 -40q-39 0 -82 3t-78 24q-18 12 -32.5 27.5t-14.5 37.5z" />
<glyph unicode="z" horiz-adv-x="854" d="M121 41q0 25 15.5 42t36 27.5t39.5 15.5t30 5q27 0 43 1t28.5 6t25.5 14.5t34 25.5q20 16 67 57t97.5 87.5t95.5 86.5t61 56q18 18 33.5 31.5t30 28t31 31.5t38.5 44q-6 0 -24.5 -1t-36.5 -2t-32.5 -2t-16.5 -1q-29 0 -88.5 16.5t-116.5 57.5q-41 29 -72.5 44t-74.5 15 q-55 0 -92 -35t-37 -88q0 -20 5 -33.5t13 -25.5l12 -2q4 4 11.5 20.5t9.5 20.5q8 12 20 23t35 11q20 0 32.5 -11t19.5 -26.5t9.5 -28.5t2.5 -20q0 -14 -25 -41.5t-72 -27.5q-53 0 -80.5 42t-27.5 89q0 55 25.5 97t63.5 71t83 43t82 14q55 0 105 -23.5t91 -56.5 q70 -53 106 -77.5t58 -24.5q29 0 36 17.5t11 35.5q2 12 5 28.5t10.5 30t19.5 23.5t35 10t43 -16t21 -39q0 -49 -37 -87t-113 -99q-33 -27 -73 -71t-73 -73t-54 -46t-38.5 -32.5t-37 -34t-50.5 -46.5q-8 -6 -26.5 -22.5t-38 -34t-38 -32t-24.5 -20.5q6 -4 22.5 -13.5 t34 -18.5t32 -16t18.5 -9q47 -35 78.5 -127t76.5 -242q29 -94 71 -140t118 -46q6 0 21.5 1t30.5 4t27.5 11t12.5 23q0 6 -3 15t-13 13q-35 10 -51.5 20.5t-16.5 39.5q0 31 24.5 45t45.5 14q8 0 20 -4t24.5 -15.5t20.5 -30t9 -46.5q0 -47 -21 -73t-48.5 -38t-56 -14t-45.5 -2 q-23 0 -54.5 3t-68 19.5t-75.5 54t-76 105.5q-10 18 -24.5 63.5t-30 96.5t-28.5 96t-22 62q-14 35 -37.5 67.5t-58.5 32.5q-16 0 -30.5 -12.5t-47.5 -44.5q-43 -43 -90 -43q-25 0 -43 19t-18 42z" />
<glyph unicode="{" horiz-adv-x="983" d="M283 379v39q70 10 113.5 36.5t69.5 59.5t35 63.5t9 49.5q0 20 -3 45.5t-7 48t-8.5 40t-6.5 25.5q-8 29 -14 71t-6 89q0 57 22.5 119.5t69.5 117t116.5 95.5t166.5 53v-37q-45 -10 -86 -30.5t-72 -50t-49.5 -66.5t-18.5 -80q0 -25 3.5 -50.5t7.5 -49t8 -42t6 -24.5 q6 -27 13 -68.5t7 -89.5q0 -23 -8 -65.5t-38.5 -91.5t-89 -98.5t-158.5 -84.5v-4q80 -29 135 -69.5t91 -87.5t52 -96.5t16 -92.5q0 -47 -7 -89t-13 -68q-4 -16 -14.5 -67.5t-10.5 -98.5q0 -12 5.5 -42t27 -65t67.5 -68.5t126 -54.5v-35q-94 12 -165 53.5t-117 95.5 t-69.5 116.5t-23.5 119.5q0 47 6 89.5t14 70.5q2 8 6.5 25.5t8.5 40t7 47t3 47.5q0 18 -9 49t-35 63.5t-70 59.5t-113 37z" />
<glyph unicode="|" horiz-adv-x="1015" d="M504 -504v1819h90v-1819h-90z" />
<glyph unicode="}" horiz-adv-x="983" d="M238 -498q45 10 86 31t71.5 50.5t49 66.5t18.5 80q0 25 -3 50t-7 49t-8.5 42t-6.5 25q-6 27 -13 68.5t-7 88.5q0 23 8 66t39 92t89 98t159 84v4q-80 29 -135.5 70t-91 88t-52 96t-16.5 92q0 47 7 89t13 69q4 16 14.5 67.5t10.5 98.5q0 12 -5 42t-26.5 64.5t-68 68.5 t-125.5 54v35q94 -12 164.5 -53t116.5 -95.5t69.5 -116.5t23.5 -120q0 -47 -6 -89t-14 -71q-2 -8 -6 -25.5t-8.5 -40t-7.5 -48t-3 -45.5q0 -18 9.5 -49t35 -64t69.5 -59.5t114 -36.5v-39q-70 -10 -114 -37t-69.5 -59.5t-35 -63.5t-9.5 -49q0 -23 3 -47.5t7.5 -47t8.5 -40 t6 -25.5q8 -29 14 -70.5t6 -89.5q0 -57 -22.5 -119.5t-69.5 -116.5t-117.5 -95t-164.5 -54v37z" />
<glyph unicode="~" horiz-adv-x="1366" d="M217 502q4 102 39 157.5t76 81t75.5 29.5t41.5 4q33 0 81 -12t100 -30.5t104 -40t93 -40.5q55 -25 92 -38t62 -19t41 -7t29 -1q25 0 54.5 7t57 26.5t48 56.5t26.5 96h43q-2 -131 -72.5 -201.5t-169.5 -70.5q-20 0 -39.5 2t-47 9t-69.5 22.5t-106 41.5q-86 35 -139 56.5 t-88 33t-57.5 15.5t-45.5 4q-55 0 -89.5 -20.5t-55 -50t-29 -60.5t-12.5 -51h-43z" />
<glyph unicode="&#xa1;" horiz-adv-x="448" d="M-37 -412q0 18 12.5 56.5t20.5 60.5l27 76l129 340q2 8 11 26.5t18 40t17.5 41t12.5 25.5l94 242q20 0 29 -2q-2 -18 -13.5 -68.5t-26.5 -109t-30.5 -112.5t-23.5 -81q-2 -8 -6.5 -29.5t-9.5 -44t-9 -43t-6 -29.5q-8 -27 -12 -45t-9.5 -38.5t-9.5 -47t-12 -69.5 q-18 -74 -31.5 -121t-28 -73.5t-34 -37t-49.5 -10.5q-29 0 -44.5 21.5t-15.5 31.5zM279 719q0 39 24.5 79t77.5 40q51 0 73.5 -40t22.5 -79q0 -10 -6 -26.5t-19.5 -32t-34 -27.5t-46.5 -12q-45 0 -68.5 31.5t-23.5 66.5z" />
<glyph unicode="&#xa2;" horiz-adv-x="618" d="M-14 -248q6 14 23.5 48t37 72t36.5 71.5t23 46.5q-37 14 -57 39.5t-29.5 52.5t-11.5 50.5t-2 33.5q0 59 23.5 129t62.5 140.5t91.5 137t111.5 119.5t120.5 88t119.5 41l141 275h43l-21.5 -43t-44 -87t-46 -91.5t-27.5 -55.5l27.5 -11t33.5 -19.5t28.5 -33t12.5 -48.5 q0 -29 -17.5 -47.5t-43.5 -18.5q-10 0 -22.5 6t-25.5 23q-4 6 -18 31.5t-20 31.5l-334 -657q35 0 71.5 25.5t69.5 59.5t55.5 66.5t30.5 44.5h49q-4 -8 -29.5 -52t-68.5 -93t-101.5 -91t-125.5 -48l-121 -236h-45zM121 166q0 -45 37 -76l338 660q-43 0 -88.5 -33t-87 -84 t-78.5 -115.5t-63.5 -129t-42 -123t-15.5 -99.5z" />
<glyph unicode="&#xa3;" horiz-adv-x="1280" d="M66 -436q0 29 18 55.5t42 49t46.5 38t32.5 19.5l9 6t18.5 14t18.5 14.5t9 8.5t9.5 31.5t21.5 73.5t24.5 96.5t20.5 97.5l3 10q3 10 7 23.5t7 25.5t3 16q-139 12 -266 13q-6 14 -6 20t2 14q14 4 21.5 4.5t21.5 0.5h120.5t119.5 4q37 158 76.5 313.5t99.5 308.5 q10 29 23.5 68t27.5 67q63 117 118.5 185.5t109 102.5t105.5 43t111 9q55 0 90 -9t53.5 -22.5t24.5 -27.5t6 -27q0 -23 -13 -48t-44 -25q-10 0 -18.5 2t-19.5 10t-27.5 23.5t-42.5 39.5q-16 12 -43 25.5t-62 13.5q-16 0 -37.5 -3t-48.5 -23.5t-58.5 -62.5t-68.5 -122 q-33 -72 -57.5 -165t-40.5 -158q-6 -31 -25.5 -103.5t-41 -154.5t-40 -154t-22.5 -100q16 0 53 -1t78 -2t77 -3t52 -4l-3 -7q-3 -8 -6 -17t-6.5 -17.5t-3.5 -10.5q-16 0 -54 -1t-80 -1t-78.5 -1t-51.5 -3l-13 -32.5t-18.5 -48t-18.5 -47t-13 -29.5q-12 -20 -25.5 -47 t-28 -53.5t-27.5 -53.5t-24 -47q41 16 83 30.5t87 14.5q55 0 105.5 -30t105.5 -70q25 -16 71 -51t85 -66q12 -10 24.5 -11.5t26.5 -1.5q23 0 48.5 14.5t48 38t37 51.5t14.5 56q0 12 -1 20.5t-5.5 18.5t-12.5 24.5t-20 39.5q-2 6 -5.5 13t-3.5 17q0 14 12.5 40t47.5 26 q43 0 65.5 -33t22.5 -61q0 -61 -27.5 -122t-76 -107t-112 -74.5t-132.5 -28.5q-29 0 -47.5 3t-37 14.5t-41 29.5t-54.5 49q-76 68 -133.5 99.5t-110.5 31.5q-31 0 -51.5 -11t-35 -28.5t-24.5 -41t-20 -48.5q-8 -20 -25.5 -39.5t-37 -34t-39 -23.5t-31.5 -9q-10 0 -28.5 9 t-18.5 36z" />
<glyph unicode="&#xa4;" horiz-adv-x="1388" d="M266 256l127 125q-14 20 -31.5 46t-32 59.5t-23.5 76.5t-9 96q0 106 34 172t62 107l-127 123l76 76l125 -125q41 29 106.5 62.5t169.5 33.5q53 0 96.5 -10.5t77 -24.5t60.5 -30.5t47 -30.5l125 125l74 -76l-125 -125q14 -20 30.5 -46t31 -59.5t23.5 -76.5t9 -97 q0 -53 -9 -95t-23.5 -75.5t-31 -59.5t-30.5 -44l125 -127l-74 -74l-127 125q-39 -29 -104.5 -62.5t-172.5 -33.5q-53 0 -96 10t-76.5 24.5t-59.5 31t-46 30.5l-125 -125zM403 659q0 -72 27 -133t74 -108t108.5 -74t132.5 -27q70 0 132.5 27t108.5 74t72.5 108.5t26.5 132.5 q0 72 -26.5 134.5t-72.5 108.5t-108.5 72.5t-132.5 26.5q-72 0 -133 -26.5t-108 -72.5t-74 -108.5t-27 -134.5z" />
<glyph unicode="&#xa5;" horiz-adv-x="1280" d="M176 354l8 39q10 0 49 1t96.5 2t129 1h147.5q14 41 24.5 70t17.5 50.5t11.5 37.5t10.5 33q-109 0 -175.5 1t-111.5 1h-82h-86l10 41q25 -2 86.5 -2t129 1t127 2t81.5 1l-28 61q-29 63 -54.5 127t-54.5 127q-4 10 -23.5 55.5t-43 96.5t-43 92t-25.5 45q-18 16 -58 22.5 t-88 12.5l2 35h68.5t38.5 -4q47 -8 96 -10.5t119 -2.5h21.5t41 1t49 4t48.5 8v-50q-47 -4 -76 -6t-46.5 -6t-25.5 -10t-14 -17q4 -8 22.5 -51t44 -102.5t55.5 -128t55.5 -128t43 -102.5t21.5 -51q12 2 43.5 38t83.5 85q47 47 94 98.5t117 118.5q18 18 46.5 47t54.5 59.5 t44 58.5t18 44q0 27 -24.5 40t-58 17.5t-66.5 3.5t-47 -1v40q16 4 31.5 6.5t39.5 2.5q10 0 35 -2t54 -4q29 -4 51 -6.5t32 -2.5q14 0 39 1t50.5 2t47 3.5t29.5 4.5q10 2 21.5 2h28.5v-47q-6 -2 -18.5 -5.5t-27 -6.5t-26.5 -6t-17 -5q-25 -10 -47 -24.5t-53 -41t-75 -70.5 t-113 -112q-35 -33 -77 -77t-88 -91t-91 -96t-82 -92h174h111.5t84 -1t89.5 -1l-9 -43h-157.5h-142h-111.5h-66q-14 -37 -31.5 -88.5t-35.5 -102.5q76 0 130 1t92 1h63.5h43.5h38h57.5t56 -1t37.5 -3l-11 -39h-520q-41 -113 -60.5 -174t-19.5 -92q0 -12 8.5 -28.5 t49.5 -28.5q8 -2 29.5 -4t45 -4t44 -3.5t28.5 -1.5v-21t-2 -11h-47h-30.5t-23.5 -1t-26 -3q-16 -4 -27.5 -3t-35.5 3l-43 -2l-72 8l-33 -2h-57.5h-38.5t-31.5 -1t-34.5 -3q-20 -4 -41.5 -3t-54.5 3q4 16 5 22t5 17q57 4 94.5 7t61 8t34.5 12t17 22q6 8 19.5 38.5t29 70.5 t33 86t31.5 89h-188h-92t-59 -1t-41 -1h-38z" />
<glyph unicode="&#xa6;" horiz-adv-x="1015" d="M504 238h90v-742h-90v742zM504 573v742h90v-742h-90z" />
<glyph unicode="&#xa7;" horiz-adv-x="897" d="M-10 -266q0 16 4 35.5t13 37t23.5 28.5t37.5 11q27 0 41 -13t22 -35.5t10 -50.5t2 -58q4 -78 82 -78q51 0 80 22.5t42 53t16.5 61.5t3.5 49q0 33 -5.5 78t-14.5 96.5t-19.5 104.5t-18.5 100q-23 119 -36 218.5t-13 191.5q0 172 44 308t111.5 230.5t149.5 144.5t160 50 q74 0 119 -25.5t68.5 -60.5t30.5 -71t7 -56q0 -47 -21.5 -73.5t-54.5 -26.5q-35 0 -50 26.5t-19 44.5q-10 51 -18.5 83t-18.5 50.5t-24.5 24.5t-38.5 6q-39 0 -65 -19.5t-40 -47t-20.5 -58.5t-6.5 -55q0 -27 2.5 -50.5t8.5 -63.5t17 -104.5t30 -172.5q8 -41 15 -92.5 t13.5 -104.5t9.5 -105.5t3 -93.5q0 -80 -13.5 -165.5t-42 -168.5t-73 -160t-103.5 -136q-49 -49 -106.5 -79t-126.5 -30q-55 0 -96 18.5t-68 47t-40 63.5t-13 70zM352 715q0 -53 3 -102.5t9.5 -101.5t14.5 -111.5t20 -133.5q14 -92 24.5 -180t10.5 -166q0 -51 -4 -114.5 t-18 -106.5l4 -4q16 18 43.5 57t53.5 98.5t45.5 141.5t19.5 186q0 35 -1.5 62.5t-6.5 70.5t-14 115t-28 195q-2 12 -5 46.5t-7 80t-7 93.5t-3 89q0 57 4 113.5t20 111.5l-4 4q-10 -10 -37.5 -41t-58.5 -85t-54.5 -133t-23.5 -185z" />
<glyph unicode="&#xa8;" d="M369 1098q0 35 23.5 57.5t56.5 22.5q35 0 58 -25t23 -57q0 -33 -23.5 -57.5t-57.5 -24.5q-35 0 -57.5 24.5t-22.5 59.5zM702 1096q0 35 23.5 57.5t56.5 22.5q35 0 58.5 -25t23.5 -57q0 -33 -23.5 -57.5t-58.5 -24.5t-57.5 24.5t-22.5 59.5z" />
<glyph unicode="&#xa9;" horiz-adv-x="1556" d="M129 614q0 147 56.5 277.5t152.5 225.5t225.5 150.5t274.5 55.5t274 -55.5t225.5 -150.5t152.5 -225t56 -278q0 -147 -55 -276t-151.5 -225.5t-225.5 -151.5t-276 -55t-276.5 55t-225.5 151.5t-151.5 225.5t-55.5 276zM190 614q0 -135 51.5 -252.5t138.5 -204.5 t204.5 -138.5t253.5 -51.5q135 0 252.5 51.5t204.5 138.5t138.5 204.5t51.5 252.5t-51.5 254t-139.5 206t-205.5 137.5t-250.5 50.5t-251 -50.5t-206 -137.5t-139.5 -205.5t-51.5 -254.5zM379 608q0 92 35 175t100.5 147.5t156.5 102.5t206 38q27 0 46 -2t38.5 -6t43 -11.5 t58.5 -17.5q16 -6 23.5 -7t13.5 -1q23 0 32 14.5t17 30.5h39l20 -280h-39q-6 20 -22.5 60t-49 79t-89 67.5t-142.5 28.5q-143 0 -232 -101.5t-89 -287.5q0 -16 1 -53t10 -83t29.5 -94.5t57.5 -89.5t93.5 -66.5t140.5 -25.5q23 0 58.5 3t77.5 18.5t87 48.5t88 92l37 -20 q-139 -203 -383 -203q-106 0 -191.5 37t-146 98t-93 142t-32.5 167z" />
<glyph unicode="&#xaa;" horiz-adv-x="532" d="M174 881q0 66 39 136t98.5 127.5t128 94.5t127.5 37q14 0 30.5 -2t25.5 -4q0 2 9 16t13 19q10 2 17.5 2h17.5q8 0 13 -1t18 -6q2 -16 -1 -26t-18 -45l-94 -230q-14 -35 -23.5 -54t-14.5 -33.5t-9 -24.5t-6 -23q33 23 59.5 48.5t54.5 54.5q14 -8 18.5 -12.5l10.5 -10.5 q-6 -8 -26.5 -31.5t-48 -48t-60.5 -43t-61 -18.5q-14 0 -30 5t-16 23t16.5 55.5t29.5 63.5l-5 4q-20 -25 -46.5 -51t-57.5 -47.5t-66.5 -36t-72.5 -14.5q-27 0 -41.5 9t-20.5 21.5t-7 25.5t-1 20zM274 907q0 -37 29 -37q13 0 25 4q31 14 76 51.5t84.5 84.5t68.5 97t29 91 q0 23 -12.5 28t-24.5 5q-41 0 -89 -37t-89 -89t-69 -107.5t-28 -90.5z" />
<glyph unicode="&#xab;" horiz-adv-x="788" d="M59 406q6 6 20.5 19t32 28.5t34 30t28.5 24.5l277 237q6 4 19 16.5t28.5 25t29 23.5t17.5 15h37q-41 -43 -94.5 -97t-108.5 -110.5t-108.5 -110.5t-94.5 -97q6 -23 25.5 -82.5t43 -127t44 -129l28.5 -85.5l-28 -2zM432 403q10 10 44 43t79 76t96 91.5t95.5 90t75 70.5 t36.5 33h31l-230 -272l-31.5 -36t-32.5 -38.5t-27.5 -33.5t-16.5 -21q0 -6 4 -37t9 -75t11.5 -93t11.5 -92t9 -72t4 -33h-27z" />
<glyph unicode="&#xac;" horiz-adv-x="1366" d="M213 823v88h1071v-551h-84v463h-987z" />
<glyph unicode="&#xad;" horiz-adv-x="532" d="M86 356q2 6 7 18.5t12.5 27t13.5 26.5l8 16q6 0 21.5 1t33 2.5t31.5 1.5h20l82 2q6 0 23.5 -1t36 -1t35 -1.5t22.5 -1.5h53.5t44.5 -2q-6 -16 -17 -45.5t-21 -48.5q-10 0 -23.5 -2t-19.5 -2l-17 4l-57 -2q-4 0 -22.5 2t-24.5 2q-10 0 -32 -1t-46.5 -1t-47 -1t-30.5 -1 q-4 0 -17.5 3t-17.5 3q-14 2 -23.5 2h-27.5z" />
<glyph unicode="&#xae;" horiz-adv-x="1556" d="M129 614q0 147 56.5 277.5t152.5 225.5t225.5 150.5t274.5 55.5t274 -55.5t225.5 -150.5t152.5 -225t56 -278q0 -147 -55 -276t-151.5 -225.5t-225.5 -151.5t-276 -55t-276.5 55t-225.5 151.5t-151.5 225.5t-55.5 276zM190 614q0 -135 51.5 -252.5t138.5 -204.5 t204.5 -138.5t253.5 -51.5q135 0 252.5 51.5t204.5 138.5t138.5 204.5t51.5 252.5t-51.5 254t-139.5 206t-205.5 137.5t-250.5 50.5t-251 -50.5t-206 -137.5t-139.5 -205.5t-51.5 -254.5zM434 184v35q39 0 60.5 7t31 24.5t11.5 43t2 62.5v525q0 37 -1 62.5t-10.5 41.5 t-29 23.5t-54.5 7.5v35h387q141 0 219 -63.5t78 -160.5q0 -61 -26.5 -102t-63.5 -65.5t-74.5 -37t-58.5 -18.5l211 -297q23 -31 40.5 -48t30.5 -26.5t25.5 -11.5t24.5 -2v-35h-184l-295 406h-76v-309q0 -23 13.5 -35.5t31.5 -18.5t38.5 -7t35.5 -1v-35h-367zM682 633h31 q37 0 81 7t81.5 26.5t64.5 55.5t27 93q0 76 -53.5 133.5t-147.5 57.5q-29 0 -47.5 -4.5t-36.5 -10.5v-358z" />
<glyph unicode="&#xaf;" d="M383 1059q12 27 19.5 40t19.5 29h81h123.5h124h78.5q-16 -29 -22 -43t-14 -26h-410z" />
<glyph unicode="&#xb0;" horiz-adv-x="811" d="M240 1016q0 63 24.5 119.5t66.5 97.5t97.5 65.5t118.5 24.5t118.5 -24.5t97.5 -65.5t66.5 -97.5t24.5 -119.5t-24.5 -119.5t-65.5 -97.5t-97.5 -65.5t-119.5 -24.5t-119.5 24.5t-97.5 65.5t-65.5 97t-24.5 120zM324 1016q0 -47 17 -87t47 -71t71 -48t88 -17q45 0 86 17 t71.5 48t48 71t17.5 87t-17.5 88t-48 70.5t-71.5 47t-86 17.5t-86 -17.5t-72 -47t-48 -70.5t-17 -88z" />
<glyph unicode="&#xb1;" horiz-adv-x="1366" d="M213 0v88h1071v-88h-1071zM213 770v88h492v492h88v-492h491v-88h-491v-491h-88v491h-492z" />
<glyph unicode="&#xb2;" horiz-adv-x="575" d="M100 621q4 16 11.5 24t31.5 29q51 41 90 72.5t70 57t56.5 48t50.5 45.5q43 39 75.5 70.5t53 59.5t31 55.5t10.5 58.5t-9.5 50t-24 29.5t-30.5 13.5t-31 3q-68 0 -103.5 -35t-64.5 -88h-55q23 59 53.5 95t63.5 55.5t65.5 25.5t57.5 6q94 0 143 -43t49 -106q0 -12 -2 -31.5 t-17.5 -46.5t-47 -61.5t-88.5 -79.5q-18 -12 -60.5 -45t-89.5 -70t-89 -68.5t-58 -42.5v-4h327l-22 -77h-447z" />
<glyph unicode="&#xb3;" horiz-adv-x="575" d="M106 610l11 33q121 4 195.5 42t115.5 84t55.5 89t14.5 57q0 33 -19.5 53.5t-50.5 20.5q-10 0 -42 -8t-83 -49q-16 10 -20 16t-11 17q12 8 44 26.5t67 38t65.5 37.5t40.5 29q16 14 36 38.5t20 59.5q0 25 -16.5 36t-39.5 11q-27 0 -46 -10t-32.5 -23.5t-20.5 -28t-11 -20.5 l-43 17q12 37 34.5 59t49 36.5t53.5 19.5t47 5q72 0 103.5 -30.5t31.5 -65.5q0 -45 -36.5 -75.5t-120.5 -77.5q12 -4 30.5 -10.5t35 -18.5t28.5 -32.5t12 -51.5q0 -47 -30.5 -105.5t-92 -108.5t-156 -83t-219.5 -27z" />
<glyph unicode="&#xb4;" d="M498 944l24 36q25 36 56.5 81t61.5 86t40 53q16 16 40.5 34.5t53.5 18.5q31 0 43 -16t12 -29q0 -16 -5 -28.5t-21.5 -27.5t-48 -37.5t-84.5 -61.5l-156 -111z" />
<glyph unicode="&#xb6;" horiz-adv-x="927" d="M115 901q0 82 28.5 152.5t87 123t145.5 83t206 30.5h536v-39h-43q-45 0 -68.5 -11t-34.5 -35.5t-13.5 -64.5t-2.5 -100v-1544h-73v1737h-195v-1737h-76v1010q-131 6 -225 29.5t-156 78.5q-66 59 -91 140.5t-25 146.5z" />
<glyph unicode="&#xb7;" horiz-adv-x="724" d="M309 635q0 16 7.5 35.5t20.5 36t32.5 27.5t46.5 11q47 0 73.5 -34.5t26.5 -75.5q0 -47 -30.5 -79t-73.5 -32q-29 0 -48.5 12.5t-32 30t-17.5 37t-5 31.5z" />
<glyph unicode="&#xb8;" d="M47 -403q0 20 10.5 29t16.5 9q8 0 14 -5t29 -21q4 -4 17 -13.5t34 -9.5q35 0 59.5 29t24.5 66q0 35 -17.5 59t-31.5 35q-27 18 -31 23t-4 20l84 196h29q-4 -8 -12.5 -27.5t-16.5 -40t-15.5 -39t-7.5 -22.5q0 -10 4.5 -16t24.5 -29q8 -8 26.5 -42t18.5 -83 q0 -29 -10 -59.5t-30.5 -55t-52.5 -41t-77 -16.5q-8 0 -22.5 1t-28.5 6.5t-24.5 16.5t-10.5 30z" />
<glyph unicode="&#xb9;" horiz-adv-x="575" d="M262 1122q23 8 56.5 23.5t72.5 36t78 48t74 64.5h59l-221 -676h-105l179 547q-31 -16 -53.5 -28.5t-43 -21.5t-42 -17t-50.5 -19z" />
<glyph unicode="&#xba;" horiz-adv-x="468" d="M199 961q0 57 25.5 121.5t68.5 117.5t97 88t112 35q45 0 69.5 -20.5t35.5 -48t13.5 -53.5t2.5 -34q0 -74 -26 -139t-68 -114.5t-95 -79t-106 -29.5q-47 0 -74 21.5t-39 49t-14 52t-2 33.5zM283 893q0 -27 12 -37t29 -10q39 0 78.5 47t72.5 109.5t53.5 127t20.5 101.5 q0 10 -6 30.5t-29 20.5q-35 0 -75 -43t-74.5 -104.5t-58 -128t-23.5 -113.5z" />
<glyph unicode="&#xbb;" horiz-adv-x="788" d="M-51 6l344 400l-51 403h26l142 -401q-104 -102 -210 -202t-214 -200h-37zM260 -12q8 8 35 35.5t63.5 65.5t79.5 82t85 87t79 81t64 64q-4 12 -15.5 47t-27 81.5t-33 97.5t-31.5 94t-24.5 71.5t-10.5 32.5l31 -4l227 -417l-403 -347q-20 -18 -47 -41.5t-37 -29.5h-35z" />
<glyph unicode="&#xbc;" horiz-adv-x="1515" d="M211 1122q23 8 56.5 23.5t72.5 36t78 48t74 64.5h59l-221 -676h-105l178 547q-31 -16 -53 -28.5t-42.5 -21.5t-42 -17t-50.5 -19zM301 -66q27 45 48.5 81t43 70t45 68.5t54.5 77.5q20 31 75.5 116t126 197.5t147.5 236.5t145.5 232.5t116.5 186.5t62 96q6 2 30 0t30 -2 l-500 -811q-8 -8 -21.5 -25.5t-26.5 -39t-26.5 -44t-23.5 -38.5q-4 -6 -16.5 -27.5t-16.5 -25.5l-232 -351zM891 195l6 45l485 434h54l-142 -422h142l-19 -57h-143l-64 -195h-108l63 195h-274zM983 252h203l86 256l-4 4z" />
<glyph unicode="&#xbd;" horiz-adv-x="1515" d="M211 1122q23 8 56.5 23.5t72.5 36t78 48t74 64.5h59l-221 -676h-105l178 547q-31 -16 -53 -28.5t-42.5 -21.5t-42 -17t-50.5 -19zM279 -66q27 45 48 81t42.5 70t45 68.5t54.5 77.5q23 31 77 116t124.5 197.5t147.5 236.5t145.5 232.5t116.5 186.5t63 96q6 2 29.5 0 t29.5 -2l-500 -811q-8 -8 -21 -25.5t-26.5 -39t-27 -44t-23.5 -38.5q-4 -6 -16.5 -27.5t-16.5 -25.5l-231 -351zM911 0q4 16 11.5 24.5t31.5 28.5q51 41 90 73t70 57.5t56.5 48t50.5 44.5q43 39 75.5 71t53 59.5t31 55t10.5 58.5t-9.5 50.5t-24 29.5t-30.5 13t-31 3 q-68 0 -103.5 -34.5t-64.5 -87.5h-55q23 59 53.5 95t63.5 55.5t65.5 25.5t57.5 6q94 0 143 -43t49 -107q0 -12 -2 -31.5t-17.5 -46t-47 -61.5t-88.5 -80q-18 -12 -60.5 -45t-89.5 -69.5t-89 -68.5t-58 -42v-4h327l-22 -78h-447z" />
<glyph unicode="&#xbe;" horiz-adv-x="1515" d="M55 610l11 33q121 4 195.5 42t115.5 84t55 89t14 57q0 33 -19 53.5t-50 20.5q-10 0 -42 -8t-83 -49q-16 10 -20.5 16t-10.5 17q12 8 44 26.5t67 38t65.5 37.5t40.5 29q16 14 36 38.5t20 59.5q0 25 -16.5 36t-39.5 11q-27 0 -46 -10t-32.5 -23.5t-20.5 -28t-11 -20.5 l-43 17q12 37 34.5 59t49 36.5t53.5 19.5t47 5q72 0 103.5 -30.5t31.5 -65.5q0 -45 -37 -75.5t-121 -77.5q12 -4 31 -10.5t35 -18.5t28.5 -32.5t12.5 -51.5q0 -47 -30.5 -105.5t-92 -108.5t-156 -83t-219.5 -27zM291 -66q27 45 48 81t42.5 70t45.5 68.5t54 77.5 q20 31 75.5 116t126.5 197.5t147.5 236.5t145 232.5t117 186.5t62.5 96q6 2 29.5 0t29.5 -2l-499 -811q-8 -8 -21.5 -25.5t-27 -39t-26.5 -44t-24 -38.5q-4 -6 -16 -27.5t-16 -25.5l-232 -351zM891 195l6 45l485 434h54l-142 -422h142l-19 -57h-143l-64 -195h-108l63 195 h-274zM983 252h203l86 256l-4 4z" />
<glyph unicode="&#xbf;" horiz-adv-x="747" d="M-10 -227q0 61 19.5 111t60.5 96.5t102 91.5t147 98q98 70 152.5 122t54.5 124v9t2 13q-10 33 -38.5 51.5t-63.5 18.5q-29 0 -51.5 -17.5t-40 -41t-27.5 -47t-14 -33.5q-12 0 -18.5 2t-16.5 8q4 37 22.5 69.5t44 57t55.5 39t60 14.5q14 0 40 -10t50.5 -32.5t43 -57.5 t18.5 -84q0 -68 -30 -126.5t-71.5 -105.5t-90 -83.5t-85.5 -63.5q-59 -41 -104 -75t-77 -65.5t-48 -64.5t-16 -72q0 -35 16 -64.5t44 -51t61.5 -33.5t70.5 -12q41 0 78 18t43 23q14 14 24.5 25t18.5 24.5t16.5 32t16.5 47.5q18 2 26.5 2h24.5q-16 -109 -90 -163t-178 -54 q-31 0 -74 11t-83 40.5t-67.5 80t-27.5 128.5zM430 711q0 51 29.5 89t72.5 38q29 0 57.5 -25t28.5 -88q0 -12 -6 -31.5t-19 -37t-33.5 -31t-49.5 -13.5q-23 0 -51.5 28t-28.5 71z" />
<glyph unicode="&#xc0;" horiz-adv-x="1492" d="M-168 25q8 2 32.5 5t51.5 6t50.5 5t31.5 4q18 4 32.5 10t33 21.5t45 42t69.5 74.5q8 8 56.5 54t116 110.5t145 139t146.5 139t116 110t53 53.5q51 49 122 117.5t143.5 141t137 139.5t101.5 112h59q0 -6 -1 -19.5t-3 -29t-3 -29.5t-1 -19q0 -10 -3 -65t-9 -134t-12.5 -171 t-12.5 -174t-10 -143.5t-6 -80.5q-4 -37 -6 -59.5t-3 -41.5t-2.5 -40.5t-1.5 -56.5l-12 -178v-5q0 -6 2 -8t25.5 -6t53.5 -9t57.5 -11t37.5 -9l-4 -36q-18 4 -46 7t-56 5q-29 2 -55.5 3t-42.5 1t-52.5 -2t-77.5 -6t-74.5 -6t-47.5 -2h-15.5h-26t-26.5 1t-16 1q0 20 2 30 q10 2 34.5 6.5t52 8.5t51 7t34.5 3q16 2 25.5 5t14.5 11.5t7 24.5t6 47q8 76 12 121t7.5 77.5t4.5 59.5t3 64q0 10 1 18t3 18h-33q-6 0 -22.5 -1t-34 -1t-33 -1t-21.5 -1h-65t-131 -1t-158 -3t-145 -6q-27 -23 -74 -65.5t-95 -89t-87 -84t-50 -50.5q-31 -33 -50 -52 t-28.5 -31.5t-12.5 -17.5t-3 -11q0 -23 27 -28t43 -5l121 -16q-4 -16 -5 -21.5t-6 -15.5q-45 4 -71.5 7t-44 4t-30.5 1h-30q-18 0 -62 -2t-93 -4t-93.5 -3t-60.5 1zM598 532q0 -6 9 -9t16 -3h28.5h60h65.5t44 2q14 -2 67.5 -1t115 4t114.5 7.5t66 8.5q2 10 6 54t9 105.5 t10 131t9.5 130t7.5 104.5t3 54q-6 -4 -20.5 -15t-32 -25.5l-35 -29t-31.5 -26.5q-55 -53 -115.5 -109.5t-118 -110.5t-106.5 -99.5t-80 -71.5l-21.5 -21.5t-30.5 -33t-28 -32.5zM1030 1708q0 29 19.5 37t30.5 8q41 0 68.5 -26.5t39.5 -42.5q4 -4 24.5 -32t48 -63.5 t56.5 -75.5t47 -69q-12 0 -17 1t-16 9q-86 61 -137 96t-78.5 55.5t-39 29t-17.5 14.5q-16 16 -22.5 30.5t-6.5 28.5z" />
<glyph unicode="&#xc1;" horiz-adv-x="1492" d="M-168 25q8 2 32.5 5t51.5 6t50.5 5t31.5 4q18 4 32.5 10t33 21.5t45 42t69.5 74.5q8 8 56.5 54t116 110.5t145 139t146.5 139t116 110t53 53.5q51 49 122 117.5t143.5 141t137 139.5t101.5 112h59q0 -6 -1 -19.5t-3 -29t-3 -29.5t-1 -19q0 -10 -3 -65t-9 -134t-12.5 -171 t-12.5 -174t-10 -143.5t-6 -80.5q-4 -37 -6 -59.5t-3 -41.5t-2.5 -40.5t-1.5 -56.5l-12 -178v-5q0 -6 2 -8t25.5 -6t53.5 -9t57.5 -11t37.5 -9l-4 -36q-18 4 -46 7t-56 5q-29 2 -55.5 3t-42.5 1t-52.5 -2t-77.5 -6t-74.5 -6t-47.5 -2h-15.5h-26t-26.5 1t-16 1q0 20 2 30 q10 2 34.5 6.5t52 8.5t51 7t34.5 3q16 2 25.5 5t14.5 11.5t7 24.5t6 47q8 76 12 121t7.5 77.5t4.5 59.5t3 64q0 10 1 18t3 18h-33q-6 0 -22.5 -1t-34 -1t-33 -1t-21.5 -1h-65t-131 -1t-158 -3t-145 -6q-27 -23 -74 -65.5t-95 -89t-87 -84t-50 -50.5q-31 -33 -50 -52 t-28.5 -31.5t-12.5 -17.5t-3 -11q0 -23 27 -28t43 -5l121 -16q-4 -16 -5 -21.5t-6 -15.5q-45 4 -71.5 7t-44 4t-30.5 1h-30q-18 0 -62 -2t-93 -4t-93.5 -3t-60.5 1zM598 532q0 -6 9 -9t16 -3h28.5h60h65.5t44 2q14 -2 67.5 -1t115 4t114.5 7.5t66 8.5q2 10 6 54t9 105.5 t10 131t9.5 130t7.5 104.5t3 54q-6 -4 -20.5 -15t-32 -25.5l-35 -29t-31.5 -26.5q-55 -53 -115.5 -109.5t-118 -110.5t-106.5 -99.5t-80 -71.5l-21.5 -21.5t-30.5 -33t-28 -32.5zM1088 1444l24 36q25 36 56.5 81t61.5 86t40 53q16 16 40.5 34.5t53.5 18.5q31 0 43 -16 t12 -29q0 -16 -5 -28.5t-21.5 -27.5t-48 -37.5t-84.5 -61.5l-156 -111z" />
<glyph unicode="&#xc2;" horiz-adv-x="1492" d="M-168 25q8 2 32.5 5t51.5 6t50.5 5t31.5 4q18 4 32.5 10t33 21.5t45 42t69.5 74.5q8 8 56.5 54t116 110.5t145 139t146.5 139t116 110t53 53.5q51 49 122 117.5t143.5 141t137 139.5t101.5 112h59q0 -6 -1 -19.5t-3 -29t-3 -29.5t-1 -19q0 -10 -3 -65t-9 -134t-12.5 -171 t-12.5 -174t-10 -143.5t-6 -80.5q-4 -37 -6 -59.5t-3 -41.5t-2.5 -40.5t-1.5 -56.5l-12 -178v-5q0 -6 2 -8t25.5 -6t53.5 -9t57.5 -11t37.5 -9l-4 -36q-18 4 -46 7t-56 5q-29 2 -55.5 3t-42.5 1t-52.5 -2t-77.5 -6t-74.5 -6t-47.5 -2h-15.5h-26t-26.5 1t-16 1q0 20 2 30 q10 2 34.5 6.5t52 8.5t51 7t34.5 3q16 2 25.5 5t14.5 11.5t7 24.5t6 47q8 76 12 121t7.5 77.5t4.5 59.5t3 64q0 10 1 18t3 18h-33q-6 0 -22.5 -1t-34 -1t-33 -1t-21.5 -1h-65t-131 -1t-158 -3t-145 -6q-27 -23 -74 -65.5t-95 -89t-87 -84t-50 -50.5q-31 -33 -50 -52 t-28.5 -31.5t-12.5 -17.5t-3 -11q0 -23 27 -28t43 -5l121 -16q-4 -16 -5 -21.5t-6 -15.5q-45 4 -71.5 7t-44 4t-30.5 1h-30q-18 0 -62 -2t-93 -4t-93.5 -3t-60.5 1zM598 532q0 -6 9 -9t16 -3h28.5h60h65.5t44 2q14 -2 67.5 -1t115 4t114.5 7.5t66 8.5q2 10 6 54t9 105.5 t10 131t9.5 130t7.5 104.5t3 54q-6 -4 -20.5 -15t-32 -25.5l-35 -29t-31.5 -26.5q-55 -53 -115.5 -109.5t-118 -110.5t-106.5 -99.5t-80 -71.5l-21.5 -21.5t-30.5 -33t-28 -32.5zM965 1403q6 6 33.5 34t68.5 66.5t87 84t87 84t72 67.5t39 35l57 2l21 -375h-23q-4 10 -15 47 t-22.5 78t-22.5 76t-16 43l-335 -240z" />
<glyph unicode="&#xc3;" horiz-adv-x="1492" d="M-168 25q8 2 32.5 5t51.5 6t50.5 5t31.5 4q18 4 32.5 10t33 21.5t45 42t69.5 74.5q8 8 56.5 54t116 110.5t145 139t146.5 139t116 110t53 53.5q51 49 122 117.5t143.5 141t137 139.5t101.5 112h59q0 -6 -1 -19.5t-3 -29t-3 -29.5t-1 -19q0 -10 -3 -65t-9 -134t-12.5 -171 t-12.5 -174t-10 -143.5t-6 -80.5q-4 -37 -6 -59.5t-3 -41.5t-2.5 -40.5t-1.5 -56.5l-12 -178v-5q0 -6 2 -8t25.5 -6t53.5 -9t57.5 -11t37.5 -9l-4 -36q-18 4 -46 7t-56 5q-29 2 -55.5 3t-42.5 1t-52.5 -2t-77.5 -6t-74.5 -6t-47.5 -2h-15.5h-26t-26.5 1t-16 1q0 20 2 30 q10 2 34.5 6.5t52 8.5t51 7t34.5 3q16 2 25.5 5t14.5 11.5t7 24.5t6 47q8 76 12 121t7.5 77.5t4.5 59.5t3 64q0 10 1 18t3 18h-33q-6 0 -22.5 -1t-34 -1t-33 -1t-21.5 -1h-65t-131 -1t-158 -3t-145 -6q-27 -23 -74 -65.5t-95 -89t-87 -84t-50 -50.5q-31 -33 -50 -52 t-28.5 -31.5t-12.5 -17.5t-3 -11q0 -23 27 -28t43 -5l121 -16q-4 -16 -5 -21.5t-6 -15.5q-45 4 -71.5 7t-44 4t-30.5 1h-30q-18 0 -62 -2t-93 -4t-93.5 -3t-60.5 1zM598 532q0 -6 9 -9t16 -3h28.5h60h65.5t44 2q14 -2 67.5 -1t115 4t114.5 7.5t66 8.5q2 10 6 54t9 105.5 t10 131t9.5 130t7.5 104.5t3 54q-6 -4 -20.5 -15t-32 -25.5l-35 -29t-31.5 -26.5q-55 -53 -115.5 -109.5t-118 -110.5t-106.5 -99.5t-80 -71.5l-21.5 -21.5t-30.5 -33t-28 -32.5zM916 1491q-2 55 12 94t37.5 64t52.5 36t57 11q45 0 89 -21.5t122 -72.5q12 -8 39 -22.5 t49 -14.5q29 0 47.5 15.5t27.5 37t13.5 44t6.5 34.5h14q2 -57 -13.5 -96t-40 -63.5t-54 -35t-54.5 -10.5q-23 0 -43 5t-42.5 16.5t-48.5 28t-60 40.5q-6 4 -37 20.5t-66 16.5q-31 0 -48 -15.5t-26.5 -35.5t-12.5 -41.5t-5 -34.5h-16z" />
<glyph unicode="&#xc4;" horiz-adv-x="1492" d="M-168 25q8 2 32.5 5t51.5 6t50.5 5t31.5 4q18 4 32.5 10t33 21.5t45 42t69.5 74.5q8 8 56.5 54t116 110.5t145 139t146.5 139t116 110t53 53.5q51 49 122 117.5t143.5 141t137 139.5t101.5 112h59q0 -6 -1 -19.5t-3 -29t-3 -29.5t-1 -19q0 -10 -3 -65t-9 -134t-12.5 -171 t-12.5 -174t-10 -143.5t-6 -80.5q-4 -37 -6 -59.5t-3 -41.5t-2.5 -40.5t-1.5 -56.5l-12 -178v-5q0 -6 2 -8t25.5 -6t53.5 -9t57.5 -11t37.5 -9l-4 -36q-18 4 -46 7t-56 5q-29 2 -55.5 3t-42.5 1t-52.5 -2t-77.5 -6t-74.5 -6t-47.5 -2h-15.5h-26t-26.5 1t-16 1q0 20 2 30 q10 2 34.5 6.5t52 8.5t51 7t34.5 3q16 2 25.5 5t14.5 11.5t7 24.5t6 47q8 76 12 121t7.5 77.5t4.5 59.5t3 64q0 10 1 18t3 18h-33q-6 0 -22.5 -1t-34 -1t-33 -1t-21.5 -1h-65t-131 -1t-158 -3t-145 -6q-27 -23 -74 -65.5t-95 -89t-87 -84t-50 -50.5q-31 -33 -50 -52 t-28.5 -31.5t-12.5 -17.5t-3 -11q0 -23 27 -28t43 -5l121 -16q-4 -16 -5 -21.5t-6 -15.5q-45 4 -71.5 7t-44 4t-30.5 1h-30q-18 0 -62 -2t-93 -4t-93.5 -3t-60.5 1zM598 532q0 -6 9 -9t16 -3h28.5h60h65.5t44 2q14 -2 67.5 -1t115 4t114.5 7.5t66 8.5q2 10 6 54t9 105.5 t10 131t9.5 130t7.5 104.5t3 54q-6 -4 -20.5 -15t-32 -25.5l-35 -29t-31.5 -26.5q-55 -53 -115.5 -109.5t-118 -110.5t-106.5 -99.5t-80 -71.5l-21.5 -21.5t-30.5 -33t-28 -32.5zM1000 1598q0 35 23.5 57.5t56.5 22.5q35 0 58 -25t23 -57q0 -33 -23.5 -57.5t-57.5 -24.5 q-35 0 -57.5 24.5t-22.5 59.5zM1333 1596q0 35 23.5 57.5t56.5 22.5q35 0 58.5 -25t23.5 -57q0 -33 -23.5 -57.5t-58.5 -24.5t-57.5 24.5t-22.5 59.5z" />
<glyph unicode="&#xc5;" horiz-adv-x="1492" d="M-168 25q8 2 32.5 5t51.5 6t50.5 5t31.5 4q18 4 32.5 10t33 21.5t45 42t69.5 74.5q8 8 56.5 54t116 110.5t145 139t146.5 139t116 110t53 53.5q51 49 122 117.5t143.5 141t137 139.5t101.5 112h59q0 -6 -1 -19.5t-3 -29t-3 -29.5t-1 -19q0 -10 -3 -65t-9 -134t-12.5 -171 t-12.5 -174t-10 -143.5t-6 -80.5q-4 -37 -6 -59.5t-3 -41.5t-2.5 -40.5t-1.5 -56.5l-12 -178v-5q0 -6 2 -8t25.5 -6t53.5 -9t57.5 -11t37.5 -9l-4 -36q-18 4 -46 7t-56 5q-29 2 -55.5 3t-42.5 1t-52.5 -2t-77.5 -6t-74.5 -6t-47.5 -2h-15.5h-26t-26.5 1t-16 1q0 20 2 30 q10 2 34.5 6.5t52 8.5t51 7t34.5 3q16 2 25.5 5t14.5 11.5t7 24.5t6 47q8 76 12 121t7.5 77.5t4.5 59.5t3 64q0 10 1 18t3 18h-33q-6 0 -22.5 -1t-34 -1t-33 -1t-21.5 -1h-65t-131 -1t-158 -3t-145 -6q-27 -23 -74 -65.5t-95 -89t-87 -84t-50 -50.5q-31 -33 -50 -52 t-28.5 -31.5t-12.5 -17.5t-3 -11q0 -23 27 -28t43 -5l121 -16q-4 -16 -5 -21.5t-6 -15.5q-45 4 -71.5 7t-44 4t-30.5 1h-30q-18 0 -62 -2t-93 -4t-93.5 -3t-60.5 1zM598 532q0 -6 9 -9t16 -3h28.5h60h65.5t44 2q14 -2 67.5 -1t115 4t114.5 7.5t66 8.5q2 10 6 54t9 105.5 t10 131t9.5 130t7.5 104.5t3 54q-6 -4 -20.5 -15t-32 -25.5l-35 -29t-31.5 -26.5q-55 -53 -115.5 -109.5t-118 -110.5t-106.5 -99.5t-80 -71.5l-21.5 -21.5t-30.5 -33t-28 -32.5zM1053 1594q0 76 50 122t114 46q70 0 118 -48.5t48 -117.5q0 -70 -49.5 -118t-116.5 -48 q-31 0 -60.5 12t-53.5 33.5t-37 51.5t-13 67zM1096 1596q0 -53 37 -87t82 -34q53 0 89 34.5t36 86.5q0 53 -37 88t-84 35q-49 0 -86 -35t-37 -88z" />
<glyph unicode="&#xc6;" horiz-adv-x="1728" d="M-160 -12l4 41q45 12 77 23t60.5 29.5t58.5 49.5t71 82l266 332q23 29 53.5 66.5t52.5 66.5l262 321l123 152q27 33 43.5 52.5t6.5 33.5q-23 8 -45.5 11t-75.5 9q-29 4 -49.5 4.5t-20.5 12.5q0 6 5 15t9 16h1092q-2 -31 -8 -67t-13.5 -68.5t-13.5 -55t-6 -27.5 q-16 -2 -31 0q-2 61 -6 96.5t-19.5 51.5t-47 20.5t-89.5 4.5h-89h-126.5t-115.5 -3.5t-56 -9.5q-6 -6 -23.5 -52t-36.5 -103.5t-36.5 -111.5t-23.5 -75q0 -2 -7.5 -22.5t-17.5 -50t-21.5 -64.5t-19.5 -68h131t133.5 3.5t112.5 8.5t70 13q29 10 53 41t73 113q16 0 23.5 -1 t13.5 -4q-4 -16 -14 -45.5t-22.5 -63.5t-25.5 -68.5t-22 -63.5l-61 -189h-12t-29 5q0 8 3 27.5t6 41t6 41t3 27.5t-4 26.5t-20 24.5q-33 14 -78 18t-123 4h-196q-2 0 -10.5 -1t-24.5 -1l-166 -460q-12 -37 -20.5 -59.5t-12.5 -36t-5 -23.5t-1 -23q6 -6 35.5 -10t64.5 -5 t69 -2t48 -1q119 0 205 11t151.5 42t116.5 83t100 134h35q-4 -29 -20.5 -78t-34.5 -98t-34.5 -91t-22.5 -54q-8 2 -17.5 3t-19.5 3t-18.5 2h-14.5h-492q-57 0 -128.5 -1t-147.5 -3t-146.5 -3t-129.5 -1l8 39q70 8 111.5 13t65 11t35 14.5t21.5 22.5q6 10 20.5 43t30 70 t26.5 67.5t13 36.5l119 348q-29 2 -71 5t-101 3q-53 0 -90 -2t-64 -4l-376 -473q-6 -8 -15.5 -20.5t-18.5 -25.5t-15.5 -25.5t-6.5 -20.5q0 -10 9.5 -17.5t21.5 -13.5t23.5 -10t15.5 -4q6 -2 20.5 -5t29.5 -6t28.5 -5t19.5 -2l-10 -39q-16 2 -37.5 4t-50.5 4q-59 6 -148 6 q-10 0 -34.5 -2t-52 -4t-54 -4t-39.5 -2zM575 705q41 -2 92.5 -4.5t82.5 -2.5q25 0 62.5 2t59.5 7q8 18 24.5 61t36 99.5t41 120t41 118.5t32 97t16.5 59h-41l-248 -304q-41 -51 -82 -104l-82 -106q-16 -23 -22 -28t-13 -15z" />
<glyph unicode="&#xc7;" horiz-adv-x="1366" d="M199 457q0 53 13 110.5t30.5 106.5t34 84t22.5 43q41 59 69.5 97t58.5 69.5t67.5 63.5t97.5 79q39 20 93 54t97 50q53 20 88 33t67 22t67.5 17t93.5 21q35 6 70.5 9t68.5 4t56.5 2t33.5 1q47 0 95 -4t91 -9t76 -11.5t49 -10.5l-15 -45t-24.5 -67.5t-25.5 -66.5t-17 -44 l-34 -2v22.5t2 24.5q0 6 3 21.5t6 32t6 31.5t3 22q0 23 -21.5 33t-86.5 22q-16 4 -49 9t-66 5q-162 0 -291 -51t-246 -123q-119 -72 -198.5 -166t-127.5 -188t-68.5 -178t-20.5 -136q0 -25 1 -60.5t8 -76.5t22.5 -81t43.5 -70q18 -23 51 -47.5t75 -47t93.5 -37t108.5 -14.5 q201 0 309 82q18 14 38 32.5t37 35t28.5 31t15.5 18.5q18 27 28.5 44t16.5 26.5t9 14.5t8 9l26 -2q0 -14 -11 -49t-24.5 -73t-25 -66.5t-11.5 -30.5l-92 -45q-90 -35 -194.5 -52.5t-212.5 -17.5q-12 -27 -21.5 -44t-15.5 -29.5t-11 -23.5t-12 -28q12 -10 27.5 -23.5 t31 -31.5t26 -43t10.5 -53q0 -37 -16.5 -72t-47.5 -61.5t-74 -43t-94 -16.5q-14 0 -40.5 3t-52.5 10.5t-44.5 18.5t-18.5 26q0 4 3.5 11t15.5 21q20 4 32.5 0t30.5 -16q27 -8 42.5 -13t26.5 -7.5t19.5 -3.5t18.5 -1q41 0 77 30t36 77q0 43 -26 63.5t-73 42.5q20 47 38 83 t28 53q20 35 27.5 46t13.5 27q-135 23 -216 54.5t-120 72.5q-72 76 -104.5 161t-32.5 200z" />
<glyph unicode="&#xc8;" horiz-adv-x="1472" d="M-20 -10v24q27 14 67.5 13.5t69.5 5.5q33 6 49 9t35 21q12 12 18 33t14 45q2 2 16.5 46t36 105.5t44 127t39.5 115.5l100 292q27 82 44 130.5t28.5 78t18.5 49t15 43.5q4 12 9.5 34t5.5 44q0 14 -4 23.5t-23.5 15.5t-58.5 11.5t-107 13.5l9 33q10 2 36.5 2t57.5 -2 q31 0 57.5 -1.5t34.5 -3.5q2 0 30.5 1t70.5 2.5t92.5 2.5t97.5 2t85 1t54 2l82 -2h60h88h87h58h34.5h52t53.5 1t38 1l-55 -224q-16 -2 -33 0l-2 78l4 58q0 16 -4 24t-19 19q-20 2 -54 3t-116 1q-18 0 -63 -1t-94 -1t-92 -1t-60 -1q-80 0 -125 -1t-66.5 -5.5t-28.5 -12.5 t-13 -20q-8 -23 -26.5 -77t-39 -113.5t-39 -113t-24.5 -73.5q-10 -29 -22.5 -71t-16.5 -64q6 0 42 2t86 4t109.5 5t113.5 6t98 5t65 2q49 2 81.5 7.5t58.5 22.5t49.5 49t53.5 87l39 2q-6 -23 -26.5 -83t-43 -126.5t-43 -125t-28.5 -78.5l-29 2q2 23 6.5 59.5t4.5 62.5 q0 23 -9.5 43.5t-35.5 24.5q-4 0 -21.5 1t-42 2t-52.5 2t-48 1q-4 0 -57.5 -2t-125 -5t-145.5 -8t-119 -11q-4 -10 -11 -32t-15.5 -46.5t-14.5 -44t-8 -25.5q-4 -10 -18.5 -45t-31.5 -81t-36.5 -98t-37 -97t-28 -79t-10.5 -42q0 -16 14.5 -25.5t33 -13.5t34.5 -5l15 -1 q2 0 32.5 1t74.5 2t97.5 2t102.5 3t88 4t57 4q92 10 174 39t164 88l36 36t77 97h17t16 -2q4 -10 2 -17t-13 -24q-14 -33 -30.5 -72.5t-34 -77.5t-30.5 -68t-21 -42q-10 0 -34 -1t-50.5 -1h-50h-31.5l-336 -4l-221 -4h-76q-82 0 -148.5 -1t-89.5 -3zM958 1708q0 29 19.5 37 t30.5 8q41 0 68.5 -26.5t39.5 -42.5q4 -4 24.5 -32t48 -63.5t56.5 -75.5t47 -69q-12 0 -17 1t-16 9q-86 61 -137 96t-78.5 55.5t-39 29t-17.5 14.5q-16 16 -22.5 30.5t-6.5 28.5z" />
<glyph unicode="&#xc9;" horiz-adv-x="1472" d="M-20 -10v24q27 14 67.5 13.5t69.5 5.5q33 6 49 9t35 21q12 12 18 33t14 45q2 2 16.5 46t36 105.5t44 127t39.5 115.5l100 292q27 82 44 130.5t28.5 78t18.5 49t15 43.5q4 12 9.5 34t5.5 44q0 14 -4 23.5t-23.5 15.5t-58.5 11.5t-107 13.5l9 33q10 2 36.5 2t57.5 -2 q31 0 57.5 -1.5t34.5 -3.5q2 0 30.5 1t70.5 2.5t92.5 2.5t97.5 2t85 1t54 2l82 -2h60h88h87h58h34.5h52t53.5 1t38 1l-55 -224q-16 -2 -33 0l-2 78l4 58q0 16 -4 24t-19 19q-20 2 -54 3t-116 1q-18 0 -63 -1t-94 -1t-92 -1t-60 -1q-80 0 -125 -1t-66.5 -5.5t-28.5 -12.5 t-13 -20q-8 -23 -26.5 -77t-39 -113.5t-39 -113t-24.5 -73.5q-10 -29 -22.5 -71t-16.5 -64q6 0 42 2t86 4t109.5 5t113.5 6t98 5t65 2q49 2 81.5 7.5t58.5 22.5t49.5 49t53.5 87l39 2q-6 -23 -26.5 -83t-43 -126.5t-43 -125t-28.5 -78.5l-29 2q2 23 6.5 59.5t4.5 62.5 q0 23 -9.5 43.5t-35.5 24.5q-4 0 -21.5 1t-42 2t-52.5 2t-48 1q-4 0 -57.5 -2t-125 -5t-145.5 -8t-119 -11q-4 -10 -11 -32t-15.5 -46.5t-14.5 -44t-8 -25.5q-4 -10 -18.5 -45t-31.5 -81t-36.5 -98t-37 -97t-28 -79t-10.5 -42q0 -16 14.5 -25.5t33 -13.5t34.5 -5l15 -1 q2 0 32.5 1t74.5 2t97.5 2t102.5 3t88 4t57 4q92 10 174 39t164 88l36 36t77 97h17t16 -2q4 -10 2 -17t-13 -24q-14 -33 -30.5 -72.5t-34 -77.5t-30.5 -68t-21 -42q-10 0 -34 -1t-50.5 -1h-50h-31.5l-336 -4l-221 -4h-76q-82 0 -148.5 -1t-89.5 -3zM1016 1444l24 36 q25 36 56.5 81t61.5 86t40 53q16 16 40.5 34.5t53.5 18.5q31 0 43 -16t12 -29q0 -16 -5 -28.5t-21.5 -27.5t-48 -37.5t-84.5 -61.5l-156 -111z" />
<glyph unicode="&#xca;" horiz-adv-x="1472" d="M-20 -10v24q27 14 67.5 13.5t69.5 5.5q33 6 49 9t35 21q12 12 18 33t14 45q2 2 16.5 46t36 105.5t44 127t39.5 115.5l100 292q27 82 44 130.5t28.5 78t18.5 49t15 43.5q4 12 9.5 34t5.5 44q0 14 -4 23.5t-23.5 15.5t-58.5 11.5t-107 13.5l9 33q10 2 36.5 2t57.5 -2 q31 0 57.5 -1.5t34.5 -3.5q2 0 30.5 1t70.5 2.5t92.5 2.5t97.5 2t85 1t54 2l82 -2h60h88h87h58h34.5h52t53.5 1t38 1l-55 -224q-16 -2 -33 0l-2 78l4 58q0 16 -4 24t-19 19q-20 2 -54 3t-116 1q-18 0 -63 -1t-94 -1t-92 -1t-60 -1q-80 0 -125 -1t-66.5 -5.5t-28.5 -12.5 t-13 -20q-8 -23 -26.5 -77t-39 -113.5t-39 -113t-24.5 -73.5q-10 -29 -22.5 -71t-16.5 -64q6 0 42 2t86 4t109.5 5t113.5 6t98 5t65 2q49 2 81.5 7.5t58.5 22.5t49.5 49t53.5 87l39 2q-6 -23 -26.5 -83t-43 -126.5t-43 -125t-28.5 -78.5l-29 2q2 23 6.5 59.5t4.5 62.5 q0 23 -9.5 43.5t-35.5 24.5q-4 0 -21.5 1t-42 2t-52.5 2t-48 1q-4 0 -57.5 -2t-125 -5t-145.5 -8t-119 -11q-4 -10 -11 -32t-15.5 -46.5t-14.5 -44t-8 -25.5q-4 -10 -18.5 -45t-31.5 -81t-36.5 -98t-37 -97t-28 -79t-10.5 -42q0 -16 14.5 -25.5t33 -13.5t34.5 -5l15 -1 q2 0 32.5 1t74.5 2t97.5 2t102.5 3t88 4t57 4q92 10 174 39t164 88l36 36t77 97h17t16 -2q4 -10 2 -17t-13 -24q-14 -33 -30.5 -72.5t-34 -77.5t-30.5 -68t-21 -42q-10 0 -34 -1t-50.5 -1h-50h-31.5l-336 -4l-221 -4h-76q-82 0 -148.5 -1t-89.5 -3zM852 1403q6 6 33.5 34 t68.5 66.5t87 84t87 84t72 67.5t39 35l57 2l21 -375h-23q-4 10 -15 47t-22.5 78t-22.5 76t-16 43l-335 -240z" />
<glyph unicode="&#xcb;" horiz-adv-x="1472" d="M-20 -10v24q27 14 67.5 13.5t69.5 5.5q33 6 49 9t35 21q12 12 18 33t14 45q2 2 16.5 46t36 105.5t44 127t39.5 115.5l100 292q27 82 44 130.5t28.5 78t18.5 49t15 43.5q4 12 9.5 34t5.5 44q0 14 -4 23.5t-23.5 15.5t-58.5 11.5t-107 13.5l9 33q10 2 36.5 2t57.5 -2 q31 0 57.5 -1.5t34.5 -3.5q2 0 30.5 1t70.5 2.5t92.5 2.5t97.5 2t85 1t54 2l82 -2h60h88h87h58h34.5h52t53.5 1t38 1l-55 -224q-16 -2 -33 0l-2 78l4 58q0 16 -4 24t-19 19q-20 2 -54 3t-116 1q-18 0 -63 -1t-94 -1t-92 -1t-60 -1q-80 0 -125 -1t-66.5 -5.5t-28.5 -12.5 t-13 -20q-8 -23 -26.5 -77t-39 -113.5t-39 -113t-24.5 -73.5q-10 -29 -22.5 -71t-16.5 -64q6 0 42 2t86 4t109.5 5t113.5 6t98 5t65 2q49 2 81.5 7.5t58.5 22.5t49.5 49t53.5 87l39 2q-6 -23 -26.5 -83t-43 -126.5t-43 -125t-28.5 -78.5l-29 2q2 23 6.5 59.5t4.5 62.5 q0 23 -9.5 43.5t-35.5 24.5q-4 0 -21.5 1t-42 2t-52.5 2t-48 1q-4 0 -57.5 -2t-125 -5t-145.5 -8t-119 -11q-4 -10 -11 -32t-15.5 -46.5t-14.5 -44t-8 -25.5q-4 -10 -18.5 -45t-31.5 -81t-36.5 -98t-37 -97t-28 -79t-10.5 -42q0 -16 14.5 -25.5t33 -13.5t34.5 -5l15 -1 q2 0 32.5 1t74.5 2t97.5 2t102.5 3t88 4t57 4q92 10 174 39t164 88l36 36t77 97h17t16 -2q4 -10 2 -17t-13 -24q-14 -33 -30.5 -72.5t-34 -77.5t-30.5 -68t-21 -42q-10 0 -34 -1t-50.5 -1h-50h-31.5l-336 -4l-221 -4h-76q-82 0 -148.5 -1t-89.5 -3zM928 1598q0 35 23.5 57.5 t56.5 22.5q35 0 58 -25t23 -57q0 -33 -23.5 -57.5t-57.5 -24.5q-35 0 -57.5 24.5t-22.5 59.5zM1261 1596q0 35 23.5 57.5t56.5 22.5q35 0 58.5 -25t23.5 -57q0 -33 -23.5 -57.5t-58.5 -24.5t-57.5 24.5t-22.5 59.5z" />
<glyph unicode="&#xcc;" d="M12 -8q-2 10 0 16t6 17q10 2 35 5t50.5 8t49 10t29.5 9q14 8 24.5 22.5t26.5 63.5q10 33 38 109t57.5 161t55.5 159.5t36 103.5q25 78 57.5 167t57.5 167q4 14 16 45.5t24.5 66.5t21.5 65t9 40q0 23 -21.5 29t-33.5 8q-8 0 -28.5 1t-42 2t-41 3t-25.5 2v37q12 4 17 4h20 q8 0 29.5 -1t45 -1t45 -1t29.5 -1t28.5 1t43 1t43 1t26.5 1h215v-31q-10 -2 -32.5 -5t-48 -7t-47 -8.5t-29.5 -8.5q-10 -4 -24.5 -27.5t-26.5 -49.5q-14 -31 -29 -70q-4 -8 -18.5 -47t-31 -86t-31.5 -89t-20 -55q-12 -35 -30.5 -89t-40 -116.5t-44 -128t-43 -123 t-35.5 -101.5t-24 -62q-12 -35 -20 -54.5t-12 -30.5t-5.5 -18.5t-1.5 -15.5q0 -33 13.5 -40t46.5 -11q8 0 28.5 -2t42 -5t41 -5t25.5 -4l-4 -35h-94l-101 6q-10 0 -22 1t-25 3q-14 0 -25.5 1t-21.5 1q-12 0 -31.5 -1t-41 -2t-42 -3t-34.5 -2h-105zM563 1708q0 29 19.5 37 t30.5 8q41 0 68.5 -26.5t39.5 -42.5q4 -4 24.5 -32t48 -63.5t56.5 -75.5t47 -69q-12 0 -17 1t-16 9q-86 61 -137 96t-78.5 55.5t-39 29t-17.5 14.5q-16 16 -22.5 30.5t-6.5 28.5z" />
<glyph unicode="&#xcd;" d="M12 -8q-2 10 0 16t6 17q10 2 35 5t50.5 8t49 10t29.5 9q14 8 24.5 22.5t26.5 63.5q10 33 38 109t57.5 161t55.5 159.5t36 103.5q25 78 57.5 167t57.5 167q4 14 16 45.5t24.5 66.5t21.5 65t9 40q0 23 -21.5 29t-33.5 8q-8 0 -28.5 1t-42 2t-41 3t-25.5 2v37q12 4 17 4h20 q8 0 29.5 -1t45 -1t45 -1t29.5 -1t28.5 1t43 1t43 1t26.5 1h215v-31q-10 -2 -32.5 -5t-48 -7t-47 -8.5t-29.5 -8.5q-10 -4 -24.5 -27.5t-26.5 -49.5q-14 -31 -29 -70q-4 -8 -18.5 -47t-31 -86t-31.5 -89t-20 -55q-12 -35 -30.5 -89t-40 -116.5t-44 -128t-43 -123 t-35.5 -101.5t-24 -62q-12 -35 -20 -54.5t-12 -30.5t-5.5 -18.5t-1.5 -15.5q0 -33 13.5 -40t46.5 -11q8 0 28.5 -2t42 -5t41 -5t25.5 -4l-4 -35h-94l-101 6q-10 0 -22 1t-25 3q-14 0 -25.5 1t-21.5 1q-12 0 -31.5 -1t-41 -2t-42 -3t-34.5 -2h-105zM621 1444l24 36 q25 36 56.5 81t61.5 86t40 53q16 16 40.5 34.5t53.5 18.5q31 0 43 -16t12 -29q0 -16 -5 -28.5t-21.5 -27.5t-48 -37.5t-84.5 -61.5l-156 -111z" />
<glyph unicode="&#xce;" d="M12 -8q-2 10 0 16t6 17q10 2 35 5t50.5 8t49 10t29.5 9q14 8 24.5 22.5t26.5 63.5q10 33 38 109t57.5 161t55.5 159.5t36 103.5q25 78 57.5 167t57.5 167q4 14 16 45.5t24.5 66.5t21.5 65t9 40q0 23 -21.5 29t-33.5 8q-8 0 -28.5 1t-42 2t-41 3t-25.5 2v37q12 4 17 4h20 q8 0 29.5 -1t45 -1t45 -1t29.5 -1t28.5 1t43 1t43 1t26.5 1h215v-31q-10 -2 -32.5 -5t-48 -7t-47 -8.5t-29.5 -8.5q-10 -4 -24.5 -27.5t-26.5 -49.5q-14 -31 -29 -70q-4 -8 -18.5 -47t-31 -86t-31.5 -89t-20 -55q-12 -35 -30.5 -89t-40 -116.5t-44 -128t-43 -123 t-35.5 -101.5t-24 -62q-12 -35 -20 -54.5t-12 -30.5t-5.5 -18.5t-1.5 -15.5q0 -33 13.5 -40t46.5 -11q8 0 28.5 -2t42 -5t41 -5t25.5 -4l-4 -35h-94l-101 6q-10 0 -22 1t-25 3q-14 0 -25.5 1t-21.5 1q-12 0 -31.5 -1t-41 -2t-42 -3t-34.5 -2h-105zM457 1403q6 6 33.5 34 t68.5 66.5t87 84t87 84t72 67.5t39 35l57 2l21 -375h-23q-4 10 -15 47t-22.5 78t-22.5 76t-16 43l-335 -240z" />
<glyph unicode="&#xcf;" d="M12 -8q-2 10 0 16t6 17q10 2 35 5t50.5 8t49 10t29.5 9q14 8 24.5 22.5t26.5 63.5q10 33 38 109t57.5 161t55.5 159.5t36 103.5q25 78 57.5 167t57.5 167q4 14 16 45.5t24.5 66.5t21.5 65t9 40q0 23 -21.5 29t-33.5 8q-8 0 -28.5 1t-42 2t-41 3t-25.5 2v37q12 4 17 4h20 q8 0 29.5 -1t45 -1t45 -1t29.5 -1t28.5 1t43 1t43 1t26.5 1h215v-31q-10 -2 -32.5 -5t-48 -7t-47 -8.5t-29.5 -8.5q-10 -4 -24.5 -27.5t-26.5 -49.5q-14 -31 -29 -70q-4 -8 -18.5 -47t-31 -86t-31.5 -89t-20 -55q-12 -35 -30.5 -89t-40 -116.5t-44 -128t-43 -123 t-35.5 -101.5t-24 -62q-12 -35 -20 -54.5t-12 -30.5t-5.5 -18.5t-1.5 -15.5q0 -33 13.5 -40t46.5 -11q8 0 28.5 -2t42 -5t41 -5t25.5 -4l-4 -35h-94l-101 6q-10 0 -22 1t-25 3q-14 0 -25.5 1t-21.5 1q-12 0 -31.5 -1t-41 -2t-42 -3t-34.5 -2h-105zM533 1598q0 35 23.5 57.5 t56.5 22.5q35 0 58 -25t23 -57q0 -33 -23.5 -57.5t-57.5 -24.5q-35 0 -57.5 24.5t-22.5 59.5zM866 1596q0 35 23.5 57.5t56.5 22.5q35 0 58.5 -25t23.5 -57q0 -33 -23.5 -57.5t-58.5 -24.5t-57.5 24.5t-22.5 59.5z" />
<glyph unicode="&#xd0;" horiz-adv-x="1556" d="M-2 -4l8 35q10 2 40 6t40 4q41 0 65.5 3t38 8t19.5 13.5t10 18.5q51 117 88 218t61.5 176t37.5 118l12 43h-234l15 45h233l31 90q18 55 30.5 89t23.5 62.5t21.5 60.5t26.5 83q0 4 9.5 28.5t20.5 52.5t19.5 51.5t8.5 27.5q0 23 -20.5 25.5t-65.5 7.5q-4 0 -18.5 1t-33 2 t-38 3t-31.5 4q4 16 12 37h555q123 0 205 -7.5t136 -20.5t88 -31.5t63 -39.5q86 -63 124.5 -157.5t38.5 -216.5q0 -92 -33.5 -185.5t-91 -180.5t-133 -163t-161.5 -133q-53 -35 -109.5 -66.5t-127.5 -56t-160 -39t-206 -14.5l-243 2h-73t-132 -4h-170zM383 111 q0 -47 64.5 -59.5t185.5 -12.5h36.5t32.5 2q63 6 121 18.5t115 28.5q6 2 21.5 9t33 16.5t33.5 16.5t23 11q4 2 14 10.5t21.5 16.5t21.5 16.5t14 10.5q49 29 113.5 96t124.5 164q33 53 54.5 110.5t33.5 109.5t17 95t5 68q0 41 -10 84t-22.5 77.5t-23.5 58t-13 27.5 q-25 37 -48.5 63t-50 43t-56.5 28.5t-68 23.5q-10 2 -40 6t-64 8.5t-61.5 6.5t-29.5 2q-41 0 -99.5 -2t-95.5 -9q-10 -23 -33.5 -90t-53 -152t-61.5 -174t-54 -155h411l-14 -45h-414l-16 -45q-16 -47 -26.5 -77t-10.5 -34q-23 -55 -46.5 -116.5t-41.5 -114.5t-30.5 -93 t-12.5 -48z" />
<glyph unicode="&#xd1;" horiz-adv-x="1642" d="M-6 0q0 29 14 37q6 0 29.5 2t50.5 5t50.5 6t33.5 7q14 6 24.5 13.5t21.5 28t24.5 56t36.5 97.5q2 8 10 33.5t16 54.5t16.5 56.5t12.5 41.5q18 55 33.5 100.5t29 88.5t25.5 87l27 99q6 20 15 47t18.5 54.5t17.5 54t14 47.5l47 190q0 23 -20.5 31t-67.5 18q-6 0 -23.5 2.5 t-36 4.5t-35 4t-22.5 4l6 35h363l291 -543q41 -78 84 -159t76 -157q2 -8 12 -26.5t21.5 -38t20.5 -37.5t13 -25q4 -10 17.5 -38.5t29 -59.5t26.5 -55.5t13 -26.5l144 418q4 12 19 59.5t35.5 112t43 138t41 138t31 113.5t12.5 64q0 31 -8.5 42t-34.5 17q-37 10 -80 14.5 t-82 10.5q-14 4 -16 39q39 0 113.5 -4.5t152.5 -4.5q47 0 82 1t61 3q25 0 41.5 1.5t22.5 1.5q0 -10 -1 -32t-12 -22q-6 -2 -22.5 -3t-32.5 -2t-31.5 -2t-21.5 -3q-20 -6 -32.5 -12t-24 -26.5t-24.5 -62.5t-36 -120t-54.5 -174t-65 -196.5t-65.5 -197t-57 -174.5l-22 -53 q-10 -35 -33.5 -108.5t-52.5 -153.5h-43q-2 4 -11.5 25.5t-21.5 48t-25.5 52.5t-23.5 40q-4 6 -14.5 30.5t-14.5 30.5q-6 12 -22.5 41t-33.5 61t-33.5 59.5l-22.5 37.5q-4 6 -34 64.5t-74 144.5t-96 186.5t-99.5 189.5t-83 153.5t-48.5 78.5q-8 -18 -21 -59t-27.5 -90 t-28 -98.5t-21.5 -82.5q-14 -41 -36.5 -111.5t-47 -154.5t-50.5 -172t-46.5 -160.5t-32.5 -122t-12 -55.5t3 -14t3 -12q18 -8 32.5 -10.5t49.5 -10.5l149 -35v-15t-4 -15q-20 2 -60 4t-85 4q-47 4 -89 5t-65 1q-8 0 -29.5 -1t-43.5 -3q-23 -2 -41.5 -2h-20.5q-6 0 -20.5 1 t-29.5 2t-29.5 2t-20.5 1zM930 1491q-2 55 12 94t37.5 64t52.5 36t57 11q45 0 89 -21.5t122 -72.5q12 -8 39 -22.5t49 -14.5q29 0 47.5 15.5t27.5 37t13.5 44t6.5 34.5h14q2 -57 -13.5 -96t-40 -63.5t-54 -35t-54.5 -10.5q-23 0 -43 5t-42.5 16.5t-48.5 28t-60 40.5 q-6 4 -37 20.5t-66 16.5q-31 0 -48 -15.5t-26.5 -35.5t-12.5 -41.5t-5 -34.5h-16z" />
<glyph unicode="&#xd2;" horiz-adv-x="1429" d="M238 520q0 78 17 160t53 162t90.5 154.5t127.5 138.5q39 33 82 66.5t103.5 60t140 44t192.5 17.5q10 0 40 -3t69 -15.5t84 -37t88 -65.5q18 -18 47 -50t55.5 -84t45 -128t18.5 -184q0 -70 -24.5 -156t-69.5 -173t-112.5 -169t-151.5 -145.5t-186.5 -102.5t-219.5 -39 q-115 0 -205 51.5t-153.5 131t-97 177t-33.5 189.5zM389 442q0 -104 25.5 -171.5t42.5 -92.5q57 -92 121.5 -128t142.5 -36q6 0 20.5 2t29.5 4.5t27.5 4.5t16.5 2q41 6 81 26.5t76 46t64.5 53t48.5 48.5q37 37 81 108.5t82 159.5t63.5 184.5t25.5 182.5q0 74 -16 151.5 t-57 140.5q-41 66 -105.5 106t-163.5 40q-131 0 -241.5 -76t-191.5 -195.5t-127 -268t-46 -292.5zM938 1708q0 29 19.5 37t30.5 8q41 0 68.5 -26.5t39.5 -42.5q4 -4 24.5 -32t48 -63.5t56.5 -75.5t47 -69q-12 0 -17 1t-16 9q-86 61 -137 96t-78.5 55.5t-39 29t-17.5 14.5 q-16 16 -22.5 30.5t-6.5 28.5z" />
<glyph unicode="&#xd3;" horiz-adv-x="1429" d="M238 520q0 78 17 160t53 162t90.5 154.5t127.5 138.5q39 33 82 66.5t103.5 60t140 44t192.5 17.5q10 0 40 -3t69 -15.5t84 -37t88 -65.5q18 -18 47 -50t55.5 -84t45 -128t18.5 -184q0 -70 -24.5 -156t-69.5 -173t-112.5 -169t-151.5 -145.5t-186.5 -102.5t-219.5 -39 q-115 0 -205 51.5t-153.5 131t-97 177t-33.5 189.5zM389 442q0 -104 25.5 -171.5t42.5 -92.5q57 -92 121.5 -128t142.5 -36q6 0 20.5 2t29.5 4.5t27.5 4.5t16.5 2q41 6 81 26.5t76 46t64.5 53t48.5 48.5q37 37 81 108.5t82 159.5t63.5 184.5t25.5 182.5q0 74 -16 151.5 t-57 140.5q-41 66 -105.5 106t-163.5 40q-131 0 -241.5 -76t-191.5 -195.5t-127 -268t-46 -292.5zM934 1444l24 36q25 36 56.5 81t61.5 86t40 53q16 16 40.5 34.5t53.5 18.5q31 0 43 -16t12 -29q0 -16 -5 -28.5t-21.5 -27.5t-48 -37.5t-84.5 -61.5l-156 -111z" />
<glyph unicode="&#xd4;" horiz-adv-x="1429" d="M238 520q0 78 17 160t53 162t90.5 154.5t127.5 138.5q39 33 82 66.5t103.5 60t140 44t192.5 17.5q10 0 40 -3t69 -15.5t84 -37t88 -65.5q18 -18 47 -50t55.5 -84t45 -128t18.5 -184q0 -70 -24.5 -156t-69.5 -173t-112.5 -169t-151.5 -145.5t-186.5 -102.5t-219.5 -39 q-115 0 -205 51.5t-153.5 131t-97 177t-33.5 189.5zM389 442q0 -104 25.5 -171.5t42.5 -92.5q57 -92 121.5 -128t142.5 -36q6 0 20.5 2t29.5 4.5t27.5 4.5t16.5 2q41 6 81 26.5t76 46t64.5 53t48.5 48.5q37 37 81 108.5t82 159.5t63.5 184.5t25.5 182.5q0 74 -16 151.5 t-57 140.5q-41 66 -105.5 106t-163.5 40q-131 0 -241.5 -76t-191.5 -195.5t-127 -268t-46 -292.5zM770 1403q6 6 33.5 34t68.5 66.5t87 84t87 84t72 67.5t39 35l57 2l21 -375h-23q-4 10 -15 47t-22.5 78t-22.5 76t-16 43l-335 -240z" />
<glyph unicode="&#xd5;" horiz-adv-x="1429" d="M238 520q0 78 17 160t53 162t90.5 154.5t127.5 138.5q39 33 82 66.5t103.5 60t140 44t192.5 17.5q10 0 40 -3t69 -15.5t84 -37t88 -65.5q18 -18 47 -50t55.5 -84t45 -128t18.5 -184q0 -70 -24.5 -156t-69.5 -173t-112.5 -169t-151.5 -145.5t-186.5 -102.5t-219.5 -39 q-115 0 -205 51.5t-153.5 131t-97 177t-33.5 189.5zM389 442q0 -104 25.5 -171.5t42.5 -92.5q57 -92 121.5 -128t142.5 -36q6 0 20.5 2t29.5 4.5t27.5 4.5t16.5 2q41 6 81 26.5t76 46t64.5 53t48.5 48.5q37 37 81 108.5t82 159.5t63.5 184.5t25.5 182.5q0 74 -16 151.5 t-57 140.5q-41 66 -105.5 106t-163.5 40q-131 0 -241.5 -76t-191.5 -195.5t-127 -268t-46 -292.5zM762 1491q-2 55 12 94t37.5 64t52.5 36t57 11q45 0 89 -21.5t122 -72.5q12 -8 39 -22.5t49 -14.5q29 0 47.5 15.5t27.5 37t13.5 44t6.5 34.5h14q2 -57 -13.5 -96t-40 -63.5 t-54 -35t-54.5 -10.5q-23 0 -43 5t-42.5 16.5t-48.5 28t-60 40.5q-6 4 -37 20.5t-66 16.5q-31 0 -48 -15.5t-26.5 -35.5t-12.5 -41.5t-5 -34.5h-16z" />
<glyph unicode="&#xd6;" horiz-adv-x="1429" d="M238 520q0 78 17 160t53 162t90.5 154.5t127.5 138.5q39 33 82 66.5t103.5 60t140 44t192.5 17.5q10 0 40 -3t69 -15.5t84 -37t88 -65.5q18 -18 47 -50t55.5 -84t45 -128t18.5 -184q0 -70 -24.5 -156t-69.5 -173t-112.5 -169t-151.5 -145.5t-186.5 -102.5t-219.5 -39 q-115 0 -205 51.5t-153.5 131t-97 177t-33.5 189.5zM389 442q0 -104 25.5 -171.5t42.5 -92.5q57 -92 121.5 -128t142.5 -36q6 0 20.5 2t29.5 4.5t27.5 4.5t16.5 2q41 6 81 26.5t76 46t64.5 53t48.5 48.5q37 37 81 108.5t82 159.5t63.5 184.5t25.5 182.5q0 74 -16 151.5 t-57 140.5q-41 66 -105.5 106t-163.5 40q-131 0 -241.5 -76t-191.5 -195.5t-127 -268t-46 -292.5zM846 1598q0 35 23.5 57.5t56.5 22.5q35 0 58 -25t23 -57q0 -33 -23.5 -57.5t-57.5 -24.5q-35 0 -57.5 24.5t-22.5 59.5zM1179 1596q0 35 23.5 57.5t56.5 22.5q35 0 58.5 -25 t23.5 -57q0 -33 -23.5 -57.5t-58.5 -24.5t-57.5 24.5t-22.5 59.5z" />
<glyph unicode="&#xd7;" horiz-adv-x="1368" d="M274 1061l62 61l426 -426l426 426l61 -61l-426 -428l422 -420l-61 -63l-422 421l-424 -421l-62 63l424 420z" />
<glyph unicode="&#xd8;" horiz-adv-x="1429" d="M236 492q0 199 70.5 350t193.5 274q41 35 89 72t109.5 66.5t140.5 49t181 19.5q33 0 66.5 -6t62.5 -14.5t51.5 -18.5t34.5 -16q23 -12 45.5 -29.5t38.5 -34.5l106 123l37 -29q-6 -8 -21.5 -26.5t-32.5 -38t-32.5 -37.5t-21.5 -27q20 -25 44.5 -58.5t45 -79.5t34 -109.5 t13.5 -149.5q0 -76 -23.5 -165t-69.5 -178t-113.5 -172t-155 -146.5t-194 -101.5t-228.5 -38q-86 0 -162 40t-127 87l-109 -123q-12 8 -18 13.5t-17 15.5q6 8 22.5 26.5t34 39t34 39t22.5 24.5q-39 49 -73.5 105.5t-57.5 142.5q-2 6 -5 23.5t-6 37t-6 34.5zM389 451 q0 -100 20.5 -159.5t36.5 -88.5q23 25 73 81t112.5 128.5t132.5 152.5t133.5 153t113.5 131t76 87q23 25 49.5 54.5t51 58t44 52t30.5 36.5q-12 18 -34 41.5t-54.5 45t-76.5 36t-100 14.5q-51 0 -105 -15.5t-106.5 -43t-100.5 -67.5t-87 -89q-43 -55 -81 -127t-66.5 -152 t-45 -165t-16.5 -164zM471 158q18 -29 29.5 -39t34.5 -33q4 -4 15 -13.5t15 -13.5q16 -12 58.5 -28.5t95.5 -16.5q98 0 183 43t153.5 113t121 159t88 181t54 180t18.5 158q0 59 -11 125.5t-42 116.5z" />
<glyph unicode="&#xd9;" horiz-adv-x="1536" d="M295 299q0 72 25.5 150.5t48.5 146.5q47 145 96 284.5t88 286.5q2 8 2 29q-4 14 -12 21.5t-47 17.5q-10 2 -17.5 4t-17.5 4t-24.5 3t-37.5 5q6 23 9.5 32.5t7.5 19.5q29 0 58.5 -2.5t60.5 -4.5t62.5 -3t64.5 -3q61 -2 109 2t77 8h74v-45q-70 -6 -111 -12t-64.5 -21.5 t-36 -42t-26.5 -73.5q-4 -12 -14.5 -45t-20.5 -69t-20.5 -67.5l-14.5 -43.5q-16 -49 -45.5 -136.5t-58.5 -181.5t-50.5 -178t-21.5 -127q0 -72 29 -120t77 -76.5t108.5 -41t121.5 -12.5q129 0 215 34t144 85q57 51 89.5 110.5t57.5 110.5q41 90 67.5 169t55.5 171q2 6 12 39 t23.5 78t29 96t28.5 98.5t21.5 83t8.5 47.5q0 35 -9.5 55.5t-33 34t-60.5 21.5t-92 21l4 38q129 -14 253 -11t216 9l-6 -45q-8 -2 -27.5 -6t-41 -9t-40 -9t-24.5 -8q-53 -29 -90 -131.5t-76 -245.5q-41 -152 -80 -275t-81 -218t-89 -163.5t-104 -111.5q-55 -41 -114.5 -62.5 t-115 -32t-103.5 -12.5t-81 -2q-63 0 -145 17.5t-140 52.5q-68 43 -109.5 112.5t-41.5 149.5zM1032 1708q0 29 19.5 37t30.5 8q41 0 68.5 -26.5t39.5 -42.5q4 -4 24.5 -32t48 -63.5t56.5 -75.5t47 -69q-12 0 -17 1t-16 9q-86 61 -137 96t-78.5 55.5t-39 29t-17.5 14.5 q-16 16 -22.5 30.5t-6.5 28.5z" />
<glyph unicode="&#xda;" horiz-adv-x="1536" d="M295 299q0 72 25.5 150.5t48.5 146.5q47 145 96 284.5t88 286.5q2 8 2 29q-4 14 -12 21.5t-47 17.5q-10 2 -17.5 4t-17.5 4t-24.5 3t-37.5 5q6 23 9.5 32.5t7.5 19.5q29 0 58.5 -2.5t60.5 -4.5t62.5 -3t64.5 -3q61 -2 109 2t77 8h74v-45q-70 -6 -111 -12t-64.5 -21.5 t-36 -42t-26.5 -73.5q-4 -12 -14.5 -45t-20.5 -69t-20.5 -67.5l-14.5 -43.5q-16 -49 -45.5 -136.5t-58.5 -181.5t-50.5 -178t-21.5 -127q0 -72 29 -120t77 -76.5t108.5 -41t121.5 -12.5q129 0 215 34t144 85q57 51 89.5 110.5t57.5 110.5q41 90 67.5 169t55.5 171q2 6 12 39 t23.5 78t29 96t28.5 98.5t21.5 83t8.5 47.5q0 35 -9.5 55.5t-33 34t-60.5 21.5t-92 21l4 38q129 -14 253 -11t216 9l-6 -45q-8 -2 -27.5 -6t-41 -9t-40 -9t-24.5 -8q-53 -29 -90 -131.5t-76 -245.5q-41 -152 -80 -275t-81 -218t-89 -163.5t-104 -111.5q-55 -41 -114.5 -62.5 t-115 -32t-103.5 -12.5t-81 -2q-63 0 -145 17.5t-140 52.5q-68 43 -109.5 112.5t-41.5 149.5zM1049 1444l24 36q25 36 56.5 81t61.5 86t40 53q16 16 40.5 34.5t53.5 18.5q31 0 43 -16t12 -29q0 -16 -5 -28.5t-21.5 -27.5t-48 -37.5t-84.5 -61.5l-156 -111z" />
<glyph unicode="&#xdb;" horiz-adv-x="1536" d="M295 299q0 72 25.5 150.5t48.5 146.5q47 145 96 284.5t88 286.5q2 8 2 29q-4 14 -12 21.5t-47 17.5q-10 2 -17.5 4t-17.5 4t-24.5 3t-37.5 5q6 23 9.5 32.5t7.5 19.5q29 0 58.5 -2.5t60.5 -4.5t62.5 -3t64.5 -3q61 -2 109 2t77 8h74v-45q-70 -6 -111 -12t-64.5 -21.5 t-36 -42t-26.5 -73.5q-4 -12 -14.5 -45t-20.5 -69t-20.5 -67.5l-14.5 -43.5q-16 -49 -45.5 -136.5t-58.5 -181.5t-50.5 -178t-21.5 -127q0 -72 29 -120t77 -76.5t108.5 -41t121.5 -12.5q129 0 215 34t144 85q57 51 89.5 110.5t57.5 110.5q41 90 67.5 169t55.5 171q2 6 12 39 t23.5 78t29 96t28.5 98.5t21.5 83t8.5 47.5q0 35 -9.5 55.5t-33 34t-60.5 21.5t-92 21l4 38q129 -14 253 -11t216 9l-6 -45q-8 -2 -27.5 -6t-41 -9t-40 -9t-24.5 -8q-53 -29 -90 -131.5t-76 -245.5q-41 -152 -80 -275t-81 -218t-89 -163.5t-104 -111.5q-55 -41 -114.5 -62.5 t-115 -32t-103.5 -12.5t-81 -2q-63 0 -145 17.5t-140 52.5q-68 43 -109.5 112.5t-41.5 149.5zM926 1403q6 6 33.5 34t68.5 66.5t87 84t87 84t72 67.5t39 35l57 2l21 -375h-23q-4 10 -15 47t-22.5 78t-22.5 76t-16 43l-335 -240z" />
<glyph unicode="&#xdc;" horiz-adv-x="1536" d="M295 299q0 72 25.5 150.5t48.5 146.5q47 145 96 284.5t88 286.5q2 8 2 29q-4 14 -12 21.5t-47 17.5q-10 2 -17.5 4t-17.5 4t-24.5 3t-37.5 5q6 23 9.5 32.5t7.5 19.5q29 0 58.5 -2.5t60.5 -4.5t62.5 -3t64.5 -3q61 -2 109 2t77 8h74v-45q-70 -6 -111 -12t-64.5 -21.5 t-36 -42t-26.5 -73.5q-4 -12 -14.5 -45t-20.5 -69t-20.5 -67.5l-14.5 -43.5q-16 -49 -45.5 -136.5t-58.5 -181.5t-50.5 -178t-21.5 -127q0 -72 29 -120t77 -76.5t108.5 -41t121.5 -12.5q129 0 215 34t144 85q57 51 89.5 110.5t57.5 110.5q41 90 67.5 169t55.5 171q2 6 12 39 t23.5 78t29 96t28.5 98.5t21.5 83t8.5 47.5q0 35 -9.5 55.5t-33 34t-60.5 21.5t-92 21l4 38q129 -14 253 -11t216 9l-6 -45q-8 -2 -27.5 -6t-41 -9t-40 -9t-24.5 -8q-53 -29 -90 -131.5t-76 -245.5q-41 -152 -80 -275t-81 -218t-89 -163.5t-104 -111.5q-55 -41 -114.5 -62.5 t-115 -32t-103.5 -12.5t-81 -2q-63 0 -145 17.5t-140 52.5q-68 43 -109.5 112.5t-41.5 149.5zM961 1598q0 35 23.5 57.5t56.5 22.5q35 0 58 -25t23 -57q0 -33 -23.5 -57.5t-57.5 -24.5q-35 0 -57.5 24.5t-22.5 59.5zM1294 1596q0 35 23.5 57.5t56.5 22.5q35 0 58.5 -25 t23.5 -57q0 -33 -23.5 -57.5t-58.5 -24.5t-57.5 24.5t-22.5 59.5z" />
<glyph unicode="&#xdd;" horiz-adv-x="1323" d="M250 1278v35q29 0 60.5 -1t47.5 -3q47 -4 95.5 -8.5t119.5 -4.5h21.5t41 1t49.5 4.5t48 7.5v-31t-2 -18q-90 -6 -120.5 -12.5t-39.5 -26.5q6 -14 21.5 -49t32 -74t32 -74t21.5 -47l119 -287l16 -31q6 4 12 8.5t13.5 11.5t19.5 19.5t31 32.5q20 20 69.5 70.5t103.5 106 t102 104.5t67 67q6 4 19.5 20.5t26.5 37t24.5 40t11.5 29.5q0 27 -24.5 40.5t-57.5 17.5t-65.5 3t-47.5 -1v43q16 4 31.5 5t40.5 1q10 0 36.5 -2t49.5 -4q29 -4 52.5 -4h33.5h32.5t59.5 1t66.5 2t56.5 5v-47q-6 -2 -18.5 -5.5t-26.5 -6.5t-27.5 -6t-17.5 -5q-51 -20 -93 -58 t-77 -73l-92 -92l-72 -72t-62.5 -63.5t-63.5 -65.5t-75 -80t-96 -104q-6 -6 -22.5 -51t-37 -102.5t-38 -110t-25.5 -72.5q-29 -78 -43 -123t-14 -80q0 -12 11 -29.5t46 -27.5q8 -2 29.5 -4t44 -4t44 -3t30.5 -1q0 -31 -2 -39h-197q-16 4 -65.5 6t-84.5 6q-27 -2 -50 -2 t-52 -4q-51 -4 -84 -5t-63 1q2 16 4 22t6 17q57 4 93 8t58.5 9t33.5 12.5t22 19.5q8 12 24.5 49t33.5 86t37.5 106.5t38 110.5t31 96t21.5 68q-10 23 -26.5 60.5t-35 80.5t-38 87t-34.5 81t-26.5 61.5t-13.5 30.5q-4 12 -21.5 51t-37 81t-36 77t-22.5 39q-20 16 -59 22.5 t-86 12.5zM881 1444l24 36q25 36 56.5 81t61.5 86t40 53q16 16 40.5 34.5t53.5 18.5q31 0 43 -16t12 -29q0 -16 -5 -28.5t-21.5 -27.5t-48 -37.5t-84.5 -61.5l-156 -111z" />
<glyph unicode="&#xde;" horiz-adv-x="1130" d="M27 -12l2 43q10 2 35.5 6t53 8t52.5 10t33 13q6 4 21.5 46t32.5 94t33.5 101t22.5 70q6 18 29 84.5t53.5 158t64.5 194t63.5 190.5t48 148t18.5 69q0 27 -37 32q-10 0 -33.5 1t-50.5 3.5t-49.5 3.5t-30.5 3q4 16 6 22t8 23q12 0 42 -2t63 -3t62.5 -2t39.5 -1h78l78 2 q10 0 33.5 1t49 3t49.5 3t32 -1v-41q-10 -4 -37 -8.5t-54.5 -8.5t-52 -9t-32.5 -11q-2 -2 -6.5 -7t-10.5 -20.5t-16 -45.5l-27 -81l-22 -71q29 4 58.5 6t78.5 2q98 0 170 -33t120 -83t71.5 -112.5t23.5 -121.5q0 -109 -43 -184.5t-109.5 -124t-144.5 -71t-147 -22.5 q-10 0 -36 2t-65 9.5t-89 23.5t-109 47q-2 -4 -15.5 -44t-29 -87t-27.5 -86l-12 -39q0 -4 6 -14t24 -21l21 -4q22 -4 46.5 -8t46 -8t24.5 -4l-7 -43q-16 0 -51 2t-76 4q-39 2 -72.5 4t-47.5 2t-46 -2t-68 -4t-67.5 -4t-44.5 -2h-28zM461 379q53 -25 107.5 -39t115.5 -14 q45 0 99.5 18t84.5 37q16 10 26.5 16t20 12.5t19.5 17.5t27 30q31 35 47 71.5t25 67.5t11.5 53.5t2.5 26.5q0 59 -13.5 114.5t-70.5 112.5q-27 27 -65 41t-77 21.5t-72.5 8.5t-52.5 1q-16 0 -23.5 -3t-17.5 -11q-20 -61 -45.5 -137t-52.5 -154t-51.5 -154t-44.5 -137z" />
<glyph unicode="&#xdf;" horiz-adv-x="854" d="M-299 -418q0 14 8.5 26.5t18.5 20.5q16 10 24 13.5t19 3.5q41 0 54 -28t13 -50q0 -4 -1 -17.5t1 -17.5t11.5 -5t13.5 -1q16 0 39.5 4t51.5 28.5t57.5 77t56.5 148.5q2 6 8 32.5t13 57.5t13.5 57.5t8.5 34.5q6 25 20 74t30.5 110.5t34 128t35 127t30.5 107.5t22 70 q39 113 75.5 200.5t75.5 160.5t81 134.5t95 116.5q2 2 27 23.5t64.5 46t91 44t110.5 19.5q57 0 96 -17.5t61.5 -44t33 -58t10.5 -60.5q0 -55 -18.5 -95t-57.5 -75t-97.5 -70t-137.5 -78q-14 -8 -34 -21t-37 -31.5t-29.5 -43t-12.5 -53.5q0 -12 5 -33.5t12.5 -46t15.5 -47.5 t12 -35q23 -68 35 -106.5t18 -64t8 -45t2 -46.5q0 -51 -19 -102.5t-50 -92t-71 -66.5t-83 -26q-2 0 -32.5 3t-67.5 15.5t-67.5 39t-30.5 73.5q0 35 23.5 48.5t33.5 13.5q49 0 59 -49q6 -31 19.5 -50.5t29 -29.5t29.5 -13.5t21 -3.5q18 0 43.5 14.5t42.5 39.5q4 8 16 45 t12 71q0 35 -5 69t-15 81q-6 31 -18.5 69.5t-24.5 77.5t-21.5 78t-9.5 70q0 43 18.5 80t51.5 72.5t78 71.5t96 75q25 18 57.5 45t60 57.5t47 65.5t19.5 71q0 16 -5 37t-18.5 39.5t-35 31.5t-51.5 13q-86 0 -159 -48t-134.5 -131t-113.5 -194.5t-95 -236.5q-20 -53 -33.5 -93 t-26 -81t-26 -94.5t-33.5 -134.5q-12 -47 -28.5 -105.5t-34 -119t-34 -119t-26.5 -105.5q-6 -25 -19.5 -59.5t-30.5 -71.5t-37.5 -71t-39.5 -52q-80 -88 -188 -88q-51 0 -83 12.5t-48.5 27.5t-22.5 30.5t-6 23.5z" />
<glyph unicode="&#xe0;" horiz-adv-x="831" d="M78 90q0 35 10 81t29.5 95t45 96.5t56.5 86.5q51 63 107.5 116t116 92t120 60.5t115.5 21.5q33 0 48.5 -4t31.5 -12q2 4 7 14.5t11 21.5t11.5 20t9.5 12q10 2 19 2h22q10 0 15 -1t15 -6q4 -10 1 -23t-21 -61q-8 -20 -24.5 -65t-38 -101.5t-44 -117t-42 -111.5t-32 -85 t-12.5 -36l-8 -20q-8 -21 -16 -44.5t-15.5 -44t-5.5 -22.5q6 -6 14.5 -2t19.5 12.5t21.5 17.5t18.5 13q18 16 44 39t81 82l12 -9t10 -11q-20 -29 -55 -68t-74.5 -72.5t-81.5 -57.5t-77 -24q-16 0 -31.5 6.5t-15.5 28.5q0 20 17 68.5t37.5 98.5t39.5 89l18 39l-4 4 q-4 -6 -23.5 -29.5t-43 -52t-45 -54.5t-31.5 -34q-35 -33 -56.5 -52t-38 -32.5t-33 -24t-40.5 -22.5q-6 -2 -18.5 -7t-28 -11t-33.5 -10.5t-33 -4.5q-59 0 -80.5 32t-21.5 83zM193 137q0 -2 1 -13t6 -24.5t15 -23.5t31 -10l37 2q41 10 90 50t93 84t74.5 79.5t34.5 42.5 q61 86 98.5 165.5t37.5 131.5q0 4 -2 15t-9.5 22.5t-21.5 20.5t-39 9q-49 0 -101.5 -30.5t-101.5 -80t-94 -110.5t-78 -122.5t-52 -117t-19 -90.5zM516 1239q0 29 19.5 37t30.5 8q41 0 68.5 -26.5t39.5 -42.5q4 -4 24.5 -32t48 -63.5t56.5 -75.5t47 -69q-12 0 -17 1t-16 9 q-86 61 -137 96t-78.5 55.5t-39 29t-17.5 14.5q-16 16 -22.5 30.5t-6.5 28.5z" />
<glyph unicode="&#xe1;" horiz-adv-x="831" d="M78 90q0 35 10 81t29.5 95t45 96.5t56.5 86.5q51 63 107.5 116t116 92t120 60.5t115.5 21.5q33 0 48.5 -4t31.5 -12q2 4 7 14.5t11 21.5t11.5 20t9.5 12q10 2 19 2h22q10 0 15 -1t15 -6q4 -10 1 -23t-21 -61q-8 -20 -24.5 -65t-38 -101.5t-44 -117t-42 -111.5t-32 -85 t-12.5 -36l-8 -20q-8 -21 -16 -44.5t-15.5 -44t-5.5 -22.5q6 -6 14.5 -2t19.5 12.5t21.5 17.5t18.5 13q18 16 44 39t81 82l12 -9t10 -11q-20 -29 -55 -68t-74.5 -72.5t-81.5 -57.5t-77 -24q-16 0 -31.5 6.5t-15.5 28.5q0 20 17 68.5t37.5 98.5t39.5 89l18 39l-4 4 q-4 -6 -23.5 -29.5t-43 -52t-45 -54.5t-31.5 -34q-35 -33 -56.5 -52t-38 -32.5t-33 -24t-40.5 -22.5q-6 -2 -18.5 -7t-28 -11t-33.5 -10.5t-33 -4.5q-59 0 -80.5 32t-21.5 83zM193 137q0 -2 1 -13t6 -24.5t15 -23.5t31 -10l37 2q41 10 90 50t93 84t74.5 79.5t34.5 42.5 q61 86 98.5 165.5t37.5 131.5q0 4 -2 15t-9.5 22.5t-21.5 20.5t-39 9q-49 0 -101.5 -30.5t-101.5 -80t-94 -110.5t-78 -122.5t-52 -117t-19 -90.5zM574 975l24 36q25 36 56.5 81t61.5 86t40 53q16 16 40.5 34.5t53.5 18.5q31 0 43 -16t12 -29q0 -16 -5 -28.5t-21.5 -27.5 t-48 -37.5t-84.5 -61.5l-156 -111z" />
<glyph unicode="&#xe2;" horiz-adv-x="831" d="M78 90q0 35 10 81t29.5 95t45 96.5t56.5 86.5q51 63 107.5 116t116 92t120 60.5t115.5 21.5q33 0 48.5 -4t31.5 -12q2 4 7 14.5t11 21.5t11.5 20t9.5 12q10 2 19 2h22q10 0 15 -1t15 -6q4 -10 1 -23t-21 -61q-8 -20 -24.5 -65t-38 -101.5t-44 -117t-42 -111.5t-32 -85 t-12.5 -36l-8 -20q-8 -21 -16 -44.5t-15.5 -44t-5.5 -22.5q6 -6 14.5 -2t19.5 12.5t21.5 17.5t18.5 13q18 16 44 39t81 82l12 -9t10 -11q-20 -29 -55 -68t-74.5 -72.5t-81.5 -57.5t-77 -24q-16 0 -31.5 6.5t-15.5 28.5q0 20 17 68.5t37.5 98.5t39.5 89l18 39l-4 4 q-4 -6 -23.5 -29.5t-43 -52t-45 -54.5t-31.5 -34q-35 -33 -56.5 -52t-38 -32.5t-33 -24t-40.5 -22.5q-6 -2 -18.5 -7t-28 -11t-33.5 -10.5t-33 -4.5q-59 0 -80.5 32t-21.5 83zM193 137q0 -2 1 -13t6 -24.5t15 -23.5t31 -10l37 2q41 10 90 50t93 84t74.5 79.5t34.5 42.5 q61 86 98.5 165.5t37.5 131.5q0 4 -2 15t-9.5 22.5t-21.5 20.5t-39 9q-49 0 -101.5 -30.5t-101.5 -80t-94 -110.5t-78 -122.5t-52 -117t-19 -90.5zM410 934q6 6 33.5 34t68.5 66.5t87 84t87 84t72 67.5t39 35l57 2l21 -375h-23q-4 10 -15 47t-22.5 78t-22.5 76t-16 43 l-335 -240z" />
<glyph unicode="&#xe3;" horiz-adv-x="831" d="M78 90q0 35 10 81t29.5 95t45 96.5t56.5 86.5q51 63 107.5 116t116 92t120 60.5t115.5 21.5q33 0 48.5 -4t31.5 -12q2 4 7 14.5t11 21.5t11.5 20t9.5 12q10 2 19 2h22q10 0 15 -1t15 -6q4 -10 1 -23t-21 -61q-8 -20 -24.5 -65t-38 -101.5t-44 -117t-42 -111.5t-32 -85 t-12.5 -36l-8 -20q-8 -21 -16 -44.5t-15.5 -44t-5.5 -22.5q6 -6 14.5 -2t19.5 12.5t21.5 17.5t18.5 13q18 16 44 39t81 82l12 -9t10 -11q-20 -29 -55 -68t-74.5 -72.5t-81.5 -57.5t-77 -24q-16 0 -31.5 6.5t-15.5 28.5q0 20 17 68.5t37.5 98.5t39.5 89l18 39l-4 4 q-4 -6 -23.5 -29.5t-43 -52t-45 -54.5t-31.5 -34q-35 -33 -56.5 -52t-38 -32.5t-33 -24t-40.5 -22.5q-6 -2 -18.5 -7t-28 -11t-33.5 -10.5t-33 -4.5q-59 0 -80.5 32t-21.5 83zM193 137q0 -2 1 -13t6 -24.5t15 -23.5t31 -10l37 2q41 10 90 50t93 84t74.5 79.5t34.5 42.5 q61 86 98.5 165.5t37.5 131.5q0 4 -2 15t-9.5 22.5t-21.5 20.5t-39 9q-49 0 -101.5 -30.5t-101.5 -80t-94 -110.5t-78 -122.5t-52 -117t-19 -90.5zM402 1022q-2 55 12 94t37.5 64t52.5 36t57 11q45 0 89 -21.5t122 -72.5q12 -8 39 -22.5t49 -14.5q29 0 47.5 15.5t27.5 37 t13.5 44t6.5 34.5h14q2 -57 -13.5 -96t-40 -63.5t-54 -35t-54.5 -10.5q-23 0 -43 5t-42.5 16.5t-48.5 28t-60 40.5q-6 4 -37 20.5t-66 16.5q-31 0 -48 -15.5t-26.5 -35.5t-12.5 -41.5t-5 -34.5h-16z" />
<glyph unicode="&#xe4;" horiz-adv-x="831" d="M78 90q0 35 10 81t29.5 95t45 96.5t56.5 86.5q51 63 107.5 116t116 92t120 60.5t115.5 21.5q33 0 48.5 -4t31.5 -12q2 4 7 14.5t11 21.5t11.5 20t9.5 12q10 2 19 2h22q10 0 15 -1t15 -6q4 -10 1 -23t-21 -61q-8 -20 -24.5 -65t-38 -101.5t-44 -117t-42 -111.5t-32 -85 t-12.5 -36l-8 -20q-8 -21 -16 -44.5t-15.5 -44t-5.5 -22.5q6 -6 14.5 -2t19.5 12.5t21.5 17.5t18.5 13q18 16 44 39t81 82l12 -9t10 -11q-20 -29 -55 -68t-74.5 -72.5t-81.5 -57.5t-77 -24q-16 0 -31.5 6.5t-15.5 28.5q0 20 17 68.5t37.5 98.5t39.5 89l18 39l-4 4 q-4 -6 -23.5 -29.5t-43 -52t-45 -54.5t-31.5 -34q-35 -33 -56.5 -52t-38 -32.5t-33 -24t-40.5 -22.5q-6 -2 -18.5 -7t-28 -11t-33.5 -10.5t-33 -4.5q-59 0 -80.5 32t-21.5 83zM193 137q0 -2 1 -13t6 -24.5t15 -23.5t31 -10l37 2q41 10 90 50t93 84t74.5 79.5t34.5 42.5 q61 86 98.5 165.5t37.5 131.5q0 4 -2 15t-9.5 22.5t-21.5 20.5t-39 9q-49 0 -101.5 -30.5t-101.5 -80t-94 -110.5t-78 -122.5t-52 -117t-19 -90.5zM445 1129q0 35 23.5 57.5t56.5 22.5q35 0 58 -25t23 -57q0 -33 -23.5 -57.5t-57.5 -24.5q-35 0 -57.5 24.5t-22.5 59.5z M778 1127q0 35 23.5 57.5t56.5 22.5q35 0 58.5 -25t23.5 -57q0 -33 -23.5 -57.5t-58.5 -24.5t-57.5 24.5t-22.5 59.5z" />
<glyph unicode="&#xe5;" horiz-adv-x="831" d="M78 90q0 35 10 81t29.5 95t45 96.5t56.5 86.5q51 63 107.5 116t116 92t120 60.5t115.5 21.5q33 0 48.5 -4t31.5 -12q2 4 7 14.5t11 21.5t11.5 20t9.5 12q10 2 19 2h22q10 0 15 -1t15 -6q4 -10 1 -23t-21 -61q-8 -20 -24.5 -65t-38 -101.5t-44 -117t-42 -111.5t-32 -85 t-12.5 -36l-8 -20q-8 -21 -16 -44.5t-15.5 -44t-5.5 -22.5q6 -6 14.5 -2t19.5 12.5t21.5 17.5t18.5 13q18 16 44 39t81 82l12 -9t10 -11q-20 -29 -55 -68t-74.5 -72.5t-81.5 -57.5t-77 -24q-16 0 -31.5 6.5t-15.5 28.5q0 20 17 68.5t37.5 98.5t39.5 89l18 39l-4 4 q-4 -6 -23.5 -29.5t-43 -52t-45 -54.5t-31.5 -34q-35 -33 -56.5 -52t-38 -32.5t-33 -24t-40.5 -22.5q-6 -2 -18.5 -7t-28 -11t-33.5 -10.5t-33 -4.5q-59 0 -80.5 32t-21.5 83zM193 137q0 -2 1 -13t6 -24.5t15 -23.5t31 -10l37 2q41 10 90 50t93 84t74.5 79.5t34.5 42.5 q61 86 98.5 165.5t37.5 131.5q0 4 -2 15t-9.5 22.5t-21.5 20.5t-39 9q-49 0 -101.5 -30.5t-101.5 -80t-94 -110.5t-78 -122.5t-52 -117t-19 -90.5zM539 1125q0 76 50 122t114 46q70 0 118 -48.5t48 -117.5q0 -70 -49.5 -118t-116.5 -48q-31 0 -60.5 12t-53.5 33.5t-37 51.5 t-13 67zM582 1127q0 -53 37 -87t82 -34q53 0 89 34.5t36 86.5q0 53 -37 88t-84 35q-49 0 -86 -35t-37 -88z" />
<glyph unicode="&#xe6;" horiz-adv-x="1003" d="M53 109q0 68 20.5 128t51.5 113t67.5 97.5t67.5 78.5q23 25 62.5 67t91 81t112 67.5t123.5 28.5q29 0 50.5 -6t37.5 -10q6 10 9.5 17t7.5 14.5t9 17.5t15 26q12 4 18.5 4.5t22.5 -4.5v-18t-1 -19.5t-5 -25.5t-10 -39l4 -4q10 8 27.5 20.5t38 24.5t42 20.5t41.5 8.5 q35 0 66 -33t31 -96q0 -72 -34 -124t-90.5 -93t-130 -75t-151.5 -67q-35 -82 -48 -129t-13 -86q0 -12 7 -35.5t36 -23.5q31 0 62.5 14t62 34.5t57.5 44.5t45 42l76 90q12 -6 17 -9t9 -7q-12 -27 -49 -72t-88 -89t-115.5 -76t-132.5 -32q-31 0 -50 11.5t-30.5 26t-14.5 29.5 t-3 26q0 29 7 55.5t16 48.5l-4 4q-39 -37 -79 -73.5t-82 -66.5t-86 -47.5t-89 -17.5q-37 0 -58.5 17.5t-32 41t-12.5 46t-2 33.5zM160 117q0 -39 22.5 -56.5t46.5 -17.5q20 0 57.5 18.5t77 48t76.5 66.5t58 72q14 27 43.5 84t61.5 123.5t63 133t49 113.5q-6 8 -17.5 16.5 t-27.5 8.5q-49 0 -106.5 -32.5t-114 -86t-108.5 -120t-93 -135t-64.5 -131t-23.5 -105.5zM668 365q29 4 83 31.5t108 72.5t94 102.5t40 122.5q0 25 -12 45.5t-37 20.5q-27 0 -55.5 -25.5t-58 -65.5t-57.5 -88.5t-50.5 -92.5t-36.5 -77.5t-18 -45.5z" />
<glyph unicode="&#xe7;" horiz-adv-x="555" d="M74 -449q0 12 14 32t33 20q10 0 20.5 -3.5t14.5 -5.5q23 -16 33 -21t20 -5q20 0 37.5 18.5t17.5 42.5q0 43 -29.5 82t-97.5 99q-4 4 -4 12q0 6 11.5 28.5t25.5 49t27.5 49t17.5 33.5q-14 0 -34.5 3t-39 18t-32 49t-13.5 95q0 98 37 194.5t85 176.5t94 136.5t65 72.5 q66 59 118 78.5t76 19.5q35 0 56.5 -14t33 -35.5t15.5 -44t4 -39.5q0 -27 -17.5 -39t-31.5 -12q-27 0 -40 12.5t-30 44.5q-18 35 -27.5 46.5t-27.5 11.5t-69.5 -45t-104.5 -156q-6 -10 -25.5 -53t-41 -102.5t-38 -125t-16.5 -122.5q0 -25 7 -51.5t36 -26.5q25 0 50.5 16 t53 44t56 63.5t57.5 74.5q16 4 22.5 4t16.5 -2q-14 -31 -39 -71.5t-56.5 -79.5t-68.5 -72t-74 -51q-10 -4 -20 -18.5t-19.5 -32t-15.5 -31.5t-6 -20q0 -12 7 -23.5t40 -48.5q2 -4 11.5 -15.5t18.5 -30t16 -45t7 -57.5q0 -82 -47 -132t-117 -50q-25 0 -49 11.5t-24 43.5z" />
<glyph unicode="&#xe8;" horiz-adv-x="598" d="M104 197q0 76 19.5 143.5t47.5 125.5t59.5 105t54.5 80q12 16 34.5 45t54.5 56.5t69.5 47t80.5 19.5q31 0 53.5 -13t38 -34.5t23.5 -47.5t8 -50q0 -49 -28.5 -108.5t-88.5 -94.5q-29 -20 -53 -33.5t-56 -25t-74 -21.5t-105 -22q-33 -94 -33 -185q0 -16 4 -38.5t13.5 -45 t26.5 -38t44 -15.5t57.5 19.5t59 50t52 69.5t38.5 78h22t17 -2q-10 -41 -39 -90t-70 -93t-90 -74t-100 -30q-37 0 -63.5 21.5t-44 53.5t-25 71t-7.5 76zM258 418q27 0 80 17.5t105.5 54t92 94t39.5 135.5q0 23 -14 45t-41 22q-37 0 -80 -47t-80.5 -108.5t-65.5 -122.5 t-36 -90zM399 1239q0 29 19.5 37t30.5 8q41 0 68.5 -26.5t39.5 -42.5q4 -4 24.5 -32t48 -63.5t56.5 -75.5t47 -69q-12 0 -17 1t-16 9q-86 61 -137 96t-78.5 55.5t-39 29t-17.5 14.5q-16 16 -22.5 30.5t-6.5 28.5z" />
<glyph unicode="&#xe9;" horiz-adv-x="598" d="M104 197q0 76 19.5 143.5t47.5 125.5t59.5 105t54.5 80q12 16 34.5 45t54.5 56.5t69.5 47t80.5 19.5q31 0 53.5 -13t38 -34.5t23.5 -47.5t8 -50q0 -49 -28.5 -108.5t-88.5 -94.5q-29 -20 -53 -33.5t-56 -25t-74 -21.5t-105 -22q-33 -94 -33 -185q0 -16 4 -38.5t13.5 -45 t26.5 -38t44 -15.5t57.5 19.5t59 50t52 69.5t38.5 78h22t17 -2q-10 -41 -39 -90t-70 -93t-90 -74t-100 -30q-37 0 -63.5 21.5t-44 53.5t-25 71t-7.5 76zM258 418q27 0 80 17.5t105.5 54t92 94t39.5 135.5q0 23 -14 45t-41 22q-37 0 -80 -47t-80.5 -108.5t-65.5 -122.5 t-36 -90zM459 975l24 36q25 36 56.5 81t61.5 86t40 53q16 16 40.5 34.5t53.5 18.5q31 0 43 -16t12 -29q0 -16 -5 -28.5t-21.5 -27.5t-48 -37.5t-84.5 -61.5l-156 -111z" />
<glyph unicode="&#xea;" horiz-adv-x="598" d="M104 197q0 76 19.5 143.5t47.5 125.5t59.5 105t54.5 80q12 16 34.5 45t54.5 56.5t69.5 47t80.5 19.5q31 0 53.5 -13t38 -34.5t23.5 -47.5t8 -50q0 -49 -28.5 -108.5t-88.5 -94.5q-29 -20 -53 -33.5t-56 -25t-74 -21.5t-105 -22q-33 -94 -33 -185q0 -16 4 -38.5t13.5 -45 t26.5 -38t44 -15.5t57.5 19.5t59 50t52 69.5t38.5 78h22t17 -2q-10 -41 -39 -90t-70 -93t-90 -74t-100 -30q-37 0 -63.5 21.5t-44 53.5t-25 71t-7.5 76zM258 418q27 0 80 17.5t105.5 54t92 94t39.5 135.5q0 23 -14 45t-41 22q-37 0 -80 -47t-80.5 -108.5t-65.5 -122.5 t-36 -90zM334 934q6 6 33.5 34t68.5 66.5t87 84t87 84t72 67.5t39 35l57 2l21 -375h-23q-4 10 -15 47t-22.5 78t-22.5 76t-16 43l-335 -240z" />
<glyph unicode="&#xeb;" horiz-adv-x="598" d="M104 197q0 76 19.5 143.5t47.5 125.5t59.5 105t54.5 80q12 16 34.5 45t54.5 56.5t69.5 47t80.5 19.5q31 0 53.5 -13t38 -34.5t23.5 -47.5t8 -50q0 -49 -28.5 -108.5t-88.5 -94.5q-29 -20 -53 -33.5t-56 -25t-74 -21.5t-105 -22q-33 -94 -33 -185q0 -16 4 -38.5t13.5 -45 t26.5 -38t44 -15.5t57.5 19.5t59 50t52 69.5t38.5 78h22t17 -2q-10 -41 -39 -90t-70 -93t-90 -74t-100 -30q-37 0 -63.5 21.5t-44 53.5t-25 71t-7.5 76zM258 418q27 0 80 17.5t105.5 54t92 94t39.5 135.5q0 23 -14 45t-41 22q-37 0 -80 -47t-80.5 -108.5t-65.5 -122.5 t-36 -90zM330 1129q0 35 23.5 57.5t56.5 22.5q35 0 58 -25t23 -57q0 -33 -23.5 -57.5t-57.5 -24.5q-35 0 -57.5 24.5t-22.5 59.5zM663 1127q0 35 23.5 57.5t56.5 22.5q35 0 58.5 -25t23.5 -57q0 -33 -23.5 -57.5t-58.5 -24.5t-57.5 24.5t-22.5 59.5z" />
<glyph unicode="&#xec;" horiz-adv-x="468" d="M76 25q0 29 12 68.5t29.5 79.5t37 78t33.5 64l162 308q4 10 17.5 37.5t17.5 35.5q4 12 4 23q0 4 -1 11t-3 7q-29 0 -58.5 -17.5t-56 -39t-45 -43t-24.5 -27.5l-58 -12q33 43 75 83t85 70.5t85 49t73 18.5q20 0 33.5 -10t13.5 -31q0 -23 -14.5 -63.5t-37 -93t-51 -108.5 t-54 -106.5t-47 -90.5t-32.5 -56q-6 -10 -19 -36.5t-28.5 -56.5t-27 -55.5t-11.5 -33.5q0 -18 19 -19q14 0 38.5 15.5t53.5 40t57.5 58.5t51.5 71h40q-25 -47 -61.5 -95.5t-78.5 -87t-86 -62.5t-83 -24q-23 0 -42 10.5t-19 39.5zM295 1239q0 29 19.5 37t30.5 8 q41 0 68.5 -26.5t39.5 -42.5q4 -4 24.5 -32t48 -63.5t56.5 -75.5t47 -69q-12 0 -17 1t-16 9q-86 61 -137 96t-78.5 55.5t-39 29t-17.5 14.5q-16 16 -22.5 30.5t-6.5 28.5z" />
<glyph unicode="&#xed;" horiz-adv-x="468" d="M76 25q0 29 12 68.5t29.5 79.5t37 78t33.5 64l162 308q4 10 17.5 37.5t17.5 35.5q4 12 4 23q0 4 -1 11t-3 7q-29 0 -58.5 -17.5t-56 -39t-45 -43t-24.5 -27.5l-58 -12q33 43 75 83t85 70.5t85 49t73 18.5q20 0 33.5 -10t13.5 -31q0 -23 -14.5 -63.5t-37 -93t-51 -108.5 t-54 -106.5t-47 -90.5t-32.5 -56q-6 -10 -19 -36.5t-28.5 -56.5t-27 -55.5t-11.5 -33.5q0 -18 19 -19q14 0 38.5 15.5t53.5 40t57.5 58.5t51.5 71h40q-25 -47 -61.5 -95.5t-78.5 -87t-86 -62.5t-83 -24q-23 0 -42 10.5t-19 39.5zM394 975l24 36q25 36 56.5 81t61.5 86t40 53 q16 16 40.5 34.5t53.5 18.5q31 0 43 -16t12 -29q0 -16 -5 -28.5t-21.5 -27.5t-48 -37.5t-84.5 -61.5l-156 -111z" />
<glyph unicode="&#xee;" horiz-adv-x="468" d="M76 25q0 29 12 68.5t29.5 79.5t37 78t33.5 64l162 308q4 10 17.5 37.5t17.5 35.5q4 12 4 23q0 4 -1 11t-3 7q-29 0 -58.5 -17.5t-56 -39t-45 -43t-24.5 -27.5l-58 -12q33 43 75 83t85 70.5t85 49t73 18.5q20 0 33.5 -10t13.5 -31q0 -23 -14.5 -63.5t-37 -93t-51 -108.5 t-54 -106.5t-47 -90.5t-32.5 -56q-6 -10 -19 -36.5t-28.5 -56.5t-27 -55.5t-11.5 -33.5q0 -18 19 -19q14 0 38.5 15.5t53.5 40t57.5 58.5t51.5 71h40q-25 -47 -61.5 -95.5t-78.5 -87t-86 -62.5t-83 -24q-23 0 -42 10.5t-19 39.5zM271 934q6 6 33.5 34t68.5 66.5t87 84t87 84 t72 67.5t39 35l57 2l21 -375h-23q-4 10 -15 47t-22.5 78t-22.5 76t-16 43l-335 -240z" />
<glyph unicode="&#xef;" horiz-adv-x="468" d="M76 25q0 29 12 68.5t29.5 79.5t37 78t33.5 64l162 308q4 10 17.5 37.5t17.5 35.5q4 12 4 23q0 4 -1 11t-3 7q-29 0 -58.5 -17.5t-56 -39t-45 -43t-24.5 -27.5l-58 -12q33 43 75 83t85 70.5t85 49t73 18.5q20 0 33.5 -10t13.5 -31q0 -23 -14.5 -63.5t-37 -93t-51 -108.5 t-54 -106.5t-47 -90.5t-32.5 -56q-6 -10 -19 -36.5t-28.5 -56.5t-27 -55.5t-11.5 -33.5q0 -18 19 -19q14 0 38.5 15.5t53.5 40t57.5 58.5t51.5 71h40q-25 -47 -61.5 -95.5t-78.5 -87t-86 -62.5t-83 -24q-23 0 -42 10.5t-19 39.5zM265 1129q0 35 23.5 57.5t56.5 22.5 q35 0 58 -25t23 -57q0 -33 -23.5 -57.5t-57.5 -24.5q-35 0 -57.5 24.5t-22.5 59.5zM598 1127q0 35 23.5 57.5t56.5 22.5q35 0 58.5 -25t23.5 -57q0 -33 -23.5 -57.5t-58.5 -24.5t-57.5 24.5t-22.5 59.5z" />
<glyph unicode="&#xf0;" horiz-adv-x="811" d="M174 215q0 111 41 218.5t104.5 191.5t140.5 135t148 51q29 0 52.5 -8t46.5 -19q-4 137 -45 260l-179 -51l-14 41l178 51q-14 37 -25.5 61.5t-24.5 46t-29.5 44.5t-41.5 53l33 25q27 -23 51.5 -52.5t43 -59t31.5 -57.5t20 -44l206 59l15 -41l-205 -57q29 -70 45 -135.5 t24.5 -120.5t10.5 -95t2 -59q0 -125 -37 -246.5t-100.5 -218t-146.5 -156t-175 -59.5q-61 0 -96 34t-51.5 76t-19.5 81t-3 51zM258 104q0 -41 23.5 -64.5t70.5 -23.5q27 0 51.5 12.5t44 32t36 43t28.5 43.5q31 57 65.5 126t62.5 138.5t46.5 137t18.5 123.5q0 33 -9.5 52 t-20.5 28.5t-22.5 11.5t-15.5 2q-41 0 -85 -34t-86 -89t-80 -124.5t-66.5 -143.5t-45 -145t-16.5 -126z" />
<glyph unicode="&#xf1;" horiz-adv-x="874" d="M92 -8q0 10 13.5 44t35.5 95q6 14 19.5 46t28 67t27.5 66.5t17 43.5l129 338q-6 14 -14 15q-20 0 -44.5 -21.5t-48.5 -49.5t-43 -54.5t-28 -38.5q-10 -2 -16 -2t-18 2q27 55 69.5 107t87.5 92t87 62.5t71 20.5q16 -16 16 -37q0 -18 -20.5 -78.5t-47 -131t-51 -135 t-32.5 -89.5l4 -4q4 6 16 24.5t26.5 39t27 39t18.5 24.5q121 154 219 252t176 98q27 0 41 -9t21.5 -21.5t8.5 -22.5t1 -12q0 -29 -19.5 -89.5t-49 -133t-64.5 -151.5t-64.5 -144.5t-49 -111.5t-19.5 -52q0 -4 3 -9t5 -8q16 2 37.5 20.5t45 45.5t45 56.5t40.5 56.5l41 -2 q-2 -4 -29 -46t-69 -91.5t-93 -90.5t-104 -41q-16 0 -32.5 7.5t-16.5 25.5t7 44t15 49.5t16.5 43t12.5 27.5l145 317q10 25 23.5 56.5t26 61.5t21.5 51.5t9 25.5q2 12 2 20.5v12.5q0 16 -7 21t-17 5q-23 0 -57 -23.5t-70.5 -61.5t-74.5 -82t-71 -85t-56.5 -72.5t-29.5 -41.5 q-29 -43 -51.5 -80t-44 -77t-45 -87t-51.5 -111q-14 -33 -26.5 -38t-37.5 -5q-18 0 -39 5q-4 8 -4 12zM422 1022q-2 55 12 94t37.5 64t52.5 36t57 11q45 0 89 -21.5t122 -72.5q12 -8 39 -22.5t49 -14.5q29 0 47.5 15.5t27.5 37t13.5 44t6.5 34.5h14q2 -57 -13.5 -96 t-40 -63.5t-54 -35t-54.5 -10.5q-23 0 -43 5t-42.5 16.5t-48.5 28t-60 40.5q-6 4 -37 20.5t-66 16.5q-31 0 -48 -15.5t-26.5 -35.5t-12.5 -41.5t-5 -34.5h-16z" />
<glyph unicode="&#xf2;" horiz-adv-x="724" d="M115 223q0 96 39 201.5t101 193t142 144.5t162 57q20 0 36 -5t26 -9q37 -16 58 -44t31.5 -61.5t13.5 -68.5t3 -64q0 -119 -39 -226.5t-101.5 -188t-139 -129t-152.5 -48.5q-68 0 -103.5 34t-53 77t-20.5 83t-3 54zM207 111q0 -20 7 -44t30 -36q16 -6 30.5 -8.5t22.5 -2.5 q39 0 72.5 27t62.5 65t51.5 79.5t36.5 70.5q10 20 31.5 66.5t44 106t39 124t16.5 121.5q0 29 -17.5 60.5t-51.5 31.5q-41 0 -85 -35t-86 -92t-79 -129t-64.5 -145.5t-44 -142t-16.5 -117.5zM462 1239q0 29 19.5 37t30.5 8q41 0 68.5 -26.5t39.5 -42.5q4 -4 24.5 -32 t48 -63.5t56.5 -75.5t47 -69q-12 0 -17 1t-16 9q-86 61 -137 96t-78.5 55.5t-39 29t-17.5 14.5q-16 16 -22.5 30.5t-6.5 28.5z" />
<glyph unicode="&#xf3;" horiz-adv-x="724" d="M115 223q0 96 39 201.5t101 193t142 144.5t162 57q20 0 36 -5t26 -9q37 -16 58 -44t31.5 -61.5t13.5 -68.5t3 -64q0 -119 -39 -226.5t-101.5 -188t-139 -129t-152.5 -48.5q-68 0 -103.5 34t-53 77t-20.5 83t-3 54zM207 111q0 -20 7 -44t30 -36q16 -6 30.5 -8.5t22.5 -2.5 q39 0 72.5 27t62.5 65t51.5 79.5t36.5 70.5q10 20 31.5 66.5t44 106t39 124t16.5 121.5q0 29 -17.5 60.5t-51.5 31.5q-41 0 -85 -35t-86 -92t-79 -129t-64.5 -145.5t-44 -142t-16.5 -117.5zM521 975l24 36q25 36 56.5 81t61.5 86t40 53q16 16 40.5 34.5t53.5 18.5 q31 0 43 -16t12 -29q0 -16 -5 -28.5t-21.5 -27.5t-48 -37.5t-84.5 -61.5l-156 -111z" />
<glyph unicode="&#xf4;" horiz-adv-x="724" d="M115 223q0 96 39 201.5t101 193t142 144.5t162 57q20 0 36 -5t26 -9q37 -16 58 -44t31.5 -61.5t13.5 -68.5t3 -64q0 -119 -39 -226.5t-101.5 -188t-139 -129t-152.5 -48.5q-68 0 -103.5 34t-53 77t-20.5 83t-3 54zM207 111q0 -20 7 -44t30 -36q16 -6 30.5 -8.5t22.5 -2.5 q39 0 72.5 27t62.5 65t51.5 79.5t36.5 70.5q10 20 31.5 66.5t44 106t39 124t16.5 121.5q0 29 -17.5 60.5t-51.5 31.5q-41 0 -85 -35t-86 -92t-79 -129t-64.5 -145.5t-44 -142t-16.5 -117.5zM357 934q6 6 33.5 34t68.5 66.5t87 84t87 84t72 67.5t39 35l57 2l21 -375h-23 q-4 10 -15 47t-22.5 78t-22.5 76t-16 43l-335 -240z" />
<glyph unicode="&#xf5;" horiz-adv-x="724" d="M115 223q0 96 39 201.5t101 193t142 144.5t162 57q20 0 36 -5t26 -9q37 -16 58 -44t31.5 -61.5t13.5 -68.5t3 -64q0 -119 -39 -226.5t-101.5 -188t-139 -129t-152.5 -48.5q-68 0 -103.5 34t-53 77t-20.5 83t-3 54zM207 111q0 -20 7 -44t30 -36q16 -6 30.5 -8.5t22.5 -2.5 q39 0 72.5 27t62.5 65t51.5 79.5t36.5 70.5q10 20 31.5 66.5t44 106t39 124t16.5 121.5q0 29 -17.5 60.5t-51.5 31.5q-41 0 -85 -35t-86 -92t-79 -129t-64.5 -145.5t-44 -142t-16.5 -117.5zM349 1022q-2 55 12 94t37.5 64t52.5 36t57 11q45 0 89 -21.5t122 -72.5 q12 -8 39 -22.5t49 -14.5q29 0 47.5 15.5t27.5 37t13.5 44t6.5 34.5h14q2 -57 -13.5 -96t-40 -63.5t-54 -35t-54.5 -10.5q-23 0 -43 5t-42.5 16.5t-48.5 28t-60 40.5q-6 4 -37 20.5t-66 16.5q-31 0 -48 -15.5t-26.5 -35.5t-12.5 -41.5t-5 -34.5h-16z" />
<glyph unicode="&#xf6;" horiz-adv-x="724" d="M115 223q0 96 39 201.5t101 193t142 144.5t162 57q20 0 36 -5t26 -9q37 -16 58 -44t31.5 -61.5t13.5 -68.5t3 -64q0 -119 -39 -226.5t-101.5 -188t-139 -129t-152.5 -48.5q-68 0 -103.5 34t-53 77t-20.5 83t-3 54zM207 111q0 -20 7 -44t30 -36q16 -6 30.5 -8.5t22.5 -2.5 q39 0 72.5 27t62.5 65t51.5 79.5t36.5 70.5q10 20 31.5 66.5t44 106t39 124t16.5 121.5q0 29 -17.5 60.5t-51.5 31.5q-41 0 -85 -35t-86 -92t-79 -129t-64.5 -145.5t-44 -142t-16.5 -117.5zM432 1129q0 35 23.5 57.5t56.5 22.5q35 0 58 -25t23 -57q0 -33 -23.5 -57.5 t-57.5 -24.5q-35 0 -57.5 24.5t-22.5 59.5zM765 1127q0 35 23.5 57.5t56.5 22.5q35 0 58.5 -25t23.5 -57q0 -33 -23.5 -57.5t-58.5 -24.5t-57.5 24.5t-22.5 59.5z" />
<glyph unicode="&#xf7;" horiz-adv-x="1368" d="M213 592v88h1069v-88h-1069zM686 231q0 27 19.5 41.5t42.5 14.5q27 0 44 -17.5t17 -44.5q0 -25 -16.5 -43t-42.5 -18q-29 0 -46.5 20t-17.5 47zM686 1053q0 27 19.5 41t42.5 14q27 0 44 -17.5t17 -43.5q0 -25 -16.5 -43.5t-42.5 -18.5q-29 0 -46.5 20.5t-17.5 47.5z" />
<glyph unicode="&#xf8;" horiz-adv-x="724" d="M90 39l45 53q-4 20 -12 56t-8 75q0 96 39 201.5t102 193t142 144.5t157 57q59 0 89 -22.5t50 -51.5q4 6 21.5 26t32.5 36q6 -10 9 -17.5t7 -21.5l-53 -63q10 -35 14 -67t4 -75q0 -78 -25.5 -181t-93.5 -196q-53 -74 -100 -115.5t-87 -63t-70.5 -27t-53.5 -5.5 q-31 0 -52.5 6.5t-36.5 15.5t-28.5 22.5t-27.5 29.5q-10 -8 -12.5 -11t-16.5 -20q-6 -10 -12.5 -15t-12.5 -13zM209 106q0 -31 9 -48t22.5 -24t29 -9t29.5 -2q31 0 55.5 13t46 34.5t39 49t33.5 54.5q55 96 90 178t54.5 142.5t25.5 96.5t6 40q-6 -8 -10 -12.5t-8 -8.5 q-39 -43 -87 -99t-97.5 -114.5t-96.5 -114t-86 -100.5q-37 -43 -46 -54t-9 -22zM219 197l4 -4q4 4 36 41.5t78 91t98 115t99.5 115.5t80 93t38.5 47q-4 35 -21.5 55.5t-51.5 20.5q-39 0 -79 -30.5t-78 -81t-73 -113t-62.5 -127t-46 -123.5t-22.5 -100z" />
<glyph unicode="&#xf9;" horiz-adv-x="874" d="M78 14q0 18 7 41t21.5 55.5t38 77.5t54.5 105q8 14 25.5 51t41 83t48 96t44 93t32.5 72t13 33t-4 8l-4 4q-12 -4 -23.5 -12t-32 -26.5t-54 -52.5t-90.5 -91l-31 8q10 20 48 63.5t86 88.5t98 78.5t87 33.5q25 0 36 -17.5t11 -27.5q0 -18 -21.5 -69.5t-54 -120t-71.5 -144 t-74 -144.5t-60.5 -120t-29.5 -69q-6 -18 -2 -25q4 -2 16 -2q8 0 33 20.5t58.5 51t71.5 67.5t72 72t59.5 60.5l35.5 35.5q45 45 83 91t71 96.5t63.5 107.5t65.5 129q10 2 20.5 3t24.5 1q18 0 24.5 -4t12.5 -12q-8 -23 -32 -83.5t-54.5 -139t-65.5 -163.5t-64.5 -158 t-49 -121t-19.5 -52q-2 -4 -2 -16q10 -2 33.5 17t42.5 36q6 6 18.5 22.5t26.5 34t27.5 33.5t17.5 23l33 -5q-18 -35 -52 -78.5t-73 -83.5t-76 -67t-61 -27q-16 0 -34 8.5t-18 34.5q0 37 13.5 73t27.5 71l142 330q4 6 5 8l3 6l-4 4q-12 -12 -41 -46t-63 -73t-64.5 -74.5 t-44.5 -50.5q-63 -63 -122 -116.5t-110 -92.5t-91 -60.5t-66 -21.5q-20 0 -26.5 14.5t-6.5 24.5zM495 1239q0 29 19.5 37t30.5 8q41 0 68.5 -26.5t39.5 -42.5q4 -4 24.5 -32t48 -63.5t56.5 -75.5t47 -69q-12 0 -17 1t-16 9q-86 61 -137 96t-78.5 55.5t-39 29t-17.5 14.5 q-16 16 -22.5 30.5t-6.5 28.5z" />
<glyph unicode="&#xfa;" horiz-adv-x="874" d="M78 14q0 18 7 41t21.5 55.5t38 77.5t54.5 105q8 14 25.5 51t41 83t48 96t44 93t32.5 72t13 33t-4 8l-4 4q-12 -4 -23.5 -12t-32 -26.5t-54 -52.5t-90.5 -91l-31 8q10 20 48 63.5t86 88.5t98 78.5t87 33.5q25 0 36 -17.5t11 -27.5q0 -18 -21.5 -69.5t-54 -120t-71.5 -144 t-74 -144.5t-60.5 -120t-29.5 -69q-6 -18 -2 -25q4 -2 16 -2q8 0 33 20.5t58.5 51t71.5 67.5t72 72t59.5 60.5l35.5 35.5q45 45 83 91t71 96.5t63.5 107.5t65.5 129q10 2 20.5 3t24.5 1q18 0 24.5 -4t12.5 -12q-8 -23 -32 -83.5t-54.5 -139t-65.5 -163.5t-64.5 -158 t-49 -121t-19.5 -52q-2 -4 -2 -16q10 -2 33.5 17t42.5 36q6 6 18.5 22.5t26.5 34t27.5 33.5t17.5 23l33 -5q-18 -35 -52 -78.5t-73 -83.5t-76 -67t-61 -27q-16 0 -34 8.5t-18 34.5q0 37 13.5 73t27.5 71l142 330q4 6 5 8l3 6l-4 4q-12 -12 -41 -46t-63 -73t-64.5 -74.5 t-44.5 -50.5q-63 -63 -122 -116.5t-110 -92.5t-91 -60.5t-66 -21.5q-20 0 -26.5 14.5t-6.5 24.5zM594 975l24 36q25 36 56.5 81t61.5 86t40 53q16 16 40.5 34.5t53.5 18.5q31 0 43 -16t12 -29q0 -16 -5 -28.5t-21.5 -27.5t-48 -37.5t-84.5 -61.5l-156 -111z" />
<glyph unicode="&#xfb;" horiz-adv-x="874" d="M78 14q0 18 7 41t21.5 55.5t38 77.5t54.5 105q8 14 25.5 51t41 83t48 96t44 93t32.5 72t13 33t-4 8l-4 4q-12 -4 -23.5 -12t-32 -26.5t-54 -52.5t-90.5 -91l-31 8q10 20 48 63.5t86 88.5t98 78.5t87 33.5q25 0 36 -17.5t11 -27.5q0 -18 -21.5 -69.5t-54 -120t-71.5 -144 t-74 -144.5t-60.5 -120t-29.5 -69q-6 -18 -2 -25q4 -2 16 -2q8 0 33 20.5t58.5 51t71.5 67.5t72 72t59.5 60.5l35.5 35.5q45 45 83 91t71 96.5t63.5 107.5t65.5 129q10 2 20.5 3t24.5 1q18 0 24.5 -4t12.5 -12q-8 -23 -32 -83.5t-54.5 -139t-65.5 -163.5t-64.5 -158 t-49 -121t-19.5 -52q-2 -4 -2 -16q10 -2 33.5 17t42.5 36q6 6 18.5 22.5t26.5 34t27.5 33.5t17.5 23l33 -5q-18 -35 -52 -78.5t-73 -83.5t-76 -67t-61 -27q-16 0 -34 8.5t-18 34.5q0 37 13.5 73t27.5 71l142 330q4 6 5 8l3 6l-4 4q-12 -12 -41 -46t-63 -73t-64.5 -74.5 t-44.5 -50.5q-63 -63 -122 -116.5t-110 -92.5t-91 -60.5t-66 -21.5q-20 0 -26.5 14.5t-6.5 24.5zM430 934q6 6 33.5 34t68.5 66.5t87 84t87 84t72 67.5t39 35l57 2l21 -375h-23q-4 10 -15 47t-22.5 78t-22.5 76t-16 43l-335 -240z" />
<glyph unicode="&#xfc;" horiz-adv-x="874" d="M78 14q0 18 7 41t21.5 55.5t38 77.5t54.5 105q8 14 25.5 51t41 83t48 96t44 93t32.5 72t13 33t-4 8l-4 4q-12 -4 -23.5 -12t-32 -26.5t-54 -52.5t-90.5 -91l-31 8q10 20 48 63.5t86 88.5t98 78.5t87 33.5q25 0 36 -17.5t11 -27.5q0 -18 -21.5 -69.5t-54 -120t-71.5 -144 t-74 -144.5t-60.5 -120t-29.5 -69q-6 -18 -2 -25q4 -2 16 -2q8 0 33 20.5t58.5 51t71.5 67.5t72 72t59.5 60.5l35.5 35.5q45 45 83 91t71 96.5t63.5 107.5t65.5 129q10 2 20.5 3t24.5 1q18 0 24.5 -4t12.5 -12q-8 -23 -32 -83.5t-54.5 -139t-65.5 -163.5t-64.5 -158 t-49 -121t-19.5 -52q-2 -4 -2 -16q10 -2 33.5 17t42.5 36q6 6 18.5 22.5t26.5 34t27.5 33.5t17.5 23l33 -5q-18 -35 -52 -78.5t-73 -83.5t-76 -67t-61 -27q-16 0 -34 8.5t-18 34.5q0 37 13.5 73t27.5 71l142 330q4 6 5 8l3 6l-4 4q-12 -12 -41 -46t-63 -73t-64.5 -74.5 t-44.5 -50.5q-63 -63 -122 -116.5t-110 -92.5t-91 -60.5t-66 -21.5q-20 0 -26.5 14.5t-6.5 24.5zM465 1129q0 35 23.5 57.5t56.5 22.5q35 0 58 -25t23 -57q0 -33 -23.5 -57.5t-57.5 -24.5q-35 0 -57.5 24.5t-22.5 59.5zM798 1127q0 35 23.5 57.5t56.5 22.5q35 0 58.5 -25 t23.5 -57q0 -33 -23.5 -57.5t-58.5 -24.5t-57.5 24.5t-22.5 59.5z" />
<glyph unicode="&#xfd;" d="M-440 -406q0 23 16 36.5t33 13.5q39 0 63.5 -18.5t44.5 -41.5q18 -20 34 -27.5t54 -7.5q49 0 99.5 18.5t98.5 49.5t94 73t89 91q51 59 80 145t42.5 170t15.5 149.5t2 84.5q0 74 -3.5 149.5t-13.5 149.5q-4 35 -18.5 58.5t-36.5 23.5q-23 0 -39 -20.5t-30.5 -49.5 t-23.5 -60.5t-16 -54.5q-8 -2 -13 -1t-21 12q12 45 27.5 95t36 92t48 68.5t64.5 26.5q35 0 59.5 -25.5t39.5 -64.5t24.5 -85t12.5 -86t4 -68.5t1 -30.5q0 -41 -3 -93.5t-8 -105.5t-11.5 -101t-12.5 -77q-12 -55 -15 -70.5t-5 -29.5q6 6 22.5 30.5t35 56t35.5 61.5t26 44 q16 29 37.5 82t41 118.5t32.5 139.5t13 145q0 6 -1 18.5t-1 28v27.5v19q8 51 22.5 59t31.5 8q10 0 30.5 -7t20.5 -52q0 -18 -9.5 -62.5t-26.5 -106t-41 -133t-51.5 -144t-59 -140.5t-64.5 -119q-23 -37 -56.5 -85t-73.5 -100t-84 -102.5t-89 -89.5q-111 -96 -215.5 -136 t-181.5 -40q-39 0 -82 3t-78 24q-18 12 -32.5 27.5t-14.5 37.5zM498 975l24 36q25 36 56.5 81t61.5 86t40 53q16 16 40.5 34.5t53.5 18.5q31 0 43 -16t12 -29q0 -16 -5 -28.5t-21.5 -27.5t-48 -37.5t-84.5 -61.5l-156 -111z" />
<glyph unicode="&#xfe;" horiz-adv-x="831" d="M-289 -502q0 6 6 19q10 2 39 6t59.5 9t56.5 10t30 9q6 6 22.5 40t34.5 82t38.5 103.5t39 104.5t31 85t14.5 44l137 389q41 121 70.5 212t56.5 175t53.5 174.5t59.5 210.5q4 12 10 37t6 35q0 23 -31.5 32l-66.5 19l2 27q6 0 32.5 2t61.5 4t72 3t63 1q0 -10 -3 -23.5 t-17 -58.5q-2 -4 -10.5 -32.5t-20.5 -70.5t-27.5 -92t-29 -96.5t-24.5 -83t-15 -53.5q51 4 86 2t78 -10q2 0 35.5 -11t73.5 -42t72 -86.5t32 -145.5q0 -63 -19.5 -124.5t-48.5 -113.5t-59.5 -92t-53.5 -61q-49 -45 -99 -74.5t-94 -46t-78 -23.5t-52 -7q-43 0 -74 8t-65 22 q-18 -37 -48 -113.5t-58 -154.5t-47 -136t-19 -61v-8q14 -12 30.5 -15t69.5 -5q16 0 23.5 -2t29.5 -10q4 -10 5 -11.5t1 -5.5q0 -6 -4 -10h-33.5h-24.5h-22.5h-27.5h-37t-56 2t-54 3t-36 1q-8 0 -18 -1t-21 -1q-10 -2 -20 -3t-18 -1l-99 2v12zM231 104q0 -43 33 -58t70 -15 q61 0 104 26.5t111 81.5q61 66 95 130.5t51.5 118.5t21.5 92t4 52q0 43 -8 82t-33 70t-69 49.5t-115 18.5h-27.5t-28.5 -2q-23 -66 -43 -129.5t-43 -126.5q-10 -29 -30.5 -85.5t-41 -118t-36 -113.5t-15.5 -73z" />
<glyph unicode="&#xff;" d="M-440 -406q0 23 16 36.5t33 13.5q39 0 63.5 -18.5t44.5 -41.5q18 -20 34 -27.5t54 -7.5q49 0 99.5 18.5t98.5 49.5t94 73t89 91q51 59 80 145t42.5 170t15.5 149.5t2 84.5q0 74 -3.5 149.5t-13.5 149.5q-4 35 -18.5 58.5t-36.5 23.5q-23 0 -39 -20.5t-30.5 -49.5 t-23.5 -60.5t-16 -54.5q-8 -2 -13 -1t-21 12q12 45 27.5 95t36 92t48 68.5t64.5 26.5q35 0 59.5 -25.5t39.5 -64.5t24.5 -85t12.5 -86t4 -68.5t1 -30.5q0 -41 -3 -93.5t-8 -105.5t-11.5 -101t-12.5 -77q-12 -55 -15 -70.5t-5 -29.5q6 6 22.5 30.5t35 56t35.5 61.5t26 44 q16 29 37.5 82t41 118.5t32.5 139.5t13 145q0 6 -1 18.5t-1 28v27.5v19q8 51 22.5 59t31.5 8q10 0 30.5 -7t20.5 -52q0 -18 -9.5 -62.5t-26.5 -106t-41 -133t-51.5 -144t-59 -140.5t-64.5 -119q-23 -37 -56.5 -85t-73.5 -100t-84 -102.5t-89 -89.5q-111 -96 -215.5 -136 t-181.5 -40q-39 0 -82 3t-78 24q-18 12 -32.5 27.5t-14.5 37.5zM330 1129q0 35 23.5 57.5t56.5 22.5q35 0 58 -25t23 -57q0 -33 -23.5 -57.5t-57.5 -24.5q-35 0 -57.5 24.5t-22.5 59.5zM663 1127q0 35 23.5 57.5t56.5 22.5q35 0 58.5 -25t23.5 -57q0 -33 -23.5 -57.5 t-58.5 -24.5t-57.5 24.5t-22.5 59.5z" />
<glyph unicode="&#x152;" horiz-adv-x="2027" d="M211 485q0 150 65.5 295.5t179 261t266 187t327.5 71.5q14 0 52 -2t80 -3t79.5 -3t52.5 -2q10 0 34.5 1t51 1t50.5 1t34 1h57.5h70.5t78 -1t74 -1q12 0 39 1t57.5 3t58.5 3t38 1h180q0 -16 -4 -47.5t-9 -64.5t-10.5 -59.5t-5.5 -32.5q-16 -2 -21 -1t-11 1l-4.5 40.5 t-7.5 44t-13 38t-20 22.5q-6 4 -24.5 7t-43.5 5t-53.5 3t-53.5 1q-29 0 -71.5 -1t-87.5 -2t-87 -4t-67 -7q-14 -27 -35.5 -86t-46 -133t-50.5 -153.5t-46 -147.5q25 0 88.5 3t134 6t131 7t76.5 11q45 14 78.5 58t62.5 87h20.5t14.5 -2l-151 -404q-10 0 -19.5 1.5t-19.5 3.5 q2 10 5 24t13 62q4 16 5 26t1 17q0 14 -4 26.5t-21.5 21.5t-54 14t-102.5 5q-29 0 -75 -2t-90 -5t-77 -5l-34 -2q-8 -14 -25.5 -60.5t-40.5 -109t-48.5 -135t-47 -137t-39 -116.5t-21.5 -73q55 -2 118 -4t104 -2q88 0 163.5 5t143 30.5t130 81t124.5 157.5h35 q-2 -18 -13.5 -54t-29 -81t-41 -96t-48.5 -100q-27 8 -49 11t-55 5q-31 2 -77 2h-120h-440h-51.5t-53 -1t-76.5 -5t-122 -10q-10 0 -20.5 -1t-20.5 -1q-49 0 -118.5 9t-125.5 34q-82 37 -134 93t-83 120.5t-42 129t-11 117.5zM358 416q0 -125 41 -202t95 -118 q55 -43 111.5 -57t84.5 -14q51 0 92 14t73 36.5t57.5 49t45.5 49.5q66 84 109 175t88 212q16 47 40 112.5t45.5 135.5t36.5 135.5t15 110.5q0 57 -20.5 97t-54 62.5t-77.5 32.5t-93 10q-86 0 -160 -26.5t-137.5 -72.5t-117.5 -108.5t-97 -131.5q-80 -129 -128.5 -253 t-48.5 -249z" />
<glyph unicode="&#x153;" horiz-adv-x="937" d="M109 190q0 90 35.5 199t97 204t141.5 158.5t168 63.5q37 0 63.5 -13.5t44 -30.5t27.5 -37l16 -32q66 53 114 83t95 30q25 0 43.5 -12t31.5 -29.5t19.5 -37t6.5 -36.5q0 -12 -5.5 -34.5t-19.5 -52t-40.5 -62.5t-69.5 -64q-14 -10 -40 -23t-55.5 -27.5t-61.5 -28t-58 -25.5 q-18 -55 -28.5 -93t-16 -64.5t-7.5 -46t-2 -38.5q0 -10 2 -25.5t8.5 -28.5t17.5 -23.5t30 -10.5q45 0 110.5 57.5t130.5 147.5q10 -2 15.5 -3t17.5 -5q-14 -25 -47 -70t-77 -91t-95 -80t-100 -34q-31 0 -50.5 14.5t-31 36t-17.5 48t-10 51.5q-55 -45 -91 -73.5t-62.5 -46 t-50 -24t-52.5 -6.5q-55 0 -85 24t-43 57.5t-16 70.5t-3 63zM188 104q0 -10 1 -25.5t7.5 -30.5t20.5 -26.5t39 -11.5q31 0 61.5 16.5t56 38t45 42t25.5 28.5q31 43 66 117t64.5 153.5t50 153.5t20.5 115q0 31 -22.5 68.5t-69.5 37.5q-63 0 -106.5 -51t-96.5 -147 q-90 -160 -126 -280t-36 -198zM672 424q66 20 117 52t86.5 70t54 80t18.5 83q0 23 -8 36t-18.5 19t-20.5 7t-14 1q-41 0 -75 -36t-59.5 -89t-46 -113.5t-34.5 -109.5z" />
<glyph unicode="&#x178;" horiz-adv-x="1323" d="M250 1278v35q29 0 60.5 -1t47.5 -3q47 -4 95.5 -8.5t119.5 -4.5h21.5t41 1t49.5 4.5t48 7.5v-31t-2 -18q-90 -6 -120.5 -12.5t-39.5 -26.5q6 -14 21.5 -49t32 -74t32 -74t21.5 -47l119 -287l16 -31q6 4 12 8.5t13.5 11.5t19.5 19.5t31 32.5q20 20 69.5 70.5t103.5 106 t102 104.5t67 67q6 4 19.5 20.5t26.5 37t24.5 40t11.5 29.5q0 27 -24.5 40.5t-57.5 17.5t-65.5 3t-47.5 -1v43q16 4 31.5 5t40.5 1q10 0 36.5 -2t49.5 -4q29 -4 52.5 -4h33.5h32.5t59.5 1t66.5 2t56.5 5v-47q-6 -2 -18.5 -5.5t-26.5 -6.5t-27.5 -6t-17.5 -5q-51 -20 -93 -58 t-77 -73l-92 -92l-72 -72t-62.5 -63.5t-63.5 -65.5t-75 -80t-96 -104q-6 -6 -22.5 -51t-37 -102.5t-38 -110t-25.5 -72.5q-29 -78 -43 -123t-14 -80q0 -12 11 -29.5t46 -27.5q8 -2 29.5 -4t44 -4t44 -3t30.5 -1q0 -31 -2 -39h-197q-16 4 -65.5 6t-84.5 6q-27 -2 -50 -2 t-52 -4q-51 -4 -84 -5t-63 1q2 16 4 22t6 17q57 4 93 8t58.5 9t33.5 12.5t22 19.5q8 12 24.5 49t33.5 86t37.5 106.5t38 110.5t31 96t21.5 68q-10 23 -26.5 60.5t-35 80.5t-38 87t-34.5 81t-26.5 61.5t-13.5 30.5q-4 12 -21.5 51t-37 81t-36 77t-22.5 39q-20 16 -59 22.5 t-86 12.5zM793 1598q0 35 23.5 57.5t56.5 22.5q35 0 58 -25t23 -57q0 -33 -23.5 -57.5t-57.5 -24.5q-35 0 -57.5 24.5t-22.5 59.5zM1126 1596q0 35 23.5 57.5t56.5 22.5q35 0 58.5 -25t23.5 -57q0 -33 -23.5 -57.5t-58.5 -24.5t-57.5 24.5t-22.5 59.5z" />
<glyph unicode="&#x2c6;" d="M334 903q6 6 33.5 34t68.5 66.5t87 84t87 84t72 67.5t39 35l57 2l21 -375h-23q-4 10 -15 47t-22.5 78t-22.5 76t-16 43l-335 -240z" />
<glyph unicode="&#x2dc;" d="M326 991q-2 55 12 94t37.5 64t52.5 36t57 11q45 0 89 -21.5t122 -72.5q12 -8 39 -22.5t49 -14.5q29 0 47.5 15.5t27.5 37t13.5 44t6.5 34.5h14q2 -57 -13.5 -96t-40 -63.5t-54 -35t-54.5 -10.5q-23 0 -43 5t-42.5 16.5t-48.5 28t-60 40.5q-6 4 -37 20.5t-66 16.5 q-31 0 -48 -15.5t-26.5 -35.5t-12.5 -41.5t-5 -34.5h-16z" />
<glyph unicode="&#x2000;" horiz-adv-x="888" />
<glyph unicode="&#x2001;" horiz-adv-x="1776" />
<glyph unicode="&#x2002;" horiz-adv-x="888" />
<glyph unicode="&#x2003;" horiz-adv-x="1776" />
<glyph unicode="&#x2004;" horiz-adv-x="592" />
<glyph unicode="&#x2005;" horiz-adv-x="444" />
<glyph unicode="&#x2006;" horiz-adv-x="296" />
<glyph unicode="&#x2007;" horiz-adv-x="296" />
<glyph unicode="&#x2008;" horiz-adv-x="222" />
<glyph unicode="&#x2009;" horiz-adv-x="355" />
<glyph unicode="&#x200a;" horiz-adv-x="98" />
<glyph unicode="&#x2010;" horiz-adv-x="532" d="M86 356q2 6 7 18.5t12.5 27t13.5 26.5l8 16q6 0 21.5 1t33 2.5t31.5 1.5h20l82 2q6 0 23.5 -1t36 -1t35 -1.5t22.5 -1.5h53.5t44.5 -2q-6 -16 -17 -45.5t-21 -48.5q-10 0 -23.5 -2t-19.5 -2l-17 4l-57 -2q-4 0 -22.5 2t-24.5 2q-10 0 -32 -1t-46.5 -1t-47 -1t-30.5 -1 q-4 0 -17.5 3t-17.5 3q-14 2 -23.5 2h-27.5z" />
<glyph unicode="&#x2011;" horiz-adv-x="532" d="M86 356q2 6 7 18.5t12.5 27t13.5 26.5l8 16q6 0 21.5 1t33 2.5t31.5 1.5h20l82 2q6 0 23.5 -1t36 -1t35 -1.5t22.5 -1.5h53.5t44.5 -2q-6 -16 -17 -45.5t-21 -48.5q-10 0 -23.5 -2t-19.5 -2l-17 4l-57 -2q-4 0 -22.5 2t-24.5 2q-10 0 -32 -1t-46.5 -1t-47 -1t-30.5 -1 q-4 0 -17.5 3t-17.5 3q-14 2 -23.5 2h-27.5z" />
<glyph unicode="&#x2012;" horiz-adv-x="532" d="M86 356q2 6 7 18.5t12.5 27t13.5 26.5l8 16q6 0 21.5 1t33 2.5t31.5 1.5h20l82 2q6 0 23.5 -1t36 -1t35 -1.5t22.5 -1.5h53.5t44.5 -2q-6 -16 -17 -45.5t-21 -48.5q-10 0 -23.5 -2t-19.5 -2l-17 4l-57 -2q-4 0 -22.5 2t-24.5 2q-10 0 -32 -1t-46.5 -1t-47 -1t-30.5 -1 q-4 0 -17.5 3t-17.5 3q-14 2 -23.5 2h-27.5z" />
<glyph unicode="&#x2013;" horiz-adv-x="1024" d="M6 346v92h1049v-92h-1049z" />
<glyph unicode="&#x2014;" horiz-adv-x="2048" d="M6 346v92h2073v-92h-2073z" />
<glyph unicode="&#x2018;" horiz-adv-x="448" d="M256 961q0 23 14.5 74.5t61.5 111.5q74 94 207 176l22 -35q-59 -41 -97 -75.5t-60.5 -63.5t-30.5 -49.5t-8 -30.5q0 -18 15 -33.5t36 -31.5q8 -6 21.5 -31t13.5 -43q0 -16 -6.5 -41t-18.5 -49.5t-30.5 -42t-43.5 -17.5q-35 0 -65.5 50.5t-30.5 130.5z" />
<glyph unicode="&#x2019;" horiz-adv-x="448" d="M217 825q29 20 62.5 50t62.5 61t48.5 60.5t19.5 47.5q0 14 -9.5 22.5t-27.5 23.5q-29 23 -39 44t-10 40q0 31 10 58.5t24.5 46.5t29.5 31.5t24 12.5q23 0 42 -15.5t32.5 -40t20.5 -56t7 -64.5q0 -59 -27.5 -113.5t-69.5 -100.5t-90 -81t-89 -53q-14 10 -17.5 13t-3.5 13z " />
<glyph unicode="&#x201a;" horiz-adv-x="448" d="M16 -256q29 20 63 50t62.5 61.5t48 60.5t19.5 49q0 12 -9.5 21.5t-29.5 23.5q-29 23 -39 44.5t-10 37.5q0 31 11 58.5t25.5 48t30 33t23.5 12.5q23 0 41 -15.5t31.5 -40t20.5 -56.5t7 -64q0 -59 -27.5 -114.5t-68.5 -101t-89 -80t-89 -55.5q-14 10 -17.5 14.5t-3.5 12.5z " />
<glyph unicode="&#x201c;" horiz-adv-x="854" d="M266 950q0 68 26.5 123t68.5 100.5t91.5 82t94.5 67.5q6 -10 10 -17.5t8 -23.5q-59 -43 -96 -78t-57.5 -62.5t-27.5 -47t-7 -29.5t7 -20.5t40 -43.5q16 -16 21.5 -33.5t5.5 -27.5q0 -23 -7.5 -49.5t-19.5 -49t-27.5 -38t-31.5 -15.5q-39 0 -69 48.5t-30 113.5zM682 946 q0 63 24.5 119.5t64.5 104t90.5 85t99.5 62.5q10 -12 12 -18.5t4 -12.5q-18 -16 -50 -40.5t-62.5 -54.5t-52 -62.5t-21.5 -61.5q0 -16 9 -28.5t46 -47.5q10 -8 16 -25.5t6 -33.5q0 -25 -7 -49.5t-19.5 -46t-29.5 -35t-36 -13.5q-25 0 -42 14.5t-28.5 38t-17.5 51.5t-6 54z " />
<glyph unicode="&#x201d;" horiz-adv-x="854" d="M193 827q59 37 97 72t59.5 62.5t28.5 48t7 30.5q0 23 -25 50q-35 39 -44 58t-9 36q0 25 9.5 49t22.5 44.5t29.5 33t32.5 12.5q20 0 38 -14.5t30 -37t19.5 -51t7.5 -59.5q0 -59 -25 -114.5t-64.5 -103.5t-91 -85t-102.5 -61zM598 827q72 47 112 86t59 67t23.5 44t4.5 18 q0 12 -7.5 22.5t-37.5 45.5q-14 14 -23.5 31.5t-9.5 38.5q0 29 10 54.5t24.5 45.5t31 31.5t28.5 11.5q37 0 65.5 -49t28.5 -111q0 -104 -77.5 -203.5t-206.5 -164.5z" />
<glyph unicode="&#x201e;" horiz-adv-x="854" d="M12 -299q68 39 108 75t59.5 65.5t24.5 49t5 27.5q0 14 -5 22.5t-30 36.5q-20 23 -27.5 45.5t-7.5 34.5q0 20 8.5 45t21.5 45.5t29.5 34t32.5 13.5q23 0 40.5 -15.5t28.5 -38t17.5 -49t6.5 -47.5q0 -33 -11.5 -79t-44 -97t-89 -103.5t-148.5 -95.5zM426 -297 q68 43 106.5 80t58 65.5t25 47t5.5 22.5q0 12 -8.5 24.5t-45.5 53.5q-14 16 -17 32.5t-3 22.5q0 27 8 52.5t21.5 46t30 33t32.5 12.5q41 0 67.5 -50.5t26.5 -107.5q0 -31 -11 -74t-42 -92t-88 -101.5t-150 -101.5z" />
<glyph unicode="&#x2022;" horiz-adv-x="716" d="M174 678q0 51 19.5 97t53.5 80t80 53.5t97 19.5t97 -19.5t80 -53.5t54.5 -80t20.5 -97q0 -53 -19.5 -98t-54.5 -80t-81 -54.5t-97 -19.5q-53 0 -98 19.5t-79 54.5t-53.5 80t-19.5 98z" />
<glyph unicode="&#x2026;" horiz-adv-x="2048" d="M233 90q0 43 31 75t76 32t77 -31t32 -76t-32 -76.5t-75 -31.5q-47 0 -78 32.5t-31 75.5zM918 86q0 53 32.5 82t73.5 29q45 0 77 -31t32 -78q0 -45 -33 -75.5t-76 -30.5q-47 0 -76.5 32.5t-29.5 71.5zM1599 88q0 53 34 81t75 28q45 0 76 -32t31 -75t-30 -75.5t-77 -32.5 q-49 0 -79 32.5t-30 73.5z" />
<glyph unicode="&#x202f;" horiz-adv-x="355" />
<glyph unicode="&#x2039;" horiz-adv-x="491" d="M68 408q4 4 39.5 35.5t88 75.5t112 95.5t112.5 97.5t90 77.5t45 37.5h37q-10 -12 -14.5 -17t-14.5 -15q-41 -41 -89 -91.5t-99 -102.5t-100.5 -101t-90.5 -88l146 -424h-31z" />
<glyph unicode="&#x203a;" horiz-adv-x="491" d="M-39 -12q18 20 67.5 69t110 110.5t122 126t108.5 112.5l-146 421h29l233 -421l-489 -420z" />
<glyph unicode="&#x205f;" horiz-adv-x="444" />
<glyph unicode="&#x2122;" horiz-adv-x="2007" d="M92 1090l23 200h727l22 -200h-35q-6 49 -25.5 77.5t-47 42t-59 17.5t-62.5 4h-74v-580q0 -41 4 -65.5t15.5 -39t32 -20.5t55.5 -8v-35h-375v35q33 4 52.5 9t29.5 18.5t14 37t4 66.5v582h-76q-53 0 -86.5 -9.5t-55 -27.5t-32 -45t-16.5 -59h-35zM934 483v35q37 0 59.5 6 t34.5 20.5t15.5 39t3.5 65.5v467q0 39 -2.5 65.5t-13.5 42t-33.5 22.5t-63.5 7v37h285l274 -571l264 571h279v-37q-37 0 -58.5 -5t-34 -19.5t-15.5 -41t-3 -69.5v-467q0 -41 3 -65.5t13.5 -39t33 -20.5t61.5 -8v-35h-398v35q39 2 62.5 8t36 20.5t16.5 39t4 63.5v492h-4 l-303 -658h-33l-303 650h-4v-482q0 -31 1 -55.5t10 -41.5t28.5 -26.5t54.5 -9.5h35v-35h-305z" />
<glyph unicode="&#xe000;" horiz-adv-x="819" d="M0 0v819h819v-819h-819z" />
<glyph unicode="&#xfb01;" horiz-adv-x="917" d="M-256 -455q0 6 3 17.5t10 21.5t22.5 17.5t40.5 5.5q29 -8 49 -37q14 -27 35 -27q18 0 41.5 39t49 105.5t54.5 152.5t60 180l229 717q-10 0 -31.5 1t-46 2t-47.5 2t-31 1q4 20 6 28.5t9 23.5q12 2 33.5 3t46 0t47 -2t34.5 -1q12 41 32 97t47.5 115.5t63.5 118t85 104.5 t110.5 74.5t137.5 28.5q68 0 108.5 -14t63 -32.5t29.5 -37t7 -24.5q0 -23 -15 -41.5t-38 -18.5t-42 11.5t-32 23.5q-27 27 -45 44.5t-32.5 28.5t-26.5 15t-27 4q-31 0 -58.5 -14t-49 -33.5t-37.5 -42t-29 -41.5q-16 -29 -36.5 -77t-40 -101t-37 -102.5t-25.5 -79.5h22.5h34 h32.5h22q92 -4 152.5 2t125.5 47q31 20 42 25.5t28 1.5q0 -12 -8.5 -39t-18.5 -56.5t-20.5 -55.5t-12.5 -36q0 -2 -14 -41t-34.5 -96t-45 -126t-47 -130t-39 -106.5t-20.5 -57.5q-6 -16 -8.5 -21.5t2.5 -15.5q41 6 90 66.5t112 148.5l31 -14q-29 -53 -70 -109.5t-87 -103.5 t-91 -78t-78 -31q-25 0 -33 13.5t-8 23.5q0 20 5.5 39t9.5 29q18 49 53 139t72 189.5t68.5 192.5t45.5 147q-6 0 -21 -1.5t-31.5 -1.5t-32 -1t-21.5 -1q-8 0 -26.5 1t-40 1t-40 1.5t-24.5 1.5h-94q-2 -4 -17.5 -52.5t-40 -123t-55.5 -168t-62.5 -188.5t-63.5 -185t-56 -156 q-25 -68 -53.5 -137.5t-66.5 -125.5t-88 -92t-118 -36q-35 0 -61.5 12t-26.5 49z" />
<glyph unicode="&#xfb02;" horiz-adv-x="811" d="M-258 -422q0 18 8 29.5t18.5 17.5t21.5 8t15 2t10.5 -1t16.5 -9q10 -6 16.5 -13t16.5 -30q8 -12 13 -19t18 -7q23 0 36 22.5t29 59.5q29 63 51.5 120.5t45 124t48 147.5t60.5 191q6 20 19.5 62.5t28.5 95.5t32.5 110.5t32 106.5t24.5 85t12 46l-141 14q8 25 10 32t13 22 l131 -2q12 20 17 33.5t17 56.5q2 12 16.5 49t41 85t63.5 102.5t86 99.5t110.5 74.5t135.5 29.5q27 0 56.5 -6t52.5 -17q2 0 20.5 -7t20.5 -7q10 0 23 13.5t30 31.5l33 -2q-8 -27 -29 -89t-44.5 -132t-44 -131.5l-28.5 -85.5l-69 -199l-131 -364q-27 -78 -43.5 -125 t-23.5 -72t-9 -34t-2 -13q20 6 45.5 25.5t54.5 49t58.5 64.5t60.5 70l22 -23q-18 -35 -62 -86t-94 -99t-99.5 -83t-77.5 -35q-10 0 -25.5 9.5t-15.5 27.5q0 10 16 60.5t40.5 120t54.5 152.5t56.5 158.5t47 138t28.5 91.5q-4 0 -20.5 2t-39 4t-46 3t-39.5 1h-38t-45.5 -1 t-45 -2t-35.5 -1q-2 -8 -13.5 -44t-26.5 -87t-33.5 -111.5t-35 -116t-31 -100.5t-20.5 -65q-49 -156 -94 -285t-94 -222t-105.5 -145.5t-128.5 -52.5q-12 0 -29.5 2t-33.5 9.5t-28.5 22.5t-12.5 42zM451 799q16 -4 58 -6t91 -3.5t93 -2.5t67 -1q12 31 33.5 88.5t41 118 t35 114.5t15.5 81q0 33 -28 60.5t-81 27.5q-82 0 -142.5 -71.5t-109.5 -186.5q-16 -41 -39.5 -105.5t-33.5 -113.5z" />
</font>
</defs>
</svg>
