<?xml version="1.0" standalone="no"?>
<!DOCTYPE svg PUBLIC "-//W3C//DTD SVG 1.1//EN" "http://www.w3.org/Graphics/SVG/1.1/DTD/svg11.dtd" >
<svg>
<metadata>
Created by FontForge 20120731 at Thu Jan 30 19:10:02 2014
 By root
Copyright (c) 2012 Swiss Typefaces Sa`rl. All rights reserved.
</metadata>
<defs>
<font id="EuclidFlexBold" horiz-adv-x="597" >
  <font-face 
    font-family="Euclid Flex Bold"
    font-weight="700"
    font-stretch="normal"
    units-per-em="1000"
    panose-1="2 11 8 0 3 0 0 0 0 0"
    ascent="806"
    descent="-194"
    x-height="500"
    cap-height="710"
    bbox="-225 -1029.25 1401 999"
    underline-thickness="100"
    underline-position="10"
    stemh="154"
    stemv="151"
    unicode-range="U+0020-FB02"
  />
<missing-glyph horiz-adv-x="500" 
d="M0 0v710h500v-710h-500zM239 355l-220 327v-654zM260 355l221 -327v654zM466 691h-432l216 -321zM250 339l-216 -320h432z" />
    <glyph glyph-name="f_t" unicode="ft" horiz-adv-x="690" 
d="M232 368v-368h-151v368h-65v132h73c-20 22 -31 51 -31 83c0 71 52 127 135 127h105v-132h-48c-35 0 -49 -17 -49 -39c0 -21 15 -38 35 -39h128v75l151 75v-150h158l-33 -132h-125v-171c0 -42 17 -59 58 -59h82v-138h-138c-94 0 -153 59 -153 154v214h-132z" />
    <glyph glyph-name="t_f" unicode="tf" horiz-adv-x="716" 
d="M21 368l-33 132h98v75l151 75v-150h206c-20 22 -31 51 -31 83c0 71 52 127 135 127h155v-132h-98c-35 0 -49 -17 -49 -39s17 -39 39 -39h108v-132h-116v-368h-151v368h-198v-171c0 -42 17 -59 58 -59h82v-138h-138c-94 0 -153 59 -153 154v214h-65z" />
    <glyph glyph-name="t_t" unicode="tt" horiz-adv-x="695" 
d="M237 368v-171c0 -42 17 -59 58 -59h32v-138h-88c-94 0 -153 59 -153 154v214h-65l-33 132h98v75l151 75v-150h132v75l151 75v-150h158l-33 -132h-125v-171c0 -42 17 -59 58 -59h82v-138h-138c-94 0 -153 59 -153 154v214h-132z" />
    <glyph glyph-name=".notdef" horiz-adv-x="500" 
d="M0 0v710h500v-710h-500zM239 355l-220 327v-654zM260 355l221 -327v654zM466 691h-432l216 -321zM250 339l-216 -320h432z" />
    <glyph glyph-name=".null" horiz-adv-x="0" 
 />
    <glyph glyph-name="CR" horiz-adv-x="0" 
 />
    <glyph glyph-name="space" unicode=" " horiz-adv-x="220" 
 />
    <glyph glyph-name="exclam" unicode="!" horiz-adv-x="330" 
d="M119 255l-30 184v271h152v-271l-30 -184h-92zM165 -8c-60 0 -108 48 -108 108c0 34 16 64 40 84h136c24 -20 40 -50 40 -84c0 -60 -48 -108 -108 -108z" />
    <glyph glyph-name="quotedbl" unicode="&#x22;" horiz-adv-x="463" 
d="M67 412v298h127v-298h-127zM269 412v298h127v-298h-127z" />
    <glyph glyph-name="numbersign" unicode="#" horiz-adv-x="711" 
d="M311 0l56 181h-131l-56 -181h-128l56 181h-83v114h119l37 120h-83v114h119l56 181h128l-56 -181h131l56 181h128l-56 -181h82v-114h-118l-37 -120h83v-114h-119l-56 -181h-128zM309 415l-37 -120h131l37 120h-131z" />
    <glyph glyph-name="dollar" unicode="$" horiz-adv-x="533" 
d="M213 -88v86c-82 14 -144 59 -183 133l110 90c31 -49 74 -88 133 -88c47 0 68 27 68 60c0 32 -23 52 -83 79l-40 18c-107 48 -157 127 -157 223c0 103 65 176 152 198v87h127v-88c42 -11 78 -35 118 -81l-96 -101c-35 39 -54 49 -84 49c-44 0 -65 -26 -65 -58
c0 -37 31 -57 96 -86l38 -17c98 -44 146 -115 146 -213c0 -106 -58 -181 -153 -203v-88h-127z" />
    <glyph glyph-name="percent" unicode="%" horiz-adv-x="419" 
d="M209 87c24 0 43 19 43 43s-19 43 -43 43s-43 -19 -43 -43s19 -43 43 -43zM209 -4c-75 0 -134 59 -134 134s59 135 134 135s135 -60 135 -135s-60 -134 -135 -134zM55 298v114h309v-114h-309zM209 536c24 0 43 19 43 43s-19 43 -43 43s-43 -19 -43 -43s19 -43 43 -43z
M209 445c-75 0 -134 59 -134 134s59 135 134 135s135 -60 135 -135s-60 -134 -135 -134z" />
    <glyph glyph-name="ampersand" unicode="&#x26;" horiz-adv-x="616" 
d="M248 -8c-126 0 -228 102 -228 228c0 119 92 218 209 228l-128 262h405v-132h-173l283 -578h-168l-36 73c-41 -62 -100 -81 -164 -81zM248 135c45 0 82 39 82 85s-37 85 -82 85s-82 -39 -82 -85s37 -85 82 -85z" />
    <glyph glyph-name="quotesingle" unicode="'" horiz-adv-x="261" 
d="M67 412v298h127v-298h-127z" />
    <glyph glyph-name="parenleft" unicode="(" horiz-adv-x="282" 
d="M165 -164c-75 138 -110 288 -110 464s35 326 110 464l111 -49c-57 -134 -94 -276 -94 -415s37 -281 94 -415z" />
    <glyph glyph-name="parenright" unicode=")" horiz-adv-x="282" 
d="M117 -164l-111 49c57 134 94 276 94 415s-37 281 -94 415l111 49c75 -138 110 -288 110 -464s-35 -326 -110 -464z" />
    <glyph glyph-name="asterisk" unicode="*" horiz-adv-x="496" 
d="M160 283l-83 60l88 120l-142 46l32 98l142 -46v149h103v-149l141 47l32 -98l-141 -47l88 -120l-83 -60l-88 119z" />
    <glyph glyph-name="plus" unicode="+" horiz-adv-x="590" 
d="M77 225v114h161v161h114v-161h161v-114h-161v-161h-114v161h-161z" />
    <glyph glyph-name="comma" unicode="," horiz-adv-x="308" 
d="M90 -154l44 154h-67v174h174v-174l-64 -154h-87z" />
    <glyph glyph-name="hyphen" unicode="-" horiz-adv-x="370" 
d="M43 210v144h284v-144h-284z" />
    <glyph glyph-name="period" unicode="." horiz-adv-x="330" 
d="M165 -8c-60 0 -108 48 -108 108s48 108 108 108s108 -48 108 -108s-48 -108 -108 -108z" />
    <glyph glyph-name="slash" unicode="/" horiz-adv-x="467" 
d="M0 0l331 710h136l-331 -710h-136z" />
    <glyph glyph-name="zero" unicode="0" horiz-adv-x="810" 
d="M405 133c125 0 214 99 214 222s-89 222 -214 222s-214 -99 -214 -222s89 -222 214 -222zM405 -8c-200 0 -366 163 -366 363s166 363 366 363s366 -163 366 -363s-166 -363 -366 -363z" />
    <glyph glyph-name="one" unicode="1" horiz-adv-x="306" 
d="M77 0v566l152 152v-718h-152z" />
    <glyph glyph-name="two" unicode="2" horiz-adv-x="580" 
d="M0 0l218 269c-95 30 -164 116 -164 220c0 128 107 229 235 229s236 -101 236 -229c0 -56 -21 -106 -54 -146l-163 -202h216v-141h-524zM289 400c51 0 84 41 84 89s-33 88 -84 88s-83 -40 -83 -88s32 -89 83 -89z" />
    <glyph glyph-name="three" unicode="3" horiz-adv-x="519" 
d="M232 -8c-90 0 -169 38 -217 100l107 99c22 -33 53 -58 100 -58c66 0 108 41 108 107s-42 107 -108 107h-72l105 222h-207v141h429l-118 -250c77 -40 124 -118 124 -220c0 -150 -101 -248 -251 -248z" />
    <glyph glyph-name="four" unicode="4" horiz-adv-x="589" 
d="M341 0v160h-356l508 558v-426h66v-132h-66v-160h-152zM263 292h78v85z" />
    <glyph glyph-name="five" unicode="5" horiz-adv-x="546" 
d="M267 -8c-91 0 -171 37 -217 100l110 102c19 -29 49 -61 97 -61c61 0 97 45 97 96s-36 96 -97 96c-46 0 -77 -25 -90 -59l-98 41v403h387v-141h-235v-106c15 2 30 3 46 3c144 0 240 -93 240 -237s-96 -237 -240 -237z" />
    <glyph glyph-name="six" unicode="6" horiz-adv-x="535" 
d="M266 -8c-142 0 -249 103 -249 237c0 52 22 96 45 138l187 343h169l-134 -245c133 -8 231 -108 231 -236c0 -134 -107 -237 -249 -237zM266 325c-61 0 -97 -45 -97 -96s36 -96 97 -96s97 45 97 96s-36 96 -97 96z" />
    <glyph glyph-name="seven" unicode="7" horiz-adv-x="520" 
d="M41 0l258 569h-264v141h492l-322 -710h-164z" />
    <glyph glyph-name="eight" unicode="8" horiz-adv-x="568" 
d="M284 -8c-142 0 -249 103 -249 237c0 77 35 140 93 179c-25 30 -40 68 -40 113c0 109 87 197 196 197s196 -88 196 -197c0 -45 -15 -83 -40 -113c57 -39 93 -102 93 -179c0 -134 -107 -237 -249 -237zM284 133c61 0 97 45 97 96s-36 96 -97 96s-97 -45 -97 -96
s36 -96 97 -96zM284 465c34 0 54 26 54 56s-20 56 -54 56s-54 -26 -54 -56s20 -56 54 -56z" />
    <glyph glyph-name="nine" unicode="9" horiz-adv-x="535" 
d="M117 0l133 245c-133 8 -230 108 -230 236c0 134 107 237 249 237s249 -103 249 -237c0 -52 -22 -96 -45 -138l-187 -343h-169zM269 385c61 0 97 45 97 96s-36 96 -97 96s-97 -45 -97 -96s36 -96 97 -96z" />
    <glyph glyph-name="colon" unicode=":" horiz-adv-x="330" 
d="M165 292c-60 0 -108 48 -108 108s48 108 108 108s108 -48 108 -108s-48 -108 -108 -108zM165 -8c-60 0 -108 48 -108 108s48 108 108 108s108 -48 108 -108s-48 -108 -108 -108z" />
    <glyph glyph-name="semicolon" unicode=";" horiz-adv-x="330" 
d="M165 292c-60 0 -108 48 -108 108s48 108 108 108s108 -48 108 -108s-48 -108 -108 -108zM101 -154l44 154h-67v174h174v-174l-64 -154h-87z" />
    <glyph glyph-name="less" unicode="&#x3c;" horiz-adv-x="460" 
d="M324 -8l-289 291l289 291l85 -85l-205 -206l205 -206z" />
    <glyph glyph-name="equal" unicode="=" horiz-adv-x="590" 
d="M77 122v114h436v-114h-436zM77 328v114h436v-114h-436z" />
    <glyph glyph-name="greater" unicode="&#x3e;" horiz-adv-x="460" 
d="M136 -8l-85 85l205 206l-205 206l85 85l289 -291z" />
    <glyph glyph-name="question" unicode="?" horiz-adv-x="489" 
d="M159 255v141h67c56 0 99 28 99 90s-43 91 -83 91s-80 -29 -80 -91h-152c0 129 99 232 232 232s235 -103 235 -232s-102 -231 -251 -231h-67zM222 -8c-60 0 -108 48 -108 108c0 34 15 64 40 84h136c24 -20 40 -50 40 -84c0 -60 -48 -108 -108 -108z" />
    <glyph glyph-name="at" unicode="@" horiz-adv-x="799" 
d="M383 -8c-216 0 -349 152 -349 345c0 228 181 381 387 381c197 0 344 -121 344 -312c0 -174 -92 -243 -184 -243c-45 0 -82 21 -98 51c-31 -30 -78 -49 -123 -49c-110 0 -166 78 -166 172c0 121 88 219 217 219c37 0 67 -10 90 -27l4 17h95l-47 -220c-9 -44 1 -79 44 -79
c53 0 84 44 84 161c0 156 -123 229 -261 229c-155 0 -298 -107 -298 -300c0 -158 101 -261 261 -261c60 0 122 13 176 41l33 -81c-62 -28 -144 -44 -209 -44zM376 259c26 0 52 7 73 28l32 148c-18 19 -44 28 -69 28c-66 0 -114 -51 -114 -118c0 -52 25 -86 78 -86z" />
    <glyph glyph-name="A" unicode="A" horiz-adv-x="680" 
d="M-10 0l350 718l350 -718h-168l-51 110h-262l-51 -110h-168zM273 240h134l-67 148z" />
    <glyph glyph-name="B" unicode="B" horiz-adv-x="621" 
d="M67 0v710h267c116 0 211 -95 211 -211c0 -50 -19 -91 -50 -122c60 -32 100 -90 100 -166c0 -117 -95 -211 -215 -211h-313zM227 147h138c43 0 74 31 74 70s-31 71 -74 71h-138v-141zM227 423h89c43 0 74 31 74 70s-31 71 -74 71h-89v-141z" />
    <glyph glyph-name="C" unicode="C" horiz-adv-x="709" 
d="M397 -8c-200 0 -363 163 -363 363s163 363 363 363c122 0 231 -61 297 -154l-121 -99c-36 58 -100 99 -176 99c-115 0 -202 -95 -202 -209s87 -209 202 -209c76 0 140 41 176 99l121 -99c-66 -93 -175 -154 -297 -154z" />
    <glyph glyph-name="D" unicode="D" horiz-adv-x="711" 
d="M227 146h89c119 0 200 95 200 209s-81 209 -200 209h-89v-418zM67 0v710h249c200 0 361 -159 361 -355s-161 -355 -361 -355h-249z" />
    <glyph glyph-name="E" unicode="E" horiz-adv-x="547" 
d="M67 0v710h440v-158h-280v-120h220v-154h-220v-120h280v-158h-440z" />
    <glyph glyph-name="F" unicode="F" horiz-adv-x="517" 
d="M67 0v710h420v-158h-260v-120h200v-154h-200v-278h-160z" />
    <glyph glyph-name="G" unicode="G" horiz-adv-x="729" 
d="M397 -8c-200 0 -363 163 -363 363s163 363 363 363c122 0 218 -49 287 -134l-121 -99c-43 54 -90 79 -166 79c-115 0 -202 -95 -202 -209s87 -209 202 -209c58 0 102 10 137 35v99h-171l68 150h258v-322c-70 -80 -172 -116 -292 -116z" />
    <glyph glyph-name="H" unicode="H" horiz-adv-x="738" 
d="M67 0v710h160v-278h284v278h160v-710h-160v278h-284v-278h-160z" />
    <glyph glyph-name="I" unicode="I" horiz-adv-x="294" 
d="M67 0v710h160v-710h-160z" />
    <glyph glyph-name="J" unicode="J" horiz-adv-x="507" 
d="M230 -8c-120 0 -220 66 -220 220h160c0 -50 22 -71 60 -71s60 21 60 71v498h160v-508c0 -149 -100 -210 -220 -210z" />
    <glyph glyph-name="K" unicode="K" horiz-adv-x="671" 
d="M67 0v710h160v-356l248 356h184l-249 -358l281 -352h-198l-266 333v-333h-160z" />
    <glyph glyph-name="L" unicode="L" horiz-adv-x="518" 
d="M67 0v710h160v-551h276v-159h-436z" />
    <glyph glyph-name="M" unicode="M" horiz-adv-x="842" 
d="M67 0v718l354 -355l354 355v-718h-160v348l-194 -194l-194 194v-348h-160z" />
    <glyph glyph-name="N" unicode="N" horiz-adv-x="742" 
d="M675 -8l-448 379v-371h-160v718l448 -379v371h160v-718z" />
    <glyph glyph-name="O" unicode="O" horiz-adv-x="794" 
d="M397 146c115 0 202 95 202 209s-87 209 -202 209s-202 -95 -202 -209s87 -209 202 -209zM397 -8c-200 0 -363 163 -363 363s163 363 363 363s363 -163 363 -363s-163 -363 -363 -363z" />
    <glyph glyph-name="P" unicode="P" horiz-adv-x="557" 
d="M67 0v710h234c139 0 243 -108 243 -241s-104 -241 -243 -241h-74v-228h-160zM227 377h72c52 0 90 44 90 92s-38 91 -90 91h-72v-183z" />
    <glyph glyph-name="Q" unicode="Q" horiz-adv-x="814" 
d="M728 -8l-101 82c-63 -52 -143 -82 -230 -82c-200 0 -363 163 -363 363s163 363 363 363s363 -163 363 -363c0 -61 -15 -119 -42 -170l101 -81zM397 146c39 0 75 10 105 29l-108 88l91 111l104 -84c6 20 10 42 10 65c0 114 -87 209 -202 209s-202 -95 -202 -209
s87 -209 202 -209z" />
    <glyph glyph-name="R" unicode="R" horiz-adv-x="625" 
d="M449 0l-220 288h-2v-288h-160v710h268c116 0 211 -95 211 -211c0 -89 -55 -166 -137 -198l231 -301h-191zM227 423h90c43 0 74 31 74 70s-31 71 -74 71h-90v-141z" />
    <glyph glyph-name="S" unicode="S" horiz-adv-x="520" 
d="M272 -8c-114 0 -206 47 -255 139l121 99c31 -49 82 -88 131 -88c47 0 68 18 68 51c0 32 -23 52 -83 79l-40 18c-107 48 -166 127 -166 223c0 124 103 205 216 205c79 0 139 -19 199 -89l-108 -114c-36 44 -58 53 -91 53c-27 0 -55 -17 -55 -49c0 -37 31 -57 96 -86
l38 -17c98 -44 155 -115 155 -213c0 -128 -94 -211 -226 -211z" />
    <glyph glyph-name="T" unicode="T" horiz-adv-x="539" 
d="M189 0v552h-170v158h501v-158h-171v-552h-160z" />
    <glyph glyph-name="U" unicode="U" horiz-adv-x="702" 
d="M351 -8c-170 0 -291 118 -291 296v422h160v-424c0 -86 53 -140 131 -140s131 54 131 140v424h160v-422c0 -178 -121 -296 -291 -296z" />
    <glyph glyph-name="V" unicode="V" horiz-adv-x="650" 
d="M325 -8l-335 718h178l157 -355l157 355h178z" />
    <glyph glyph-name="W" unicode="W" horiz-adv-x="876" 
d="M251 -8l-246 718h163l110 -333l160 341l160 -341l110 333h163l-246 -718l-187 409z" />
    <glyph glyph-name="X" unicode="X" horiz-adv-x="674" 
d="M0 0l224 356l-209 354h185l137 -236l137 236h185l-209 -354l224 -356h-186l-151 244l-151 -244h-186z" />
    <glyph glyph-name="Y" unicode="Y" horiz-adv-x="656" 
d="M248 0v298l-263 412h187l156 -252l156 252h187l-263 -412v-298h-160z" />
    <glyph glyph-name="Z" unicode="Z" horiz-adv-x="624" 
d="M8 0l329 552h-287v158h560l-329 -552h308v-158h-581z" />
    <glyph glyph-name="bracketleft" unicode="[" horiz-adv-x="290" 
d="M59 -159v918h231v-108h-104v-702h104v-108h-231z" />
    <glyph glyph-name="backslash" unicode="\" horiz-adv-x="467" 
d="M331 0l-331 710h136l331 -710h-136z" />
    <glyph glyph-name="bracketright" unicode="]" horiz-adv-x="290" 
d="M231 759v-918h-231v108h104v702h-104v108h231z" />
    <glyph glyph-name="asciicircum" unicode="^" horiz-adv-x="582" 
d="M13 301l278 417l278 -417h-137l-141 211l-141 -211h-137z" />
    <glyph glyph-name="underscore" unicode="_" horiz-adv-x="436" 
d="M0 -114v114h436v-114h-436z" />
    <glyph glyph-name="grave" unicode="`" horiz-adv-x="433" 
d="M223 555l-143 155h173l80 -155h-110z" />
    <glyph glyph-name="a" unicode="a" horiz-adv-x="594" 
d="M384 0v29c-29 -24 -69 -37 -110 -37c-148 0 -242 121 -242 258s94 258 242 258c41 0 81 -14 110 -38v30h151v-500h-151zM299 130c37 0 64 14 85 41v157c-21 27 -48 42 -85 42c-72 0 -115 -54 -115 -120s43 -120 115 -120z" />
    <glyph glyph-name="b" unicode="b" horiz-adv-x="594" 
d="M59 0v710h151v-240c29 24 69 38 110 38c148 0 242 -121 242 -258s-94 -258 -242 -258c-41 0 -81 13 -110 37v-29h-151zM295 370c-37 0 -65 -15 -85 -42v-157c20 -27 48 -41 85 -41c72 0 115 54 115 120s-43 120 -115 120z" />
    <glyph glyph-name="c" unicode="c" horiz-adv-x="522" 
d="M290 -8c-144 0 -260 116 -260 258s116 258 260 258c92 0 173 -47 219 -118l-120 -85c-20 37 -55 62 -99 62c-62 0 -108 -48 -108 -117s46 -117 108 -117c44 0 79 25 99 62l120 -85c-46 -71 -127 -118 -219 -118z" />
    <glyph glyph-name="d" unicode="d" horiz-adv-x="594" 
d="M384 0v29c-29 -24 -69 -37 -110 -37c-148 0 -242 121 -242 258s94 258 242 258c41 0 81 -14 110 -38v240h151v-710h-151zM299 130c37 0 64 14 85 41v157c-21 27 -48 42 -85 42c-72 0 -115 -54 -115 -120s43 -120 115 -120z" />
    <glyph glyph-name="e" unicode="e" horiz-adv-x="558" 
d="M285 -8c-132 0 -255 104 -255 258c0 147 104 258 258 258c127 0 241 -83 241 -241c0 -14 -1 -29 -3 -44h-351c7 -67 64 -93 109 -93c53 0 87 26 107 63l120 -81c-46 -72 -127 -120 -226 -120zM279 387c-36 0 -89 -16 -103 -76h204c-8 53 -52 76 -101 76z" />
    <glyph glyph-name="f" unicode="f" horiz-adv-x="362" 
d="M16 368v132h73c-20 22 -31 51 -31 83c0 71 52 127 135 127h155v-132h-98c-35 0 -49 -17 -49 -39s17 -39 39 -39h108v-132h-116v-368h-151v368h-65z" />
    <glyph glyph-name="g" unicode="g" horiz-adv-x="583" 
d="M282 -194c-75 0 -154 10 -225 56l68 133c40 -31 89 -51 147 -51c60 0 114 20 114 80c0 10 -2 27 -13 42c-29 -24 -70 -38 -111 -38c-151 0 -236 118 -236 240s85 240 236 240c41 0 81 -14 110 -38v30h151v-403c15 -35 21 -68 21 -98c0 -141 -132 -193 -262 -193zM282 166
c37 0 68 15 90 42v120c-22 27 -53 42 -90 42c-67 0 -104 -51 -104 -102s37 -102 104 -102z" />
    <glyph glyph-name="h" unicode="h" 
d="M59 0v710h151v-241c30 25 71 39 115 39c141 0 218 -94 218 -229v-279h-151v252c0 67 -26 118 -92 118c-29 0 -65 -15 -90 -43v-327h-151z" />
    <glyph glyph-name="i" unicode="i" horiz-adv-x="270" 
d="M65 571c-13 15 -20 35 -20 57c0 50 40 90 90 90s90 -40 90 -90c0 -22 -7 -42 -20 -57h-140zM59 0v500h151v-500h-151z" />
    <glyph glyph-name="j" unicode="j" horiz-adv-x="270" 
d="M-45 -184v143h26c48 0 79 12 79 60v481h151v-500c0 -122 -89 -184 -221 -184h-35zM65 571c-13 15 -20 35 -20 57c0 50 40 90 90 90s90 -40 90 -90c0 -22 -7 -42 -20 -57h-140z" />
    <glyph glyph-name="k" unicode="k" horiz-adv-x="561" 
d="M59 0v710h151v-438l163 228h174l-170 -237l196 -263h-178l-185 249v-249h-151z" />
    <glyph glyph-name="l" unicode="l" horiz-adv-x="269" 
d="M59 0v710h151v-710h-151z" />
    <glyph glyph-name="m" unicode="m" horiz-adv-x="890" 
d="M685 0v252c0 65 -19 117 -79 117c-34 0 -67 -17 -87 -44c2 -15 4 -30 4 -46v-279h-151v252c0 65 -19 117 -79 117c-33 0 -63 -15 -83 -40v-329h-151v500h151v-30c29 23 72 38 114 38c59 0 107 -23 142 -61c29 29 83 61 160 61c149 0 210 -104 210 -229v-279h-151z" />
    <glyph glyph-name="n" unicode="n" 
d="M59 0v500h151v-31c30 25 71 39 115 39c141 0 218 -94 218 -229v-279h-151v252c0 67 -26 118 -92 118c-29 0 -65 -15 -90 -43v-327h-151z" />
    <glyph glyph-name="o" unicode="o" horiz-adv-x="580" 
d="M290 133c62 0 108 48 108 117s-46 117 -108 117s-108 -48 -108 -117s46 -117 108 -117zM290 -8c-144 0 -260 116 -260 258s116 258 260 258s260 -116 260 -258s-116 -258 -260 -258z" />
    <glyph glyph-name="p" unicode="p" horiz-adv-x="594" 
d="M59 -184v684h151v-30c29 24 69 38 110 38c148 0 242 -121 242 -258s-94 -258 -242 -258c-41 0 -81 13 -110 37v-213h-151zM295 370c-37 0 -65 -15 -85 -42v-157c20 -27 48 -41 85 -41c72 0 115 54 115 120s-43 120 -115 120z" />
    <glyph glyph-name="q" unicode="q" horiz-adv-x="594" 
d="M384 -184v213c-29 -24 -69 -37 -110 -37c-148 0 -242 121 -242 258s94 258 242 258c41 0 81 -14 110 -38v30h151v-684h-151zM299 130c37 0 64 14 85 41v157c-21 27 -48 42 -85 42c-72 0 -115 -54 -115 -120s43 -120 115 -120z" />
    <glyph glyph-name="r" unicode="r" horiz-adv-x="392" 
d="M59 0v500h151v-44c28 34 65 52 114 52c16 0 35 -2 54 -8v-157c-23 12 -51 17 -77 17c-31 0 -67 -12 -91 -33v-327h-151z" />
    <glyph glyph-name="s" unicode="s" horiz-adv-x="415" 
d="M207 -8c-87 0 -158 31 -201 106l115 78c20 -36 47 -61 92 -61c21 0 39 5 39 23c0 19 -14 25 -63 44l-26 10c-87 34 -132 90 -132 161c0 92 76 155 172 155c64 0 120 -24 158 -79l-86 -85c-19 27 -41 45 -72 45c-20 0 -36 -7 -36 -23c0 -20 16 -26 66 -45l21 -8
c95 -36 134 -88 134 -162c0 -102 -79 -159 -181 -159z" />
    <glyph glyph-name="t" unicode="t" horiz-adv-x="412" 
d="M21 368l-33 132h98v75l151 75v-150h158l-33 -132h-125v-171c0 -42 17 -59 58 -59h82v-138h-138c-94 0 -153 59 -153 154v214h-65z" />
    <glyph glyph-name="u" unicode="u" 
d="M387 0v37c-31 -29 -77 -45 -119 -45c-135 0 -214 93 -214 229v279h151v-252c0 -68 28 -118 88 -118c37 0 74 18 94 50v320h151v-500h-151z" />
    <glyph glyph-name="v" unicode="v" horiz-adv-x="552" 
d="M276 -8l-291 508h174l117 -218l117 218h174z" />
    <glyph glyph-name="w" unicode="w" horiz-adv-x="730" 
d="M159 0l-159 500h159l83 -281l123 289l123 -289l83 281h159l-159 -500h-115l-91 205l-91 -205h-115z" />
    <glyph glyph-name="x" unicode="x" horiz-adv-x="550" 
d="M-3 0l180 252l-171 248h175l94 -143l94 143h175l-171 -248l180 -252h-175l-103 150l-103 -150h-175z" />
    <glyph glyph-name="y" unicode="y" horiz-adv-x="518" 
d="M111 -184l68 184l-184 500h160l104 -316l104 316h160l-252 -684h-160z" />
    <glyph glyph-name="z" unicode="z" horiz-adv-x="513" 
d="M12 0l232 370h-202v130h454l-231 -369h216v-131h-469z" />
    <glyph glyph-name="braceleft" unicode="{" horiz-adv-x="322" 
d="M239 -159c-86 0 -148 56 -148 142v210c0 29 -14 53 -53 53h-8v108h8c39 0 53 24 53 53v210c0 86 56 142 142 142h89v-108h-47c-41 0 -57 -16 -57 -57v-196c0 -58 -26 -89 -62 -98c36 -9 62 -40 62 -98v-196c0 -41 16 -57 57 -57h47v-108h-83z" />
    <glyph glyph-name="bar" unicode="|" horiz-adv-x="281" 
d="M77 -184v894h127v-894h-127z" />
    <glyph glyph-name="braceright" unicode="}" horiz-adv-x="322" 
d="M83 -159h-83v108h47c41 0 57 16 57 57v196c0 58 26 89 62 98c-36 9 -62 40 -62 98v196c0 41 -16 57 -57 57h-47v108h89c86 0 142 -56 142 -142v-210c0 -29 14 -53 53 -53h8v-108h-8c-39 0 -53 -24 -53 -53v-210c0 -86 -62 -142 -148 -142z" />
    <glyph glyph-name="asciitilde" unicode="~" horiz-adv-x="590" 
d="M77 178v135l137 84l162 -94l137 83v-135l-137 -84l-162 94z" />
    <glyph glyph-name="uni00A0" unicode="&#xa0;" horiz-adv-x="220" 
 />
    <glyph glyph-name="exclamdown" unicode="&#xa1;" horiz-adv-x="330" 
d="M89 -184v245l30 184h92l30 -184v-245h-152zM97 316c-24 20 -40 50 -40 84c0 60 48 108 108 108s108 -48 108 -108c0 -34 -16 -64 -40 -84h-136z" />
    <glyph glyph-name="cent" unicode="&#xa2;" horiz-adv-x="553" 
d="M239 -88v88c-113 28 -196 130 -196 250s83 221 196 250v88h127v-88c65 -16 121 -56 156 -110l-120 -85c-20 37 -55 62 -99 62c-62 0 -108 -48 -108 -117s46 -117 108 -117c44 0 79 25 99 62l120 -85c-35 -54 -91 -95 -156 -110v-88h-127z" />
    <glyph glyph-name="sterling" unicode="&#xa3;" horiz-adv-x="606" 
d="M60 296v117h64c-12 25 -16 56 -16 82c0 113 99 223 231 223c125 0 227 -99 232 -223h-152c0 48 -35 82 -80 82s-79 -34 -79 -82s34 -82 79 -82h80v-117h-131v-155h283v-141h-511v141h76v155h-76z" />
    <glyph glyph-name="currency" unicode="&#xa4;" horiz-adv-x="648" 
d="M109 89l-49 49l69 70c-28 39 -44 86 -44 138s16 100 44 139l-69 70l49 49l68 -68c40 31 90 49 144 49c56 0 107 -19 147 -51l71 70l49 -49l-72 -72c27 -39 44 -86 44 -137s-16 -98 -44 -137l72 -71l-49 -49l-71 70c-41 -31 -92 -49 -147 -49c-54 0 -103 18 -143 48z
M321 240c63 0 105 44 105 106c0 65 -42 110 -105 110c-59 0 -100 -45 -100 -110c0 -62 41 -106 100 -106z" />
    <glyph glyph-name="yen" unicode="&#xa5;" horiz-adv-x="684" 
d="M89 298v114h104l-190 298h179l159 -258l161 258h179l-190 -298h104v-114h-177v-77h177v-114h-177v-107h-152v107h-177v114h177v77h-177z" />
    <glyph glyph-name="brokenbar" unicode="&#xa6;" horiz-adv-x="281" 
d="M77 -184v384h127v-384h-127zM77 327v383h127v-383h-127z" />
    <glyph glyph-name="section" unicode="&#xa7;" horiz-adv-x="460" 
d="M234 -194c-87 0 -146 43 -176 106l99 67c21 -42 40 -65 78 -65c26 0 48 18 48 50c0 41 -16 70 -139 141c-55 30 -93 89 -93 157c0 57 27 108 68 141c-59 55 -69 102 -69 156c0 102 84 159 176 159c87 0 146 -43 176 -106l-99 -67c-21 42 -40 65 -78 65
c-26 0 -48 -18 -48 -50c0 -41 16 -70 139 -141c55 -30 93 -89 93 -157c0 -57 -27 -108 -68 -141c59 -55 69 -102 69 -156c0 -102 -84 -159 -176 -159zM230 208c29 0 54 25 54 54s-25 54 -54 54s-54 -25 -54 -54s25 -54 54 -54z" />
    <glyph glyph-name="dieresis" unicode="&#xa8;" horiz-adv-x="578" 
d="M170 567c-44 0 -80 36 -80 80s36 80 80 80s80 -36 80 -80s-36 -80 -80 -80zM408 567c-44 0 -80 36 -80 80s36 80 80 80s80 -36 80 -80s-36 -80 -80 -80z" />
    <glyph glyph-name="copyright" unicode="&#xa9;" horiz-adv-x="794" 
d="M397 -8c-200 0 -363 163 -363 363s163 363 363 363s363 -163 363 -363s-163 -363 -363 -363zM397 97c142 0 258 116 258 258s-116 258 -258 258s-258 -116 -258 -258s116 -258 258 -258zM476 316l74 -52c-30 -48 -84 -80 -144 -80c-94 0 -171 77 -171 171s77 171 171 171
c60 0 114 -32 144 -80l-75 -53c-12 25 -37 45 -69 45c-45 0 -77 -38 -77 -83s32 -83 77 -83c32 0 57 19 70 44z" />
    <glyph glyph-name="ordfeminine" unicode="&#xaa;" horiz-adv-x="353" 
d="M160 715c24 0 49 -7 66 -23v18h94v-300h-94v17c-17 -15 -42 -22 -66 -22c-89 0 -142 75 -142 155s53 155 142 155zM117 560c0 -35 22 -65 63 -65c18 0 31 5 41 17v95c-10 12 -23 18 -41 18c-41 0 -63 -30 -63 -65z" />
    <glyph glyph-name="guillemotleft" unicode="&#xab;" horiz-adv-x="575" 
d="M433 9l-164 241l164 241l100 -68l-118 -173l118 -173zM198 9l-164 241l164 241l100 -68l-118 -173l118 -173z" />
    <glyph glyph-name="logicalnot" unicode="&#xac;" horiz-adv-x="590" 
d="M399 44v181h-322v114h436v-295h-114z" />
    <glyph glyph-name="uni00AD" unicode="&#xad;" horiz-adv-x="370" 
d="M43 210v144h284v-144h-284z" />
    <glyph glyph-name="registered" unicode="&#xae;" horiz-adv-x="794" 
d="M397 -8c-200 0 -363 163 -363 363s163 363 363 363s363 -163 363 -363s-163 -363 -363 -363zM397 97c142 0 258 116 258 258s-116 258 -258 258s-258 -116 -258 -258s116 -258 258 -258zM454 187l-79 130v-130h-90v336h130c60 0 103 -46 103 -103c0 -40 -21 -74 -54 -91
l87 -142h-97zM373 390h31c16 0 26 12 26 26s-9 26 -25 26h-32v-52z" />
    <glyph glyph-name="macron" unicode="&#xaf;" horiz-adv-x="494" 
d="M82 579v96h330v-96h-330z" />
    <glyph glyph-name="degree" unicode="&#xb0;" horiz-adv-x="314" 
d="M157 547c25 0 45 20 45 45s-20 45 -45 45s-45 -20 -45 -45s20 -45 45 -45zM157 470c-67 0 -122 55 -122 122s55 122 122 122s122 -55 122 -122s-55 -122 -122 -122z" />
    <glyph glyph-name="plusminus" unicode="&#xb1;" horiz-adv-x="590" 
d="M77 275v114h161v111h114v-111h161v-114h-161v-111h-114v111h-161zM77 0v114h436v-114h-436z" />
    <glyph glyph-name="twosuperior" unicode="&#xb2;" horiz-adv-x="351" 
d="M-4 410l125 158c-51 23 -90 72 -90 133c0 78 66 140 143 140s144 -62 144 -140c0 -30 -10 -57 -23 -75l-98 -124h121v-92h-322zM174 654c27 0 44 22 44 47s-17 47 -44 47c-26 0 -43 -22 -43 -47s17 -47 43 -47z" />
    <glyph glyph-name="threesuperior" unicode="&#xb3;" horiz-adv-x="312" 
d="M139 405c-55 0 -102 23 -132 60l70 66c12 -19 28 -33 55 -33c37 0 58 22 58 58c1 37 -22 58 -57 58h-45l58 130h-119v92h264l-66 -148c41 -26 66 -72 66 -132c0 -92 -61 -151 -152 -151z" />
    <glyph glyph-name="acute" unicode="&#xb4;" horiz-adv-x="433" 
d="M100 555l80 155h173l-143 -155h-110z" />
    <glyph glyph-name="mu" unicode="&#xb5;" horiz-adv-x="602" 
d="M392 0v37c-31 -29 -77 -45 -119 -45c-23 0 -44 3 -63 8v-184h-151v684h151v-262c0 -63 31 -108 88 -108c37 0 74 18 94 50v320h151v-500h-151z" />
    <glyph glyph-name="mu" unicode="&#x3bc;" horiz-adv-x="602" 
d="M392 0v37c-31 -29 -77 -45 -119 -45c-23 0 -44 3 -63 8v-184h-151v684h151v-262c0 -63 31 -108 88 -108c37 0 74 18 94 50v320h151v-500h-151z" />
    <glyph glyph-name="paragraph" unicode="&#xb6;" horiz-adv-x="671" 
d="M255 -184v444c-124 0 -225 101 -225 225s101 225 225 225h339v-894h-127v762h-85v-762h-127z" />
    <glyph glyph-name="periodcentered" unicode="&#xb7;" horiz-adv-x="330" 
d="M165 174c-60 0 -108 48 -108 108s48 108 108 108s108 -48 108 -108s-48 -108 -108 -108z" />
    <glyph glyph-name="cedilla" unicode="&#xb8;" horiz-adv-x="352" 
d="M83 -134l59 134h102l-34 -134h-127z" />
    <glyph glyph-name="onesuperior" unicode="&#xb9;" horiz-adv-x="186" 
d="M43 410v330l100 99v-429h-100z" />
    <glyph glyph-name="ordmasculine" unicode="&#xba;" horiz-adv-x="344" 
d="M172 497c33 0 57 25 57 63s-24 63 -57 63c-32 0 -57 -25 -57 -63s25 -63 57 -63zM172 405c-85 0 -156 71 -156 155s71 155 156 155c86 0 156 -71 156 -155s-70 -155 -156 -155z" />
    <glyph glyph-name="guillemotright" unicode="&#xbb;" horiz-adv-x="575" 
d="M541 250l-164 -241l-100 68l118 173l-118 173l100 68zM306 250l-164 -241l-100 68l118 173l-118 173l100 68z" />
    <glyph glyph-name="onequarter" unicode="&#xbc;" horiz-adv-x="844" 
d="M100 284v330l100 99v-429h-100zM75 0h130l500 710h-130zM657 0v91h-217l307 338v-257h37v-81h-37v-91h-90zM606 172h51v54z" />
    <glyph glyph-name="onehalf" unicode="&#xbd;" horiz-adv-x="878" 
d="M100 284v330l100 99v-429h-100zM75 0h130l500 710h-130zM486 0l125 158c-51 23 -90 72 -90 133c0 78 66 140 143 140s144 -62 144 -140c0 -30 -10 -57 -23 -75l-98 -124h121v-92h-322zM664 244c27 0 44 22 44 47s-17 47 -44 47c-26 0 -43 -22 -43 -47s17 -47 43 -47z" />
    <glyph glyph-name="threequarters" unicode="&#xbe;" horiz-adv-x="923" 
d="M177 279c-55 0 -102 23 -132 60l70 66c12 -19 28 -33 55 -33c37 0 58 22 58 58c1 37 -22 58 -57 58h-45l58 130h-119v92h264l-66 -148c41 -26 66 -72 66 -132c0 -92 -61 -151 -152 -151zM154 0h130l500 710h-130zM736 0v91h-217l307 338v-257h37v-81h-37v-91h-90z
M685 172h51v54z" />
    <glyph glyph-name="questiondown" unicode="&#xbf;" horiz-adv-x="489" 
d="M330 269v-141h-67c-56 0 -99 -28 -99 -90s43 -91 83 -91s80 29 80 91h152c0 -129 -99 -232 -232 -232s-235 103 -235 232s102 231 251 231h67zM267 508c60 0 108 -48 108 -108c0 -34 -15 -64 -40 -84h-136c-24 20 -40 50 -40 84c0 60 48 108 108 108z" />
    <glyph glyph-name="Agrave" unicode="&#xc0;" horiz-adv-x="680" 
d="M-10 0l350 718l350 -718h-168l-51 110h-262l-51 -110h-168zM273 240h134l-67 148zM285 778l-126 145h166l70 -145h-110z" />
    <glyph glyph-name="Aacute" unicode="&#xc1;" horiz-adv-x="680" 
d="M-10 0l350 718l350 -718h-168l-51 110h-262l-51 -110h-168zM273 240h134l-67 148zM284 778l70 145h166l-126 -145h-110z" />
    <glyph glyph-name="Acircumflex" unicode="&#xc2;" horiz-adv-x="680" 
d="M-10 0l350 718l350 -718h-168l-51 110h-262l-51 -110h-168zM273 240h134l-67 148zM204 759l-41 96l177 76l177 -76l-41 -96l-136 59z" />
    <glyph glyph-name="Atilde" unicode="&#xc3;" horiz-adv-x="680" 
d="M-10 0l350 718l350 -718h-168l-51 110h-262l-51 -110h-168zM273 240h134l-67 148zM147 777l4 29c10 74 66 116 117 116c58 0 96 -40 126 -40c23 0 35 11 43 42h96l-4 -29c-10 -74 -66 -116 -117 -116c-58 0 -96 40 -126 40c-23 0 -35 -11 -43 -42h-96z" />
    <glyph glyph-name="Adieresis" unicode="&#xc4;" horiz-adv-x="680" 
d="M-10 0l350 718l350 -718h-168l-51 110h-262l-51 -110h-168zM273 240h134l-67 148zM221 770c-44 0 -80 36 -80 80s36 80 80 80s80 -36 80 -80s-36 -80 -80 -80zM459 770c-44 0 -80 36 -80 80s36 80 80 80s80 -36 80 -80s-36 -80 -80 -80z" />
    <glyph glyph-name="Aring" unicode="&#xc5;" horiz-adv-x="680" 
d="M-10 0l350 718l350 -718h-168l-51 110h-262l-51 -110h-168zM273 240h134l-67 148zM340 832c26 0 47 21 47 47s-21 47 -47 47s-47 -21 -47 -47s21 -47 47 -47zM340 759c-66 0 -120 54 -120 120s54 120 120 120s120 -54 120 -120s-54 -120 -120 -120z" />
    <glyph glyph-name="AE" unicode="&#xc6;" horiz-adv-x="912" 
d="M-10 0l266 545l-81 165h401l77 -158h-232l58 -120h172l75 -154h-172l59 -120h232l77 -158h-400l-51 110h-262l-51 -110h-168zM273 240h134l-67 148z" />
    <glyph glyph-name="Ccedilla" unicode="&#xc7;" horiz-adv-x="709" 
d="M287 -134l57 130c-175 25 -310 177 -310 359c0 200 163 363 363 363c122 0 231 -61 297 -154l-121 -99c-36 58 -100 99 -176 99c-115 0 -202 -95 -202 -209s87 -209 202 -209c76 0 140 41 176 99l121 -99c-57 -80 -146 -137 -247 -150l-33 -130h-127z" />
    <glyph glyph-name="Egrave" unicode="&#xc8;" horiz-adv-x="547" 
d="M67 0v710h440v-158h-280v-120h220v-154h-220v-120h280v-158h-440zM262 778l-126 145h166l70 -145h-110z" />
    <glyph glyph-name="Eacute" unicode="&#xc9;" horiz-adv-x="547" 
d="M67 0v710h440v-158h-280v-120h220v-154h-220v-120h280v-158h-440zM203 778l70 145h166l-126 -145h-110z" />
    <glyph glyph-name="Ecircumflex" unicode="&#xca;" horiz-adv-x="547" 
d="M67 0v710h440v-158h-280v-120h220v-154h-220v-120h280v-158h-440zM151 759l-41 96l177 76l177 -76l-41 -96l-136 59z" />
    <glyph glyph-name="Edieresis" unicode="&#xcb;" horiz-adv-x="547" 
d="M67 0v710h440v-158h-280v-120h220v-154h-220v-120h280v-158h-440zM168 770c-44 0 -80 36 -80 80s36 80 80 80s80 -36 80 -80s-36 -80 -80 -80zM406 770c-44 0 -80 36 -80 80s36 80 80 80s80 -36 80 -80s-36 -80 -80 -80z" />
    <glyph glyph-name="Igrave" unicode="&#xcc;" horiz-adv-x="295" 
d="M67 0v710h160v-710h-160zM123 778l-126 145h166l70 -145h-110z" />
    <glyph glyph-name="Iacute" unicode="&#xcd;" horiz-adv-x="295" 
d="M67 0v710h160v-710h-160zM63 778l70 145h166l-126 -145h-110z" />
    <glyph glyph-name="Icircumflex" unicode="&#xce;" horiz-adv-x="295" 
d="M67 0v710h160v-710h-160zM12 759l-41 96l177 76l177 -76l-41 -96l-136 59z" />
    <glyph glyph-name="Idieresis" unicode="&#xcf;" horiz-adv-x="295" 
d="M54 760c-44 0 -80 36 -80 80s36 80 80 80s80 -36 80 -80s-36 -80 -80 -80zM242 760c-44 0 -80 36 -80 80s36 80 80 80s80 -36 80 -80s-36 -80 -80 -80zM67 0v710h160v-710h-160z" />
    <glyph glyph-name="Eth" unicode="&#xd0;" horiz-adv-x="746" 
d="M13 285v140h89v285h249c200 0 361 -159 361 -355s-161 -355 -361 -355h-249v285h-89zM262 146h89c119 0 200 95 200 209s-81 209 -200 209h-89v-139h89v-140h-89v-139z" />
    <glyph glyph-name="Ntilde" unicode="&#xd1;" horiz-adv-x="742" 
d="M675 -8l-448 379v-371h-160v718l448 -379v371h160v-718zM178 777l4 29c10 74 66 116 117 116c58 0 96 -40 126 -40c23 0 35 11 43 42h96l-4 -29c-10 -74 -66 -116 -117 -116c-58 0 -96 40 -126 40c-23 0 -35 -11 -43 -42h-96z" />
    <glyph glyph-name="Ograve" unicode="&#xd2;" horiz-adv-x="794" 
d="M397 146c115 0 202 95 202 209s-87 209 -202 209s-202 -95 -202 -209s87 -209 202 -209zM397 -8c-200 0 -363 163 -363 363s163 363 363 363s363 -163 363 -363s-163 -363 -363 -363zM372 778l-126 145h166l70 -145h-110z" />
    <glyph glyph-name="Oacute" unicode="&#xd3;" horiz-adv-x="794" 
d="M397 146c115 0 202 95 202 209s-87 209 -202 209s-202 -95 -202 -209s87 -209 202 -209zM397 -8c-200 0 -363 163 -363 363s163 363 363 363s363 -163 363 -363s-163 -363 -363 -363zM312 778l70 145h166l-126 -145h-110z" />
    <glyph glyph-name="Ocircumflex" unicode="&#xd4;" horiz-adv-x="794" 
d="M397 146c115 0 202 95 202 209s-87 209 -202 209s-202 -95 -202 -209s87 -209 202 -209zM397 -8c-200 0 -363 163 -363 363s163 363 363 363s363 -163 363 -363s-163 -363 -363 -363zM261 759l-41 96l177 76l177 -76l-41 -96l-136 59z" />
    <glyph glyph-name="Otilde" unicode="&#xd5;" horiz-adv-x="794" 
d="M397 146c115 0 202 95 202 209s-87 209 -202 209s-202 -95 -202 -209s87 -209 202 -209zM397 -8c-200 0 -363 163 -363 363s163 363 363 363s363 -163 363 -363s-163 -363 -363 -363zM204 777l4 29c10 74 66 116 117 116c58 0 96 -40 126 -40c23 0 35 11 43 42h96l-4 -29
c-10 -74 -66 -116 -117 -116c-58 0 -96 40 -126 40c-23 0 -35 -11 -43 -42h-96z" />
    <glyph glyph-name="Odieresis" unicode="&#xd6;" horiz-adv-x="794" 
d="M397 146c115 0 202 95 202 209s-87 209 -202 209s-202 -95 -202 -209s87 -209 202 -209zM397 -8c-200 0 -363 163 -363 363s163 363 363 363s363 -163 363 -363s-163 -363 -363 -363zM278 770c-44 0 -80 36 -80 80s36 80 80 80s80 -36 80 -80s-36 -80 -80 -80zM516 770
c-44 0 -80 36 -80 80s36 80 80 80s80 -36 80 -80s-36 -80 -80 -80z" />
    <glyph glyph-name="multiply" unicode="&#xd7;" horiz-adv-x="571" 
d="M158 54l-81 80l128 128l-128 128l81 81l127 -129l129 129l80 -81l-128 -128l128 -128l-80 -80l-129 127z" />
    <glyph glyph-name="Oslash" unicode="&#xd8;" horiz-adv-x="804" 
d="M118 -18l-89 90l75 75c-41 59 -65 131 -65 208c0 200 163 363 363 363c77 0 148 -24 207 -66l76 76l90 -90l-76 -76c42 -59 66 -130 66 -207c0 -200 -163 -363 -363 -363c-78 0 -149 24 -208 66zM402 146c115 0 202 95 202 209c0 33 -8 64 -21 92l-277 -277
c28 -16 61 -24 96 -24zM200 355c0 -33 7 -64 20 -92l277 277c-28 15 -60 24 -95 24c-115 0 -202 -95 -202 -209z" />
    <glyph glyph-name="Ugrave" unicode="&#xd9;" horiz-adv-x="702" 
d="M351 -8c-170 0 -291 118 -291 296v422h160v-424c0 -86 53 -140 131 -140s131 54 131 140v424h160v-422c0 -178 -121 -296 -291 -296zM326 778l-126 145h166l70 -145h-110z" />
    <glyph glyph-name="Uacute" unicode="&#xda;" horiz-adv-x="702" 
d="M351 -8c-170 0 -291 118 -291 296v422h160v-424c0 -86 53 -140 131 -140s131 54 131 140v424h160v-422c0 -178 -121 -296 -291 -296zM266 778l70 145h166l-126 -145h-110z" />
    <glyph glyph-name="Ucircumflex" unicode="&#xdb;" horiz-adv-x="702" 
d="M351 -8c-170 0 -291 118 -291 296v422h160v-424c0 -86 53 -140 131 -140s131 54 131 140v424h160v-422c0 -178 -121 -296 -291 -296zM215 759l-41 96l177 76l177 -76l-41 -96l-136 59z" />
    <glyph glyph-name="Udieresis" unicode="&#xdc;" horiz-adv-x="702" 
d="M351 -8c-170 0 -291 118 -291 296v422h160v-424c0 -86 53 -140 131 -140s131 54 131 140v424h160v-422c0 -178 -121 -296 -291 -296zM232 770c-44 0 -80 36 -80 80s36 80 80 80s80 -36 80 -80s-36 -80 -80 -80zM470 770c-44 0 -80 36 -80 80s36 80 80 80s80 -36 80 -80
s-36 -80 -80 -80z" />
    <glyph glyph-name="Yacute" unicode="&#xdd;" horiz-adv-x="656" 
d="M248 0v298l-263 412h187l156 -252l156 252h187l-263 -412v-298h-160zM252 778l70 145h166l-126 -145h-110z" />
    <glyph glyph-name="Thorn" unicode="&#xde;" horiz-adv-x="557" 
d="M67 0v710h160v-114h74c139 0 243 -108 243 -241s-104 -241 -243 -241h-74v-114h-160zM227 263h72c52 0 90 44 90 92s-38 91 -90 91h-72v-183z" />
    <glyph glyph-name="germandbls" unicode="&#xdf;" horiz-adv-x="557" 
d="M278 -184v152c55 0 101 45 101 100s-46 100 -101 100v118l59 82h-126v-368h-152v556c0 95 59 154 153 154h103v-138h-46c-41 0 -58 -17 -58 -59v-13h284v-132l-69 -96c63 -46 104 -120 104 -204c0 -139 -113 -252 -252 -252z" />
    <glyph glyph-name="agrave" unicode="&#xe0;" horiz-adv-x="594" 
d="M384 0v29c-29 -24 -69 -37 -110 -37c-148 0 -242 121 -242 258s94 258 242 258c41 0 81 -14 110 -38v30h151v-500h-151zM299 130c37 0 64 14 85 41v157c-21 27 -48 42 -85 42c-72 0 -115 -54 -115 -120s43 -120 115 -120zM288 555l-143 155h173l80 -155h-110z" />
    <glyph glyph-name="aacute" unicode="&#xe1;" horiz-adv-x="594" 
d="M384 0v29c-29 -24 -69 -37 -110 -37c-148 0 -242 121 -242 258s94 258 242 258c41 0 81 -14 110 -38v30h151v-500h-151zM299 130c37 0 64 14 85 41v157c-21 27 -48 42 -85 42c-72 0 -115 -54 -115 -120s43 -120 115 -120zM218 555l80 155h173l-143 -155h-110z" />
    <glyph glyph-name="acircumflex" unicode="&#xe2;" horiz-adv-x="594" 
d="M384 0v29c-29 -24 -69 -37 -110 -37c-148 0 -242 121 -242 258s94 258 242 258c41 0 81 -14 110 -38v30h151v-500h-151zM299 130c37 0 64 14 85 41v157c-21 27 -48 42 -85 42c-72 0 -115 -54 -115 -120s43 -120 115 -120zM190 546l-48 91l178 91l178 -91l-48 -91l-130 62
z" />
    <glyph glyph-name="atilde" unicode="&#xe3;" horiz-adv-x="594" 
d="M384 0v29c-29 -24 -69 -37 -110 -37c-148 0 -242 121 -242 258s94 258 242 258c41 0 81 -14 110 -38v30h151v-500h-151zM299 130c37 0 64 14 85 41v157c-21 27 -48 42 -85 42c-72 0 -115 -54 -115 -120s43 -120 115 -120zM127 554l4 29c10 74 66 116 117 116
c58 0 96 -40 126 -40c23 0 35 11 43 42h96l-4 -29c-10 -74 -66 -116 -117 -116c-58 0 -96 40 -126 40c-23 0 -35 -11 -43 -42h-96z" />
    <glyph glyph-name="adieresis" unicode="&#xe4;" horiz-adv-x="594" 
d="M384 0v29c-29 -24 -69 -37 -110 -37c-148 0 -242 121 -242 258s94 258 242 258c41 0 81 -14 110 -38v30h151v-500h-151zM299 130c37 0 64 14 85 41v157c-21 27 -48 42 -85 42c-72 0 -115 -54 -115 -120s43 -120 115 -120zM201 567c-44 0 -80 36 -80 80s36 80 80 80
s80 -36 80 -80s-36 -80 -80 -80zM439 567c-44 0 -80 36 -80 80s36 80 80 80s80 -36 80 -80s-36 -80 -80 -80z" />
    <glyph glyph-name="aring" unicode="&#xe5;" horiz-adv-x="594" 
d="M384 0v29c-29 -24 -69 -37 -110 -37c-148 0 -242 121 -242 258s94 258 242 258c41 0 81 -14 110 -38v30h151v-500h-151zM299 130c37 0 64 14 85 41v157c-21 27 -48 42 -85 42c-72 0 -115 -54 -115 -120s43 -120 115 -120zM320 619c26 0 47 21 47 47s-21 47 -47 47
s-47 -21 -47 -47s21 -47 47 -47zM320 546c-66 0 -120 54 -120 120s54 120 120 120s120 -54 120 -120s-54 -120 -120 -120z" />
    <glyph glyph-name="ae" unicode="&#xe6;" horiz-adv-x="853" 
d="M580 -8c-65 0 -127 24 -174 68c-51 -47 -114 -68 -188 -68c-113 0 -201 51 -201 164c0 98 86 151 193 151c40 0 81 -9 116 -26v14c-8 55 -60 74 -116 74c-47 0 -97 -13 -125 -30l-21 141c47 18 100 28 151 28c77 0 139 -20 187 -68c45 42 107 68 181 68
c127 0 241 -83 241 -241c0 -14 -1 -29 -3 -44h-351c7 -67 64 -93 109 -93c53 0 87 26 107 63l120 -81c-46 -72 -127 -120 -226 -120zM574 387c-36 0 -89 -16 -103 -76h204c-8 53 -52 76 -101 76zM230 118c41 0 79 12 96 35v28c-25 15 -58 23 -95 23s-68 -11 -68 -44
c0 -32 36 -42 67 -42z" />
    <glyph glyph-name="ccedilla" unicode="&#xe7;" horiz-adv-x="522" 
d="M180 -134l58 132c-119 23 -208 127 -208 252c0 142 116 258 260 258c92 0 173 -47 219 -118l-120 -85c-20 37 -55 62 -99 62c-62 0 -108 -48 -108 -117s46 -117 108 -117c44 0 79 25 99 62l120 -85c-38 -58 -98 -100 -169 -113l-33 -131h-127z" />
    <glyph glyph-name="egrave" unicode="&#xe8;" horiz-adv-x="558" 
d="M285 -8c-132 0 -255 104 -255 258c0 147 104 258 258 258c127 0 241 -83 241 -241c0 -14 -1 -29 -3 -44h-351c7 -67 64 -93 109 -93c53 0 87 26 107 63l120 -81c-46 -72 -127 -120 -226 -120zM279 387c-36 0 -89 -16 -103 -76h204c-8 53 -52 76 -101 76zM263 555
l-143 155h173l80 -155h-110z" />
    <glyph glyph-name="eacute" unicode="&#xe9;" horiz-adv-x="558" 
d="M285 -8c-132 0 -255 104 -255 258c0 147 104 258 258 258c127 0 241 -83 241 -241c0 -14 -1 -29 -3 -44h-351c7 -67 64 -93 109 -93c53 0 87 26 107 63l120 -81c-46 -72 -127 -120 -226 -120zM279 387c-36 0 -89 -16 -103 -76h204c-8 53 -52 76 -101 76zM203 555l80 155
h173l-143 -155h-110z" />
    <glyph glyph-name="ecircumflex" unicode="&#xea;" horiz-adv-x="558" 
d="M285 -8c-132 0 -255 104 -255 258c0 147 104 258 258 258c127 0 241 -83 241 -241c0 -14 -1 -29 -3 -44h-351c7 -67 64 -93 109 -93c53 0 87 26 107 63l120 -81c-46 -72 -127 -120 -226 -120zM279 387c-36 0 -89 -16 -103 -76h204c-8 53 -52 76 -101 76zM158 546l-48 91
l178 91l178 -91l-48 -91l-130 62z" />
    <glyph glyph-name="edieresis" unicode="&#xeb;" horiz-adv-x="558" 
d="M285 -8c-132 0 -255 104 -255 258c0 147 104 258 258 258c127 0 241 -83 241 -241c0 -14 -1 -29 -3 -44h-351c7 -67 64 -93 109 -93c53 0 87 26 107 63l120 -81c-46 -72 -127 -120 -226 -120zM279 387c-36 0 -89 -16 -103 -76h204c-8 53 -52 76 -101 76zM169 567
c-44 0 -80 36 -80 80s36 80 80 80s80 -36 80 -80s-36 -80 -80 -80zM407 567c-44 0 -80 36 -80 80s36 80 80 80s80 -36 80 -80s-36 -80 -80 -80z" />
    <glyph glyph-name="igrave" unicode="&#xec;" horiz-adv-x="270" 
d="M59 0v500h152v-500h-152zM110 555l-143 155h173l80 -155h-110z" />
    <glyph glyph-name="iacute" unicode="&#xed;" horiz-adv-x="270" 
d="M59 0v500h152v-500h-152zM50 555l80 155h173l-143 -155h-110z" />
    <glyph glyph-name="icircumflex" unicode="&#xee;" horiz-adv-x="270" 
d="M59 0v500h152v-500h-152zM5 546l-48 91l178 91l178 -91l-48 -91l-130 62z" />
    <glyph glyph-name="idieresis" unicode="&#xef;" horiz-adv-x="270" 
d="M41 547c-44 0 -80 36 -80 80s36 80 80 80s80 -36 80 -80s-36 -80 -80 -80zM229 547c-44 0 -80 36 -80 80s36 80 80 80s80 -36 80 -80s-36 -80 -80 -80zM59 0v500h152v-500h-152z" />
    <glyph glyph-name="eth" unicode="&#xf0;" horiz-adv-x="580" 
d="M106 537v96h76l-49 77h169l49 -77h104v-96h-42l90 -139c28 -43 47 -93 47 -148c0 -142 -116 -258 -260 -258s-260 116 -260 258c0 133 102 243 233 256l-20 31h-137zM290 133c62 0 108 48 108 117s-46 117 -108 117s-108 -48 -108 -117s46 -117 108 -117z" />
    <glyph glyph-name="ntilde" unicode="&#xf1;" 
d="M59 0v500h151v-31c30 25 71 39 115 39c141 0 218 -94 218 -229v-279h-151v252c0 67 -26 118 -92 118c-29 0 -65 -15 -90 -43v-327h-151zM108 554l4 29c10 74 66 116 117 116c58 0 96 -40 126 -40c23 0 35 11 43 42h96l-4 -29c-10 -74 -66 -116 -117 -116
c-58 0 -96 40 -126 40c-23 0 -35 -11 -43 -42h-96z" />
    <glyph glyph-name="ograve" unicode="&#xf2;" horiz-adv-x="580" 
d="M290 133c62 0 108 48 108 117s-46 117 -108 117s-108 -48 -108 -117s46 -117 108 -117zM290 -8c-144 0 -260 116 -260 258s116 258 260 258s260 -116 260 -258s-116 -258 -260 -258zM255 555l-143 155h173l80 -155h-110z" />
    <glyph glyph-name="oacute" unicode="&#xf3;" horiz-adv-x="580" 
d="M290 133c62 0 108 48 108 117s-46 117 -108 117s-108 -48 -108 -117s46 -117 108 -117zM290 -8c-144 0 -260 116 -260 258s116 258 260 258s260 -116 260 -258s-116 -258 -260 -258zM215 555l80 155h173l-143 -155h-110z" />
    <glyph glyph-name="ocircumflex" unicode="&#xf4;" horiz-adv-x="580" 
d="M290 133c62 0 108 48 108 117s-46 117 -108 117s-108 -48 -108 -117s46 -117 108 -117zM290 -8c-144 0 -260 116 -260 258s116 258 260 258s260 -116 260 -258s-116 -258 -260 -258zM160 546l-48 91l178 91l178 -91l-48 -91l-130 62z" />
    <glyph glyph-name="otilde" unicode="&#xf5;" horiz-adv-x="580" 
d="M97 554l4 29c10 74 66 116 117 116c58 0 96 -40 126 -40c23 0 35 11 43 42h96l-4 -29c-10 -74 -66 -116 -117 -116c-58 0 -96 40 -126 40c-23 0 -35 -11 -43 -42h-96zM290 133c62 0 108 48 108 117s-46 117 -108 117s-108 -48 -108 -117s46 -117 108 -117zM290 -8
c-144 0 -260 116 -260 258s116 258 260 258s260 -116 260 -258s-116 -258 -260 -258z" />
    <glyph glyph-name="odieresis" unicode="&#xf6;" horiz-adv-x="580" 
d="M290 133c62 0 108 48 108 117s-46 117 -108 117s-108 -48 -108 -117s46 -117 108 -117zM290 -8c-144 0 -260 116 -260 258s116 258 260 258s260 -116 260 -258s-116 -258 -260 -258zM171 567c-44 0 -80 36 -80 80s36 80 80 80s80 -36 80 -80s-36 -80 -80 -80zM409 567
c-44 0 -80 36 -80 80s36 80 80 80s80 -36 80 -80s-36 -80 -80 -80z" />
    <glyph glyph-name="divide" unicode="&#xf7;" horiz-adv-x="590" 
d="M295 35c-44 0 -80 36 -80 80s36 80 80 80s80 -36 80 -80s-36 -80 -80 -80zM295 369c-44 0 -80 36 -80 80s36 80 80 80s80 -36 80 -80s-36 -80 -80 -80zM77 225v114h436v-114h-436z" />
    <glyph glyph-name="oslash" unicode="&#xf8;" horiz-adv-x="590" 
d="M88 -7l-47 49l49 49c-35 44 -55 99 -55 159c0 142 116 258 260 258c60 0 115 -20 159 -54l49 49l47 -49l-48 -48c33 -44 53 -98 53 -156c0 -142 -116 -258 -260 -258c-59 0 -113 19 -156 52zM187 250c0 -19 3 -37 10 -52l154 153c-16 10 -35 16 -56 16
c-62 0 -108 -48 -108 -117zM295 133c62 0 108 48 108 117c0 17 -3 34 -9 48l-152 -152c15 -9 33 -13 53 -13z" />
    <glyph glyph-name="ugrave" unicode="&#xf9;" 
d="M387 0v37c-31 -29 -77 -45 -119 -45c-135 0 -214 93 -214 229v279h151v-252c0 -68 28 -118 88 -118c37 0 74 18 94 50v320h151v-500h-151zM271 555l-143 155h173l80 -155h-110z" />
    <glyph glyph-name="uacute" unicode="&#xfa;" 
d="M387 0v37c-31 -29 -77 -45 -119 -45c-135 0 -214 93 -214 229v279h151v-252c0 -68 28 -118 88 -118c37 0 74 18 94 50v320h151v-500h-151zM211 555l80 155h173l-143 -155h-110z" />
    <glyph glyph-name="ucircumflex" unicode="&#xfb;" 
d="M387 0v37c-31 -29 -77 -45 -119 -45c-135 0 -214 93 -214 229v279h151v-252c0 -68 28 -118 88 -118c37 0 74 18 94 50v320h151v-500h-151zM166 546l-48 91l178 91l178 -91l-48 -91l-130 62z" />
    <glyph glyph-name="udieresis" unicode="&#xfc;" 
d="M387 0v37c-31 -29 -77 -45 -119 -45c-135 0 -214 93 -214 229v279h151v-252c0 -68 28 -118 88 -118c37 0 74 18 94 50v320h151v-500h-151zM177 567c-44 0 -80 36 -80 80s36 80 80 80s80 -36 80 -80s-36 -80 -80 -80zM415 567c-44 0 -80 36 -80 80s36 80 80 80
s80 -36 80 -80s-36 -80 -80 -80z" />
    <glyph glyph-name="yacute" unicode="&#xfd;" horiz-adv-x="518" 
d="M111 -184l68 184l-184 500h160l104 -316l104 316h160l-252 -684h-160zM194 555l80 155h173l-143 -155h-110z" />
    <glyph glyph-name="thorn" unicode="&#xfe;" horiz-adv-x="594" 
d="M59 -184v894h151v-240c29 24 69 38 110 38c148 0 242 -121 242 -258s-94 -258 -242 -258c-41 0 -81 13 -110 37v-213h-151zM295 370c-37 0 -65 -15 -85 -42v-157c20 -27 48 -41 85 -41c72 0 115 54 115 120s-43 120 -115 120z" />
    <glyph glyph-name="ydieresis" unicode="&#xff;" horiz-adv-x="518" 
d="M111 -184l68 184l-184 500h160l104 -316l104 316h160l-252 -684h-160zM140 567c-44 0 -80 36 -80 80s36 80 80 80s80 -36 80 -80s-36 -80 -80 -80zM378 567c-44 0 -80 36 -80 80s36 80 80 80s80 -36 80 -80s-36 -80 -80 -80z" />
    <glyph glyph-name="Abreve" unicode="&#x102;" horiz-adv-x="680" 
d="M-10 0l350 718l350 -718h-168l-51 110h-262l-51 -110h-168zM273 240h134l-67 148zM339 769c-102 0 -184 82 -184 184h86c0 -54 44 -98 98 -98s98 44 98 98h86c0 -102 -82 -184 -184 -184z" />
    <glyph glyph-name="Amacron" unicode="&#x100;" horiz-adv-x="680" 
d="M-10 0l350 718l350 -718h-168l-51 110h-262l-51 -110h-168zM273 240h134l-67 148zM175 802v96h330v-96h-330z" />
    <glyph glyph-name="Aogonek" unicode="&#x104;" horiz-adv-x="680" 
d="M-10 0l350 718l350 -718c-42 -19 -67 -30 -67 -56c0 -21 15 -30 32 -30c13 0 30 8 35 13v-87c-25 -19 -57 -29 -90 -29c-69 0 -117 48 -117 107c0 33 15 62 39 82l-51 110h-262l-51 -110h-168zM273 240h134l-67 148z" />
    <glyph glyph-name="Cacute" unicode="&#x106;" horiz-adv-x="709" 
d="M397 -8c-200 0 -363 163 -363 363s163 363 363 363c122 0 231 -61 297 -154l-121 -99c-36 58 -100 99 -176 99c-115 0 -202 -95 -202 -209s87 -209 202 -209c76 0 140 41 176 99l121 -99c-66 -93 -175 -154 -297 -154zM313 778l70 145h166l-126 -145h-110z" />
    <glyph glyph-name="Ccaron" unicode="&#x10c;" horiz-adv-x="709" 
d="M397 -8c-200 0 -363 163 -363 363s163 363 363 363c122 0 231 -61 297 -154l-121 -99c-36 58 -100 99 -176 99c-115 0 -202 -95 -202 -209s87 -209 202 -209c76 0 140 41 176 99l121 -99c-66 -93 -175 -154 -297 -154zM397 759l-177 76l41 96l136 -59l136 59l41 -96z" />
    <glyph glyph-name="Ccircumflex" unicode="&#x108;" horiz-adv-x="709" 
d="M397 -8c-200 0 -363 163 -363 363s163 363 363 363c122 0 231 -61 297 -154l-121 -99c-36 58 -100 99 -176 99c-115 0 -202 -95 -202 -209s87 -209 202 -209c76 0 140 41 176 99l121 -99c-66 -93 -175 -154 -297 -154zM262 759l-41 96l177 76l177 -76l-41 -96l-136 59z
" />
    <glyph glyph-name="Cdotaccent" unicode="&#x10a;" horiz-adv-x="709" 
d="M397 -8c-200 0 -363 163 -363 363s163 363 363 363c122 0 231 -61 297 -154l-121 -99c-36 58 -100 99 -176 99c-115 0 -202 -95 -202 -209s87 -209 202 -209c76 0 140 41 176 99l121 -99c-66 -93 -175 -154 -297 -154zM398 763c-48 0 -87 39 -87 87s39 87 87 87
s87 -39 87 -87s-39 -87 -87 -87z" />
    <glyph glyph-name="Dcaron" unicode="&#x10e;" horiz-adv-x="711" 
d="M227 146h89c119 0 200 95 200 209s-81 209 -200 209h-89v-418zM67 0v710h249c200 0 361 -159 361 -355s-161 -355 -361 -355h-249zM305 759l-177 76l41 96l136 -59l136 59l41 -96z" />
    <glyph glyph-name="Dcroat" unicode="&#x110;" horiz-adv-x="746" 
d="M13 285v140h89v285h249c200 0 361 -159 361 -355s-161 -355 -361 -355h-249v285h-89zM262 146h89c119 0 200 95 200 209s-81 209 -200 209h-89v-139h89v-140h-89v-139z" />
    <glyph glyph-name="Ebreve" unicode="&#x114;" horiz-adv-x="547" 
d="M67 0v710h440v-158h-280v-120h220v-154h-220v-120h280v-158h-440zM287 769c-102 0 -184 82 -184 184h86c0 -54 44 -98 98 -98s98 44 98 98h86c0 -102 -82 -184 -184 -184z" />
    <glyph glyph-name="Ecaron" unicode="&#x11a;" horiz-adv-x="547" 
d="M67 0v710h440v-158h-280v-120h220v-154h-220v-120h280v-158h-440zM287 759l-177 76l41 96l136 -59l136 59l41 -96z" />
    <glyph glyph-name="Emacron" unicode="&#x112;" horiz-adv-x="547" 
d="M67 0v710h440v-158h-280v-120h220v-154h-220v-120h280v-158h-440zM121 802v96h330v-96h-330z" />
    <glyph glyph-name="Eogonek" unicode="&#x118;" horiz-adv-x="547" 
d="M67 0v710h440v-158h-280v-120h220v-154h-220v-120h280v-158c-42 -19 -67 -30 -67 -56c0 -21 15 -30 32 -30c13 0 30 8 35 13v-87c-25 -19 -57 -29 -90 -29c-69 0 -117 48 -117 107c0 33 15 62 39 82h-272z" />
    <glyph glyph-name="Edotaccent" unicode="&#x116;" horiz-adv-x="547" 
d="M67 0v710h440v-158h-280v-120h220v-154h-220v-120h280v-158h-440zM287 763c-48 0 -87 39 -87 87s39 87 87 87s87 -39 87 -87s-39 -87 -87 -87z" />
    <glyph glyph-name="Gbreve" unicode="&#x11e;" horiz-adv-x="729" 
d="M397 -8c-200 0 -363 163 -363 363s163 363 363 363c122 0 218 -49 287 -134l-121 -99c-43 54 -90 79 -166 79c-115 0 -202 -95 -202 -209s87 -209 202 -209c58 0 102 10 137 35v99h-171l68 150h258v-322c-70 -80 -172 -116 -292 -116zM397 769c-102 0 -184 82 -184 184
h86c0 -54 44 -98 98 -98s98 44 98 98h86c0 -102 -82 -184 -184 -184z" />
    <glyph glyph-name="Gcircumflex" unicode="&#x11c;" horiz-adv-x="729" 
d="M397 -8c-200 0 -363 163 -363 363s163 363 363 363c122 0 218 -49 287 -134l-121 -99c-43 54 -90 79 -166 79c-115 0 -202 -95 -202 -209s87 -209 202 -209c58 0 102 10 137 35v99h-171l68 150h258v-322c-70 -80 -172 -116 -292 -116zM262 759l-41 96l177 76l177 -76
l-41 -96l-136 59z" />
    <glyph glyph-name="Gcommaaccent" unicode="&#x122;" horiz-adv-x="729" 
d="M397 -8c-200 0 -363 163 -363 363s163 363 363 363c122 0 218 -49 287 -134l-121 -99c-43 54 -90 79 -166 79c-115 0 -202 -95 -202 -209s87 -209 202 -209c58 0 102 10 137 35v99h-171l68 150h258v-322c-70 -80 -172 -116 -292 -116zM296 -268l34 218h138l-85 -218h-87z
" />
    <glyph glyph-name="Gdotaccent" unicode="&#x120;" horiz-adv-x="729" 
d="M397 -8c-200 0 -363 163 -363 363s163 363 363 363c122 0 218 -49 287 -134l-121 -99c-43 54 -90 79 -166 79c-115 0 -202 -95 -202 -209s87 -209 202 -209c58 0 102 10 137 35v99h-171l68 150h258v-322c-70 -80 -172 -116 -292 -116zM398 763c-48 0 -87 39 -87 87
s39 87 87 87s87 -39 87 -87s-39 -87 -87 -87z" />
    <glyph glyph-name="Hbar" unicode="&#x126;" horiz-adv-x="738" 
d="M0 517v108h67v85h160v-85h284v85h160v-85h67v-108h-67v-517h-160v278h-284v-278h-160v517h-67zM227 432h284v85h-284v-85z" />
    <glyph glyph-name="Hcircumflex" unicode="&#x124;" horiz-adv-x="738" 
d="M67 0v710h160v-278h284v278h160v-710h-160v278h-284v-278h-160zM233 759l-41 96l177 76l177 -76l-41 -96l-136 59z" />
    <glyph glyph-name="Ibreve" unicode="&#x12c;" horiz-adv-x="295" 
d="M67 0v710h160v-710h-160zM147 769c-102 0 -184 82 -184 184h86c0 -54 44 -98 98 -98s98 44 98 98h86c0 -102 -82 -184 -184 -184z" />
    <glyph glyph-name="Idotaccent" unicode="&#x130;" horiz-adv-x="295" 
d="M67 0v710h160v-710h-160zM148 763c-48 0 -87 39 -87 87s39 87 87 87s87 -39 87 -87s-39 -87 -87 -87z" />
    <glyph glyph-name="Imacron" unicode="&#x12a;" horiz-adv-x="295" 
d="M67 0v710h160v-710h-160zM-17 802v96h330v-96h-330z" />
    <glyph glyph-name="Iogonek" unicode="&#x12e;" horiz-adv-x="295" 
d="M67 0v710h160v-710h1c-42 -19 -60 -30 -60 -56c0 -21 15 -30 32 -30c13 0 30 8 35 13v-87c-25 -19 -57 -29 -90 -29c-69 0 -117 48 -117 107c0 33 15 62 39 82z" />
    <glyph glyph-name="Itilde" unicode="&#x128;" horiz-adv-x="295" 
d="M67 0v710h160v-710h-160zM-45 777l4 29c10 74 66 116 117 116c58 0 96 -40 126 -40c23 0 35 11 43 42h96l-4 -29c-10 -74 -66 -116 -117 -116c-58 0 -96 40 -126 40c-23 0 -35 -11 -43 -42h-96z" />
    <glyph glyph-name="uni1ECA" unicode="&#x1eca;" horiz-adv-x="295" 
d="M67 0v710h160v-710h-160zM148 -214c-48 0 -87 39 -87 87s39 87 87 87s87 -39 87 -87s-39 -87 -87 -87z" />
    <glyph glyph-name="Jcircumflex" unicode="&#x134;" horiz-adv-x="507" 
d="M230 -8c-120 0 -220 66 -220 220h160c0 -50 22 -71 60 -71s60 21 60 71v498h160v-508c0 -149 -100 -210 -220 -210zM234 759l-41 96l177 76l177 -76l-41 -96l-136 59z" />
    <glyph glyph-name="Kcommaaccent" unicode="&#x136;" horiz-adv-x="671" 
d="M67 0v710h160v-356l248 356h184l-249 -358l281 -352h-198l-266 333v-333h-160zM246 -268l34 218h138l-85 -218h-87z" />
    <glyph glyph-name="Lacute" unicode="&#x139;" horiz-adv-x="518" 
d="M93 778l70 145h166l-126 -145h-110zM67 0v710h160v-551h276v-159h-436z" />
    <glyph glyph-name="Lcaron" unicode="&#x13d;" horiz-adv-x="518" 
d="M67 0v710h160v-551h276v-159h-436zM449 710l-69 -160h-102l20 160h151z" />
    <glyph glyph-name="Lcommaaccent" unicode="&#x13b;" horiz-adv-x="518" 
d="M67 0v710h160v-551h276v-159h-436zM166 -268l34 218h138l-85 -218h-87z" />
    <glyph glyph-name="Ldot" unicode="&#x13f;" horiz-adv-x="518" 
d="M67 0v710h160v-551h276v-159h-436zM407 358c-48 0 -87 39 -87 87s39 87 87 87s87 -39 87 -87s-39 -87 -87 -87z" />
    <glyph glyph-name="Lslash" unicode="&#x141;" horiz-adv-x="552" 
d="M35 185l-65 114l131 75v336h160v-245l106 61l65 -114l-171 -98v-155h276v-159h-436v222z" />
    <glyph glyph-name="Eng" unicode="&#x14a;" horiz-adv-x="742" 
d="M497 -184h-78v129h26c47 0 70 21 70 71v111l-288 244v-371h-160v718l448 -379v371h160v-714c0 -109 -70 -180 -178 -180z" />
    <glyph glyph-name="Nacute" unicode="&#x143;" horiz-adv-x="742" 
d="M675 -8l-448 379v-371h-160v718l448 -379v371h160v-718zM286 778l70 145h166l-126 -145h-110z" />
    <glyph glyph-name="Ncaron" unicode="&#x147;" horiz-adv-x="742" 
d="M675 -8l-448 379v-371h-160v718l448 -379v371h160v-718zM372 759l-177 76l41 96l136 -59l136 59l41 -96z" />
    <glyph glyph-name="Ncommaaccent" unicode="&#x145;" horiz-adv-x="742" 
d="M675 -8l-448 379v-371h-160v718l448 -379v371h160v-718zM314 -268l34 218h138l-85 -218h-87z" />
    <glyph glyph-name="OE" unicode="&#x152;" horiz-adv-x="1014" 
d="M533 710h440v-158h-272c24 -36 41 -77 50 -120h179v-154h-179c-9 -44 -26 -84 -50 -120h273v-158h-441v18c-42 -17 -88 -26 -136 -26c-200 0 -363 163 -363 363s163 363 363 363c48 0 94 -10 136 -27v19zM397 146c115 0 202 95 202 209s-87 209 -202 209
s-202 -95 -202 -209s87 -209 202 -209z" />
    <glyph glyph-name="Obreve" unicode="&#x14e;" horiz-adv-x="794" 
d="M397 146c115 0 202 95 202 209s-87 209 -202 209s-202 -95 -202 -209s87 -209 202 -209zM397 -8c-200 0 -363 163 -363 363s163 363 363 363s363 -163 363 -363s-163 -363 -363 -363zM397 769c-102 0 -184 82 -184 184h86c0 -54 44 -98 98 -98s98 44 98 98h86
c0 -102 -82 -184 -184 -184z" />
    <glyph glyph-name="Ohungarumlaut" unicode="&#x150;" horiz-adv-x="794" 
d="M397 146c115 0 202 95 202 209s-87 209 -202 209s-202 -95 -202 -209s87 -209 202 -209zM397 -8c-200 0 -363 163 -363 363s163 363 363 363s363 -163 363 -363s-163 -363 -363 -363zM238 778l70 145h148l-125 -145h-93zM439 778l70 145h148l-125 -145h-93z" />
    <glyph glyph-name="Omacron" unicode="&#x14c;" horiz-adv-x="794" 
d="M397 146c115 0 202 95 202 209s-87 209 -202 209s-202 -95 -202 -209s87 -209 202 -209zM397 -8c-200 0 -363 163 -363 363s163 363 363 363s363 -163 363 -363s-163 -363 -363 -363zM232 802v96h330v-96h-330z" />
    <glyph glyph-name="uni1ECC" unicode="&#x1ecc;" horiz-adv-x="794" 
d="M397 146c115 0 202 95 202 209s-87 209 -202 209s-202 -95 -202 -209s87 -209 202 -209zM397 -8c-200 0 -363 163 -363 363s163 363 363 363s363 -163 363 -363s-163 -363 -363 -363zM397 -214c-48 0 -87 39 -87 87s39 87 87 87s87 -39 87 -87s-39 -87 -87 -87z" />
    <glyph glyph-name="Racute" unicode="&#x154;" horiz-adv-x="625" 
d="M449 0l-220 288h-2v-288h-160v710h268c116 0 211 -95 211 -211c0 -89 -55 -166 -137 -198l231 -301h-191zM227 423h90c43 0 74 31 74 70s-31 71 -74 71h-90v-141zM222 778l70 145h166l-126 -145h-110z" />
    <glyph glyph-name="Rcaron" unicode="&#x158;" horiz-adv-x="625" 
d="M449 0l-220 288h-2v-288h-160v710h268c116 0 211 -95 211 -211c0 -89 -55 -166 -137 -198l231 -301h-191zM227 423h90c43 0 74 31 74 70s-31 71 -74 71h-90v-141zM281 759l-177 76l41 96l136 -59l136 59l41 -96z" />
    <glyph glyph-name="Rcommaaccent" unicode="&#x156;" horiz-adv-x="625" 
d="M449 0l-220 288h-2v-288h-160v710h268c116 0 211 -95 211 -211c0 -89 -55 -166 -137 -198l231 -301h-191zM227 423h90c43 0 74 31 74 70s-31 71 -74 71h-90v-141zM228 -268l34 218h138l-85 -218h-87z" />
    <glyph glyph-name="Sacute" unicode="&#x15a;" horiz-adv-x="520" 
d="M272 -8c-114 0 -206 47 -255 139l121 99c31 -49 82 -88 131 -88c47 0 68 18 68 51c0 32 -23 52 -83 79l-40 18c-107 48 -166 127 -166 223c0 124 103 205 216 205c79 0 139 -19 199 -89l-108 -114c-36 44 -58 53 -91 53c-27 0 -55 -17 -55 -49c0 -37 31 -57 96 -86
l38 -17c98 -44 155 -115 155 -213c0 -128 -94 -211 -226 -211zM197 778l70 145h166l-126 -145h-110z" />
    <glyph glyph-name="Scaron" unicode="&#x160;" horiz-adv-x="520" 
d="M272 -8c-114 0 -206 47 -255 139l121 99c31 -49 82 -88 131 -88c47 0 68 18 68 51c0 32 -23 52 -83 79l-40 18c-107 48 -166 127 -166 223c0 124 103 205 216 205c79 0 139 -19 199 -89l-108 -114c-36 44 -58 53 -91 53c-27 0 -55 -17 -55 -49c0 -37 31 -57 96 -86
l38 -17c98 -44 155 -115 155 -213c0 -128 -94 -211 -226 -211zM265 759l-177 76l41 96l136 -59l136 59l41 -96z" />
    <glyph glyph-name="Scedilla" unicode="&#x15e;" horiz-adv-x="520" 
d="M155 -134l57 131c-86 13 -155 58 -195 134l121 99c31 -49 82 -88 131 -88c47 0 68 18 68 51c0 32 -23 52 -83 79l-40 18c-107 48 -166 127 -166 223c0 124 103 205 216 205c79 0 139 -19 199 -89l-108 -114c-36 44 -58 53 -91 53c-27 0 -55 -17 -55 -49
c0 -37 31 -57 96 -86l38 -17c98 -44 155 -115 155 -213c0 -114 -74 -192 -183 -208l-33 -129h-127z" />
    <glyph glyph-name="Scircumflex" unicode="&#x15c;" horiz-adv-x="520" 
d="M272 -8c-114 0 -206 47 -255 139l121 99c31 -49 82 -88 131 -88c47 0 68 18 68 51c0 32 -23 52 -83 79l-40 18c-107 48 -166 127 -166 223c0 124 103 205 216 205c79 0 139 -19 199 -89l-108 -114c-36 44 -58 53 -91 53c-27 0 -55 -17 -55 -49c0 -37 31 -57 96 -86
l38 -17c98 -44 155 -115 155 -213c0 -128 -94 -211 -226 -211zM129 759l-41 96l177 76l177 -76l-41 -96l-136 59z" />
    <glyph glyph-name="Scommaaccent" unicode="&#x218;" horiz-adv-x="520" 
d="M272 -8c-114 0 -206 47 -255 139l121 99c31 -49 82 -88 131 -88c47 0 68 18 68 51c0 32 -23 52 -83 79l-40 18c-107 48 -166 127 -166 223c0 124 103 205 216 205c79 0 139 -19 199 -89l-108 -114c-36 44 -58 53 -91 53c-27 0 -55 -17 -55 -49c0 -37 31 -57 96 -86
l38 -17c98 -44 155 -115 155 -213c0 -128 -94 -211 -226 -211zM162 -268l34 218h138l-85 -218h-87z" />
    <glyph glyph-name="Tbar" unicode="&#x166;" horiz-adv-x="539" 
d="M189 0v314h-141v128h141v110h-170v158h501v-158h-171v-110h142v-128h-142v-314h-160z" />
    <glyph glyph-name="Tcaron" unicode="&#x164;" horiz-adv-x="539" 
d="M189 0v552h-170v158h501v-158h-171v-552h-160zM269 759l-177 76l41 96l136 -59l136 59l41 -96z" />
    <glyph glyph-name="uni0162" unicode="&#x162;" horiz-adv-x="539" 
d="M189 0v552h-170v158h501v-158h-171v-552h-160zM167 -268l34 218h138l-85 -218h-87z" />
    <glyph glyph-name="Tcommaaccent" unicode="&#x21a;" horiz-adv-x="539" 
d="M189 0v552h-170v158h501v-158h-171v-552h-160zM167 -268l34 218h138l-85 -218h-87z" />
    <glyph glyph-name="Ubreve" unicode="&#x16c;" horiz-adv-x="702" 
d="M351 -8c-170 0 -291 118 -291 296v422h160v-424c0 -86 53 -140 131 -140s131 54 131 140v424h160v-422c0 -178 -121 -296 -291 -296zM351 769c-102 0 -184 82 -184 184h86c0 -54 44 -98 98 -98s98 44 98 98h86c0 -102 -82 -184 -184 -184z" />
    <glyph glyph-name="Uhungarumlaut" unicode="&#x170;" horiz-adv-x="702" 
d="M351 -8c-170 0 -291 118 -291 296v422h160v-424c0 -86 53 -140 131 -140s131 54 131 140v424h160v-422c0 -178 -121 -296 -291 -296zM202 778l70 145h148l-125 -145h-93zM403 778l70 145h148l-125 -145h-93z" />
    <glyph glyph-name="Umacron" unicode="&#x16a;" horiz-adv-x="702" 
d="M351 -8c-170 0 -291 118 -291 296v422h160v-424c0 -86 53 -140 131 -140s131 54 131 140v424h160v-422c0 -178 -121 -296 -291 -296zM186 802v96h330v-96h-330z" />
    <glyph glyph-name="Uogonek" unicode="&#x172;" horiz-adv-x="702" 
d="M365 -189c-69 0 -117 48 -117 107c0 32 14 61 37 81c-135 26 -225 135 -225 289v422h160v-424c0 -86 53 -140 131 -140s131 54 131 140v424h160v-422c0 -144 -79 -249 -199 -284c-35 -17 -55 -36 -55 -60c0 -21 15 -30 32 -30c13 0 30 8 35 13v-87
c-25 -19 -57 -29 -90 -29z" />
    <glyph glyph-name="Uring" unicode="&#x16e;" horiz-adv-x="702" 
d="M351 -8c-170 0 -291 118 -291 296v422h160v-424c0 -86 53 -140 131 -140s131 54 131 140v424h160v-422c0 -178 -121 -296 -291 -296zM351 832c26 0 47 21 47 47s-21 47 -47 47s-47 -21 -47 -47s21 -47 47 -47zM351 759c-66 0 -120 54 -120 120s54 120 120 120
s120 -54 120 -120s-54 -120 -120 -120z" />
    <glyph glyph-name="Utilde" unicode="&#x168;" horiz-adv-x="702" 
d="M351 -8c-170 0 -291 118 -291 296v422h160v-424c0 -86 53 -140 131 -140s131 54 131 140v424h160v-422c0 -178 -121 -296 -291 -296zM158 777l4 29c10 74 66 116 117 116c58 0 96 -40 126 -40c23 0 35 11 43 42h96l-4 -29c-10 -74 -66 -116 -117 -116
c-58 0 -96 40 -126 40c-23 0 -35 -11 -43 -42h-96z" />
    <glyph glyph-name="uni1EE4" unicode="&#x1ee4;" horiz-adv-x="702" 
d="M351 -8c-170 0 -291 118 -291 296v422h160v-424c0 -86 53 -140 131 -140s131 54 131 140v424h160v-422c0 -178 -121 -296 -291 -296zM351 -214c-48 0 -87 39 -87 87s39 87 87 87s87 -39 87 -87s-39 -87 -87 -87z" />
    <glyph glyph-name="Wacute" unicode="&#x1e82;" horiz-adv-x="876" 
d="M251 -8l-246 718h163l110 -333l160 341l160 -341l110 333h163l-246 -718l-187 409zM382 778l70 145h166l-126 -145h-110z" />
    <glyph glyph-name="Wcircumflex" unicode="&#x174;" horiz-adv-x="876" 
d="M251 -8l-246 718h163l110 -333l160 341l160 -341l110 333h163l-246 -718l-187 409zM302 759l-41 96l177 76l177 -76l-41 -96l-136 59z" />
    <glyph glyph-name="Wdieresis" unicode="&#x1e84;" horiz-adv-x="876" 
d="M251 -8l-246 718h163l110 -333l160 341l160 -341l110 333h163l-246 -718l-187 409zM319 770c-44 0 -80 36 -80 80s36 80 80 80s80 -36 80 -80s-36 -80 -80 -80zM557 770c-44 0 -80 36 -80 80s36 80 80 80s80 -36 80 -80s-36 -80 -80 -80z" />
    <glyph glyph-name="Wgrave" unicode="&#x1e80;" horiz-adv-x="876" 
d="M251 -8l-246 718h163l110 -333l160 341l160 -341l110 333h163l-246 -718l-187 409zM383 778l-126 145h166l70 -145h-110z" />
    <glyph glyph-name="Ycircumflex" unicode="&#x176;" horiz-adv-x="656" 
d="M248 0v298l-263 412h187l156 -252l156 252h187l-263 -412v-298h-160zM192 759l-41 96l177 76l177 -76l-41 -96l-136 59z" />
    <glyph glyph-name="Ydieresis" unicode="&#x178;" horiz-adv-x="656" 
d="M248 0v298l-263 412h187l156 -252l156 252h187l-263 -412v-298h-160zM209 770c-44 0 -80 36 -80 80s36 80 80 80s80 -36 80 -80s-36 -80 -80 -80zM447 770c-44 0 -80 36 -80 80s36 80 80 80s80 -36 80 -80s-36 -80 -80 -80z" />
    <glyph glyph-name="Ygrave" unicode="&#x1ef2;" horiz-adv-x="656" 
d="M292 778l-126 145h166l70 -145h-110zM248 0v298l-263 412h187l156 -252l156 252h187l-263 -412v-298h-160z" />
    <glyph glyph-name="uni0232" unicode="&#x232;" horiz-adv-x="656" 
d="M248 0v298l-263 412h187l156 -252l156 252h187l-263 -412v-298h-160zM163 802v96h330v-96h-330z" />
    <glyph glyph-name="Zacute" unicode="&#x179;" horiz-adv-x="624" 
d="M8 0l329 552h-287v158h560l-329 -552h308v-158h-581zM244 778l70 145h166l-126 -145h-110z" />
    <glyph glyph-name="Zcaron" unicode="&#x17d;" horiz-adv-x="624" 
d="M8 0l329 552h-287v158h560l-329 -552h308v-158h-581zM330 759l-177 76l41 96l136 -59l136 59l41 -96z" />
    <glyph glyph-name="Zdotaccent" unicode="&#x17b;" horiz-adv-x="624" 
d="M8 0l329 552h-287v158h560l-329 -552h308v-158h-581zM329 763c-48 0 -87 39 -87 87s39 87 87 87s87 -39 87 -87s-39 -87 -87 -87z" />
    <glyph glyph-name="abreve" unicode="&#x103;" horiz-adv-x="594" 
d="M384 0v29c-29 -24 -69 -37 -110 -37c-148 0 -242 121 -242 258s94 258 242 258c41 0 81 -14 110 -38v30h151v-500h-151zM299 130c37 0 64 14 85 41v157c-21 27 -48 42 -85 42c-72 0 -115 -54 -115 -120s43 -120 115 -120zM313 546c-102 0 -184 62 -184 164h86
c0 -54 44 -78 98 -78s98 24 98 78h86c0 -102 -82 -164 -184 -164z" />
    <glyph glyph-name="amacron" unicode="&#x101;" horiz-adv-x="594" 
d="M384 0v29c-29 -24 -69 -37 -110 -37c-148 0 -242 121 -242 258s94 258 242 258c41 0 81 -14 110 -38v30h151v-500h-151zM299 130c37 0 64 14 85 41v157c-21 27 -48 42 -85 42c-72 0 -115 -54 -115 -120s43 -120 115 -120zM158 579v96h330v-96h-330z" />
    <glyph glyph-name="aogonek" unicode="&#x105;" horiz-adv-x="594" 
d="M384 0v29c-29 -24 -69 -37 -110 -37c-148 0 -242 121 -242 258s94 258 242 258c41 0 81 -14 110 -38v30h151v-500c-42 -20 -57 -37 -57 -56c0 -17 13 -30 30 -30c13 0 22 8 27 13v-87c-21 -21 -50 -29 -83 -29c-59 0 -107 48 -107 107c0 33 15 62 39 82zM299 130
c37 0 64 14 85 41v157c-21 27 -48 42 -85 42c-72 0 -115 -54 -115 -120s43 -120 115 -120z" />
    <glyph glyph-name="cacute" unicode="&#x107;" horiz-adv-x="522" 
d="M290 -8c-144 0 -260 116 -260 258s116 258 260 258c92 0 173 -47 219 -118l-120 -85c-20 37 -55 62 -99 62c-62 0 -108 -48 -108 -117s46 -117 108 -117c44 0 79 25 99 62l120 -85c-46 -71 -127 -118 -219 -118zM214 555l80 155h173l-143 -155h-110z" />
    <glyph glyph-name="ccaron" unicode="&#x10d;" horiz-adv-x="522" 
d="M290 -8c-144 0 -260 116 -260 258s116 258 260 258c92 0 173 -47 219 -118l-120 -85c-20 37 -55 62 -99 62c-62 0 -108 -48 -108 -117s46 -117 108 -117c44 0 79 25 99 62l120 -85c-46 -71 -127 -118 -219 -118zM110 637l48 91l130 -62l130 62l48 -91l-178 -91z" />
    <glyph glyph-name="ccircumflex" unicode="&#x109;" horiz-adv-x="522" 
d="M290 -8c-144 0 -260 116 -260 258s116 258 260 258c92 0 173 -47 219 -118l-120 -85c-20 37 -55 62 -99 62c-62 0 -108 -48 -108 -117s46 -117 108 -117c44 0 79 25 99 62l120 -85c-46 -71 -127 -118 -219 -118zM160 546l-48 91l178 91l178 -91l-48 -91l-130 62z" />
    <glyph glyph-name="cdotaccent" unicode="&#x10b;" horiz-adv-x="522" 
d="M290 -8c-144 0 -260 116 -260 258s116 258 260 258c92 0 173 -47 219 -118l-120 -85c-20 37 -55 62 -99 62c-62 0 -108 -48 -108 -117s46 -117 108 -117c44 0 79 25 99 62l120 -85c-46 -71 -127 -118 -219 -118zM290 560c-48 0 -87 39 -87 87s39 87 87 87s87 -39 87 -87
s-39 -87 -87 -87z" />
    <glyph glyph-name="dcaron" unicode="&#x10f;" horiz-adv-x="594" 
d="M384 0v29c-29 -24 -69 -37 -110 -37c-148 0 -242 121 -242 258s94 258 242 258c41 0 81 -14 110 -38v240h151v-710h-151zM299 130c37 0 64 14 85 41v157c-21 27 -48 42 -85 42c-72 0 -115 -54 -115 -120s43 -120 115 -120zM736 710l-69 -160h-102l20 160h151z" />
    <glyph glyph-name="dcroat" unicode="&#x111;" horiz-adv-x="594" 
d="M254 562v98h130v50h151v-50h68v-98h-68v-562h-151v29c-29 -24 -69 -37 -110 -37c-148 0 -242 121 -242 258s94 258 242 258c41 0 81 -14 110 -38v92h-130zM299 130c37 0 64 14 85 41v157c-21 27 -48 42 -85 42c-72 0 -115 -54 -115 -120s43 -120 115 -120z" />
    <glyph glyph-name="ebreve" unicode="&#x115;" horiz-adv-x="558" 
d="M285 -8c-132 0 -255 104 -255 258c0 147 104 258 258 258c127 0 241 -83 241 -241c0 -14 -1 -29 -3 -44h-351c7 -67 64 -93 109 -93c53 0 87 26 107 63l120 -81c-46 -72 -127 -120 -226 -120zM279 387c-36 0 -89 -16 -103 -76h204c-8 53 -52 76 -101 76zM287 546
c-102 0 -184 62 -184 164h86c0 -54 44 -78 98 -78s98 24 98 78h86c0 -102 -82 -164 -184 -164z" />
    <glyph glyph-name="ecaron" unicode="&#x11b;" horiz-adv-x="558" 
d="M285 -8c-132 0 -255 104 -255 258c0 147 104 258 258 258c127 0 241 -83 241 -241c0 -14 -1 -29 -3 -44h-351c7 -67 64 -93 109 -93c53 0 87 26 107 63l120 -81c-46 -72 -127 -120 -226 -120zM279 387c-36 0 -89 -16 -103 -76h204c-8 53 -52 76 -101 76zM110 637l48 91
l130 -62l130 62l48 -91l-178 -91z" />
    <glyph glyph-name="emacron" unicode="&#x113;" horiz-adv-x="558" 
d="M285 -8c-132 0 -255 104 -255 258c0 147 104 258 258 258c127 0 241 -83 241 -241c0 -14 -1 -29 -3 -44h-351c7 -67 64 -93 109 -93c53 0 87 26 107 63l120 -81c-46 -72 -127 -120 -226 -120zM279 387c-36 0 -89 -16 -103 -76h204c-8 53 -52 76 -101 76zM122 579v96h330
v-96h-330z" />
    <glyph glyph-name="eogonek" unicode="&#x119;" horiz-adv-x="558" 
d="M270 -189c-59 0 -107 48 -107 107c0 30 13 60 42 87c-98 32 -175 123 -175 245c0 147 104 258 258 258c127 0 241 -83 241 -241c0 -14 -1 -29 -3 -44h-351c7 -67 64 -93 109 -93c53 0 87 26 107 63l120 -81c-35 -55 -90 -96 -158 -112c-42 -20 -57 -37 -57 -56
c0 -17 13 -30 30 -30c13 0 22 8 27 13v-87c-21 -21 -50 -29 -83 -29zM279 387c-36 0 -89 -16 -103 -76h204c-8 53 -52 76 -101 76z" />
    <glyph glyph-name="edotaccent" unicode="&#x117;" horiz-adv-x="558" 
d="M285 -8c-132 0 -255 104 -255 258c0 147 104 258 258 258c127 0 241 -83 241 -241c0 -14 -1 -29 -3 -44h-351c7 -67 64 -93 109 -93c53 0 87 26 107 63l120 -81c-46 -72 -127 -120 -226 -120zM279 387c-36 0 -89 -16 -103 -76h204c-8 53 -52 76 -101 76zM287 560
c-48 0 -87 39 -87 87s39 87 87 87s87 -39 87 -87s-39 -87 -87 -87z" />
    <glyph glyph-name="gbreve" unicode="&#x11f;" horiz-adv-x="583" 
d="M282 -194c-75 0 -154 10 -225 56l68 133c40 -31 89 -51 147 -51c60 0 114 20 114 80c0 10 -2 27 -13 42c-29 -24 -70 -38 -111 -38c-151 0 -236 118 -236 240s85 240 236 240c41 0 81 -14 110 -38v30h151v-403c15 -35 21 -68 21 -98c0 -141 -132 -193 -262 -193zM282 166
c37 0 68 15 90 42v120c-22 27 -53 42 -90 42c-67 0 -104 -51 -104 -102s37 -102 104 -102zM285 546c-102 0 -184 62 -184 164h86c0 -54 44 -78 98 -78s98 24 98 78h86c0 -102 -82 -164 -184 -164z" />
    <glyph glyph-name="gcircumflex" unicode="&#x11d;" horiz-adv-x="583" 
d="M282 -194c-75 0 -154 10 -225 56l68 133c40 -31 89 -51 147 -51c60 0 114 20 114 80c0 10 -2 27 -13 42c-29 -24 -70 -38 -111 -38c-151 0 -236 118 -236 240s85 240 236 240c41 0 81 -14 110 -38v30h151v-403c15 -35 21 -68 21 -98c0 -141 -132 -193 -262 -193zM282 166
c37 0 68 15 90 42v120c-22 27 -53 42 -90 42c-67 0 -104 -51 -104 -102s37 -102 104 -102zM155 546l-48 91l178 91l178 -91l-48 -91l-130 62z" />
    <glyph glyph-name="gcommaaccent" unicode="&#x123;" horiz-adv-x="583" 
d="M282 -194c-75 0 -154 10 -225 56l68 133c40 -31 89 -51 147 -51c60 0 114 20 114 80c0 10 -2 27 -13 42c-29 -24 -70 -38 -111 -38c-151 0 -236 118 -236 240s85 240 236 240c41 0 81 -14 110 -38v30h151v-403c15 -35 21 -68 21 -98c0 -141 -132 -193 -262 -193zM282 166
c37 0 68 15 90 42v120c-22 27 -53 42 -90 42c-67 0 -104 -51 -104 -102s37 -102 104 -102zM394 760l-34 -218h-138l85 218h87z" />
    <glyph glyph-name="gdotaccent" unicode="&#x121;" horiz-adv-x="583" 
d="M282 -194c-75 0 -154 10 -225 56l68 133c40 -31 89 -51 147 -51c60 0 114 20 114 80c0 10 -2 27 -13 42c-29 -24 -70 -38 -111 -38c-151 0 -236 118 -236 240s85 240 236 240c41 0 81 -14 110 -38v30h151v-403c15 -35 21 -68 21 -98c0 -141 -132 -193 -262 -193zM282 166
c37 0 68 15 90 42v120c-22 27 -53 42 -90 42c-67 0 -104 -51 -104 -102s37 -102 104 -102zM285 560c-48 0 -87 39 -87 87s39 87 87 87s87 -39 87 -87s-39 -87 -87 -87z" />
    <glyph glyph-name="hbar" unicode="&#x127;" 
d="M59 0v562h-69v98h69v50h151v-50h129v-98h-129v-93c30 25 71 39 115 39c141 0 218 -94 218 -229v-279h-151v252c0 67 -26 118 -92 118c-29 0 -65 -15 -90 -43v-327h-151z" />
    <glyph glyph-name="hcircumflex" unicode="&#x125;" 
d="M59 0v710h151v-241c30 25 71 39 115 39c141 0 218 -94 218 -229v-279h-151v252c0 67 -26 118 -92 118c-29 0 -65 -15 -90 -43v-327h-151zM168 759l-41 96l177 76l177 -76l-41 -96l-136 59z" />
    <glyph glyph-name="dotlessi" unicode="&#x131;" horiz-adv-x="270" 
d="M59 0v500h152v-500h-152z" />
    <glyph glyph-name="ibreve" unicode="&#x12d;" horiz-adv-x="270" 
d="M59 0v500h152v-500h-152zM135 546c-102 0 -184 62 -184 164h86c0 -54 44 -78 98 -78s98 24 98 78h86c0 -102 -82 -164 -184 -164z" />
    <glyph glyph-name="imacron" unicode="&#x12b;" horiz-adv-x="270" 
d="M59 0v500h152v-500h-152zM-30 579v96h330v-96h-330z" />
    <glyph glyph-name="iogonek" unicode="&#x12f;" horiz-adv-x="270" 
d="M127 -189c-59 0 -107 48 -107 107c0 33 15 62 39 82v500h151v-500c-42 -20 -57 -37 -57 -56c0 -17 13 -30 30 -30c13 0 22 8 27 13v-87c-21 -21 -50 -29 -83 -29zM65 571c-13 15 -20 35 -20 57c0 50 40 90 90 90s90 -40 90 -90c0 -22 -7 -42 -20 -57h-140z" />
    <glyph glyph-name="itilde" unicode="&#x129;" horiz-adv-x="270" 
d="M59 0v500h152v-500h-152zM-58 554l4 29c10 74 66 116 117 116c58 0 96 -40 126 -40c23 0 35 11 43 42h96l-4 -29c-10 -74 -66 -116 -117 -116c-58 0 -96 40 -126 40c-23 0 -35 -11 -43 -42h-96z" />
    <glyph glyph-name="uni1ECB" unicode="&#x1ecb;" horiz-adv-x="270" 
d="M65 571c-13 15 -20 35 -20 57c0 50 40 90 90 90s90 -40 90 -90c0 -22 -7 -42 -20 -57h-140zM59 0v500h151v-500h-151zM135 -214c-48 0 -87 39 -87 87s39 87 87 87s87 -39 87 -87s-39 -87 -87 -87z" />
    <glyph glyph-name="dotlessj" unicode="&#x237;" horiz-adv-x="270" 
d="M-45 -184v143h25c48 0 79 12 79 60v481h152v-500c0 -122 -89 -184 -221 -184h-35z" />
    <glyph glyph-name="jcircumflex" unicode="&#x135;" horiz-adv-x="270" 
d="M-45 -184v143h25c48 0 79 12 79 60v481h152v-500c0 -122 -89 -184 -221 -184h-35zM5 546l-48 91l178 91l178 -91l-48 -91l-130 62z" />
    <glyph glyph-name="kcommaaccent" unicode="&#x137;" horiz-adv-x="561" 
d="M59 0v710h151v-438l163 228h174l-170 -237l196 -263h-178l-185 249v-249h-151zM203 -268l34 218h138l-85 -218h-87z" />
    <glyph glyph-name="lacute" unicode="&#x13a;" horiz-adv-x="270" 
d="M59 0v710h151v-710h-151zM57 778l70 145h166l-126 -145h-110z" />
    <glyph glyph-name="lcaron" unicode="&#x13e;" horiz-adv-x="269" 
d="M59 0v710h151v-710h-151zM411 710l-69 -160h-102l20 160h151z" />
    <glyph glyph-name="lcommaaccent" unicode="&#x13c;" horiz-adv-x="270" 
d="M59 0v710h151v-710h-151zM32 -268l34 218h138l-85 -218h-87z" />
    <glyph glyph-name="ldot" unicode="&#x140;" horiz-adv-x="413" 
d="M342 288c-48 0 -87 39 -87 87s39 87 87 87s87 -39 87 -87s-39 -87 -87 -87zM59 0v710h151v-710h-151z" />
    <glyph glyph-name="lslash" unicode="&#x142;" horiz-adv-x="376" 
d="M45 206l-56 98l123 70v336h151v-250l72 41l56 -98l-128 -73v-330h-151v244z" />
    <glyph glyph-name="eng" unicode="&#x14b;" 
d="M59 0v500h151v-31c30 25 71 39 115 39c141 0 218 -94 218 -229v-267v-9v-3c-6 -111 -82 -184 -196 -184h-60v143h39c43 0 64 17 66 59v244c-3 62 -30 108 -92 108c-29 0 -65 -15 -90 -43v-327h-151z" />
    <glyph glyph-name="nacute" unicode="&#x144;" 
d="M59 0v500h151v-31c30 25 71 39 115 39c141 0 218 -94 218 -229v-279h-151v252c0 67 -26 118 -92 118c-29 0 -65 -15 -90 -43v-327h-151zM217 555l80 155h173l-143 -155h-110z" />
    <glyph glyph-name="ncaron" unicode="&#x148;" 
d="M59 0v500h151v-31c30 25 71 39 115 39c141 0 218 -94 218 -229v-279h-151v252c0 67 -26 118 -92 118c-29 0 -65 -15 -90 -43v-327h-151zM130 637l48 91l130 -62l130 62l48 -91l-178 -91z" />
    <glyph glyph-name="ncommaaccent" unicode="&#x146;" 
d="M59 0v500h151v-31c30 25 71 39 115 39c141 0 218 -94 218 -229v-279h-151v252c0 67 -26 118 -92 118c-29 0 -65 -15 -90 -43v-327h-151zM198 -268l34 218h138l-85 -218h-87z" />
    <glyph glyph-name="oe" unicode="&#x153;" horiz-adv-x="926" 
d="M290 -8c-144 0 -260 116 -260 258s116 258 260 258c70 0 134 -28 180 -73c45 46 109 73 186 73c127 0 241 -83 241 -241c0 -14 -1 -29 -3 -44h-351c7 -67 64 -93 109 -93c53 0 87 26 107 63l120 -81c-46 -72 -127 -120 -226 -120c-68 0 -133 27 -180 74
c-47 -46 -112 -74 -183 -74zM290 133c62 0 108 48 108 117s-46 117 -108 117s-108 -48 -108 -117s46 -117 108 -117zM647 387c-36 0 -89 -16 -103 -76h204c-8 53 -52 76 -101 76z" />
    <glyph glyph-name="obreve" unicode="&#x14f;" horiz-adv-x="580" 
d="M290 133c62 0 108 48 108 117s-46 117 -108 117s-108 -48 -108 -117s46 -117 108 -117zM290 -8c-144 0 -260 116 -260 258s116 258 260 258s260 -116 260 -258s-116 -258 -260 -258zM290 546c-102 0 -184 62 -184 164h86c0 -54 44 -78 98 -78s98 24 98 78h86
c0 -102 -82 -164 -184 -164z" />
    <glyph glyph-name="ohungarumlaut" unicode="&#x151;" horiz-adv-x="580" 
d="M290 133c62 0 108 48 108 117s-46 117 -108 117s-108 -48 -108 -117s46 -117 108 -117zM290 -8c-144 0 -260 116 -260 258s116 258 260 258s260 -116 260 -258s-116 -258 -260 -258zM135 555l80 155h143l-143 -155h-80zM327 555l80 155h143l-143 -155h-80z" />
    <glyph glyph-name="omacron" unicode="&#x14d;" horiz-adv-x="580" 
d="M290 133c62 0 108 48 108 117s-46 117 -108 117s-108 -48 -108 -117s46 -117 108 -117zM290 -8c-144 0 -260 116 -260 258s116 258 260 258s260 -116 260 -258s-116 -258 -260 -258zM125 579v96h330v-96h-330z" />
    <glyph glyph-name="uni1ECD" unicode="&#x1ecd;" horiz-adv-x="580" 
d="M290 133c62 0 108 48 108 117s-46 117 -108 117s-108 -48 -108 -117s46 -117 108 -117zM290 -8c-144 0 -260 116 -260 258s116 258 260 258s260 -116 260 -258s-116 -258 -260 -258zM290 -214c-48 0 -87 39 -87 87s39 87 87 87s87 -39 87 -87s-39 -87 -87 -87z" />
    <glyph glyph-name="racute" unicode="&#x155;" horiz-adv-x="392" 
d="M59 0v500h151v-44c28 34 65 52 114 52c16 0 35 -2 54 -8v-157c-23 12 -51 17 -77 17c-31 0 -67 -12 -91 -33v-327h-151zM134 555l80 155h173l-143 -155h-110z" />
    <glyph glyph-name="rcaron" unicode="&#x159;" horiz-adv-x="392" 
d="M59 0v500h151v-44c28 34 65 52 114 52c16 0 35 -2 54 -8v-157c-23 12 -51 17 -77 17c-31 0 -67 -12 -91 -33v-327h-151zM41 637l48 91l130 -62l130 62l48 -91l-178 -91z" />
    <glyph glyph-name="rcommaaccent" unicode="&#x157;" horiz-adv-x="392" 
d="M59 0v500h151v-44c28 34 65 52 114 52c16 0 35 -2 54 -8v-157c-23 12 -51 17 -77 17c-31 0 -67 -12 -91 -33v-327h-151zM30 -268l34 218h138l-85 -218h-87z" />
    <glyph glyph-name="sacute" unicode="&#x15b;" horiz-adv-x="415" 
d="M207 -8c-87 0 -158 31 -201 106l115 78c20 -36 47 -61 92 -61c21 0 39 5 39 23c0 19 -14 25 -63 44l-26 10c-87 34 -132 90 -132 161c0 92 76 155 172 155c64 0 120 -24 158 -79l-86 -85c-19 27 -41 45 -72 45c-20 0 -36 -7 -36 -23c0 -20 16 -26 66 -45l21 -8
c95 -36 134 -88 134 -162c0 -102 -79 -159 -181 -159zM135 555l80 155h173l-143 -155h-110z" />
    <glyph glyph-name="scaron" unicode="&#x161;" horiz-adv-x="415" 
d="M207 -8c-87 0 -158 31 -201 106l115 78c20 -36 47 -61 92 -61c21 0 39 5 39 23c0 19 -14 25 -63 44l-26 10c-87 34 -132 90 -132 161c0 92 76 155 172 155c64 0 120 -24 158 -79l-86 -85c-19 27 -41 45 -72 45c-20 0 -36 -7 -36 -23c0 -20 16 -26 66 -45l21 -8
c95 -36 134 -88 134 -162c0 -102 -79 -159 -181 -159zM26 637l48 91l130 -62l130 62l48 -91l-178 -91z" />
    <glyph glyph-name="scedilla" unicode="&#x15f;" horiz-adv-x="415" 
d="M97 -134l57 131c-63 10 -114 42 -148 101l115 78c20 -36 47 -61 92 -61c21 0 39 5 39 23c0 19 -14 25 -63 44l-26 10c-87 34 -132 90 -132 161c0 92 76 155 172 155c64 0 120 -24 158 -79l-86 -85c-19 27 -41 45 -72 45c-20 0 -36 -7 -36 -23c0 -20 16 -26 66 -45l21 -8
c95 -36 134 -88 134 -162c0 -85 -55 -138 -131 -154l-33 -131h-127z" />
    <glyph glyph-name="scircumflex" unicode="&#x15d;" horiz-adv-x="415" 
d="M207 -8c-87 0 -158 31 -201 106l115 78c20 -36 47 -61 92 -61c21 0 39 5 39 23c0 19 -14 25 -63 44l-26 10c-87 34 -132 90 -132 161c0 92 76 155 172 155c64 0 120 -24 158 -79l-86 -85c-19 27 -41 45 -72 45c-20 0 -36 -7 -36 -23c0 -20 16 -26 66 -45l21 -8
c95 -36 134 -88 134 -162c0 -102 -79 -159 -181 -159zM67 546l-48 91l178 91l178 -91l-48 -91l-130 62z" />
    <glyph glyph-name="scommaaccent" unicode="&#x219;" horiz-adv-x="415" 
d="M207 -8c-87 0 -158 31 -201 106l115 78c20 -36 47 -61 92 -61c21 0 39 5 39 23c0 19 -14 25 -63 44l-26 10c-87 34 -132 90 -132 161c0 92 76 155 172 155c64 0 120 -24 158 -79l-86 -85c-19 27 -41 45 -72 45c-20 0 -36 -7 -36 -23c0 -20 16 -26 66 -45l21 -8
c95 -36 134 -88 134 -162c0 -102 -79 -159 -181 -159zM94 -268l34 218h138l-85 -218h-87z" />
    <glyph glyph-name="tbar" unicode="&#x167;" horiz-adv-x="412" 
d="M21 368l-33 132h98v75l151 75v-150h158l-33 -132h-125v-63h141v-88h-141v-20c0 -42 17 -59 58 -59h82v-138h-138c-94 0 -153 59 -153 154v63h-80v88h80v63h-65z" />
    <glyph glyph-name="tcaron" unicode="&#x165;" horiz-adv-x="412" 
d="M21 368l-33 132h98v75l151 75v-150h158l-33 -132h-125v-171c0 -42 17 -59 58 -59h82v-138h-138c-94 0 -153 59 -153 154v214h-65zM459 710l-69 -160h-102l20 160h151z" />
    <glyph glyph-name="uni0163" unicode="&#x163;" horiz-adv-x="412" 
d="M21 368l-33 132h98v75l151 75v-150h158l-33 -132h-125v-171c0 -42 17 -59 58 -59h82v-138h-138c-94 0 -153 59 -153 154v214h-65zM127 -268l34 218h138l-85 -218h-87z" />
    <glyph glyph-name="tcommaaccent" unicode="&#x21b;" horiz-adv-x="412" 
d="M21 368l-33 132h98v75l151 75v-150h158l-33 -132h-125v-171c0 -42 17 -59 58 -59h82v-138h-138c-94 0 -153 59 -153 154v214h-65zM127 -268l34 218h138l-85 -218h-87z" />
    <glyph glyph-name="ubreve" unicode="&#x16d;" 
d="M387 0v37c-31 -29 -77 -45 -119 -45c-135 0 -214 93 -214 229v279h151v-252c0 -68 28 -118 88 -118c37 0 74 18 94 50v320h151v-500h-151zM296 546c-102 0 -184 62 -184 164h86c0 -54 44 -78 98 -78s98 24 98 78h86c0 -102 -82 -164 -184 -164z" />
    <glyph glyph-name="uhungarumlaut" unicode="&#x171;" 
d="M387 0v37c-31 -29 -77 -45 -119 -45c-135 0 -214 93 -214 229v279h151v-252c0 -68 28 -118 88 -118c37 0 74 18 94 50v320h151v-500h-151zM149 555l80 155h143l-143 -155h-80zM341 555l80 155h143l-143 -155h-80z" />
    <glyph glyph-name="umacron" unicode="&#x16b;" 
d="M387 0v37c-31 -29 -77 -45 -119 -45c-135 0 -214 93 -214 229v279h151v-252c0 -68 28 -118 88 -118c37 0 74 18 94 50v320h151v-500h-151zM131 579v96h330v-96h-330z" />
    <glyph glyph-name="uogonek" unicode="&#x173;" 
d="M455 -189c-59 0 -107 48 -107 107c0 33 15 62 39 82v37c-31 -29 -77 -45 -119 -45c-135 0 -214 93 -214 229v279h151v-252c0 -68 28 -118 88 -118c37 0 74 18 94 50v320h151v-500c-42 -20 -57 -37 -57 -56c0 -17 13 -30 30 -30c13 0 22 8 27 13v-87
c-21 -21 -50 -29 -83 -29z" />
    <glyph glyph-name="uring" unicode="&#x16f;" 
d="M387 0v37c-31 -29 -77 -45 -119 -45c-135 0 -214 93 -214 229v279h151v-252c0 -68 28 -118 88 -118c37 0 74 18 94 50v320h151v-500h-151zM296 619c26 0 47 21 47 47s-21 47 -47 47s-47 -21 -47 -47s21 -47 47 -47zM296 546c-66 0 -120 54 -120 120s54 120 120 120
s120 -54 120 -120s-54 -120 -120 -120z" />
    <glyph glyph-name="utilde" unicode="&#x169;" 
d="M387 0v37c-31 -29 -77 -45 -119 -45c-135 0 -214 93 -214 229v279h151v-252c0 -68 28 -118 88 -118c37 0 74 18 94 50v320h151v-500h-151zM113 554l4 29c10 74 66 116 117 116c58 0 96 -40 126 -40c23 0 35 11 43 42h96l-4 -29c-10 -74 -66 -116 -117 -116
c-58 0 -96 40 -126 40c-23 0 -35 -11 -43 -42h-96z" />
    <glyph glyph-name="uni1EE5" unicode="&#x1ee5;" 
d="M387 0v37c-31 -29 -77 -45 -119 -45c-135 0 -214 93 -214 229v279h151v-252c0 -68 28 -118 88 -118c37 0 74 18 94 50v320h151v-500h-151zM296 -214c-48 0 -87 39 -87 87s39 87 87 87s87 -39 87 -87s-39 -87 -87 -87z" />
    <glyph glyph-name="wacute" unicode="&#x1e83;" horiz-adv-x="730" 
d="M159 0l-159 500h159l83 -281l123 289l123 -289l83 281h159l-159 -500h-115l-91 205l-91 -205h-115zM310 555l80 155h173l-143 -155h-110z" />
    <glyph glyph-name="wcircumflex" unicode="&#x175;" horiz-adv-x="730" 
d="M159 0l-159 500h159l83 -281l123 289l123 -289l83 281h159l-159 -500h-115l-91 205l-91 -205h-115zM235 546l-48 91l178 91l178 -91l-48 -91l-130 62z" />
    <glyph glyph-name="wdieresis" unicode="&#x1e85;" horiz-adv-x="730" 
d="M159 0l-159 500h159l83 -281l123 289l123 -289l83 281h159l-159 -500h-115l-91 205l-91 -205h-115zM246 567c-44 0 -80 36 -80 80s36 80 80 80s80 -36 80 -80s-36 -80 -80 -80zM484 567c-44 0 -80 36 -80 80s36 80 80 80s80 -36 80 -80s-36 -80 -80 -80z" />
    <glyph glyph-name="wgrave" unicode="&#x1e81;" horiz-adv-x="730" 
d="M159 0l-159 500h159l83 -281l123 289l123 -289l83 281h159l-159 -500h-115l-91 205l-91 -205h-115zM310 555l-143 155h173l80 -155h-110z" />
    <glyph glyph-name="ycircumflex" unicode="&#x177;" horiz-adv-x="518" 
d="M111 -184l68 184l-184 500h160l104 -316l104 316h160l-252 -684h-160zM129 546l-48 91l178 91l178 -91l-48 -91l-130 62z" />
    <glyph glyph-name="ygrave" unicode="&#x1ef3;" horiz-adv-x="518" 
d="M111 -184l68 184l-184 500h160l104 -316l104 316h160l-252 -684h-160zM235 555l-143 155h173l80 -155h-110z" />
    <glyph glyph-name="uni0233" unicode="&#x233;" horiz-adv-x="518" 
d="M111 -184l68 184l-184 500h160l104 -316l104 316h160l-252 -684h-160zM94 579v96h330v-96h-330z" />
    <glyph glyph-name="zacute" unicode="&#x17a;" horiz-adv-x="513" 
d="M12 0l232 370h-202v130h454l-231 -369h216v-131h-469zM183 555l80 155h173l-143 -155h-110z" />
    <glyph glyph-name="zcaron" unicode="&#x17e;" horiz-adv-x="513" 
d="M12 0l232 370h-202v130h454l-231 -369h216v-131h-469zM91 637l48 91l130 -62l130 62l48 -91l-178 -91z" />
    <glyph glyph-name="zdotaccent" unicode="&#x17c;" horiz-adv-x="513" 
d="M12 0l232 370h-202v130h454l-231 -369h216v-131h-469zM268 560c-48 0 -87 39 -87 87s39 87 87 87s87 -39 87 -87s-39 -87 -87 -87z" />
    <glyph glyph-name="ellipsis" unicode="&#x2026;" horiz-adv-x="858" 
d="M136 -8c-60 0 -108 48 -108 108s48 108 108 108s108 -48 108 -108s-48 -108 -108 -108zM422 -8c-60 0 -108 48 -108 108s48 108 108 108s108 -48 108 -108s-48 -108 -108 -108zM708 -8c-60 0 -108 48 -108 108s48 108 108 108s108 -48 108 -108s-48 -108 -108 -108z" />
    <glyph glyph-name="endash" unicode="&#x2013;" horiz-adv-x="570" 
d="M43 210v144h484v-144h-484z" />
    <glyph glyph-name="emdash" unicode="&#x2014;" horiz-adv-x="863" 
d="M43 210v144h777v-144h-777z" />
    <glyph glyph-name="guilsinglleft" unicode="&#x2039;" horiz-adv-x="340" 
d="M198 9l-164 241l164 241l100 -68l-118 -173l118 -173z" />
    <glyph glyph-name="guilsinglright" unicode="&#x203a;" horiz-adv-x="340" 
d="M306 250l-164 -241l-100 68l118 173l-118 173l100 68z" />
    <glyph glyph-name="quoteleft" unicode="&#x2018;" horiz-adv-x="308" 
d="M218 710l-44 -154h67v-174h-174v174l64 154h87z" />
    <glyph glyph-name="quoteright" unicode="&#x2019;" horiz-adv-x="308" 
d="M90 382l44 154h-67v174h174v-174l-64 -154h-87z" />
    <glyph glyph-name="quotedblleft" unicode="&#x201c;" horiz-adv-x="532" 
d="M218 710l-44 -154h67v-174h-174v174l64 154h87zM442 710l-44 -154h67v-174h-174v174l64 154h87z" />
    <glyph glyph-name="quotedblright" unicode="&#x201d;" horiz-adv-x="532" 
d="M90 382l44 154h-67v174h174v-174l-64 -154h-87zM314 382l44 154h-67v174h174v-174l-64 -154h-87z" />
    <glyph glyph-name="quotesinglbase" unicode="&#x201a;" horiz-adv-x="308" 
d="M90 -154l44 154h-67v174h174v-174l-64 -154h-87z" />
    <glyph glyph-name="quotedblbase" unicode="&#x201e;" horiz-adv-x="532" 
d="M90 -154l44 154h-67v174h174v-174l-64 -154h-87zM314 -154l44 154h-67v174h174v-174l-64 -154h-87z" />
    <glyph glyph-name="bullet" unicode="&#x2022;" horiz-adv-x="402" 
d="M201 166c-75 0 -136 61 -136 136s61 136 136 136s136 -61 136 -136s-61 -136 -136 -136z" />
    <glyph glyph-name="dagger" unicode="&#x2020;" horiz-adv-x="547" 
d="M210 -98v490h-170v108h170v210h127v-210h170v-108h-170v-490h-127z" />
    <glyph glyph-name="daggerdbl" unicode="&#x2021;" horiz-adv-x="547" 
d="M337 112v-210h-127v210h-170v108h170v172h-170v108h170v210h127v-210h170v-108h-170v-172h170v-108h-170z" />
    <glyph glyph-name="perthousand" unicode="&#x2030;" horiz-adv-x="708" 
d="M209 87c24 0 43 19 43 43s-19 43 -43 43s-43 -19 -43 -43s19 -43 43 -43zM209 -4c-75 0 -134 59 -134 134s59 135 134 135s135 -60 135 -135s-60 -134 -135 -134zM209 536c24 0 43 19 43 43s-19 43 -43 43s-43 -19 -43 -43s19 -43 43 -43zM209 445
c-75 0 -134 59 -134 134s59 135 134 135s135 -60 135 -135s-60 -134 -135 -134zM55 298v114h598v-114h-598zM498 87c24 0 43 19 43 43s-19 43 -43 43s-43 -19 -43 -43s19 -43 43 -43zM498 -4c-75 0 -134 59 -134 134s59 135 134 135s135 -60 135 -135s-60 -134 -135 -134z
" />
    <glyph glyph-name="uni2117" unicode="&#x2117;" horiz-adv-x="794" 
d="M533 415c0 -57 -43 -108 -103 -111h-40v-117h-90v336h130c60 0 103 -51 103 -108zM388 380h26c20 0 31 15 31 31s-10 31 -30 31h-27v-62zM397 97c142 0 258 116 258 258s-116 258 -258 258s-258 -116 -258 -258s116 -258 258 -258zM397 -8c-200 0 -363 163 -363 363
s163 363 363 363s363 -163 363 -363s-163 -363 -363 -363z" />
    <glyph glyph-name="trademark" unicode="&#x2122;" horiz-adv-x="758" 
d="M342 355v359l178 -180l178 180v-359h-92v141l-86 -87l-86 87v-141h-92zM112 355v265h-82v90h256v-90h-82v-265h-92z" />
    <glyph glyph-name="lozenge" unicode="&#x25ca;" horiz-adv-x="664" 
d="M332 172l147 183l-147 183l-147 -183zM332 -8l-292 363l292 363l292 -363z" />
    <glyph glyph-name="afii61289" unicode="&#x2113;" horiz-adv-x="558" 
d="M324 -8c-93 0 -169 36 -189 133l-55 -44l-79 108l129 96v186c0 179 74 247 197 247c113 0 183 -72 183 -165c0 -133 -71 -198 -194 -284l-32 -26v-31c0 -64 22 -88 67 -88c37 0 66 17 92 37l57 -100c-33 -29 -86 -69 -176 -69zM284 518v-119l5 4c50 37 85 76 85 137
c0 38 -17 56 -44 56c-34 0 -46 -26 -46 -78z" />
    <glyph glyph-name="afii61352" unicode="&#x2116;" horiz-adv-x="1094" 
d="M756 339v-130h292v130h-292zM902 497c33 0 57 25 57 63s-24 63 -57 63c-32 0 -57 -25 -57 -63s25 -63 57 -63zM902 405c-85 0 -156 71 -156 155s71 155 156 155c86 0 156 -71 156 -155s-70 -155 -156 -155zM675 -8l-448 379v-371h-160v718l448 -379v371h160v-718z" />
    <glyph glyph-name="apple" horiz-adv-x="576" 
d="M288 -8c-142 0 -258 116 -258 258s116 258 258 258l-60 -151h88l-52 -137l188 194h-117l33 81c103 -34 178 -131 178 -245c0 -142 -116 -258 -258 -258z" />
    <glyph glyph-name="estimated" unicode="&#x212e;" horiz-adv-x="554" 
d="M487 143h24c-29 -85 -106 -151 -227 -151c-154 0 -254 115 -254 260c0 152 110 256 250 256c155 0 243 -114 244 -253h-382v-194c28 -29 88 -51 150 -51c86 0 165 48 195 133zM142 440v-167h270v167c-30 31 -74 50 -133 50c-57 0 -107 -23 -137 -50z" />
    <glyph glyph-name="minus" unicode="&#x2212;" horiz-adv-x="590" 
d="M77 225v114h436v-114h-436z" />
    <glyph glyph-name="lessequal" unicode="&#x2264;" horiz-adv-x="590" 
d="M496 150l-436 212l436 212v-126l-177 -86l177 -86v-126zM60 0v114h436v-114h-436z" />
    <glyph glyph-name="greaterequal" unicode="&#x2265;" horiz-adv-x="590" 
d="M94 150v126l177 86l-177 86v126l436 -212zM94 0v114h436v-114h-436z" />
    <glyph glyph-name="notequal" unicode="&#x2260;" horiz-adv-x="590" 
d="M77 328v114h265l80 110l91 -66l-32 -44h32v-114h-115l-67 -92h182v-114h-264l-81 -112l-91 66l33 46h-33v114h116l66 92h-182z" />
    <glyph glyph-name="approxequal" unicode="&#x2248;" horiz-adv-x="590" 
d="M77 75v135l137 84l162 -94l137 83v-135l-137 -84l-162 94zM77 281v135l137 84l162 -94l137 83v-135l-137 -84l-162 94z" />
    <glyph glyph-name="partialdiff" unicode="&#x2202;" horiz-adv-x="544" 
d="M272 -8c-134 0 -242 107 -242 241c0 128 102 240 230 240c35 0 78 -11 102 -32c-39 105 -136 143 -260 143h-10v126h10c260 0 412 -157 412 -415c0 -161 -59 -303 -242 -303zM272 113c67 0 115 53 115 120s-48 120 -115 120s-117 -53 -117 -120s50 -120 117 -120z" />
    <glyph glyph-name="product" unicode="&#x220f;" 
d="M77 -184v894h443v-894h-114v780h-215v-780h-114z" />
    <glyph glyph-name="radical" unicode="&#x221a;" horiz-adv-x="617" 
d="M254 -8l-130 213h-94v114h157l39 -63l206 576h175v-114h-93z" />
    <glyph glyph-name="summation" unicode="&#x2211;" horiz-adv-x="528" 
d="M40 -184v105l242 342l-242 342v105h443v-114h-292l236 -333l-236 -333h292v-114h-443z" />
    <glyph glyph-name="integral" unicode="&#x222b;" horiz-adv-x="436" 
d="M39 -194v114h53c48 0 69 22 69 71v543c0 122 59 184 201 184h35v-114h-53c-48 0 -69 -22 -69 -71v-543c0 -122 -59 -184 -201 -184h-35z" />
    <glyph glyph-name="infinity" unicode="&#x221e;" horiz-adv-x="706" 
d="M462 116c-42 0 -81 15 -110 41c-29 -26 -67 -41 -109 -41c-92 0 -166 74 -166 166s74 167 166 167c42 0 80 -16 109 -42c29 26 68 42 110 42c92 0 167 -75 167 -167s-75 -166 -167 -166zM462 230c29 0 53 23 53 52s-24 53 -53 53c-28 0 -50 -22 -52 -49v-4
c0 -29 23 -52 52 -52zM243 230c29 0 53 23 53 52s-24 53 -53 53s-52 -24 -52 -53s23 -52 52 -52z" />
    <glyph glyph-name="Delta" unicode="&#x394;" horiz-adv-x="806" 
d="M-10 0l413 718l413 -718h-826zM258 155h290l-145 252z" />
    <glyph glyph-name="Delta" unicode="&#x2206;" horiz-adv-x="806" 
d="M-10 0l413 718l413 -718h-826zM258 155h290l-145 252z" />
    <glyph glyph-name="Omega" unicode="&#x3a9;" horiz-adv-x="834" 
d="M57 0v149h72c-47 50 -75 136 -75 206c0 200 163 363 363 363s363 -163 363 -363c0 -70 -28 -156 -75 -206h72v-149h-319v150c94 20 161 105 161 205c0 114 -87 209 -202 209s-202 -95 -202 -209c0 -100 67 -185 161 -205v-150h-319z" />
    <glyph glyph-name="Omega" unicode="&#x2126;" horiz-adv-x="834" 
d="M57 0v149h72c-47 50 -75 136 -75 206c0 200 163 363 363 363s363 -163 363 -363c0 -70 -28 -156 -75 -206h72v-149h-319v150c94 20 161 105 161 205c0 114 -87 209 -202 209s-202 -95 -202 -209c0 -100 67 -185 161 -205v-150h-319z" />
    <glyph glyph-name="pi" unicode="&#x3c0;" horiz-adv-x="690" 
d="M436 0v368h-182v-368h-151v368h-69v132h622v-132h-69v-368h-151z" />
    <glyph glyph-name="Euro" unicode="&#x20ac;" horiz-adv-x="709" 
d="M25 388l22 66h61c43 152 183 264 349 264c82 0 159 -28 220 -75l-48 -142c-37 43 -102 76 -171 76c-84 0 -157 -47 -191 -123h346l-22 -66h-342c-2 -11 -2 -22 -2 -33c0 -12 0 -23 2 -33h319l-22 -66h-279c34 -77 106 -123 190 -123c70 0 120 23 164 60v-162
c-49 -25 -105 -39 -164 -39c-166 0 -306 112 -349 264h-83l22 66h48c-1 11 -1 22 -1 33s0 22 1 33h-70z" />
    <glyph glyph-name="fi" unicode="&#xfb01;" horiz-adv-x="632" 
d="M16 368v132h73c-20 22 -31 51 -31 83c0 71 52 127 135 127h155v-132h-98c-35 0 -49 -17 -49 -39s17 -39 39 -39h108v-132h-116v-368h-151v368h-65zM427 571c-13 15 -20 35 -20 57c0 50 40 90 90 90s90 -40 90 -90c0 -22 -7 -42 -20 -57h-140zM421 0v500h151v-500h-151z
" />
    <glyph glyph-name="fl" unicode="&#xfb02;" horiz-adv-x="632" 
d="M16 368v132h73c-20 22 -31 51 -31 83c0 71 52 127 135 127h155v-132h-98c-35 0 -49 -17 -49 -39s17 -39 39 -39h108v-132h-116v-368h-151v368h-65zM421 0v710h151v-710h-151z" />
    <glyph glyph-name="breve" unicode="&#x2d8;" horiz-adv-x="494" 
d="M247 546c-102 0 -184 62 -184 164h86c0 -54 44 -78 98 -78s98 24 98 78h86c0 -102 -82 -164 -184 -164z" />
    <glyph glyph-name="caron" unicode="&#x2c7;" horiz-adv-x="516" 
d="M80 637l48 91l130 -62l130 62l48 -91l-178 -91z" />
    <glyph glyph-name="circumflex" unicode="&#x2c6;" horiz-adv-x="512" 
d="M126 546l-48 91l178 91l178 -91l-48 -91l-130 62z" />
    <glyph glyph-name="dotaccent" unicode="&#x2d9;" horiz-adv-x="324" 
d="M162 560c-48 0 -87 39 -87 87s39 87 87 87s87 -39 87 -87s-39 -87 -87 -87z" />
    <glyph glyph-name="dotaccent.low" horiz-adv-x="324" 
d="M162 -214c-48 0 -87 39 -87 87s39 87 87 87s87 -39 87 -87s-39 -87 -87 -87z" />
    <glyph glyph-name="hungarumlaut" unicode="&#x2dd;" horiz-adv-x="595" 
d="M100 555l80 155h143l-143 -155h-80zM292 555l80 155h143l-143 -155h-80z" />
    <glyph glyph-name="commaaccent" horiz-adv-x="352" 
d="M96 -268l34 218h138l-85 -218h-87z" />
    <glyph glyph-name="ogonek" unicode="&#x2db;" horiz-adv-x="352" 
d="M187 -189c-59 0 -107 48 -107 107c0 33 15 62 39 82h151c-42 -20 -57 -37 -57 -56c0 -17 13 -30 30 -30c13 0 22 8 27 13v-87c-21 -21 -50 -29 -83 -29z" />
    <glyph glyph-name="ring" unicode="&#x2da;" horiz-adv-x="380" 
d="M190 619c26 0 47 21 47 47s-21 47 -47 47s-47 -21 -47 -47s21 -47 47 -47zM190 546c-66 0 -120 54 -120 120s54 120 120 120s120 -54 120 -120s-54 -120 -120 -120z" />
    <glyph glyph-name="tilde" unicode="&#x2dc;" horiz-adv-x="550" 
d="M82 554l4 29c10 74 66 116 117 116c58 0 96 -40 126 -40c23 0 35 11 43 42h96l-4 -29c-10 -74 -66 -116 -117 -116c-58 0 -96 40 -126 40c-23 0 -35 -11 -43 -42h-96z" />
    <glyph glyph-name="uni032C" unicode="&#x32c;" horiz-adv-x="500" 
d="M80 -99l52 91l126 -72l126 72l52 -91l-178 -101z" />
    <glyph glyph-name="zero.slashed" horiz-adv-x="810" 
d="M405 -8c-200 0 -366 163 -366 363s166 363 366 363s366 -163 366 -363s-166 -363 -366 -363zM405 133c125 0 214 99 214 222v7l-393 -132c37 -59 101 -97 179 -97zM191 355v-7l392 133c-37 58 -101 96 -178 96c-125 0 -214 -99 -214 -222z" />
    <glyph glyph-name="one.pof" horiz-adv-x="290" 
d="M69 0v395l152 153v-548h-152z" />
    <glyph glyph-name="two.pof" horiz-adv-x="512" 
d="M0 0l177 178c-62 33 -104 98 -104 173c0 109 90 197 198 197s198 -88 198 -197c0 -66 -37 -121 -84 -160l-71 -60h153v-131h-467zM271 295c30 0 55 24 55 56s-25 56 -55 56s-55 -24 -55 -56s25 -56 55 -56z" />
    <glyph glyph-name="three.pof" horiz-adv-x="469" 
d="M133 205l96 203h-200v132h409l-110 -232c68 -44 113 -120 113 -206c0 -145 -85 -244 -240 -244c-104 0 -179 60 -208 106l105 100c16 -27 45 -65 96 -65c58 0 95 45 95 103s-37 103 -95 103h-61z" />
    <glyph glyph-name="four.pof" horiz-adv-x="564" 
d="M329 -134v134h-344l488 548v-423h76v-125h-76v-134h-144zM253 125h76v85z" />
    <glyph glyph-name="five.pof" horiz-adv-x="507" 
d="M256 -142c-104 0 -179 60 -208 106l105 100c16 -26 43 -65 91 -65c54 0 84 45 84 90c0 46 -31 90 -88 90c-40 0 -67 -21 -80 -50l-92 45v366h359v-132h-215v-97c17 7 44 9 54 9c126 0 214 -93 214 -231s-86 -231 -224 -231z" />
    <glyph glyph-name="six.pof" horiz-adv-x="526" 
d="M264 -8c-129 0 -236 103 -236 231c0 45 16 86 36 123l184 328h171l-124 -222c114 -15 204 -112 204 -229c0 -128 -107 -231 -235 -231zM264 133c46 0 83 42 83 90s-37 90 -83 90c-47 0 -84 -42 -84 -90s37 -90 84 -90z" />
    <glyph glyph-name="seven.pof" horiz-adv-x="500" 
d="M54 -134l235 542h-261v132h482l-292 -674h-164z" />
    <glyph glyph-name="eight.pof" horiz-adv-x="541" 
d="M271 -8c-129 0 -236 103 -236 231c0 67 29 120 75 155c-23 28 -37 64 -37 107c0 109 90 197 198 197s198 -88 198 -197c0 -44 -14 -80 -38 -107c46 -36 75 -89 75 -155c0 -128 -107 -231 -235 -231zM271 133c46 0 83 42 83 90s-37 90 -83 90h-4c-45 -2 -80 -43 -80 -90
c0 -48 37 -90 84 -90zM271 429h4c28 2 51 25 51 56c0 32 -25 56 -55 56s-55 -24 -55 -56s25 -56 55 -56z" />
    <glyph glyph-name="nine.pof" horiz-adv-x="526" 
d="M107 -134l124 222c-114 15 -204 112 -204 229c0 128 107 231 235 231c129 0 236 -103 236 -231c0 -45 -16 -86 -36 -123l-184 -328h-171zM262 227c47 0 84 42 84 90s-37 90 -84 90c-46 0 -83 -42 -83 -90s37 -90 83 -90z" />
    <glyph glyph-name="zero.pof" horiz-adv-x="632" 
d="M316 133c76 0 129 62 129 137s-53 137 -129 137s-129 -62 -129 -137s53 -137 129 -137zM316 -8c-153 0 -281 125 -281 278s128 278 281 278s281 -125 281 -278s-128 -278 -281 -278z" />
    <glyph glyph-name="zero.slashed.pof" horiz-adv-x="632" 
d="M316 -8c-153 0 -281 125 -281 278s128 278 281 278s281 -125 281 -278s-128 -278 -281 -278zM316 133c73 0 125 58 129 129l-231 -79c23 -31 59 -50 102 -50zM316 407c-73 0 -126 -58 -129 -129l229 79c-23 30 -58 50 -100 50z" />
    <glyph glyph-name="one.tlf" horiz-adv-x="590" 
d="M94 0v141h138v428h-87v141h239v-569h138v-141h-428z" />
    <glyph glyph-name="two.tlf" horiz-adv-x="590" 
d="M4 0l218 269c-95 30 -164 116 -164 220c0 128 107 229 235 229s236 -101 236 -229c0 -56 -21 -106 -54 -146l-163 -202h216v-141h-524zM293 400c51 0 84 41 84 89s-33 88 -84 88s-83 -40 -83 -88s32 -89 83 -89z" />
    <glyph glyph-name="three.tlf" horiz-adv-x="590" 
d="M267 -8c-90 0 -169 38 -217 100l107 99c22 -33 53 -58 100 -58c66 0 108 41 108 107s-42 107 -108 107h-72l105 222h-207v141h429l-118 -250c77 -40 124 -118 124 -220c0 -150 -101 -248 -251 -248z" />
    <glyph glyph-name="four.tlf" horiz-adv-x="590" 
d="M341 0v160h-356l508 558v-426h66v-132h-66v-160h-152zM263 292h78v85z" />
    <glyph glyph-name="five.tlf" horiz-adv-x="590" 
d="M288 -8c-91 0 -171 37 -217 100l110 102c19 -29 49 -61 97 -61c61 0 97 45 97 96s-36 96 -97 96c-46 0 -77 -25 -90 -59l-98 41v403h387v-141h-235v-106c15 2 30 3 46 3c144 0 240 -93 240 -237s-96 -237 -240 -237z" />
    <glyph glyph-name="six.tlf" horiz-adv-x="590" 
d="M293 -8c-142 0 -249 103 -249 237c0 52 22 96 45 138l187 343h169l-134 -245c133 -8 231 -108 231 -236c0 -134 -107 -237 -249 -237zM293 325c-61 0 -97 -45 -97 -96s36 -96 97 -96s97 45 97 96s-36 96 -97 96z" />
    <glyph glyph-name="seven.tlf" horiz-adv-x="590" 
d="M75 0l258 569h-264v141h492l-322 -710h-164z" />
    <glyph glyph-name="eight.tlf" horiz-adv-x="590" 
d="M295 -8c-142 0 -249 103 -249 237c0 77 35 140 93 179c-25 30 -40 68 -40 113c0 109 87 197 196 197s196 -88 196 -197c0 -45 -15 -83 -40 -113c57 -39 93 -102 93 -179c0 -134 -107 -237 -249 -237zM295 133c61 0 97 45 97 96s-36 96 -97 96s-97 -45 -97 -96
s36 -96 97 -96zM295 465c34 0 54 26 54 56s-20 56 -54 56s-54 -26 -54 -56s20 -56 54 -56z" />
    <glyph glyph-name="nine.tlf" horiz-adv-x="590" 
d="M144 0l133 245c-133 8 -230 108 -230 236c0 134 107 237 249 237s249 -103 249 -237c0 -52 -22 -96 -45 -138l-187 -343h-169zM296 385c61 0 97 45 97 96s-36 96 -97 96s-97 -45 -97 -96s36 -96 97 -96z" />
    <glyph glyph-name="zero.tlf" horiz-adv-x="590" 
d="M295 133c76 0 129 62 129 137s-53 137 -129 137s-129 -62 -129 -137s53 -137 129 -137zM295 -8c-153 0 -281 125 -281 278s128 278 281 278s281 -125 281 -278s-128 -278 -281 -278z" />
    <glyph glyph-name="zero.slashed.tlf" horiz-adv-x="590" 
d="M295 -8c-153 0 -281 125 -281 278s128 278 281 278s281 -125 281 -278s-128 -278 -281 -278zM295 133c73 0 125 58 129 129l-231 -79c23 -31 59 -50 102 -50zM295 407c-73 0 -126 -58 -129 -129l229 79c-23 30 -58 50 -100 50z" />
    <glyph glyph-name="one.case" horiz-adv-x="331" 
d="M85 0v557l161 159v-716h-161z" />
    <glyph glyph-name="two.case" horiz-adv-x="603" 
d="M8 0l211 265c-88 35 -154 119 -154 222c0 129 109 231 237 231s238 -102 238 -231c0 -52 -19 -100 -45 -133l-163 -205h207v-149h-531zM302 404c47 0 77 39 77 83s-30 82 -77 82s-77 -38 -77 -82s30 -83 77 -83z" />
    <glyph glyph-name="three.case" horiz-adv-x="538" 
d="M242 -8c-91 0 -170 38 -219 100l112 105c22 -32 50 -56 96 -56c63 0 101 39 101 101c1 63 -39 101 -101 101h-73l100 218h-201v149h435l-114 -248c72 -42 116 -119 116 -220c0 -152 -102 -250 -252 -250z" />
    <glyph glyph-name="four.case" horiz-adv-x="604" 
d="M343 0v155h-350l511 561v-432h62v-129h-62v-155h-161zM271 284h72v85z" />
    <glyph glyph-name="five.case" horiz-adv-x="563" 
d="M276 -8c-93 0 -172 37 -218 100l115 108c19 -27 45 -59 91 -59c58 0 90 43 90 89s-33 88 -89 88c-45 0 -75 -25 -87 -60l-103 43v409h390v-149h-230v-94h41c143 0 240 -92 240 -237c0 -146 -96 -238 -240 -238z" />
    <glyph glyph-name="six.case" horiz-adv-x="555" 
d="M433 710l-132 -243c136 -10 226 -111 226 -237c0 -135 -108 -238 -251 -238s-251 103 -251 238c0 53 23 97 46 139l183 341h179zM276 319c-58 0 -90 -42 -90 -89s32 -89 90 -89s91 42 91 89s-33 89 -91 89z" />
    <glyph glyph-name="seven.case" horiz-adv-x="540" 
d="M45 0l253 561h-255v149h496l-320 -710h-174z" />
    <glyph glyph-name="eight.case" horiz-adv-x="587" 
d="M294 -8c-144 0 -251 104 -251 239c0 76 34 138 90 177c-24 29 -38 67 -38 111c0 110 89 199 199 199c109 0 197 -89 197 -199c0 -44 -14 -82 -38 -111c56 -39 91 -101 91 -177c0 -135 -108 -239 -250 -239zM294 141c57 0 90 43 90 90s-33 89 -90 89
c-58 0 -91 -42 -91 -89s33 -90 91 -90zM294 468c30 0 48 24 48 51c0 26 -18 50 -48 50c-32 0 -49 -24 -49 -50c0 -27 17 -51 49 -51z" />
    <glyph glyph-name="nine.case" horiz-adv-x="555" 
d="M122 0l132 244c-132 10 -226 110 -226 236c0 135 108 238 251 238s251 -103 251 -238c0 -53 -23 -97 -46 -139l-183 -341h-179zM279 391c58 0 90 42 90 89s-32 89 -90 89s-91 -42 -91 -89s33 -89 91 -89z" />
    <glyph glyph-name="zero.case" horiz-adv-x="826" 
d="M413 141c121 0 206 96 206 214s-85 214 -206 214c-120 0 -206 -96 -206 -214s86 -214 206 -214zM413 -8c-200 0 -366 164 -366 363s166 363 366 363s366 -164 366 -363s-166 -363 -366 -363z" />
    <glyph glyph-name="zero.slashed.case" horiz-adv-x="826" 
d="M413 -8c-200 0 -366 164 -366 363s166 363 366 363s366 -164 366 -363s-166 -363 -366 -363zM413 141c121 0 206 96 206 214v5l-377 -128c36 -55 97 -91 171 -91zM207 355v-5l376 128c-36 55 -96 91 -170 91c-120 0 -206 -96 -206 -214z" />
    <glyph glyph-name="uni21B2" unicode="&#x21b2;" horiz-adv-x="800" 
d="M242 189l160 -160l-84 -86l-306 306l306 306l84 -86l-160 -160h370v373h120v-493h-490z" />
    <glyph glyph-name="uni21B3" unicode="&#x21b3;" horiz-adv-x="800" 
d="M398 29l160 160h-490v493h120v-373h370l-160 160l84 86l306 -306l-306 -306z" />
    <glyph glyph-name="uni21B0" unicode="&#x21b0;" horiz-adv-x="800" 
d="M732 -184h-120v373h-370l160 -160l-84 -86l-306 306l306 306l84 -86l-160 -160h490v-493z" />
    <glyph glyph-name="uni21B1" unicode="&#x21b1;" horiz-adv-x="800" 
d="M188 -184h-120v493h490l-160 160l84 86l306 -306l-306 -306l-84 86l160 160h-370v-373z" />
    <glyph glyph-name="uni2190" unicode="&#x2190;" horiz-adv-x="800" 
d="M270 189l160 -160l-84 -86l-306 306l306 306l84 -86l-160 -160h490v-120h-490z" />
    <glyph glyph-name="uni2191" unicode="&#x2191;" horiz-adv-x="800" 
d="M340 490l-160 -160l-86 84l306 306l306 -306l-86 -84l-160 160v-490h-120v490z" />
    <glyph glyph-name="uni2192" unicode="&#x2192;" horiz-adv-x="800" 
d="M530 309l-160 160l84 86l306 -306l-306 -306l-84 86l160 160h-490v120h490z" />
    <glyph glyph-name="uni2193" unicode="&#x2193;" horiz-adv-x="800" 
d="M180 380l160 -160v490h120v-490l160 160l86 -84l-306 -306l-306 306z" />
    <glyph glyph-name="uni2196" unicode="&#x2196;" horiz-adv-x="800" 
d="M131 139v433h433v-121h-228l373 -372l-84 -84l-374 373v-229h-120z" />
    <glyph glyph-name="uni2197" unicode="&#x2197;" horiz-adv-x="800" 
d="M670 572v-433h-120v229l-374 -373l-84 84l373 372h-228v121h433z" />
    <glyph glyph-name="uni2198" unicode="&#x2198;" horiz-adv-x="800" 
d="M669 433v-433h-433v121h228l-373 372l84 84l374 -373v229h120z" />
    <glyph glyph-name="uni2199" unicode="&#x2199;" horiz-adv-x="800" 
d="M131 0v433h120v-229l374 373l84 -84l-373 -372h228v-121h-433z" />
    <glyph glyph-name="uni219E" unicode="&#x219e;" horiz-adv-x="800" 
d="M249 190l160 -160l-84 -86l-306 306l306 306l84 -86l-160 -160h95l246 246l84 -86l-160 -160h225v-120h-225l160 -160l-84 -86l-246 246h-95z" />
    <glyph glyph-name="uni219F" unicode="&#x219f;" horiz-adv-x="800" 
d="M340 490l-160 -160l-86 84l306 306l306 -306l-86 -84l-160 160v-95l246 -246l-86 -84l-160 160v-225h-120v225l-160 -160l-86 84l246 246v95z" />
    <glyph glyph-name="uni21A0" unicode="&#x21a0;" horiz-adv-x="800" 
d="M390 30l160 160h-95l-246 -246l-84 86l160 160h-225v120h225l-160 160l84 86l246 -246h95l-160 160l84 86l306 -306l-306 -306z" />
    <glyph glyph-name="uni21A1" unicode="&#x21a1;" horiz-adv-x="800" 
d="M180 380l160 -160v95l-246 246l86 84l160 -160v225h120v-225l160 160l86 -84l-246 -246v-95l160 160l86 -84l-306 -306l-306 306z" />
    <glyph glyph-name="uni21A2" unicode="&#x21a2;" horiz-adv-x="800" 
d="M370 470l-160 -160h260l246 246l84 -86l-221 -220l221 -220l-84 -86l-246 246h-260l160 -160l-84 -86l-306 306l306 306z" />
    <glyph glyph-name="uni21A3" unicode="&#x21a3;" horiz-adv-x="800" 
d="M590 310l-160 160l84 86l306 -306l-306 -306l-84 86l160 160h-260l-246 -246l-84 86l221 220l-221 220l84 86l246 -246h260z" />
    <glyph glyph-name="uni21A4" unicode="&#x21a4;" horiz-adv-x="800" 
d="M247 190l160 -160l-84 -86l-306 306l306 306l84 -86l-160 -160h371v190h119v-500h-119v190h-371z" />
    <glyph glyph-name="uni21A5" unicode="&#x21a5;" horiz-adv-x="800" 
d="M340 490l-160 -160l-86 84l306 306l306 -306l-86 -84l-160 160v-371h190v-119h-500v119h190v371z" />
    <glyph glyph-name="uni21A6" unicode="&#x21a6;" horiz-adv-x="800" 
d="M434 30l160 160h-371v-190h-119v500h119v-190h371l-160 160l84 86l306 -306l-306 -306z" />
    <glyph glyph-name="uni21A7" unicode="&#x21a7;" horiz-adv-x="800" 
d="M180 380l160 -160v371h-190v119h500v-119h-190v-371l160 160l86 -84l-306 -306l-306 306z" />
    <glyph glyph-name="uni25A0" unicode="&#x25a0;" horiz-adv-x="618" 
d="M59 0v500h500v-500h-500z" />
    <glyph glyph-name="uni25A1" unicode="&#x25a1;" horiz-adv-x="618" 
d="M59 0v500h500v-500h-500zM211 348v-196h196v196h-196z" />
    <glyph glyph-name="uni25CB" unicode="&#x25cb;" horiz-adv-x="576" 
d="M288 144c59 0 106 47 106 106s-47 106 -106 106s-106 -47 -106 -106s47 -106 106 -106zM288 -8c-142 0 -258 116 -258 258s116 258 258 258s258 -116 258 -258s-116 -258 -258 -258z" />
    <glyph glyph-name="uni25CF" unicode="&#x25cf;" horiz-adv-x="576" 
d="M288 -8c-142 0 -258 116 -258 258s116 258 258 258s258 -116 258 -258s-116 -258 -258 -258z" />
    <glyph glyph-name="onethird" unicode="&#x2153;" horiz-adv-x="859" 
d="M100 284v330l100 99v-429h-100zM75 0h130l500 710h-130zM657 -5c-55 0 -102 23 -132 60l70 66c12 -19 28 -33 55 -33c37 0 58 22 58 58c1 37 -22 58 -57 58h-45l58 130h-119v92h264l-66 -148c41 -26 66 -72 66 -132c0 -92 -61 -151 -152 -151z" />
    <glyph glyph-name="uni2155" unicode="&#x2155;" horiz-adv-x="855" 
d="M100 284v330l100 99v-429h-100zM75 0h130l500 710h-130zM661 -5c-56 0 -103 22 -131 60l71 68c11 -16 26 -35 53 -35c32 0 51 24 51 50s-19 50 -51 50c-27 0 -44 -15 -51 -36l-64 26v248h236v-92h-136v-55c7 1 17 2 22 2c86 0 144 -55 144 -143s-58 -143 -144 -143z" />
    <glyph glyph-name="uni2159" unicode="&#x2159;" horiz-adv-x="833" 
d="M100 284v330l100 99v-429h-100zM75 0h130l500 710h-130zM657 -5c-87 0 -152 62 -152 143c0 32 14 59 28 84l108 204h112l-79 -145c81 -9 134 -70 134 -143c0 -81 -65 -143 -151 -143zM657 88c33 0 52 24 52 50c0 27 -19 51 -52 51s-52 -24 -52 -51c0 -26 19 -50 52 -50z
" />
    <glyph glyph-name="oneeighth" unicode="&#x215b;" horiz-adv-x="842" 
d="M100 284v330l100 99v-429h-100zM75 0h130l500 710h-130zM661 -5c-86 0 -151 63 -151 144c0 45 20 82 52 106c-13 17 -21 39 -21 65c0 67 54 121 120 121s119 -54 119 -121c0 -26 -8 -48 -21 -65c32 -24 53 -61 53 -106c0 -81 -65 -144 -151 -144zM661 88
c33 0 51 24 51 51s-18 51 -51 51s-52 -24 -52 -51s19 -51 52 -51zM661 282c17 0 27 14 27 28c0 15 -10 28 -27 28c-18 0 -27 -13 -27 -28c0 -14 9 -28 27 -28z" />
    <glyph glyph-name="twothirds" unicode="&#x2154;" horiz-adv-x="957" 
d="M6 284l125 158c-51 23 -90 72 -90 133c0 78 66 140 143 140s144 -62 144 -140c0 -30 -10 -57 -23 -75l-98 -124h121v-92h-322zM184 528c27 0 44 22 44 47s-17 47 -44 47c-26 0 -43 -22 -43 -47s17 -47 43 -47zM173 0h130l500 710h-130zM755 -5c-55 0 -102 23 -132 60
l70 66c12 -19 28 -33 55 -33c37 0 58 22 58 58c1 37 -22 58 -57 58h-45l58 130h-119v92h264l-66 -148c41 -26 66 -72 66 -132c0 -92 -61 -151 -152 -151z" />
    <glyph glyph-name="uni2156" unicode="&#x2156;" horiz-adv-x="953" 
d="M6 284l125 158c-51 23 -90 72 -90 133c0 78 66 140 143 140s144 -62 144 -140c0 -30 -10 -57 -23 -75l-98 -124h121v-92h-322zM184 528c27 0 44 22 44 47s-17 47 -44 47c-26 0 -43 -22 -43 -47s17 -47 43 -47zM173 0h130l500 710h-130zM759 -5c-56 0 -103 22 -131 60
l71 68c11 -16 26 -35 53 -35c32 0 51 24 51 50s-19 50 -51 50c-27 0 -44 -15 -51 -36l-64 26v248h236v-92h-136v-55c7 1 17 2 22 2c86 0 144 -55 144 -143s-58 -143 -144 -143z" />
    <glyph glyph-name="uni2157" unicode="&#x2157;" horiz-adv-x="934" 
d="M177 279c-55 0 -102 23 -132 60l70 66c12 -19 28 -33 55 -33c37 0 58 22 58 58c1 37 -22 58 -57 58h-45l58 130h-119v92h264l-66 -148c41 -26 66 -72 66 -132c0 -92 -61 -151 -152 -151zM154 0h130l500 710h-130zM740 -5c-56 0 -103 22 -131 60l71 68
c11 -16 26 -35 53 -35c32 0 51 24 51 50s-19 50 -51 50c-27 0 -44 -15 -51 -36l-64 26v248h236v-92h-136v-55c7 1 17 2 22 2c86 0 144 -55 144 -143s-58 -143 -144 -143z" />
    <glyph glyph-name="threeeighths" unicode="&#x215c;" horiz-adv-x="921" 
d="M177 279c-55 0 -102 23 -132 60l70 66c12 -19 28 -33 55 -33c37 0 58 22 58 58c1 37 -22 58 -57 58h-45l58 130h-119v92h264l-66 -148c41 -26 66 -72 66 -132c0 -92 -61 -151 -152 -151zM154 0h130l500 710h-130zM740 -5c-86 0 -151 63 -151 144c0 45 20 82 52 106
c-13 17 -21 39 -21 65c0 67 54 121 120 121s119 -54 119 -121c0 -26 -8 -48 -21 -65c32 -24 53 -61 53 -106c0 -81 -65 -144 -151 -144zM740 88c33 0 51 24 51 51s-18 51 -51 51s-52 -24 -52 -51s19 -51 52 -51zM740 282c17 0 27 14 27 28c0 15 -10 28 -27 28
c-18 0 -27 -13 -27 -28c0 -14 9 -28 27 -28z" />
    <glyph glyph-name="uni2158" unicode="&#x2158;" horiz-adv-x="919" 
d="M177 284v91h-217l307 338v-257h37v-81h-37v-91h-90zM126 456h51v54zM139 0h130l500 710h-130zM725 -5c-56 0 -103 22 -131 60l71 68c11 -16 26 -35 53 -35c32 0 51 24 51 50s-19 50 -51 50c-27 0 -44 -15 -51 -36l-64 26v248h236v-92h-136v-55c7 1 17 2 22 2
c86 0 144 -55 144 -143s-58 -143 -144 -143z" />
    <glyph glyph-name="uni215A" unicode="&#x215a;" horiz-adv-x="908" 
d="M181 279c-56 0 -103 22 -131 60l71 68c11 -16 26 -35 53 -35c32 0 51 24 51 50s-19 50 -51 50c-27 0 -44 -15 -51 -36l-64 26v248h236v-92h-136v-55c7 1 17 2 22 2c86 0 144 -55 144 -143s-58 -143 -144 -143zM150 0h130l500 710h-130zM732 -5c-87 0 -152 62 -152 143
c0 32 14 59 28 84l108 204h112l-79 -145c81 -9 134 -70 134 -143c0 -81 -65 -143 -151 -143zM732 88c33 0 52 24 52 50c0 27 -19 51 -52 51s-52 -24 -52 -51c0 -26 19 -50 52 -50z" />
    <glyph glyph-name="fiveeighths" unicode="&#x215d;" horiz-adv-x="917" 
d="M181 279c-56 0 -103 22 -131 60l71 68c11 -16 26 -35 53 -35c32 0 51 24 51 50s-19 50 -51 50c-27 0 -44 -15 -51 -36l-64 26v248h236v-92h-136v-55c7 1 17 2 22 2c86 0 144 -55 144 -143s-58 -143 -144 -143zM150 0h130l500 710h-130zM736 -5c-86 0 -151 63 -151 144
c0 45 20 82 52 106c-13 17 -21 39 -21 65c0 67 54 121 120 121s119 -54 119 -121c0 -26 -8 -48 -21 -65c32 -24 53 -61 53 -106c0 -81 -65 -144 -151 -144zM736 88c33 0 51 24 51 51s-18 51 -51 51s-52 -24 -52 -51s19 -51 52 -51zM736 282c17 0 27 14 27 28
c0 15 -10 28 -27 28c-18 0 -27 -13 -27 -28c0 -14 9 -28 27 -28z" />
    <glyph glyph-name="seveneighths" unicode="&#x215e;" horiz-adv-x="831" 
d="M30 284l149 334h-149v92h299l-191 -426h-108zM64 0h130l500 710h-130zM650 -5c-86 0 -151 63 -151 144c0 45 20 82 52 106c-13 17 -21 39 -21 65c0 67 54 121 120 121s119 -54 119 -121c0 -26 -8 -48 -21 -65c32 -24 53 -61 53 -106c0 -81 -65 -144 -151 -144zM650 88
c33 0 51 24 51 51s-18 51 -51 51s-52 -24 -52 -51s19 -51 52 -51zM650 282c17 0 27 14 27 28c0 15 -10 28 -27 28c-18 0 -27 -13 -27 -28c0 -14 9 -28 27 -28z" />
    <glyph glyph-name="uni215F" unicode="&#x215f;" horiz-adv-x="480" 
d="M100 284v330l100 99v-429h-100zM75 0h130l500 710h-130z" />
    <glyph glyph-name="fraction" unicode="&#x2044;" horiz-adv-x="180" 
d="M-95 0h-130l500 710h130z" />
    <glyph glyph-name="a.superior" horiz-adv-x="353" 
d="M18 560c0 80 51 155 140 155c28 0 52 -10 68 -26v21h94v-300h-94v20c-16 -16 -40 -25 -68 -25c-89 0 -140 75 -140 155zM180 495c19 0 31 7 41 21v88c-10 14 -22 21 -41 21c-41 0 -63 -30 -63 -65s22 -65 63 -65z" />
    <glyph glyph-name="b.superior" horiz-adv-x="353" 
d="M33 410v426h99v-142c16 13 37 21 63 21c89 0 140 -75 140 -155s-51 -155 -140 -155c-28 0 -52 9 -68 25v-20h-94zM173 625c-19 0 -31 -7 -41 -21v-88c10 -14 22 -21 41 -21c41 0 63 30 63 65s-22 65 -63 65z" />
    <glyph glyph-name="c.superior" horiz-adv-x="313" 
d="M172 405c-85 0 -156 71 -156 155s71 155 156 155c58 0 110 -31 138 -78l-82 -53c-11 24 -31 39 -56 39c-32 0 -57 -25 -57 -63s25 -63 57 -63c25 0 45 15 56 39l82 -53c-28 -47 -80 -78 -138 -78z" />
    <glyph glyph-name="d.superior" horiz-adv-x="353" 
d="M226 410v20c-16 -16 -40 -25 -68 -25c-89 0 -140 75 -140 155s51 155 140 155c25 0 47 -8 63 -21v142h99v-426h-94zM180 495c19 0 31 7 41 21v88c-10 14 -22 21 -41 21c-41 0 -63 -30 -63 -65s22 -65 63 -65z" />
    <glyph glyph-name="e.superior" horiz-adv-x="332" 
d="M168 405c-76 0 -152 61 -152 155c0 88 61 155 155 155c74 0 147 -47 145 -141c0 -10 -1 -20 -2 -30h-204c3 -39 37 -50 57 -50c31 0 49 15 60 39l81 -49c-28 -48 -78 -79 -140 -79zM166 638c-17 0 -48 -5 -56 -40h111c-4 29 -30 40 -55 40z" />
    <glyph glyph-name="f.superior" horiz-adv-x="218" 
d="M9 624v86h42c-11 13 -18 30 -18 49c0 43 31 77 80 77h98v-86h-58c-20 0 -26 -10 -26 -21c0 -10 7 -18 17 -19h67v-86h-67v-214h-99v214h-36z" />
    <glyph glyph-name="g.superior" horiz-adv-x="346" 
d="M221 426c0 5 -1 14 -8 22c-14 -10 -38 -19 -64 -19c-88 0 -136 74 -136 143s48 143 136 143c29 0 56 -12 69 -23v18h94v-243c9 -21 13 -40 13 -58c0 -84 -89 -115 -157 -115c-46 0 -91 5 -137 32l42 86c25 -18 53 -29 87 -29c33 0 61 11 61 43zM112 572
c0 -24 17 -53 56 -53c18 0 33 5 45 16v74c-12 10 -27 16 -45 16c-39 0 -56 -29 -56 -53z" />
    <glyph glyph-name="h.superior" horiz-adv-x="361" 
d="M33 410v426h99v-141c15 11 36 20 64 20c88 0 134 -58 134 -141v-164h-99v143c0 43 -13 72 -51 72c-16 0 -34 -7 -48 -19v-196h-99z" />
    <glyph glyph-name="i.superior" horiz-adv-x="166" 
d="M38 747c-8 10 -12 22 -12 36c0 32 25 58 57 58s58 -26 58 -58c0 -14 -5 -27 -13 -36h-90zM33 410v300h100v-300h-100z" />
    <glyph glyph-name="j.superior" horiz-adv-x="165" 
d="M-30 300v93h14c28 0 48 7 48 35v282h100v-296c0 -74 -59 -114 -141 -114h-21zM37 747c-8 10 -12 22 -12 36c0 32 25 58 57 58s58 -26 58 -58c0 -14 -5 -27 -13 -36h-90z" />
    <glyph glyph-name="k.superior" horiz-adv-x="342" 
d="M33 410v426h99v-264l90 138h114l-93 -142l109 -158h-116l-104 150v-150h-99z" />
    <glyph glyph-name="l.superior" horiz-adv-x="166" 
d="M33 410v426h100v-426h-100z" />
    <glyph glyph-name="m.superior" horiz-adv-x="535" 
d="M405 410v143c0 41 -8 71 -45 71c-18 0 -34 -7 -45 -19c2 -10 3 -20 3 -31v-164h-99v143c0 41 -8 71 -45 71c-17 0 -31 -6 -42 -16v-198h-99v300h94v-18c12 11 37 23 68 23c34 0 63 -12 84 -34c13 12 43 34 96 34c95 0 129 -66 129 -141v-164h-99z" />
    <glyph glyph-name="n.superior" unicode="&#x207f;" horiz-adv-x="361" 
d="M33 410v300h94v-19c15 13 38 24 69 24c88 0 134 -58 134 -141v-164h-99v143c0 43 -13 72 -51 72c-16 0 -34 -7 -48 -19v-196h-99z" />
    <glyph glyph-name="o.superior" horiz-adv-x="344" 
d="M172 497c33 0 57 25 57 63s-24 63 -57 63c-32 0 -57 -25 -57 -63s25 -63 57 -63zM172 405c-85 0 -156 71 -156 155s71 155 156 155c86 0 156 -71 156 -155s-70 -155 -156 -155z" />
    <glyph glyph-name="p.superior" horiz-adv-x="353" 
d="M33 300v410h94v-21c16 16 40 26 68 26c89 0 140 -75 140 -155s-51 -155 -140 -155c-26 0 -47 7 -63 21v-126h-99zM173 625c-19 0 -31 -7 -41 -21v-88c10 -14 22 -21 41 -21c41 0 63 30 63 65s-22 65 -63 65z" />
    <glyph glyph-name="q.superior" horiz-adv-x="353" 
d="M221 300v126c-16 -14 -38 -21 -63 -21c-89 0 -140 75 -140 155s51 155 140 155c28 0 52 -10 68 -26v21h94v-410h-99zM180 495c19 0 31 7 41 21v88c-10 14 -22 21 -41 21c-41 0 -63 -30 -63 -65s22 -65 63 -65z" />
    <glyph glyph-name="r.superior" horiz-adv-x="240" 
d="M33 410v300h94v-30c16 22 41 35 71 35c10 0 23 -1 36 -6v-103c-16 9 -34 13 -51 13c-19 0 -38 -6 -51 -16v-193h-99z" />
    <glyph glyph-name="s.superior" horiz-adv-x="249" 
d="M125 405c-54 0 -96 20 -124 65l70 47c12 -20 32 -34 58 -34c12 0 19 4 19 12s-9 13 -37 23l-14 5c-55 20 -81 53 -81 96c0 57 47 96 105 96c39 0 72 -14 95 -46l-52 -57c-12 15 -25 27 -43 27c-10 0 -18 -3 -18 -11c0 -9 9 -13 40 -25l10 -4c59 -24 81 -53 81 -96
c0 -64 -49 -98 -109 -98z" />
    <glyph glyph-name="t.superior" horiz-adv-x="253" 
d="M13 624l-22 86h59v41l99 48v-89h100l-23 -86h-77v-91c0 -24 11 -33 32 -33h52v-90h-91c-56 0 -92 36 -92 93v121h-37z" />
    <glyph glyph-name="u.superior" horiz-adv-x="362" 
d="M235 410v23c-20 -18 -50 -28 -73 -28c-83 0 -130 57 -130 141v164h99v-143c0 -44 14 -72 47 -72c18 0 40 8 52 24v191h99v-300h-94z" />
    <glyph glyph-name="v.superior" horiz-adv-x="332" 
d="M166 405l-178 305h115l63 -115l64 115h114z" />
    <glyph glyph-name="w.superior" horiz-adv-x="439" 
d="M93 410l-96 300h105l46 -158l72 163l72 -163l46 158h104l-95 -300h-76l-51 110l-52 -110h-75z" />
    <glyph glyph-name="x.superior" horiz-adv-x="331" 
d="M-5 410l106 151l-101 149h115l50 -80l51 80h115l-101 -149l107 -151h-115l-56 84l-56 -84h-115z" />
    <glyph glyph-name="y.superior" horiz-adv-x="313" 
d="M67 300l37 105l-108 305h105l55 -183l56 183h105l-144 -410h-106z" />
    <glyph glyph-name="z.superior" horiz-adv-x="309" 
d="M6 410l131 215h-114v85h278l-130 -215h121v-85h-286z" />
    <glyph glyph-name="four.superior" unicode="&#x2074;" horiz-adv-x="354" 
d="M208 410v91h-217l307 338v-257h37v-81h-37v-91h-90zM157 582h51v54z" />
    <glyph glyph-name="five.superior" unicode="&#x2075;" horiz-adv-x="328" 
d="M162 405c-56 0 -103 22 -131 60l71 68c11 -16 26 -35 53 -35c32 0 51 24 51 50s-19 50 -51 50c-27 0 -44 -15 -51 -36l-64 26v248h236v-92h-136v-55c7 1 15 2 22 2c86 0 144 -55 144 -143s-58 -143 -144 -143z" />
    <glyph glyph-name="six.superior" unicode="&#x2076;" horiz-adv-x="322" 
d="M160 405c-87 0 -152 62 -152 143c0 32 14 59 28 84l108 204h112l-79 -145c80 -8 134 -69 134 -143c0 -81 -65 -143 -151 -143zM160 498c33 0 52 24 52 50c0 27 -19 51 -52 51s-52 -24 -52 -51c0 -26 19 -50 52 -50z" />
    <glyph glyph-name="seven.superior" unicode="&#x2077;" horiz-adv-x="314" 
d="M22 410l149 334h-149v92h299l-191 -426h-108z" />
    <glyph glyph-name="eight.superior" unicode="&#x2078;" horiz-adv-x="340" 
d="M170 405c-86 0 -151 63 -151 144c0 45 20 82 52 106c-13 17 -21 39 -21 65c0 67 54 121 120 121s119 -54 119 -121c0 -26 -8 -48 -21 -65c32 -24 53 -61 53 -106c0 -81 -65 -144 -151 -144zM170 498c33 0 51 24 51 51s-18 51 -51 51s-52 -24 -52 -51s19 -51 52 -51z
M170 692c17 0 27 14 27 28c0 15 -10 28 -27 28c-18 0 -27 -13 -27 -28c0 -14 9 -28 27 -28z" />
    <glyph glyph-name="nine.superior" unicode="&#x2079;" horiz-adv-x="322" 
d="M66 410l79 145c-81 8 -134 69 -134 143c0 81 65 143 151 143c87 0 152 -62 152 -143c0 -32 -14 -59 -28 -84l-108 -204h-112zM162 647c34 0 52 24 52 51c0 26 -18 50 -52 50c-33 0 -52 -24 -52 -50c0 -27 19 -51 52 -51z" />
    <glyph glyph-name="zero.superior" unicode="&#x2070;" horiz-adv-x="488" 
d="M244 498c71 0 120 56 120 125s-49 125 -120 125c-70 0 -120 -56 -120 -125s50 -125 120 -125zM244 405c-120 0 -220 99 -220 218s100 218 220 218s220 -99 220 -218s-100 -218 -220 -218z" />
    <glyph glyph-name="zero.slashed.superior" horiz-adv-x="488" 
d="M255 405c-120 0 -220 99 -220 218s100 218 220 218s220 -99 220 -218s-100 -218 -220 -218zM255 748c-68 0 -117 -53 -120 -119l214 73c-21 28 -54 46 -94 46zM255 498c68 0 117 52 120 118l-215 -72c22 -28 55 -46 95 -46z" />
    <glyph glyph-name="period.superior" horiz-adv-x="208" 
d="M104 405c-39 0 -69 31 -69 69c0 39 30 70 69 70c38 0 69 -31 69 -70c0 -38 -31 -69 -69 -69z" />
    <glyph glyph-name="hyphen.superior" horiz-adv-x="227" 
d="M26 574v93h175v-93h-175z" />
    <glyph glyph-name="comma.superior" horiz-adv-x="193" 
d="M57 316l26 94h-42v111h111v-111l-39 -94h-56z" />
    <glyph glyph-name="equal.superior" unicode="&#x207c;" horiz-adv-x="321" 
d="M31 522v74h260v-74h-260zM31 645v73h260v-73h-260z" />
    <glyph glyph-name="plus.superior" unicode="&#x207a;" horiz-adv-x="322" 
d="M31 583v74h93v95h74v-95h94v-74h-94v-94h-74v94h-93z" />
    <glyph glyph-name="minus.superior" unicode="&#x207b;" horiz-adv-x="322" 
d="M31 583v74h261v-74h-261z" />
    <glyph glyph-name="parenleft.superior" unicode="&#x207d;" horiz-adv-x="174" 
d="M99 315c-45 81 -66 173 -66 279c0 105 21 197 66 279l73 -32c-33 -80 -56 -165 -56 -247c0 -83 23 -168 56 -248z" />
    <glyph glyph-name="parenright.superior" unicode="&#x207e;" horiz-adv-x="174" 
d="M73 315l-72 31c33 80 56 165 56 248c0 82 -23 167 -56 247l72 32c46 -82 66 -174 66 -279c0 -106 -20 -198 -66 -279z" />
    <glyph glyph-name="a.inferior" horiz-adv-x="353" 
d="M18 35c0 80 51 155 140 155c28 0 52 -10 68 -26v21h94v-300h-94v20c-16 -16 -40 -25 -68 -25c-89 0 -140 75 -140 155zM180 -30c19 0 31 7 41 21v88c-10 14 -22 21 -41 21c-41 0 -63 -30 -63 -65s22 -65 63 -65z" />
    <glyph glyph-name="b.inferior" horiz-adv-x="353" 
d="M33 -115v426h99v-142c16 13 37 21 63 21c89 0 140 -75 140 -155s-51 -155 -140 -155c-28 0 -52 9 -68 25v-20h-94zM173 100c-19 0 -31 -7 -41 -21v-88c10 -14 22 -21 41 -21c41 0 63 30 63 65s-22 65 -63 65z" />
    <glyph glyph-name="c.inferior" horiz-adv-x="313" 
d="M172 -120c-85 0 -156 71 -156 155s71 155 156 155c58 0 110 -31 138 -78l-82 -53c-11 24 -31 39 -56 39c-32 0 -57 -25 -57 -63s25 -63 57 -63c25 0 45 15 56 39l82 -53c-28 -47 -80 -78 -138 -78z" />
    <glyph glyph-name="d.inferior" horiz-adv-x="353" 
d="M226 -115v20c-16 -16 -40 -25 -68 -25c-89 0 -140 75 -140 155s51 155 140 155c25 0 47 -8 63 -21v142h99v-426h-94zM180 -30c19 0 31 7 41 21v88c-10 14 -22 21 -41 21c-41 0 -63 -30 -63 -65s22 -65 63 -65z" />
    <glyph glyph-name="e.inferior" horiz-adv-x="332" 
d="M168 -120c-76 0 -152 61 -152 155c0 88 61 155 155 155c74 0 147 -47 145 -141c0 -10 -1 -20 -2 -30h-204c3 -39 37 -50 57 -50c31 0 49 15 60 39l81 -49c-28 -48 -78 -79 -140 -79zM166 113c-17 0 -48 -5 -56 -40h111c-4 29 -30 40 -55 40z" />
    <glyph glyph-name="f.inferior" horiz-adv-x="218" 
d="M9 99v86h42c-11 13 -18 30 -18 49c0 43 31 77 80 77h98v-86h-58c-20 0 -26 -10 -26 -21c0 -10 7 -18 17 -19h67v-86h-67v-214h-99v214h-36z" />
    <glyph glyph-name="g.inferior" horiz-adv-x="346" 
d="M221 -99c0 5 -1 14 -8 22c-14 -10 -38 -19 -64 -19c-88 0 -136 74 -136 143s48 143 136 143c29 0 56 -12 69 -23v18h94v-243c9 -21 13 -40 13 -58c0 -84 -89 -115 -157 -115c-46 0 -91 5 -137 32l42 86c25 -18 53 -29 87 -29c33 0 61 11 61 43zM112 47
c0 -24 17 -53 56 -53c18 0 33 5 45 16v74c-12 10 -27 16 -45 16c-39 0 -56 -29 -56 -53z" />
    <glyph glyph-name="h.inferior" horiz-adv-x="361" 
d="M33 -115v426h99v-141c15 11 36 20 64 20c88 0 134 -58 134 -141v-164h-99v143c0 43 -13 72 -51 72c-16 0 -34 -7 -48 -19v-196h-99z" />
    <glyph glyph-name="i.inferior" horiz-adv-x="166" 
d="M38 222c-8 10 -12 22 -12 36c0 32 25 58 57 58s58 -26 58 -58c0 -14 -5 -27 -13 -36h-90zM33 -115v300h100v-300h-100z" />
    <glyph glyph-name="j.inferior" horiz-adv-x="165" 
d="M-30 -225v93h14c28 0 48 7 48 35v282h100v-296c0 -74 -59 -114 -141 -114h-21zM37 222c-8 10 -12 22 -12 36c0 32 25 58 57 58s58 -26 58 -58c0 -14 -5 -27 -13 -36h-90z" />
    <glyph glyph-name="k.inferior" horiz-adv-x="342" 
d="M33 -115v426h99v-264l90 138h114l-93 -142l109 -158h-116l-104 150v-150h-99z" />
    <glyph glyph-name="l.inferior" horiz-adv-x="166" 
d="M33 -115v426h100v-426h-100z" />
    <glyph glyph-name="m.inferior" horiz-adv-x="535" 
d="M405 -115v143c0 41 -8 71 -45 71c-18 0 -34 -7 -45 -19c2 -10 3 -20 3 -31v-164h-99v143c0 41 -8 71 -45 71c-17 0 -31 -6 -42 -16v-198h-99v300h94v-18c12 11 37 23 68 23c34 0 63 -12 84 -34c13 12 43 34 96 34c95 0 129 -66 129 -141v-164h-99z" />
    <glyph glyph-name="n.inferior" horiz-adv-x="361" 
d="M33 -115v300h94v-19c15 13 38 24 69 24c88 0 134 -58 134 -141v-164h-99v143c0 43 -13 72 -51 72c-16 0 -34 -7 -48 -19v-196h-99z" />
    <glyph glyph-name="o.inferior" horiz-adv-x="344" 
d="M172 -28c33 0 57 25 57 63s-24 63 -57 63c-32 0 -57 -25 -57 -63s25 -63 57 -63zM172 -120c-85 0 -156 71 -156 155s71 155 156 155c86 0 156 -71 156 -155s-70 -155 -156 -155z" />
    <glyph glyph-name="p.inferior" horiz-adv-x="353" 
d="M33 -225v410h94v-21c16 16 40 26 68 26c89 0 140 -75 140 -155s-51 -155 -140 -155c-26 0 -47 7 -63 21v-126h-99zM173 100c-19 0 -31 -7 -41 -21v-88c10 -14 22 -21 41 -21c41 0 63 30 63 65s-22 65 -63 65z" />
    <glyph glyph-name="q.inferior" horiz-adv-x="353" 
d="M221 -225v126c-16 -14 -38 -21 -63 -21c-89 0 -140 75 -140 155s51 155 140 155c28 0 52 -10 68 -26v21h94v-410h-99zM180 -30c19 0 31 7 41 21v88c-10 14 -22 21 -41 21c-41 0 -63 -30 -63 -65s22 -65 63 -65z" />
    <glyph glyph-name="r.inferior" horiz-adv-x="240" 
d="M33 -115v300h94v-30c16 22 41 35 71 35c10 0 23 -1 36 -6v-103c-16 9 -34 13 -51 13c-19 0 -38 -6 -51 -16v-193h-99z" />
    <glyph glyph-name="s.inferior" horiz-adv-x="249" 
d="M125 -120c-54 0 -96 20 -124 65l70 47c12 -20 32 -34 58 -34c12 0 19 4 19 12s-9 13 -37 23l-14 5c-55 20 -81 53 -81 96c0 57 47 96 105 96c39 0 72 -14 95 -46l-52 -57c-12 15 -25 27 -43 27c-10 0 -18 -3 -18 -11c0 -9 9 -13 40 -25l10 -4c59 -24 81 -53 81 -96
c0 -64 -49 -98 -109 -98z" />
    <glyph glyph-name="t.inferior" horiz-adv-x="253" 
d="M13 99l-22 86h59v41l99 48v-89h100l-23 -86h-77v-91c0 -24 11 -33 32 -33h52v-90h-91c-56 0 -92 36 -92 93v121h-37z" />
    <glyph glyph-name="u.inferior" horiz-adv-x="362" 
d="M235 -115v23c-20 -18 -50 -28 -73 -28c-83 0 -130 57 -130 141v164h99v-143c0 -44 14 -72 47 -72c18 0 40 8 52 24v191h99v-300h-94z" />
    <glyph glyph-name="v.inferior" horiz-adv-x="332" 
d="M166 -120l-178 305h115l63 -115l64 115h114z" />
    <glyph glyph-name="w.inferior" horiz-adv-x="439" 
d="M93 -115l-96 300h105l46 -158l72 163l72 -163l46 158h104l-95 -300h-76l-51 110l-52 -110h-75z" />
    <glyph glyph-name="x.inferior" horiz-adv-x="331" 
d="M-5 -115l106 151l-101 149h115l50 -80l51 80h115l-101 -149l107 -151h-115l-56 84l-56 -84h-115z" />
    <glyph glyph-name="y.inferior" horiz-adv-x="313" 
d="M67 -225l37 105l-108 305h105l55 -183l56 183h105l-144 -410h-106z" />
    <glyph glyph-name="z.inferior" horiz-adv-x="309" 
d="M6 -115l131 215h-114v85h278l-130 -215h121v-85h-286z" />
    <glyph glyph-name="one.inferior" unicode="&#x2081;" horiz-adv-x="186" 
d="M43 -115v330l100 99v-429h-100z" />
    <glyph glyph-name="two.inferior" unicode="&#x2082;" horiz-adv-x="351" 
d="M-4 -115l125 158c-51 23 -90 72 -90 133c0 78 66 140 143 140s144 -62 144 -140c0 -30 -10 -57 -23 -75l-98 -124h121v-92h-322zM174 129c27 0 44 22 44 47s-17 47 -44 47c-26 0 -43 -22 -43 -47s17 -47 43 -47z" />
    <glyph glyph-name="three.inferior" unicode="&#x2083;" horiz-adv-x="312" 
d="M139 -120c-55 0 -102 23 -132 60l70 66c12 -19 28 -33 55 -33c37 0 58 22 58 58c1 37 -22 58 -57 58h-45l58 130h-119v92h264l-66 -148c41 -26 66 -72 66 -132c0 -92 -61 -151 -152 -151z" />
    <glyph glyph-name="four.inferior" unicode="&#x2084;" horiz-adv-x="354" 
d="M208 -115v91h-217l307 338v-257h37v-81h-37v-91h-90zM157 57h51v54z" />
    <glyph glyph-name="five.inferior" unicode="&#x2085;" horiz-adv-x="328" 
d="M162 -120c-56 0 -103 22 -131 60l71 68c11 -16 26 -35 53 -35c32 0 51 24 51 50s-19 50 -51 50c-27 0 -44 -15 -51 -36l-64 26v248h236v-92h-136v-55c7 1 15 2 22 2c86 0 144 -55 144 -143s-58 -143 -144 -143z" />
    <glyph glyph-name="six.inferior" unicode="&#x2086;" horiz-adv-x="322" 
d="M160 -120c-87 0 -152 62 -152 143c0 32 14 59 28 84l108 204h112l-79 -145c80 -8 134 -69 134 -143c0 -81 -65 -143 -151 -143zM160 -27c33 0 52 24 52 50c0 27 -19 51 -52 51s-52 -24 -52 -51c0 -26 19 -50 52 -50z" />
    <glyph glyph-name="seven.inferior" unicode="&#x2087;" horiz-adv-x="314" 
d="M22 -115l149 334h-149v92h299l-191 -426h-108z" />
    <glyph glyph-name="eight.inferior" unicode="&#x2088;" horiz-adv-x="340" 
d="M170 -120c-86 0 -151 63 -151 144c0 45 20 82 52 106c-13 17 -21 39 -21 65c0 67 54 121 120 121s119 -54 119 -121c0 -26 -8 -48 -21 -65c32 -24 53 -61 53 -106c0 -81 -65 -144 -151 -144zM170 -27c33 0 51 24 51 51s-18 51 -51 51s-52 -24 -52 -51s19 -51 52 -51z
M170 167c17 0 27 14 27 28c0 15 -10 28 -27 28c-18 0 -27 -13 -27 -28c0 -14 9 -28 27 -28z" />
    <glyph glyph-name="nine.inferior" unicode="&#x2089;" horiz-adv-x="322" 
d="M66 -115l79 145c-81 8 -134 69 -134 143c0 81 65 143 151 143c87 0 152 -62 152 -143c0 -32 -14 -59 -28 -84l-108 -204h-112zM162 122c34 0 52 24 52 51c0 26 -18 50 -52 50c-33 0 -52 -24 -52 -50c0 -27 19 -51 52 -51z" />
    <glyph glyph-name="zero.inferior" unicode="&#x2080;" horiz-adv-x="488" 
d="M244 -27c71 0 120 56 120 125s-49 125 -120 125c-70 0 -120 -56 -120 -125s50 -125 120 -125zM244 -120c-120 0 -220 99 -220 218s100 218 220 218s220 -99 220 -218s-100 -218 -220 -218z" />
    <glyph glyph-name="zero.slashed.inferior" horiz-adv-x="488" 
d="M244 -120c-120 0 -220 99 -220 218s100 218 220 218s220 -99 220 -218s-100 -218 -220 -218zM244 223c-68 0 -117 -53 -120 -119l214 73c-21 28 -54 46 -94 46zM244 -27c68 0 117 52 120 118l-215 -72c22 -28 55 -46 95 -46z" />
    <glyph glyph-name="period.inferior" horiz-adv-x="208" 
d="M104 -120c-39 0 -69 31 -69 69c0 39 30 70 69 70c38 0 69 -31 69 -70c0 -38 -31 -69 -69 -69z" />
    <glyph glyph-name="hyphen.inferior" horiz-adv-x="227" 
d="M26 49v93h175v-93h-175z" />
    <glyph glyph-name="comma.inferior" horiz-adv-x="193" 
d="M57 -209l26 94h-42v111h111v-111l-39 -94h-56z" />
    <glyph glyph-name="equal.inferior" horiz-adv-x="321" 
d="M31 -3v74h260v-74h-260zM31 120v73h260v-73h-260z" />
    <glyph glyph-name="plus.inferior" horiz-adv-x="322" 
d="M31 58v74h93v95h74v-95h94v-74h-94v-94h-74v94h-93z" />
    <glyph glyph-name="minus.inferior" horiz-adv-x="322" 
d="M31 58v74h261v-74h-261z" />
    <glyph glyph-name="parenleft.inferior" unicode="&#x208d;" horiz-adv-x="174" 
d="M99 -210c-45 81 -66 173 -66 279c0 105 21 197 66 279l73 -32c-33 -80 -56 -165 -56 -247c0 -83 23 -168 56 -248z" />
    <glyph glyph-name="parenright.inferior" unicode="&#x208e;" horiz-adv-x="174" 
d="M73 -210l-72 31c33 80 56 165 56 248c0 82 -23 167 -56 247l72 32c46 -82 66 -174 66 -279c0 -106 -20 -198 -66 -279z" />
    <glyph glyph-name="one.numerator" horiz-adv-x="300" 
d="M100 284v330l100 99v-429h-100z" />
    <glyph glyph-name="two.numerator" horiz-adv-x="398" 
d="M6 284l125 158c-51 23 -90 72 -90 133c0 78 66 140 143 140s144 -62 144 -140c0 -30 -10 -57 -23 -75l-98 -124h121v-92h-322zM184 528c27 0 44 22 44 47s-17 47 -44 47c-26 0 -43 -22 -43 -47s17 -47 43 -47z" />
    <glyph glyph-name="three.numerator" horiz-adv-x="379" 
d="M177 279c-55 0 -102 23 -132 60l70 66c12 -19 28 -33 55 -33c37 0 58 22 58 58c1 37 -22 58 -57 58h-45l58 130h-119v92h264l-66 -148c41 -26 66 -72 66 -132c0 -92 -61 -151 -152 -151z" />
    <glyph glyph-name="four.numerator" horiz-adv-x="364" 
d="M177 284v91h-217l307 338v-257h37v-81h-37v-91h-90zM126 456h51v54z" />
    <glyph glyph-name="five.numerator" horiz-adv-x="375" 
d="M181 279c-56 0 -103 22 -131 60l71 68c11 -16 26 -35 53 -35c32 0 51 24 51 50s-19 50 -51 50c-27 0 -44 -15 -51 -36l-64 26v248h236v-92h-136v-55c7 1 17 2 22 2c86 0 144 -55 144 -143s-58 -143 -144 -143z" />
    <glyph glyph-name="six.numerator" horiz-adv-x="353" 
d="M177 279c-87 0 -152 62 -152 143c0 32 14 59 28 84l108 204h112l-79 -145c81 -9 134 -70 134 -143c0 -81 -65 -143 -151 -143zM177 372c33 0 52 24 52 50c0 27 -19 51 -52 51s-52 -24 -52 -51c0 -26 19 -50 52 -50z" />
    <glyph glyph-name="seven.numerator" horiz-adv-x="289" 
d="M30 284l149 334h-149v92h299l-191 -426h-108z" />
    <glyph glyph-name="eight.numerator" horiz-adv-x="362" 
d="M181 279c-86 0 -151 63 -151 144c0 45 20 82 52 106c-13 17 -21 39 -21 65c0 67 54 121 120 121s119 -54 119 -121c0 -26 -8 -48 -21 -65c33 -24 53 -61 53 -106c0 -81 -65 -144 -151 -144zM181 372c33 0 51 24 51 51s-18 51 -51 51s-52 -24 -52 -51s19 -51 52 -51z
M181 566c17 0 27 14 27 28c0 15 -10 28 -27 28c-18 0 -27 -13 -27 -28c0 -14 9 -28 27 -28z" />
    <glyph glyph-name="nine.numerator" horiz-adv-x="353" 
d="M80 284l79 145c-81 8 -134 69 -134 143c0 81 65 143 151 143c87 0 152 -62 152 -143c0 -32 -14 -59 -28 -84l-108 -204h-112zM176 521c34 0 52 24 52 51c0 26 -18 50 -52 50c-33 0 -52 -24 -52 -50c0 -27 19 -51 52 -51z" />
    <glyph glyph-name="zero.numerator" horiz-adv-x="510" 
d="M255 372c71 0 120 56 120 125s-49 125 -120 125c-70 0 -120 -56 -120 -125s50 -125 120 -125zM255 279c-120 0 -220 99 -220 218s100 218 220 218s220 -99 220 -218s-100 -218 -220 -218z" />
    <glyph glyph-name="zero.slashed.numerator" horiz-adv-x="510" 
d="M255 279c-120 0 -220 99 -220 218s100 218 220 218s220 -99 220 -218s-100 -218 -220 -218zM255 372c69 0 117 53 120 119l-215 -72c21 -29 55 -47 95 -47zM255 622c-68 0 -117 -53 -120 -118l213 73c-21 27 -54 45 -93 45z" />
    <glyph glyph-name="one.denominator" horiz-adv-x="300" 
d="M100 0v330l100 99v-429h-100z" />
    <glyph glyph-name="two.denominator" horiz-adv-x="398" 
d="M6 0l125 158c-51 23 -90 72 -90 133c0 78 66 140 143 140s144 -62 144 -140c0 -30 -10 -57 -23 -75l-98 -124h121v-92h-322zM184 244c27 0 44 22 44 47s-17 47 -44 47c-26 0 -43 -22 -43 -47s17 -47 43 -47z" />
    <glyph glyph-name="three.denominator" horiz-adv-x="379" 
d="M177 -5c-55 0 -102 23 -132 60l70 66c12 -19 28 -33 55 -33c37 0 58 22 58 58c1 37 -22 58 -57 58h-45l58 130h-119v92h264l-66 -148c41 -26 66 -72 66 -132c0 -92 -61 -151 -152 -151z" />
    <glyph glyph-name="four.denominator" horiz-adv-x="364" 
d="M177 0v91h-217l307 338v-257h37v-81h-37v-91h-90zM126 172h51v54z" />
    <glyph glyph-name="five.denominator" horiz-adv-x="375" 
d="M181 -5c-56 0 -103 22 -131 60l71 68c11 -16 26 -35 53 -35c32 0 51 24 51 50s-19 50 -51 50c-27 0 -44 -15 -51 -36l-64 26v248h236v-92h-136v-55c7 1 17 2 22 2c86 0 144 -55 144 -143s-58 -143 -144 -143z" />
    <glyph glyph-name="six.denominator" horiz-adv-x="353" 
d="M177 -5c-87 0 -152 62 -152 143c0 32 14 59 28 84l108 204h112l-79 -145c81 -9 134 -70 134 -143c0 -81 -65 -143 -151 -143zM177 88c33 0 52 24 52 50c0 27 -19 51 -52 51s-52 -24 -52 -51c0 -26 19 -50 52 -50z" />
    <glyph glyph-name="seven.denominator" horiz-adv-x="289" 
d="M30 0l149 334h-149v92h299l-191 -426h-108z" />
    <glyph glyph-name="eight.denominator" horiz-adv-x="362" 
d="M181 -5c-86 0 -151 63 -151 144c0 45 20 82 52 106c-13 17 -21 39 -21 65c0 67 54 121 120 121s119 -54 119 -121c0 -26 -8 -48 -21 -65c32 -24 53 -61 53 -106c0 -81 -65 -144 -151 -144zM181 88c33 0 51 24 51 51s-18 51 -51 51s-52 -24 -52 -51s19 -51 52 -51z
M181 282c17 0 27 14 27 28c0 15 -10 28 -27 28c-18 0 -27 -13 -27 -28c0 -14 9 -28 27 -28z" />
    <glyph glyph-name="nine.denominator" horiz-adv-x="353" 
d="M80 0l79 145c-81 8 -134 69 -134 143c0 81 65 143 151 143c87 0 152 -62 152 -143c0 -32 -14 -59 -28 -84l-108 -204h-112zM176 237c34 0 52 24 52 51c0 26 -18 50 -52 50c-33 0 -52 -24 -52 -50c0 -27 19 -51 52 -51z" />
    <glyph glyph-name="zero.denominator" horiz-adv-x="510" 
d="M255 88c71 0 120 56 120 125s-49 125 -120 125c-70 0 -120 -56 -120 -125s50 -125 120 -125zM255 -5c-120 0 -220 99 -220 218s100 218 220 218s220 -99 220 -218s-100 -218 -220 -218z" />
    <glyph glyph-name="zero.slashed.denominator" horiz-adv-x="510" 
d="M255 -5c-120 0 -220 99 -220 218s100 218 220 218s220 -99 220 -218s-100 -218 -220 -218zM255 88c69 0 117 53 120 119l-215 -72c21 -29 55 -47 95 -47zM255 338c-68 0 -117 -53 -120 -118l213 73c-21 27 -54 45 -93 45z" />
    <glyph glyph-name="ampersand.case" horiz-adv-x="630" 
d="M256 -8c-126 0 -228 102 -228 228c0 117 89 215 203 228l-128 262h411v-137h-172l280 -573h-172l-33 68c-42 -58 -99 -76 -161 -76zM256 140c42 0 77 37 77 80s-35 80 -77 80s-77 -37 -77 -80s35 -80 77 -80z" />
    <glyph glyph-name="hyphen.case" horiz-adv-x="386" 
d="M51 270v144h284v-144h-284z" />
    <glyph glyph-name="endash.case" horiz-adv-x="586" 
d="M51 270v144h484v-144h-484z" />
    <glyph glyph-name="emdash.case" horiz-adv-x="879" 
d="M51 270v144h777v-144h-777z" />
    <glyph glyph-name="question.case" horiz-adv-x="505" 
d="M167 255v146h67c53 0 94 26 94 85s-41 86 -78 86s-75 -27 -75 -86h-157c0 129 99 232 232 232s235 -103 235 -232s-102 -231 -251 -231h-67zM230 -8c-60 0 -108 48 -108 108c0 34 15 64 40 84h136c24 -20 40 -50 40 -84c0 -60 -48 -108 -108 -108z" />
    <glyph glyph-name="questiondown.case" horiz-adv-x="505" 
d="M275 718c60 0 108 -48 108 -108c0 -35 -15 -65 -40 -85h-136c-24 20 -40 50 -40 85c0 60 48 108 108 108zM338 455v-146h-67c-53 0 -94 -26 -94 -85s41 -86 78 -86s75 27 75 86h157c0 -129 -99 -232 -232 -232s-235 103 -235 232s102 231 251 231h67z" />
    <glyph glyph-name="exclam.case" horiz-adv-x="346" 
d="M123 255l-30 184v271h161v-271l-30 -184h-101zM173 -8c-60 0 -108 48 -108 108c0 34 16 64 40 84h136c24 -20 40 -50 40 -84c0 -60 -48 -108 -108 -108z" />
    <glyph glyph-name="exclamdown.case" horiz-adv-x="346" 
d="M223 455l30 -184v-271h-161v271l30 184h101zM173 718c60 0 108 -48 108 -108c0 -34 -16 -64 -40 -84h-136c-24 20 -40 50 -40 84c0 60 48 108 108 108z" />
    <glyph glyph-name="guilsinglleft.case" horiz-adv-x="356" 
d="M206 69l-164 241l164 241l100 -68l-118 -173l118 -173z" />
    <glyph glyph-name="guilsinglright.case" horiz-adv-x="356" 
d="M314 310l-164 -241l-100 68l118 173l-118 173l100 68z" />
    <glyph glyph-name="guillemotleft.case" horiz-adv-x="592" 
d="M442 69l-164 241l164 241l100 -68l-118 -173l118 -173zM206 69l-164 241l164 241l100 -68l-118 -173l118 -173z" />
    <glyph glyph-name="guillemotright.case" horiz-adv-x="592" 
d="M550 310l-164 -241l-100 68l118 173l-118 173l100 68zM314 310l-164 -241l-100 68l118 173l-118 173l100 68z" />
    <glyph glyph-name="parenleft.case" horiz-adv-x="332" 
d="M177 -8c-61 95 -114 224 -114 363s53 268 114 363l102 -45c-59 -127 -87 -208 -87 -318s28 -191 87 -318z" />
    <glyph glyph-name="parenright.case" horiz-adv-x="332" 
d="M155 -8l-102 45c59 127 87 208 87 318s-28 191 -87 318l102 45c61 -95 114 -224 114 -363s-53 -268 -114 -363z" />
    <glyph glyph-name="bracketleft.case" horiz-adv-x="307" 
d="M67 0v710h231v-108h-104v-494h104v-108h-231z" />
    <glyph glyph-name="bracketright.case" horiz-adv-x="307" 
d="M240 710v-710h-231v108h104v494h-104v108h231z" />
    <glyph glyph-name="braceleft.case" horiz-adv-x="338" 
d="M247 0c-86 0 -148 56 -148 142v106c0 29 -14 53 -53 53h-8v108h8c39 0 53 24 53 53v106c0 86 56 142 142 142h89v-108h-47c-41 0 -57 -16 -57 -57v-92c0 -58 -26 -89 -62 -98c36 -9 62 -40 62 -98v-92c0 -41 16 -57 57 -57h47v-108h-83z" />
    <glyph glyph-name="braceright.case" horiz-adv-x="338" 
d="M91 0h-83v108h47c41 0 57 16 57 57v92c0 58 26 89 62 98c-36 9 -62 40 -62 98v92c0 41 -16 57 -57 57h-47v108h89c86 0 142 -56 142 -142v-106c0 -29 14 -53 53 -53h8v-108h-8c-39 0 -53 -24 -53 -53v-106c0 -86 -62 -142 -148 -142z" />
    <glyph glyph-name="bar.case" horiz-adv-x="297" 
d="M85 0v710h127v-710h-127z" />
    <glyph glyph-name="brokenbar.case" horiz-adv-x="297" 
d="M85 0v292h127v-292h-127zM85 419v291h127v-291h-127z" />
    <glyph glyph-name="periodcentered.case" horiz-adv-x="346" 
d="M173 234c-60 0 -108 48 -108 108s48 108 108 108s108 -48 108 -108s-48 -108 -108 -108z" />
    <glyph glyph-name="plus.case" horiz-adv-x="606" 
d="M85 285v114h161v161h114v-161h161v-114h-161v-161h-114v161h-161z" />
    <glyph glyph-name="minus.case" horiz-adv-x="606" 
d="M85 285v114h436v-114h-436z" />
    <glyph glyph-name="divide.case" horiz-adv-x="606" 
d="M303 95c-44 0 -80 36 -80 80s36 80 80 80s80 -36 80 -80s-36 -80 -80 -80zM303 429c-44 0 -80 36 -80 80s36 80 80 80s80 -36 80 -80s-36 -80 -80 -80zM85 285v114h436v-114h-436z" />
    <glyph glyph-name="multiply.case" horiz-adv-x="587" 
d="M166 114l-81 80l128 128l-128 128l81 81l127 -129l129 129l80 -81l-128 -128l128 -128l-80 -80l-129 127z" />
    <glyph glyph-name="equal.case" horiz-adv-x="606" 
d="M85 182v114h436v-114h-436zM85 388v114h436v-114h-436z" />
    <glyph glyph-name="plusminus.case" horiz-adv-x="606" 
d="M85 335v114h161v111h114v-111h161v-114h-161v-111h-114v111h-161zM85 60v114h436v-114h-436z" />
    <glyph glyph-name="less.case" horiz-adv-x="476" 
d="M332 52l-289 291l289 291l85 -85l-205 -206l205 -206z" />
    <glyph glyph-name="greater.case" horiz-adv-x="476" 
d="M144 52l-85 85l205 206l-205 206l85 85l289 -291z" />
    <glyph glyph-name="lessequal.case" horiz-adv-x="606" 
d="M504 210l-436 212l436 212v-126l-177 -86l177 -86v-126zM68 60v114h436v-114h-436z" />
    <glyph glyph-name="greaterequal.case" horiz-adv-x="606" 
d="M102 210v126l177 86l-177 86v126l436 -212zM102 60v114h436v-114h-436z" />
    <glyph glyph-name="notequal.case" horiz-adv-x="606" 
d="M85 388v114h265l80 110l91 -66l-32 -44h32v-114h-115l-67 -92h182v-114h-264l-81 -112l-91 66l33 46h-33v114h116l66 92h-182z" />
    <glyph glyph-name="acute.case" horiz-adv-x="416" 
d="M100 778l70 145h166l-126 -145h-110z" />
    <glyph glyph-name="breve.case" horiz-adv-x="494" 
d="M247 769c-102 0 -184 82 -184 184h86c0 -54 44 -98 98 -98s98 44 98 98h86c0 -102 -82 -184 -184 -184z" />
    <glyph glyph-name="caron.case" horiz-adv-x="514" 
d="M257 759l-177 76l41 96l136 -59l136 59l41 -96z" />
    <glyph glyph-name="cedilla.case" horiz-adv-x="352" 
d="M83 -134l59 134h102l-34 -134h-127z" />
    <glyph glyph-name="circumflex.case" horiz-adv-x="510" 
d="M119 759l-41 96l177 76l177 -76l-41 -96l-136 59z" />
    <glyph glyph-name="dieresis.case" horiz-adv-x="578" 
d="M170 770c-44 0 -80 36 -80 80s36 80 80 80s80 -36 80 -80s-36 -80 -80 -80zM408 770c-44 0 -80 36 -80 80s36 80 80 80s80 -36 80 -80s-36 -80 -80 -80z" />
    <glyph glyph-name="dotaccent.case" horiz-adv-x="324" 
d="M162 763c-48 0 -87 39 -87 87s39 87 87 87s87 -39 87 -87s-39 -87 -87 -87z" />
    <glyph glyph-name="grave.case" horiz-adv-x="416" 
d="M206 778l-126 145h166l70 -145h-110z" />
    <glyph glyph-name="hungarumlaut.case" horiz-adv-x="599" 
d="M100 778l70 145h148l-125 -145h-93zM301 778l70 145h148l-125 -145h-93z" />
    <glyph glyph-name="macron.case" horiz-adv-x="494" 
d="M82 802v96h330v-96h-330z" />
    <glyph glyph-name="ogonek.case" horiz-adv-x="369" 
d="M197 -189c-69 0 -117 48 -117 107c0 33 15 62 39 82h168c-42 -19 -67 -30 -67 -56c0 -21 15 -30 32 -30c13 0 30 8 35 13v-87c-25 -19 -57 -29 -90 -29z" />
    <glyph glyph-name="ring.case" horiz-adv-x="380" 
d="M190 832c26 0 47 21 47 47s-21 47 -47 47s-47 -21 -47 -47s21 -47 47 -47zM190 759c-66 0 -120 54 -120 120s54 120 120 120s120 -54 120 -120s-54 -120 -120 -120z" />
    <glyph glyph-name="tilde.case" horiz-adv-x="550" 
d="M82 777l4 29c10 74 66 116 117 116c58 0 96 -40 126 -40c23 0 35 11 43 42h96l-4 -29c-10 -74 -66 -116 -117 -116c-58 0 -96 40 -126 40c-23 0 -35 -11 -43 -42h-96z" />
    <glyph glyph-name="A.ss01" horiz-adv-x="635" 
d="M227 199v-199h-160v710h501v-710h-160v199h-181zM227 552v-199h181v199h-181z" />
    <glyph glyph-name="B.ss01" horiz-adv-x="727" 
d="M67 0v710h440v-278h160v-432h-600zM227 278v-120h280v120h-280zM227 552v-120h120v120h-120z" />
    <glyph glyph-name="C.ss01" horiz-adv-x="551" 
d="M67 0v710h444v-158h-284v-394h284v-158h-444z" />
    <glyph glyph-name="G.ss01" horiz-adv-x="733" 
d="M384 278v154h287v-432h-604v710h160v-1h364v-157h-364v-394h284v120h-127z" />
    <glyph glyph-name="J.ss01" horiz-adv-x="418" 
d="M19 0v159h169v551h163v-710h-332z" />
    <glyph glyph-name="O.ss01" horiz-adv-x="844" 
d="M227 158h390v394h-390v-394zM67 0v710h710v-710h-710z" />
    <glyph glyph-name="P.ss01" horiz-adv-x="615" 
d="M67 0v710h501v-510h-341v-200h-160zM227 552v-199h181v199h-181z" />
    <glyph glyph-name="Q.ss01" horiz-adv-x="844" 
d="M67 0v710h710v-710h-278v-184h-154v184h-278zM227 158h118v197h154v-197h118v394h-390v-394z" />
    <glyph glyph-name="S.ss01" horiz-adv-x="564" 
d="M60 278v432h444v-158h-284v-120h284v-432h-444v158h284v120h-284z" />
    <glyph glyph-name="U.ss01" horiz-adv-x="716" 
d="M67 0v710h160v-552h262v552h160v-710h-582z" />
    <glyph glyph-name="Y.ss01" horiz-adv-x="696" 
d="M57 278v432h160v-278h262v278h160v-432h-211v-278h-160v278h-211z" />
    <glyph glyph-name="b.ss01" horiz-adv-x="620" 
d="M59 0v710h151v-210h351v-500h-502zM210 350v-200h200v200h-200z" />
    <glyph glyph-name="c.ss01" horiz-adv-x="441" 
d="M59 0v500h333v-150h-182v-200h182v-150h-333z" />
    <glyph glyph-name="d.ss01" horiz-adv-x="620" 
d="M561 0h-502v500h351v210h151v-710zM210 350v-200h200v200h-200z" />
    <glyph glyph-name="f.ss01" horiz-adv-x="372" 
d="M16 368v132h65v210h267v-132h-116v-78h116v-132h-116v-368h-151v368h-65z" />
    <glyph glyph-name="h.ss01" horiz-adv-x="602" 
d="M392 0v350h-182v-350h-151v710h151v-210h333v-500h-151z" />
    <glyph glyph-name="i.ss01" horiz-adv-x="270" 
d="M59 0v500h152v-500h-152zM59 571v139h152v-139h-152z" />
    <glyph glyph-name="j.ss01" horiz-adv-x="270" 
d="M-45 -184v143h104v541h152v-684h-256zM59 571v139h152v-139h-152z" />
    <glyph glyph-name="k.ss01" horiz-adv-x="598" 
d="M408 0v185h-198v-185h-151v710h151v-375h87v165h151v-165h111v-335h-151z" />
    <glyph glyph-name="m.ss01" horiz-adv-x="895" 
d="M372 0v350h-162v-350h-151v500h777v-500h-151v350h-162v-350h-151z" />
    <glyph glyph-name="n.ss01" horiz-adv-x="602" 
d="M392 0v350h-182v-350h-151v500h484v-500h-151z" />
    <glyph glyph-name="o.ss01" horiz-adv-x="618" 
d="M59 0v500h500v-500h-500zM210 350v-200h198v200h-198z" />
    <glyph glyph-name="p.ss01" horiz-adv-x="620" 
d="M59 -184v684h502v-500h-351v-184h-151zM210 350v-200h200v200h-200z" />
    <glyph glyph-name="q.ss01" horiz-adv-x="620" 
d="M561 -184h-151v184h-351v500h502v-684zM210 350v-200h200v200h-200z" />
    <glyph glyph-name="r.ss01" horiz-adv-x="392" 
d="M59 0v500h319v-150h-168v-350h-151z" />
    <glyph glyph-name="s.ss01" horiz-adv-x="518" 
d="M55 250v250h408v-150h-257v-100h-151zM55 0v150h251v100h151v-250h-402z" />
    <glyph glyph-name="t.ss01" horiz-adv-x="412" 
d="M4 368v132h82v113h151v-113h140v-132h-140v-230h140v-138h-291v368h-82z" />
    <glyph glyph-name="u.ss01" horiz-adv-x="602" 
d="M59 0v500h151v-350h182v350h151v-500h-484z" />
    <glyph glyph-name="y.ss01" horiz-adv-x="602" 
d="M59 0v500h151v-350h182v350h151v-684h-151v184h-333z" />
    <glyph glyph-name="A.ss02" horiz-adv-x="723" 
d="M-10 0l346 710h320v-710h-160v110h-285l-53 -110h-168zM427 552l-152 -312h221v312h-69z" />
    <glyph glyph-name="E.ss02" horiz-adv-x="511" 
d="M247 0c-119 0 -216 97 -216 216c0 53 19 101 51 139c-32 37 -51 86 -51 139c0 120 98 216 217 216h223v-158h-221c-33 0 -60 -27 -60 -60s27 -60 60 -60h161v-154h-161c-33 0 -60 -27 -60 -60s27 -60 60 -60h221v-158h-224z" />
    <glyph glyph-name="K.ss02" horiz-adv-x="681" 
d="M67 0v710h160v-352h2l247 352h183l-246 -352h87l191 -358h-179l-107 200h-178v-200h-160z" />
    <glyph glyph-name="N.ss02" horiz-adv-x="742" 
d="M515 0v148l-288 231v-379h-160v718l448 -359v351h160v-710h-160z" />
    <glyph glyph-name="Q.ss02" horiz-adv-x="794" 
d="M320 -184v184c-163 36 -286 181 -286 355c0 200 163 363 363 363s363 -163 363 -363c0 -174 -123 -319 -286 -355v-184h-154zM474 434v-273c74 32 125 107 125 194c0 114 -87 209 -202 209c-87 0 -158 -54 -188 -130h265zM320 276h-110c20 -52 59 -94 110 -115v115z" />
    <glyph glyph-name="W.ss02" horiz-adv-x="915" 
d="M325 -8l-335 718h163l180 -396l52 116l-130 280h147l55 -122l56 122h147l-131 -280l53 -116l180 396h163l-335 -718l-133 284z" />
    <glyph glyph-name="X.ss02" horiz-adv-x="663" 
d="M473 0l-181 271l-119 -271h-173l188 427l-188 283h190l181 -272l119 272h173l-188 -428l188 -282h-190z" />
    <glyph glyph-name="Y.ss02" horiz-adv-x="756" 
d="M508 0h-160v278h-291v432h160v-278h192l173 278h189l-263 -412v-298z" />
    <glyph glyph-name="a.ss02" horiz-adv-x="548" 
d="M220 -8c-135 0 -194 92 -194 173c0 97 81 163 202 163c42 0 78 -5 110 -17v57h-250v132h401v-500h-151v30c-29 -24 -72 -38 -118 -38zM244 130c41 0 73 11 94 29v51c-24 9 -54 15 -85 15c-52 0 -75 -22 -75 -48c0 -34 30 -47 66 -47z" />
    <glyph glyph-name="g.ss02" horiz-adv-x="583" 
d="M91 -184v147h281v102c-29 -24 -69 -37 -110 -37c-151 0 -236 118 -236 240s85 240 236 240c41 0 81 -14 110 -38v30h151v-684h-432zM282 166c37 0 68 15 90 42v120c-22 27 -53 42 -90 42c-67 0 -104 -51 -104 -102s37 -102 104 -102z" />
    <glyph glyph-name="k.ss02" horiz-adv-x="561" 
d="M395 0l-90 121h-95v-121h-151v710h151v-210h261v-150h-261v-79h161l202 -271h-178z" />
    <glyph glyph-name="m.ss02" horiz-adv-x="890" 
d="M685 0v252c0 65 -19 117 -79 117c-35 0 -67 -18 -87 -45c3 -17 4 -35 4 -53v-271h-151v244c0 65 -19 117 -79 117h-83v-361h-151v500h265c57 0 104 -21 138 -57c27 31 83 65 164 65c149 0 210 -104 210 -229v-279h-151z" />
    <glyph glyph-name="w.ss02" horiz-adv-x="867" 
d="M223 0l-178 271v229h151v-184l109 -166h52v350h151v-350h53l110 166v184h151v-229l-178 -271h-421z" />
    <glyph glyph-name="b.ss03" horiz-adv-x="542" 
d="M59 0v500h233c135 0 184 -81 184 -154c0 -26 -9 -55 -28 -80c41 -31 60 -75 60 -112c0 -73 -49 -154 -184 -154h-265zM319 199h-109v-69h109c16 0 37 10 37 34c0 25 -21 35 -37 35zM287 370h-77v-69h77c16 0 37 10 37 35c0 24 -21 34 -37 34z" />
    <glyph glyph-name="d.ss03" horiz-adv-x="552" 
d="M59 0v500h221c148 0 242 -113 242 -250s-94 -250 -242 -250h-221zM267 353h-57v-206h57c65 0 103 46 103 103s-38 103 -103 103z" />
    <glyph glyph-name="f.ss03" horiz-adv-x="453" 
d="M59 0v500h357v-132h-206v-90h176v-132h-176v-146h-151z" />
    <glyph glyph-name="g.ss03" horiz-adv-x="548" 
d="M290 -8c-144 0 -260 116 -260 258s116 258 260 258c106 0 177 -57 207 -99l-119 -84c-25 32 -56 42 -88 42c-62 0 -108 -48 -108 -117s46 -117 108 -117c26 0 49 3 68 11v55h-91l46 102h196v-231c-54 -53 -127 -78 -219 -78z" />
    <glyph glyph-name="h.ss03" horiz-adv-x="602" 
d="M392 0v184h-182v-184h-151v500h151v-184h182v184h151v-500h-151z" />
    <glyph glyph-name="i.ss03" horiz-adv-x="270" 
d="M59 0v500h152v-500h-152z" />
    <glyph glyph-name="j.ss03" horiz-adv-x="473" 
d="M160 211c0 -41 13 -70 53 -70s53 29 53 70v289h152v-316c0 -102 -69 -184 -205 -184s-205 82 -205 184v28h152v-1z" />
    <glyph glyph-name="k.ss03" horiz-adv-x="550" 
d="M59 0v500h151v-251l153 251h165l-156 -255l185 -245h-178l-169 225v-225h-151z" />
    <glyph glyph-name="l.ss03" horiz-adv-x="449" 
d="M59 0v500h152v-368h205v-132h-357z" />
    <glyph glyph-name="p.ss03" horiz-adv-x="500" 
d="M59 0v500h233c135 0 184 -111 184 -184s-49 -185 -184 -185h-82v-131h-151zM267 370h-57v-109h57c36 0 57 20 57 55c0 34 -21 54 -57 54z" />
    <glyph glyph-name="q.ss03" horiz-adv-x="585" 
d="M492 -8l-56 45c-41 -29 -92 -45 -146 -45c-144 0 -260 116 -260 258s116 258 260 258s260 -116 260 -258c0 -42 -10 -82 -28 -117l51 -41zM290 133c8 0 17 0 25 2l-56 46l81 99l57 -46c0 5 1 10 1 16c0 69 -46 117 -108 117s-108 -48 -108 -117s46 -117 108 -117z" />
    <glyph glyph-name="t.ss03" horiz-adv-x="441" 
d="M15 368v132h411v-132h-130v-368h-151v368h-130z" />
    <glyph glyph-name="y.ss03" horiz-adv-x="504" 
d="M176 0v184l-188 316h170l94 -186l94 186h170l-188 -316v-184h-152z" />
    <glyph glyph-name="A.ss04" horiz-adv-x="680" 
d="M-10 0l350 718l350 -718h-168l-182 388l-182 -388h-168zM340 -8c-50 0 -90 40 -90 90s40 90 90 90s90 -40 90 -90s-40 -90 -90 -90z" />
    <glyph glyph-name="E.ss04" horiz-adv-x="547" 
d="M67 0v710h440v-158h-280v-394h280v-158h-440zM367 265c-50 0 -90 40 -90 90s40 90 90 90s90 -40 90 -90s-40 -90 -90 -90z" />
    <glyph glyph-name="F.ss04" horiz-adv-x="517" 
d="M67 0v710h420v-158h-260v-552h-160zM357 265c-50 0 -90 40 -90 90s40 90 90 90s90 -40 90 -90s-40 -90 -90 -90z" />
    <glyph glyph-name="G.ss04" horiz-adv-x="729" 
d="M397 -8c-200 0 -363 163 -363 363s163 363 363 363c122 0 218 -49 287 -134l-121 -99c-43 54 -90 79 -166 79c-115 0 -202 -95 -202 -209s87 -209 202 -209c58 0 102 10 137 35v249h155v-322c-70 -80 -172 -116 -292 -116zM397 265c-50 0 -90 40 -90 90s40 90 90 90
s90 -40 90 -90s-40 -90 -90 -90z" />
    <glyph glyph-name="H.ss04" horiz-adv-x="738" 
d="M67 0v710h160v-710h-160zM369 265c-50 0 -90 40 -90 90s40 90 90 90s90 -40 90 -90s-40 -90 -90 -90zM511 0v710h160v-710h-160z" />
    <glyph glyph-name="K.ss04" horiz-adv-x="671" 
d="M493 0l-266 332v-332h-160v710h160v-352h177l287 -358h-198zM509 538c-50 0 -90 40 -90 90s40 90 90 90s90 -40 90 -90s-40 -90 -90 -90z" />
    <glyph glyph-name="O.ss04" horiz-adv-x="794" 
d="M397 265c-50 0 -90 40 -90 90s40 90 90 90s90 -40 90 -90s-40 -90 -90 -90zM397 146c115 0 202 95 202 209s-87 209 -202 209s-202 -95 -202 -209s87 -209 202 -209zM397 -8c-200 0 -363 163 -363 363s163 363 363 363s363 -163 363 -363s-163 -363 -363 -363z" />
    <glyph glyph-name="Q.ss04" horiz-adv-x="814" 
d="M397 -8c-200 0 -363 163 -363 363s163 363 363 363s363 -163 363 -363c0 -61 -15 -119 -42 -170l101 -81l-91 -112l-101 82c-63 -52 -143 -82 -230 -82zM397 146c115 0 202 95 202 209s-87 209 -202 209s-202 -95 -202 -209s87 -209 202 -209zM397 265
c-50 0 -90 40 -90 90s40 90 90 90s90 -40 90 -90s-40 -90 -90 -90z" />
    <glyph glyph-name="Y.ss04" horiz-adv-x="656" 
d="M248 298l-263 412h187l155 -249l155 249h189l-263 -412h-160zM327 -8c-50 0 -90 40 -90 90s40 90 90 90s90 -40 90 -90s-40 -90 -90 -90z" />
    <glyph glyph-name="A.ss05" horiz-adv-x="680" 
d="M340 0v159h107l-107 229l-182 -388h-168l350 718l350 -718h-350z" />
    <glyph glyph-name="E.ss05" horiz-adv-x="553" 
d="M0 0l235 355l-235 355h518v-158h-235l131 -197l-131 -197h235v-158h-518z" />
    <glyph glyph-name="F.ss05" horiz-adv-x="537" 
d="M97 0v432h78l-184 278h526v-158h-243l183 -274h-200v-278h-160z" />
    <glyph glyph-name="R.ss05" horiz-adv-x="616" 
d="M67 0v710h552l-180 -385l184 -325h-174l-183 323l112 241h-152v-564h-159z" />
    <glyph glyph-name="S.ss05" horiz-adv-x="540" 
d="M-7 278l201 432h173l-130 -278h310l-200 -432h-173l128 278h-309z" />
    <glyph glyph-name="T.ss05" horiz-adv-x="621" 
d="M270 0v375l-288 335h620v-158h-278l109 -126v-426h-163z" />
    <glyph glyph-name="X.ss05" horiz-adv-x="766" 
d="M1 0l257 335l-246 375h744l-246 -375l257 -335h-201l-182 244l-182 -244h-201zM304 552l80 -124l80 124h-160z" />
    <glyph glyph-name="h.ss05" horiz-adv-x="602" 
d="M59 0v710h151v-465l182 255h151v-500h-151v255l-182 -255h-151z" />
    <glyph glyph-name="m.ss05" horiz-adv-x="895" 
d="M523 0h-151v245l-162 -245h-151v500h151v-244l162 244h151v-244l162 244h151v-500h-151v245z" />
    <glyph glyph-name="n.ss05" horiz-adv-x="602" 
d="M59 0v500h151v-255l182 255h151v-500h-151v255l-182 -255h-151z" />
    <glyph glyph-name="r.ss05" horiz-adv-x="321" 
d="M56 0v399l209 109l67 -130l-125 -66v-312h-151z" />
    <glyph glyph-name="s.ss05" horiz-adv-x="540" 
d="M147 0l129 182h-288l226 318h180l-130 -182h288l-225 -318h-180z" />
    <glyph glyph-name="b.ss06" horiz-adv-x="621" 
d="M59 0v710h151v-360l150 150h202v-500h-503zM411 350h-201v-200h201v200z" />
    <glyph glyph-name="d.ss06" horiz-adv-x="621" 
d="M59 0v500h352v210h151v-710h-151v350h-201v-200h201l-150 -150h-202z" />
    <glyph glyph-name="f.ss06" horiz-adv-x="382" 
d="M-31 368l132 132v210h267v-132h-116v-78h116v-132h-116v-368h-151v368h-132z" />
    <glyph glyph-name="h.ss06" horiz-adv-x="602" 
d="M210 350v-350h-151v710h151v-360l150 150h183v-500h-151v350h-182z" />
    <glyph glyph-name="j.ss06" horiz-adv-x="270" 
d="M-84 -184l143 143v541h152v-684h-295zM59 558v152h152v-152h-152z" />
    <glyph glyph-name="l.ss06" horiz-adv-x="270" 
d="M59 0v566l152 152v-718h-152z" />
    <glyph glyph-name="m.ss06" horiz-adv-x="895" 
d="M210 350v-350h-151v500h151v-150l150 150h163v-150l150 150h163v-500h-151v350h-162v-350h-151v350h-162z" />
    <glyph glyph-name="n.ss06" horiz-adv-x="602" 
d="M210 350v-350h-151v500h151v-150l150 150h183v-500h-151v350h-182z" />
    <glyph glyph-name="p.ss06" horiz-adv-x="621" 
d="M59 -184v684h151v-150l150 150h202v-500h-352v-184h-151zM411 350h-201v-200h201v200z" />
    <glyph glyph-name="q.ss06" horiz-adv-x="621" 
d="M411 -184v534h-201v-200h201l-150 -150h-202v500h503v-684h-151z" />
    <glyph glyph-name="r.ss06" horiz-adv-x="392" 
d="M210 350v-350h-151v500h151v-150l150 150h18v-150h-168z" />
    <glyph glyph-name="t.ss06" horiz-adv-x="432" 
d="M-26 368l283 283v-151h140v-132h-140v-230h140v-138h-291v368h-132z" />
    <glyph glyph-name="u.ss06" horiz-adv-x="602" 
d="M59 0v500h151v-350h182l-150 -150h-183zM392 0v500h151v-500h-151z" />
    <glyph glyph-name="B.ss07" horiz-adv-x="542" 
d="M67 0v147h219c43 0 74 31 74 70s-31 71 -74 71h-219v135h170c43 0 74 31 74 70s-31 71 -74 71h-170v146h188c116 0 211 -95 211 -211c0 -50 -19 -91 -50 -122c60 -32 100 -90 100 -166c0 -117 -95 -211 -215 -211h-234z" />
    <glyph glyph-name="D.ss07" horiz-adv-x="631" 
d="M67 0v146h169c119 0 200 95 200 209s-81 209 -200 209h-169v146h169c200 0 361 -159 361 -355s-161 -355 -361 -355h-169z" />
    <glyph glyph-name="E.ss07" horiz-adv-x="547" 
d="M67 0v158h440v-158h-440zM67 552v158h440v-158h-440zM67 278v154h380v-154h-380z" />
    <glyph glyph-name="F.ss07" horiz-adv-x="517" 
d="M67 552v158h420v-158h-420zM67 278v154h360v-154h-360z" />
    <glyph glyph-name="H.ss07" horiz-adv-x="658" 
d="M431 0v278h-364v154h364v278h160v-710h-160z" />
    <glyph glyph-name="K.ss07" horiz-adv-x="519" 
d="M341 0l-274 343l256 367h184l-249 -357l281 -353h-198z" />
    <glyph glyph-name="P.ss07" horiz-adv-x="477" 
d="M67 228v149h152c52 0 90 44 90 92s-38 91 -90 91h-152v150h154c139 0 243 -108 243 -241s-104 -241 -243 -241h-154z" />
    <glyph glyph-name="R.ss07" horiz-adv-x="546" 
d="M67 288v135h172c43 0 74 31 74 70s-31 71 -74 71h-172v146h190c116 0 211 -95 211 -211c0 -89 -55 -166 -138 -198l231 -301h-191l-220 288h-83z" />
    <glyph glyph-name="T.ss07" horiz-adv-x="539" 
d="M19 552v158h501v-158h-501z" />
    <glyph glyph-name="Y.ss07" horiz-adv-x="656" 
d="M248 298l-263 412h187l155 -249l155 249h189l-263 -412h-160z" />
    <glyph glyph-name="A.ss08" horiz-adv-x="680" 
d="M-10 0l350 718l350 -718h-168l-51 110h-251v-756c0 -23 -19 -23 -19 0v739l-37 -80v-208c0 -23 -19 -23 -19 0v195h-155zM273 240h134l-67 148z" />
    <glyph glyph-name="C.ss08" horiz-adv-x="709" 
d="M323 -56v56c-165 34 -289 180 -289 355c0 200 163 363 363 363c122 0 231 -61 297 -154l-121 -99c-36 58 -100 99 -176 99h-9v-418h9c76 0 140 41 176 99l121 -99c-59 -83 -151 -140 -256 -151v-148c0 -23 -19 -23 -19 0v146c-8 -1 -15 -1 -22 -1c-3 0 -6 1 -9 1v-296
c0 -23 -19 -23 -19 0v296c-9 1 -18 2 -27 4v-53c0 -23 -19 -23 -19 0zM195 355c0 -88 52 -165 128 -195v390c-76 -31 -128 -107 -128 -195zM342 153c9 -2 17 -4 27 -5v414c-10 -2 -18 -3 -27 -6v-403z" />
    <glyph glyph-name="D.ss08" horiz-adv-x="711" 
d="M67 0v710h249c200 0 361 -159 361 -355s-161 -355 -361 -355h-123v-646c0 -23 -19 -23 -19 0v646h-20v-195c0 -23 -19 -23 -19 0v195h-68zM227 146h89c119 0 200 95 200 209s-81 209 -200 209h-89v-418z" />
    <glyph glyph-name="E.ss08" horiz-adv-x="547" 
d="M67 0v710h440v-158h-280v-120h220v-154h-220v-120h280v-158h-304v-312c0 -23 -19 -23 -19 0v312h-21v-112c0 -23 -19 -23 -19 0v112h-29v-1012c0 -23 -19 -23 -19 0v1012h-29z" />
    <glyph glyph-name="G.ss08" horiz-adv-x="729" 
d="M397 -8c-200 0 -363 163 -363 363s163 363 363 363c122 0 218 -49 287 -134l-121 -99c-43 54 -90 79 -166 79c-115 0 -202 -95 -202 -209s87 -209 202 -209c20 0 39 1 57 4v130h-11v-27c0 -23 -19 -23 -19 0v27h-15v-53c0 -23 -19 -23 -19 0v53h-27l68 150h258v-322
c-55 -63 -129 -98 -216 -110v-566c0 -23 -19 -23 -19 0v563c-19 -2 -38 -3 -57 -3zM534 280h-61v-126c23 5 43 14 61 27v99z" />
    <glyph glyph-name="H.ss08" horiz-adv-x="738" 
d="M67 0v710h160v-278h284v278h160v-710h-160v278h-133v-1058c0 -23 -19 -23 -19 0v1058h-31v-18c0 -23 -19 -23 -19 0v18h-82v-278h-27v-244c0 -23 -19 -23 -19 0v244h-23v-80c0 -23 -19 -23 -19 0v80h-72z" />
    <glyph glyph-name="M.ss08" horiz-adv-x="842" 
d="M67 0v718l354 -355l354 355v-718h-160v348l-183 -183v-812c0 -23 -19 -23 -19 0v809l-11 11v-239c0 -23 -19 -23 -19 0v258l-15 15v-29c0 -23 -19 -23 -19 0v48l-122 122v-348h-160z" />
    <glyph glyph-name="N.ss08" horiz-adv-x="742" 
d="M614 -119c0 -23 -19 -23 -19 0v178l-30 26v-607c0 -23 -19 -23 -19 0v623l-319 270v-371h-160v718l448 -379v371h160v-718l-61 51v-162z" />
    <glyph glyph-name="O.ss08" horiz-adv-x="794" 
d="M582 -32v75l-29 -16v-1019c0 -23 -19 -23 -19 0v1011c-43 -18 -89 -27 -137 -27c-51 0 -100 11 -144 30v-354c0 -23 -19 -23 -19 0v363c-119 60 -200 182 -200 324c0 200 163 363 363 363s363 -163 363 -363c0 -125 -64 -235 -159 -300v-87c0 -23 -19 -23 -19 0zM397 146
c115 0 202 95 202 209s-87 209 -202 209s-202 -95 -202 -209s87 -209 202 -209z" />
    <glyph glyph-name="Q.ss08" horiz-adv-x="814" 
d="M697 -992v1009l-70 57c-63 -52 -143 -82 -230 -82c-80 0 -154 26 -214 70v-394c0 -23 -19 -23 -19 0v409c-80 66 -130 166 -130 278c0 200 163 363 363 363s363 -163 363 -363c0 -61 -15 -119 -42 -170l101 -81l-55 -68v-68c0 -23 -19 -23 -19 0v45l-17 -21l-12 9v-993
c0 -23 -19 -23 -19 0zM397 146c39 0 75 10 105 29l-108 88l91 111l104 -84c6 20 10 42 10 65c0 114 -87 209 -202 209s-202 -95 -202 -209s87 -209 202 -209z" />
    <glyph glyph-name="R.ss08" horiz-adv-x="625" 
d="M207 -36v36h-24v-213c0 -23 -19 -23 -19 0v213h-97v710h268c116 0 211 -95 211 -211c0 -89 -55 -166 -137 -198l231 -301h-191l-220 288h-2v-288h-1v-36c0 -23 -19 -23 -19 0zM227 423h90c43 0 74 31 74 70s-31 71 -74 71h-90v-141z" />
    <glyph glyph-name="S.ss08" horiz-adv-x="520" 
d="M394 -36v57l-24 -12v-222c0 -23 -19 -23 -19 0v216c-25 -7 -51 -11 -79 -11c-56 0 -107 11 -150 34v-600c0 -23 -19 -23 -19 0v611c-36 23 -65 54 -86 94l121 99c31 -49 82 -88 131 -88c47 0 68 18 68 51c0 32 -23 52 -83 79l-40 18c-107 48 -166 127 -166 223
c0 124 103 205 216 205c79 0 139 -19 199 -89l-108 -114c-36 44 -58 53 -91 53c-27 0 -55 -17 -55 -49c0 -37 31 -57 96 -86l38 -17c98 -44 155 -115 155 -213c0 -75 -32 -134 -85 -171v-68c0 -23 -19 -23 -19 0z" />
    <glyph glyph-name="U.ss08" horiz-adv-x="702" 
d="M198 -40c0 -23 -19 -23 -19 0v82c-74 50 -119 137 -119 246v422h160v-424c0 -86 53 -140 131 -140s131 54 131 140v424h160v-422c0 -70 -19 -130 -51 -178v-166c0 -23 -19 -23 -19 0v142c-52 -60 -130 -94 -221 -94c-40 0 -77 7 -110 18v-256c0 -23 -19 -23 -19 0v264
c-8 3 -17 8 -24 12v-70z" />
    <glyph glyph-name="a.ss08" horiz-adv-x="594" 
d="M403 -74c0 -23 -19 -23 -19 0v103c-29 -24 -69 -37 -110 -37c-148 0 -242 121 -242 258s94 258 242 258c41 0 81 -14 110 -38v30h151v-500h-92v-414c0 -23 -19 -23 -19 0v414h-21v-74zM299 130c37 0 64 14 85 41v157c-21 27 -48 42 -85 42c-72 0 -115 -54 -115 -120
s43 -120 115 -120z" />
    <glyph glyph-name="b.ss08" horiz-adv-x="594" 
d="M59 0v710h151v-240c29 24 69 38 110 38c148 0 242 -121 242 -258c0 -135 -91 -254 -235 -258v-64c0 -23 -19 -23 -19 0v64c-37 3 -72 15 -98 37v-29h-13v-412c0 -23 -19 -23 -19 0v412h-15v-112c0 -23 -19 -23 -19 0v112h-85zM295 370c-37 0 -65 -15 -85 -42v-157
c20 -27 48 -41 85 -41c72 0 115 54 115 120s-43 120 -115 120z" />
    <glyph glyph-name="c.ss08" horiz-adv-x="522" 
d="M276 -312v305c-138 7 -246 119 -246 257c0 142 116 258 260 258c92 0 173 -47 219 -118l-120 -85c-20 37 -55 62 -99 62c-62 0 -108 -48 -108 -117s46 -117 108 -117c44 0 79 25 99 62l120 -85c-35 -54 -90 -94 -154 -110v-109c0 -23 -19 -23 -19 0v105
c-4 0 -7 -1 -10 -1v-17c0 -23 -19 -23 -19 0v15c-4 -1 -8 -1 -12 -1v-304c0 -23 -19 -23 -19 0z" />
    <glyph glyph-name="e.ss08" horiz-adv-x="558" 
d="M189 -124v134c-90 37 -159 124 -159 240c0 147 104 258 258 258c127 0 241 -83 241 -241c0 -14 -1 -29 -3 -44h-52v-86l37 -25c-11 -17 -23 -32 -37 -46v-857c0 -23 -19 -23 -19 0v840c-45 -36 -104 -57 -170 -57c-11 0 -22 1 -33 2v-181c0 -23 -19 -23 -19 0v185
c-9 2 -17 3 -25 6v-128c0 -23 -19 -23 -19 0zM309 185v38h-134c7 -67 64 -93 109 -93c53 0 87 26 107 63l64 -43v73h-127v-38c0 -23 -19 -23 -19 0zM279 387c-36 0 -89 -16 -103 -76h133v73c-10 2 -20 3 -30 3zM380 311c-5 34 -25 56 -52 67v-67h52z" />
    <glyph glyph-name="f.ss08" horiz-adv-x="362" 
d="M317 555v23h-21v-78h52v-132h-52v-903c0 -23 -19 -23 -19 0v903h-45v-368h-151v368h-65v132h73c-20 22 -31 51 -31 83c0 71 52 127 135 127h155v-132h-12v-23c0 -23 -19 -23 -19 0zM201 539c0 -22 17 -39 39 -39h37v78h-27c-35 0 -49 -17 -49 -39z" />
    <glyph glyph-name="k.ss08" horiz-adv-x="561" 
d="M474 -341c0 -23 -19 -23 -19 0v341h-60l-185 249v-373c0 -23 -19 -23 -19 0v124h-132v710h151v-438l163 228h174l-73 -102v-265l99 -133h-99v-341zM377 263l78 -105v213z" />
    <glyph glyph-name="g.ss08" horiz-adv-x="583" 
d="M197 16v20c-110 28 -171 129 -171 232c0 122 85 240 236 240c41 0 81 -14 110 -38v30h151v-403c15 -35 21 -68 21 -98c0 -139 -129 -191 -257 -193v-268c0 -23 -19 -23 -19 0v268c-71 2 -145 13 -211 56l68 133c39 -30 87 -50 143 -51v84h-6c-16 0 -32 1 -46 4v-16
c0 -23 -19 -23 -19 0zM282 166c37 0 68 15 90 42v120c-22 27 -53 42 -90 42c-67 0 -104 -51 -104 -102s37 -102 104 -102zM373 66c-23 -19 -54 -32 -86 -37v-84c54 3 99 24 99 79c0 10 -2 27 -13 42z" />
    <glyph glyph-name="i.ss08" horiz-adv-x="270" 
d="M65 571c-13 15 -20 35 -20 57c0 50 40 90 90 90s90 -40 90 -90c0 -22 -7 -42 -20 -57h-29v-71h34v-500h-34v-266c0 -23 -19 -23 -19 0v266h-31v-466c0 -23 -19 -23 -19 0v466h-48v500h98v71h-11v-16c0 -23 -19 -23 -19 0v16h-15v-42c0 -23 -19 -23 -19 0v42h-28z" />
    <glyph glyph-name="n.ss08" 
d="M411 -74c0 -23 -19 -23 -19 0v326c0 67 -26 118 -92 118c-29 0 -65 -15 -90 -43v-741c0 -23 -19 -23 -19 0v414h-21v-74c0 -23 -19 -23 -19 0v74h-92v500h151v-31c30 25 71 39 115 39c141 0 218 -94 218 -229v-279h-132v-74z" />
    <glyph glyph-name="o.ss08" horiz-adv-x="580" 
d="M290 -8c-144 0 -260 116 -260 258s116 258 260 258s260 -116 260 -258c0 -108 -67 -201 -162 -239v-714c0 -23 -19 -23 -19 0v707c-9 -3 -18 -4 -27 -6v-484c0 -23 -19 -23 -19 0v480c-11 -1 -22 -2 -33 -2zM290 133c11 0 22 2 33 5v224c-11 3 -22 5 -33 5
c-62 0 -108 -48 -108 -117s46 -117 108 -117zM398 250c0 47 -22 85 -56 104v-208c34 19 56 56 56 104z" />
    <glyph glyph-name="s.ss08" horiz-adv-x="415" 
d="M212 -614c0 -23 -19 -23 -19 0v606c-6 0 -12 1 -17 2v-208c0 -23 -19 -23 -19 0v210c-6 1 -12 2 -18 4v-404c0 -23 -19 -23 -19 0v408c-48 16 -87 46 -114 94l115 78c10 -18 21 -33 36 -44v62c-83 34 -126 89 -126 159c0 92 76 155 172 155c64 0 120 -24 158 -79l-86 -85
c-19 27 -41 45 -72 45c-20 0 -36 -7 -36 -23c0 -20 16 -26 66 -45l21 -8c95 -36 134 -88 134 -162c0 -101 -77 -157 -176 -159v-606zM189 182l-13 5v-65c11 -5 23 -7 37 -7c21 0 39 5 39 23c0 19 -14 25 -63 44z" />
    <glyph glyph-name="t.ss08" horiz-adv-x="412" 
d="M309 185v183h-18v-33c0 -23 -19 -23 -19 0v33h-35v-171c0 -42 17 -59 58 -59h82v-138h-138c-16 0 -30 1 -43 4v-316c0 -23 -19 -23 -19 0v322c-6 2 -13 5 -18 8v-204c0 -23 -19 -23 -19 0v216c-35 26 -54 69 -54 124v214h-65l-33 132h98v75l151 75v-150h158l-33 -132h-34
v-183c0 -23 -19 -23 -19 0z" />
    <glyph glyph-name="w.ss08" horiz-adv-x="730" 
d="M159 0l-159 500h159l83 -281l123 289l123 -289l83 281h159l-159 -500h-115l-44 99v-335c0 -23 -19 -23 -19 0v378l-28 63l-91 -205h-12v-36c0 -23 -19 -23 -19 0v36h-31v-646c0 -23 -19 -23 -19 0v646h-34z" />
    <glyph glyph-name="z.ss08" horiz-adv-x="513" 
d="M124 -203v203h-20v-473c0 -23 -19 -23 -19 0v473h-73l232 370h-202v130h454l-231 -369h216v-131h-70v-41c0 -23 -19 -23 -19 0v41h-249v-203c0 -23 -19 -23 -19 0z" />
    <glyph glyph-name="A.ss09" horiz-adv-x="680" 
d="M669 0l-97 198h-465l-96 -198h-21l350 718l350 -718h-21zM340 675l-158 -323h315z" />
    <glyph glyph-name="D.ss09" horiz-adv-x="711" 
d="M86 146h230c119 0 200 95 200 209s-81 209 -200 209h-230v-418zM67 0v710h249c200 0 361 -159 361 -355s-161 -355 -361 -355h-249z" />
    <glyph glyph-name="F.ss09" horiz-adv-x="517" 
d="M67 0v710h420v-158h-401v-120h341v-154h-341v-278h-19z" />
    <glyph glyph-name="H.ss09" horiz-adv-x="708" 
d="M67 0v710h19v-278h536v278h19v-710h-19v278h-536v-278h-19z" />
    <glyph glyph-name="K.ss09" horiz-adv-x="650" 
d="M452 0l-364 343l520 367h30l-410 -290l442 -420h-218zM67 0v710h19v-710h-19z" />
    <glyph glyph-name="M.ss09" horiz-adv-x="842" 
d="M67 0v718l354 -355l354 355v-718h-160v348l-194 -194v182l-335 337v-673h-19z" />
    <glyph glyph-name="N.ss09" horiz-adv-x="742" 
d="M675 -8l-589 676v-668h-19v718l448 -514v506h160v-718z" />
    <glyph glyph-name="Q.ss09" horiz-adv-x="803" 
d="M397 -8c-200 0 -363 163 -363 363s163 363 363 363s363 -163 363 -363c0 -99 -40 -190 -105 -255l116 -95l-12 -15l-118 96c-65 -58 -150 -94 -244 -94zM397 146c46 0 88 15 121 41l-115 95l12 14l118 -97c41 39 66 95 66 156c0 114 -87 209 -202 209s-202 -95 -202 -209
s87 -209 202 -209z" />
    <glyph glyph-name="R.ss09" horiz-adv-x="625" 
d="M449 0l-363 423v-423h-19v710h268c116 0 211 -95 211 -211c0 -98 -67 -182 -165 -206l259 -293h-191zM86 564v-141h231c43 0 74 31 74 70s-31 71 -74 71h-231z" />
    <glyph glyph-name="T.ss09" horiz-adv-x="583" 
d="M282 0v691h-282v19h583v-19h-282v-691h-19z" />
    <glyph glyph-name="V.ss09" horiz-adv-x="604" 
d="M302 -8l-312 718h21l291 -670l291 670h21z" />
    <glyph glyph-name="W.ss09" horiz-adv-x="877" 
d="M439 718l240 -513l172 505h21l-246 -718l-187 409l-188 -409l-246 718h21l172 -505z" />
    <glyph glyph-name="X.ss09" horiz-adv-x="674" 
d="M488 0l-200 300l-263 -300h-25l277 316l-262 394h185l182 -273l240 273h25l-254 -290l281 -420h-186z" />
    <glyph glyph-name="Y.ss09" horiz-adv-x="656" 
d="M323 0v268l-338 442h187l242 -316l234 316h23l-329 -442v-268h-19z" />
    <glyph glyph-name="Z.ss09" horiz-adv-x="624" 
d="M8 0l449 552h-407v158h560l-449 -552h428v-158h-581z" />
    <glyph glyph-name="H.ss10" horiz-adv-x="740" 
d="M14 0l96 159l-96 196l96 196l-96 159h172l96 -159l-59 -119h272l59 119l-96 159h172l96 -159l-96 -196l95 -196l-96 -159h-171l96 159l-59 119h-272l58 -119l-96 -159h-171z" />
    <glyph glyph-name="I.ss10" horiz-adv-x="296" 
d="M14 0l96 159l-96 196l96 196l-96 159h172l96 -159l-96 -196l95 -196l-96 -159h-171z" />
    <glyph glyph-name="i.ss10" horiz-adv-x="275" 
d="M169 355l74 145h-162l-74 -145l100 -196l-101 -159h162l101 159zM92 571c-13 15 -20 35 -20 57c0 50 40 90 90 90s90 -40 90 -90c0 -22 -7 -42 -20 -57h-140z" />
    <glyph glyph-name="l.ss10" horiz-adv-x="275" 
d="M269 551l-100 -196l100 -196l-101 -159h-162l101 159l-100 196l100 196l-101 159h162z" />
    <glyph glyph-name="A.ss11" horiz-adv-x="680" 
d="M522 0l-52 110h-261l-51 -110h-168l53 110h-53v130h117l233 478l233 -478h117v-130h-54l54 -110h-168zM340 388l-70 -148h139z" />
    <glyph glyph-name="C.ss11" horiz-adv-x="734" 
d="M397 -8c-200 0 -363 163 -363 363s163 363 363 363c122 0 231 -61 297 -154v-239h-160v186c-36 32 -84 53 -137 53c-115 0 -202 -95 -202 -209s87 -209 202 -209c76 0 140 41 176 99l121 -99c-66 -93 -175 -154 -297 -154z" />
    <glyph glyph-name="F.ss11" horiz-adv-x="601" 
d="M67 0v710h500v-239h-160v81h-180v-120h200v-154h-200v-278h-160z" />
    <glyph glyph-name="G.ss11" horiz-adv-x="729" 
d="M397 -8c-200 0 -363 163 -363 363s163 363 363 363c122 0 218 -49 287 -134l-121 -99c-43 54 -90 79 -166 79c-115 0 -202 -95 -202 -209s87 -209 202 -209c58 0 102 10 137 35v99h-55v-44h-160v239h160v-45h210v-322c-70 -80 -172 -116 -292 -116z" />
    <glyph glyph-name="I.ss11" horiz-adv-x="467" 
d="M15 551v159h437v-159h-139v-392h139v-159h-437v159h138v392h-138z" />
    <glyph glyph-name="J.ss11" horiz-adv-x="507" 
d="M230 -8c-120 0 -220 66 -220 220h160c0 -50 22 -71 60 -71s60 21 60 71v339h-200v159h360v-508c0 -149 -100 -210 -220 -210z" />
    <glyph glyph-name="K.ss11" horiz-adv-x="799" 
d="M195 0v97c-105 33 -180 131 -180 246c0 114 75 212 180 245v122h160v-109h261v109h160v-250h-421v-199c17 21 28 49 28 82h162l274 -343h-198l-144 180c-32 -38 -74 -68 -122 -83v-97h-160zM167 343c0 -33 10 -61 28 -82v163c-18 -20 -28 -48 -28 -81z" />
    <glyph glyph-name="L.ss11" horiz-adv-x="617" 
d="M67 0v710h160v-551h196v80h160v-239h-516z" />
    <glyph glyph-name="Q.ss11" horiz-adv-x="754" 
d="M337 -8c-122 0 -231 61 -297 154v418c66 93 175 154 297 154c200 0 363 -163 363 -363c0 -61 -15 -119 -42 -170l101 -81l-91 -112l-101 82c-63 -52 -143 -82 -230 -82zM539 355c0 114 -87 209 -202 209c-40 0 -77 -11 -108 -31l300 -243c6 20 10 42 10 65zM200 372v-174
c36 -32 83 -52 137 -52c39 0 75 10 105 29z" />
    <glyph glyph-name="T.ss11" horiz-adv-x="729" 
d="M34 471v239h661v-239h-160v81h-91v-552h-160v552h-90v-81h-160z" />
    <glyph glyph-name="W.ss11" horiz-adv-x="876" 
d="M649 710l-139 -250l75 -140l123 390h163l-246 -718l-187 337l-187 -337l-246 718h163l123 -390l74 140l-138 250h150l61 -115l61 115h150z" />
    <glyph glyph-name="X.ss11" horiz-adv-x="674" 
d="M0 0l179 285c-82 49 -133 139 -133 255v170h160v-172c0 -86 53 -140 131 -140s131 54 131 140v172h160v-170c0 -116 -51 -206 -134 -255l180 -285h-186l-151 244l-151 -244h-186z" />
    <glyph glyph-name="Y.ss11" horiz-adv-x="652" 
d="M246 0v153c-127 31 -211 138 -211 287v270h160v-272c0 -84 50 -138 125 -140h6c78 0 131 54 131 140v272h160v-270c0 -149 -84 -256 -211 -287v-153h-160z" />
    <glyph glyph-name="Z.ss11" horiz-adv-x="638" 
d="M55 471v239h560l-166 -278h65v-154h-157l-71 -120h148v81h160v-239h-581l165 278h-72v154h164l72 120h-127v-81h-160z" />
    <glyph glyph-name="c.ss11" horiz-adv-x="532" 
d="M290 -8c-144 0 -260 116 -260 258s116 258 260 258c92 0 173 -47 219 -118v-143h-151v96c-19 15 -42 24 -68 24c-62 0 -108 -48 -108 -117s46 -117 108 -117c44 0 79 25 99 62l120 -85c-46 -71 -127 -118 -219 -118z" />
    <glyph glyph-name="f.ss11" horiz-adv-x="504" 
d="M154 368h-98v132h98v56c0 95 59 154 153 154h183v-138h-127c-41 0 -58 -17 -58 -59v-13h125v-132h-125v-236h175v-132h-464v132h138v236z" />
    <glyph glyph-name="g.ss11" horiz-adv-x="617" 
d="M343 -52c26 0 43 19 43 40c0 22 -17 40 -43 40h-61c-168 0 -256 113 -256 240s88 240 256 240c26 0 50 -3 72 -8h224v-132h-60c13 -31 20 -65 20 -100c0 -56 -17 -108 -50 -150c34 -32 56 -77 56 -127c0 -96 -79 -175 -175 -175h-343v132h317zM178 268
c0 -51 37 -102 104 -102h5c64 2 99 52 99 102c0 51 -37 102 -104 102s-104 -51 -104 -102z" />
    <glyph glyph-name="i.ss11" horiz-adv-x="448" 
d="M56 368v132h248v-368h138v-132h-426v132h137v236h-97zM159 571c-13 15 -20 35 -20 57c0 50 40 90 90 90s90 -40 90 -90c0 -22 -7 -42 -20 -57h-140z" />
    <glyph glyph-name="j.ss11" horiz-adv-x="344" 
d="M29 368v132h256v-500c0 -122 -89 -184 -221 -184h-35v143h26c48 0 79 12 79 60v349h-105zM139 571c-13 15 -20 35 -20 57c0 50 40 90 90 90s90 -40 90 -90c0 -22 -7 -42 -20 -57h-140z" />
    <glyph glyph-name="k.ss11" horiz-adv-x="677" 
d="M460 68h-134v-68h-151v70c-91 13 -160 92 -160 186s69 172 160 185v269h151v-267h122l41 57h174l-138 -193h-199v-103h212l151 -204h-178zM152 256c0 -19 9 -35 23 -44v86c-14 -9 -23 -25 -23 -42z" />
    <glyph glyph-name="l.ss11" horiz-adv-x="448" 
d="M56 578v132h249v-578h137v-132h-426v132h137v446h-97z" />
    <glyph glyph-name="r.ss11" horiz-adv-x="507" 
d="M56 368v132h248v-44c28 34 65 52 114 52c16 0 35 -2 54 -8v-157c-23 12 -51 17 -77 17c-31 0 -67 -12 -91 -33v-195h175v-132h-463v132h137v236h-97z" />
    <glyph glyph-name="w.ss11" horiz-adv-x="730" 
d="M194 500h134l37 -72l37 72h134l-105 -200l52 -100l88 300h159l-159 -500h-115l-91 173l-91 -173h-115l-159 500h159l88 -300l51 100z" />
    <glyph glyph-name="x.ss11" horiz-adv-x="550" 
d="M-3 0l132 185c-58 36 -93 100 -93 195v120h151v-93c0 -68 28 -118 88 -118s88 50 88 118v93h151v-120c0 -95 -35 -159 -94 -195l133 -185h-175l-103 150l-103 -150h-175z" />
    <glyph glyph-name="y.ss11" horiz-adv-x="518" 
d="M311 -76c-27 -72 -106 -108 -207 -108h-109v143h107c40 0 69 10 77 41l-184 500h160l104 -316l104 316h160z" />
    <glyph glyph-name="z.ss11" horiz-adv-x="523" 
d="M47 330v170h454l-231 -369h65v60h151v-191h-469l232 370h-51v-40h-151z" />
    <glyph glyph-name="A_C" horiz-adv-x="1064" 
d="M752 -8c-106 0 -201 45 -268 118h-275l-51 -110h-168l350 718l93 -191c61 113 181 191 319 191c122 0 231 -61 297 -154l-121 -99c-36 58 -100 99 -176 99c-115 0 -202 -95 -202 -209s87 -209 202 -209c76 0 140 41 176 99l121 -99c-66 -93 -175 -154 -297 -154zM273 240
h134l-67 148z" />
    <glyph glyph-name="A_G" horiz-adv-x="1084" 
d="M752 -8c-106 0 -201 45 -268 118h-275l-51 -110h-168l350 718l93 -191c61 113 181 191 319 191c122 0 218 -49 287 -134l-121 -99c-43 54 -90 79 -166 79c-115 0 -202 -95 -202 -209s87 -209 202 -209c58 0 102 10 137 35v99h-171l68 150h258v-322
c-70 -80 -172 -116 -292 -116zM273 240h134l-67 148z" />
    <glyph glyph-name="A_H" horiz-adv-x="1065" 
d="M-10 0l350 718l139 -286h359v278h160v-710h-160v278h-284l136 -278h-168l-51 110h-262l-51 -110h-168zM273 240h134l-67 148z" />
    <glyph glyph-name="A_O" horiz-adv-x="1149" 
d="M752 -8c-106 0 -201 45 -268 118h-275l-51 -110h-168l350 718l93 -191c61 113 181 191 319 191c200 0 363 -163 363 -363s-163 -363 -363 -363zM752 146c115 0 202 95 202 209s-87 209 -202 209s-202 -95 -202 -209s87 -209 202 -209zM273 240h134l-67 148z" />
    <glyph glyph-name="A_Q" horiz-adv-x="1169" 
d="M1083 -8l-101 82c-63 -52 -143 -82 -230 -82c-106 0 -201 45 -268 118h-275l-51 -110h-168l350 718l93 -191c61 113 181 191 319 191c200 0 363 -163 363 -363c0 -61 -15 -119 -42 -170l101 -81zM752 146c39 0 75 10 105 29l-108 88l91 111l104 -84c6 20 10 42 10 65
c0 114 -87 209 -202 209s-202 -95 -202 -209s87 -209 202 -209zM273 240h134l-67 148z" />
    <glyph glyph-name="A_V" horiz-adv-x="843" 
d="M-10 0l350 718l178 -365l157 357h178l-331 -710l-51 110h-262l-51 -110h-168zM273 240h134l-67 148z" />
    <glyph glyph-name="A_W" horiz-adv-x="1143" 
d="M892 -8l-187 409l-183 -401l-51 110h-262l-51 -110h-168l350 718l186 -382l179 382l160 -341l110 333h163zM273 240h134l-67 148z" />
    <glyph glyph-name="D_A" horiz-adv-x="1059" 
d="M901 0l-51 110h-273c-65 -68 -157 -110 -261 -110h-249v710h249c134 0 250 -72 312 -178l91 186l350 -718h-168zM227 146h89c119 0 200 95 200 209s-81 209 -200 209h-89v-418zM652 240h134l-67 148z" />
    <glyph glyph-name="D_C" horiz-adv-x="1191" 
d="M1176 146c-66 -93 -175 -154 -297 -154c-115 0 -217 54 -284 137c-66 -79 -166 -129 -279 -129h-249v710h249c113 0 213 -50 279 -129c67 83 169 137 284 137c122 0 231 -61 297 -154l-121 -99c-36 58 -100 99 -176 99c-115 0 -204 -95 -204 -209s89 -209 204 -209
c76 0 140 41 176 99zM227 146h89c119 0 202 95 202 209s-83 209 -202 209h-89v-418z" />
    <glyph glyph-name="D_G" horiz-adv-x="1211" 
d="M227 146h89c119 0 202 95 202 209s-83 209 -202 209h-89v-418zM1171 108c-70 -80 -172 -116 -292 -116c-115 0 -217 54 -284 137c-66 -79 -166 -129 -279 -129h-249v710h249c113 0 213 -50 279 -129c67 83 169 137 284 137c122 0 218 -49 287 -134l-121 -99
c-43 54 -90 79 -166 79c-115 0 -203 -95 -203 -209s88 -209 203 -209c58 0 102 10 137 35v99h-171l68 150h258v-322z" />
    <glyph glyph-name="D_H" horiz-adv-x="1179" 
d="M67 0v710h249c173 0 317 -119 352 -278h284v278h160v-710h-160v278h-284c-35 -159 -179 -278 -352 -278h-249zM227 146h89c119 0 200 95 200 209s-81 209 -200 209h-89v-418z" />
    <glyph glyph-name="D_K" horiz-adv-x="1121" 
d="M67 0v710h249c200 0 361 -159 361 -355v-2l248 357h184l-249 -357l281 -353h-198l-267 335c-10 -187 -167 -335 -360 -335h-249zM227 146h89c119 0 200 95 200 209s-81 209 -200 209h-89v-418z" />
    <glyph glyph-name="D_M" horiz-adv-x="1234" 
d="M67 0v710h249c105 0 196 -46 265 -115l232 -232l354 355v-718h-160v348l-194 -194l-141 141c-29 -168 -177 -295 -356 -295h-249zM227 146h89c119 0 200 95 200 209s-81 209 -200 209h-89v-418z" />
    <glyph glyph-name="D_N" horiz-adv-x="1115" 
d="M1048 -8l-374 316c-23 -174 -174 -308 -358 -308h-249v710h249c96 0 180 -41 248 -98l324 -273v371h160v-718zM227 146h89c119 0 200 95 200 209s-81 209 -200 209h-89v-418z" />
    <glyph glyph-name="D_O" horiz-adv-x="1276" 
d="M879 -8c-115 0 -217 54 -284 137c-66 -79 -166 -129 -279 -129h-249v710h249c113 0 213 -50 279 -129c67 83 169 137 284 137c200 0 363 -163 363 -363s-163 -363 -363 -363zM227 146h89c119 0 202 95 202 209s-83 209 -202 209h-89v-418zM879 146c115 0 202 95 202 209
s-87 209 -202 209s-203 -95 -203 -209s88 -209 203 -209z" />
    <glyph glyph-name="D_Q" horiz-adv-x="1296" 
d="M1210 -8l-101 82c-63 -51 -143 -82 -230 -82c-115 0 -217 54 -284 137c-66 -79 -166 -129 -279 -129h-249v710h249c113 0 213 -50 279 -129c67 83 169 137 284 137c200 0 363 -163 363 -363c0 -61 -15 -119 -42 -169l101 -82zM227 146h89c119 0 201 95 201 209
s-82 209 -201 209h-89v-418zM879 146c39 0 75 11 105 30l-108 87l91 111l104 -84c7 20 10 42 10 65c0 114 -87 209 -202 209s-203 -95 -203 -209s88 -209 203 -209z" />
    <glyph glyph-name="D_V" horiz-adv-x="1035" 
d="M710 -8l-86 179c-63 -103 -177 -171 -308 -171h-249v710h249c150 0 276 -91 333 -218l61 -137l157 355h178zM227 146h89c119 0 200 95 200 209s-81 209 -200 209h-89v-418z" />
    <glyph glyph-name="D_W" horiz-adv-x="1287" 
d="M662 -8l-54 154c-66 -89 -172 -146 -292 -146h-249v710h249c166 0 298 -113 348 -260l25 -73l160 341l160 -341l110 333h163l-246 -718l-187 409zM227 146h89c119 0 200 95 200 209s-81 209 -200 209h-89v-418z" />
    <glyph glyph-name="E_A" horiz-adv-x="1120" 
d="M67 0v710h440v-158h-280v-120h220v-154h-220v-120h280l273 560l350 -718h-168l-51 110h-262l-51 -110h-531zM713 240h134l-67 148z" />
    <glyph glyph-name="E_E" horiz-adv-x="997" 
d="M67 0v710h450h440v-158h-280v-120h220v-154h-220v-120h280v-158h-890zM517 158v394h-290v-120h210v-154h-210v-120h290z" />
    <glyph glyph-name="G_H" horiz-adv-x="1200" 
d="M397 -8c-200 0 -363 163 -363 363s163 363 363 363c122 0 218 -49 287 -134l-121 -99c-43 54 -90 79 -166 79c-115 0 -202 -95 -202 -209s87 -209 202 -209c58 0 102 10 137 35v99h-171l68 150h542v280h160v-710h-160v280h-284v-172c-70 -80 -172 -116 -292 -116z" />
    <glyph glyph-name="G_K" horiz-adv-x="1133" 
d="M397 -8c-200 0 -363 163 -363 363s163 363 363 363c122 0 218 -49 287 -134l-121 -99c-43 54 -90 79 -166 79c-115 0 -202 -95 -202 -209s87 -209 202 -209c58 0 102 10 137 35v99h-171l68 150h258v-75l248 355h184l-249 -358l281 -352h-198l-266 334v-226
c-70 -80 -172 -116 -292 -116z" />
    <glyph glyph-name="H_A" horiz-adv-x="1065" 
d="M375 0l135 278h-283v-278h-160v710h160v-278h358l140 286l350 -718h-168l-51 110h-262l-51 -110h-168zM658 240h134l-67 148z" />
    <glyph glyph-name="H_B" horiz-adv-x="1065" 
d="M511 0v278h-284v-278h-160v710h160v-278h284v278h267c116 0 211 -95 211 -211c0 -50 -19 -91 -50 -122c60 -32 100 -90 100 -166c0 -117 -95 -211 -215 -211h-313zM671 147h138c43 0 74 31 74 70s-31 71 -74 71h-138v-141zM671 423h89c43 0 74 31 74 70s-31 71 -74 71
h-89v-141z" />
    <glyph glyph-name="H_C" horiz-adv-x="1177" 
d="M865 -8c-174 0 -319 123 -355 286h-283v-278h-160v710h160v-278h283c36 163 181 286 355 286c122 0 231 -61 297 -154l-121 -99c-36 58 -100 99 -176 99c-115 0 -202 -95 -202 -209s87 -209 202 -209c76 0 140 41 176 99l121 -99c-66 -93 -175 -154 -297 -154z" />
    <glyph glyph-name="H_D" horiz-adv-x="1155" 
d="M67 0v710h160v-278h284v278h249c200 0 361 -159 361 -355s-161 -355 -361 -355h-249v278h-284v-278h-160zM671 146h89c119 0 200 95 200 209s-81 209 -200 209h-89v-418z" />
    <glyph glyph-name="H_E" horiz-adv-x="991" 
d="M511 0v278h-284v-278h-160v710h160v-278h284v278h440v-158h-280v-120h220v-154h-220v-120h280v-158h-440z" />
    <glyph glyph-name="H_F" horiz-adv-x="961" 
d="M67 0v710h160v-278h284v278h420v-158h-260v-120h200v-154h-200v-278h-160v278h-284v-278h-160z" />
    <glyph glyph-name="H_G" horiz-adv-x="1197" 
d="M865 -8c-174 0 -319 123 -355 286h-283v-278h-160v710h160v-278h283c36 163 181 286 355 286c122 0 218 -49 287 -134l-121 -99c-43 54 -90 79 -166 79c-115 0 -202 -95 -202 -209s87 -209 202 -209c58 0 102 10 137 35v99h-171l68 150h258v-322
c-70 -80 -172 -116 -292 -116z" />
    <glyph glyph-name="H_K" horiz-adv-x="1115" 
d="M511 0v278h-284v-278h-160v710h160v-278h284v278h160v-356l248 356h184l-249 -358l281 -352h-198l-266 333v-333h-160z" />
    <glyph glyph-name="H_M" horiz-adv-x="1286" 
d="M511 0v278h-284v-278h-160v710h160v-278h284v286l354 -355l354 355v-718h-160v348l-194 -194l-194 194v-348h-160z" />
    <glyph glyph-name="H_N" horiz-adv-x="1186" 
d="M1119 -8l-448 379v-371h-160v278h-284v-278h-160v710h160v-278h284v286l448 -379v371h160v-718z" />
    <glyph glyph-name="H_O" horiz-adv-x="1262" 
d="M865 -8c-174 0 -319 123 -355 286h-283v-278h-160v710h160v-278h283c36 163 181 286 355 286c200 0 363 -163 363 -363s-163 -363 -363 -363zM865 146c115 0 202 95 202 209s-87 209 -202 209s-202 -95 -202 -209s87 -209 202 -209z" />
    <glyph glyph-name="H_P" horiz-adv-x="1001" 
d="M511 0v278h-284v-278h-160v710h160v-278h284v278h234c139 0 243 -108 243 -241s-104 -241 -243 -241h-74v-228h-160zM671 377h72c52 0 90 44 90 92s-38 91 -90 91h-72v-183z" />
    <glyph glyph-name="H_Q" horiz-adv-x="1282" 
d="M1196 -8l-101 82c-63 -52 -143 -82 -230 -82c-174 0 -319 123 -355 286h-283v-278h-160v710h160v-278h283c36 163 181 286 355 286c200 0 363 -163 363 -363c0 -61 -15 -119 -42 -170l101 -81zM865 146c39 0 75 10 105 29l-108 88l91 111l104 -84c6 20 10 42 10 65
c0 114 -87 209 -202 209s-202 -95 -202 -209s87 -209 202 -209z" />
    <glyph glyph-name="H_R" horiz-adv-x="1069" 
d="M893 0l-220 288h-2v-288h-160v278h-284v-278h-160v710h160v-278h284v278h268c116 0 211 -95 211 -211c0 -89 -55 -166 -137 -198l231 -301h-191zM671 423h90c43 0 74 31 74 70s-31 71 -74 71h-90v-141z" />
    <glyph glyph-name="H_T" horiz-adv-x="861" 
d="M67 0v710h160v-278h284v120h-170v158h501v-158h-171v-552h-160v278h-284v-278h-160z" />
    <glyph glyph-name="H_U" horiz-adv-x="1153" 
d="M802 -8c-167 0 -287 113 -291 286h-284v-278h-160v710h160v-278h284v278h160v-424c0 -86 53 -140 131 -140s131 54 131 140v424h160v-422c0 -178 -121 -296 -291 -296z" />
    <glyph glyph-name="H_V" horiz-adv-x="1041" 
d="M716 -8l-134 286h-355v-278h-160v710h160v-278h283l-129 278h178l157 -355l157 355h178z" />
    <glyph glyph-name="H_W" horiz-adv-x="1286" 
d="M661 -8l-98 286h-336v-278h-160v710h160v-278h283l-95 278h163l110 -333l160 341l160 -341l110 333h163l-246 -718l-187 409z" />
    <glyph glyph-name="H_Y" horiz-adv-x="919" 
d="M511 0v278h-284v-278h-160v710h160v-278h198l-177 278h187l155 -249l155 249h189l-263 -412v-298h-160z" />
    <glyph glyph-name="L_A" horiz-adv-x="1025" 
d="M67 0v710h161v-551h184l273 559l350 -718h-168l-51 110h-262l-51 -110h-436zM618 240h134l-67 148z" />
    <glyph glyph-name="M_B" horiz-adv-x="1169" 
d="M67 0v718l354 -355l346 347h115c116 0 211 -95 211 -211c0 -50 -19 -91 -50 -122c60 -32 100 -90 100 -166c0 -117 -95 -211 -215 -211h-313v348l-194 -194l-194 194v-348h-160zM775 147h138c43 0 74 31 74 70s-31 71 -74 71h-138v-141zM775 423h89c43 0 74 31 74 70
s-31 71 -74 71h-89v-141z" />
    <glyph glyph-name="M_C" horiz-adv-x="1237" 
d="M925 -8c-181 0 -332 133 -359 307l-145 -145l-194 194v-348h-160v718l354 -355l254 255c63 63 153 100 250 100c122 0 231 -61 297 -154l-121 -99c-36 58 -100 99 -176 99c-115 0 -202 -95 -202 -209s87 -209 202 -209c76 0 140 41 176 99l121 -99
c-66 -93 -175 -154 -297 -154z" />
    <glyph glyph-name="M_D" horiz-adv-x="1259" 
d="M67 0v718l354 -355l346 347h97c200 0 361 -159 361 -355s-161 -355 -361 -355h-249v348l-194 -194l-194 194v-348h-160zM775 146h89c119 0 200 95 200 209s-81 209 -200 209h-89v-418z" />
    <glyph glyph-name="M_E" horiz-adv-x="1095" 
d="M67 0v718l354 -355l346 347h288v-158h-280v-120h220v-154h-220v-120h280v-158h-440v348l-194 -194l-194 194v-348h-160z" />
    <glyph glyph-name="M_F" horiz-adv-x="1065" 
d="M67 0v718l354 -355l346 347h268v-158h-260v-120h200v-154h-200v-278h-160v348l-194 -194l-194 194v-348h-160z" />
    <glyph glyph-name="M_G" horiz-adv-x="1257" 
d="M925 -8c-181 0 -332 133 -359 307l-145 -145l-194 194v-348h-160v718l354 -355l254 255c63 63 153 100 250 100c122 0 218 -49 287 -134l-121 -99c-43 54 -90 79 -166 79c-115 0 -202 -95 -202 -209s87 -209 202 -209c58 0 102 10 137 35v99h-171l68 150h258v-322
c-70 -80 -172 -116 -292 -116z" />
    <glyph glyph-name="M_K" horiz-adv-x="1218" 
d="M67 0v718l354 -355l354 355v-362l247 354h184l-249 -358l281 -352h-198l-265 331v-331h-160v348l-194 -194l-194 194v-348h-160z" />
    <glyph glyph-name="M_M" horiz-adv-x="1390" 
d="M67 0v718l354 -355l274 275l274 -275l354 355v-718h-160v348l-194 -194l-194 194v-348h-160v348l-194 -194l-194 194v-348h-160z" />
    <glyph glyph-name="M_N" horiz-adv-x="1290" 
d="M1223 -8l-448 379v-371h-160v348l-194 -194l-194 194v-348h-160v718l354 -355l281 282l361 -306v371h160v-718z" />
    <glyph glyph-name="M_O" horiz-adv-x="1322" 
d="M925 -8c-181 0 -332 133 -359 307l-145 -145l-194 194v-348h-160v718l354 -355l254 255c63 63 153 100 250 100c200 0 363 -163 363 -363s-163 -363 -363 -363zM925 146c115 0 202 95 202 209s-87 209 -202 209s-202 -95 -202 -209s87 -209 202 -209z" />
    <glyph glyph-name="M_P" horiz-adv-x="1105" 
d="M67 0v718l354 -355l346 347h82c139 0 243 -108 243 -241s-104 -241 -243 -241h-74v-228h-160v348l-194 -194l-194 194v-348h-160zM775 377h72c52 0 90 44 90 92s-38 91 -90 91h-72v-183z" />
    <glyph glyph-name="M_Q" horiz-adv-x="1342" 
d="M1256 -8l-101 82c-63 -52 -143 -82 -230 -82c-181 0 -332 133 -359 307l-145 -145l-194 194v-348h-160v718l354 -355l254 255c63 63 153 100 250 100c200 0 363 -163 363 -363c0 -61 -15 -119 -42 -170l101 -81zM925 146c39 0 75 10 105 29l-108 88l91 111l104 -84
c6 20 10 42 10 65c0 114 -87 209 -202 209s-202 -95 -202 -209s87 -209 202 -209z" />
    <glyph glyph-name="M_R" horiz-adv-x="1173" 
d="M997 0l-220 288h-2v-288h-160v348l-194 -194l-194 194v-348h-160v718l354 -355l346 347h116c116 0 211 -95 211 -211c0 -89 -55 -166 -137 -198l231 -301h-191zM775 423h90c43 0 74 31 74 70s-31 71 -74 71h-90v-141z" />
    <glyph glyph-name="M_U" horiz-adv-x="1264" 
d="M906 -8c-170 0 -291 118 -291 296v60l-194 -194l-194 194v-348h-160v718l354 -355l354 355v-432c0 -86 53 -140 131 -140s131 54 131 140v424h160v-422c0 -178 -121 -296 -291 -296z" />
    <glyph glyph-name="N_B" horiz-adv-x="1069" 
d="M67 0v718l448 -379v371h267c116 0 211 -95 211 -211c0 -50 -19 -91 -50 -122c60 -32 100 -90 100 -166c0 -117 -95 -211 -215 -211h-162l-439 371v-371h-160zM675 147h138c43 0 74 31 74 70s-31 71 -74 71h-138v-141zM675 423h89c43 0 74 31 74 70s-31 71 -74 71h-89
v-141z" />
    <glyph glyph-name="N_C" horiz-adv-x="1119" 
d="M807 -8c-88 0 -169 31 -232 84l-348 295v-371h-160v718l379 -321c21 180 175 321 361 321c122 0 231 -61 297 -154l-121 -99c-36 58 -100 99 -176 99c-115 0 -202 -95 -202 -209s87 -209 202 -209c76 0 140 41 176 99l121 -99c-66 -93 -175 -154 -297 -154z" />
    <glyph glyph-name="N_D" horiz-adv-x="1159" 
d="M67 0v718l448 -379v371h249c200 0 361 -159 361 -355s-161 -355 -361 -355h-99l-438 371v-371h-160zM675 146h89c119 0 200 95 200 209s-81 209 -200 209h-89v-418z" />
    <glyph glyph-name="N_E" horiz-adv-x="995" 
d="M67 0v718l448 -379v371h440v-158h-280v-120h220v-154h-220v-120h280v-158h-290l-438 371v-371h-160z" />
    <glyph glyph-name="N_F" horiz-adv-x="965" 
d="M675 -8l-448 379v-371h-160v718l448 -379v371h420v-158h-260v-120h200v-154h-200v-286z" />
    <glyph glyph-name="N_G" horiz-adv-x="1139" 
d="M807 -8c-88 0 -169 31 -232 84l-348 295v-371h-160v718l379 -321c21 180 175 321 361 321c122 0 218 -49 287 -134l-121 -99c-43 54 -90 79 -166 79c-115 0 -202 -95 -202 -209s87 -209 202 -209c58 0 102 10 137 35v99h-171l68 150h258v-322
c-70 -80 -172 -116 -292 -116z" />
    <glyph glyph-name="N_K" horiz-adv-x="1120" 
d="M675 -8l-448 379v-371h-160v718l448 -379v371h160v-357l249 357h184l-249 -357l281 -353h-198l-267 334v-342z" />
    <glyph glyph-name="N_M" horiz-adv-x="1290" 
d="M675 -8l-448 379v-371h-160v718l448 -379v379l354 -355l354 355v-718h-160v348l-194 -194l-194 194v-356z" />
    <glyph glyph-name="N_N" horiz-adv-x="1190" 
d="M675 -8l-448 379v-371h-160v718l448 -379v379l448 -379v371h160v-718l-448 379v-379z" />
    <glyph glyph-name="N_O" horiz-adv-x="1204" 
d="M807 -8c-88 0 -169 31 -232 84l-348 295v-371h-160v718l379 -321c21 180 175 321 361 321c200 0 363 -163 363 -363s-163 -363 -363 -363zM807 146c115 0 202 95 202 209s-87 209 -202 209s-202 -95 -202 -209s87 -209 202 -209z" />
    <glyph glyph-name="N_P" horiz-adv-x="1005" 
d="M675 -8l-448 379v-371h-160v718l448 -379v371h234c139 0 243 -108 243 -241s-104 -241 -243 -241h-74v-236zM675 377h72c52 0 90 44 90 92s-38 91 -90 91h-72v-183z" />
    <glyph glyph-name="N_Q" horiz-adv-x="1224" 
d="M1138 -8l-101 82c-63 -52 -143 -82 -230 -82c-88 0 -169 31 -232 84l-348 295v-371h-160v718l379 -321c21 180 175 321 361 321c200 0 363 -163 363 -363c0 -61 -15 -119 -42 -170l101 -81zM807 146c39 0 75 10 105 29l-108 88l91 111l104 -84c6 20 10 42 10 65
c0 114 -87 209 -202 209s-202 -95 -202 -209s87 -209 202 -209z" />
    <glyph glyph-name="N_R" horiz-adv-x="1073" 
d="M897 0l-220 288h-2v-296l-448 379v-371h-160v718l448 -379v371h268c116 0 211 -95 211 -211c0 -89 -55 -166 -137 -198l231 -301h-191zM675 423h90c43 0 74 31 74 70s-31 71 -74 71h-90v-141z" />
    <glyph glyph-name="N_T" horiz-adv-x="865" 
d="M675 -8l-448 379v-371h-160v718l448 -379v213h-170v158h501v-158h-171v-560z" />
    <glyph glyph-name="N_U" horiz-adv-x="1157" 
d="M806 -8c-75 0 -140 24 -190 64l-389 315v-371h-160v718l448 -363v355h160v-424c0 -86 53 -140 131 -140s131 54 131 140v424h160v-422c0 -178 -121 -296 -291 -296z" />
    <glyph glyph-name="O_A" horiz-adv-x="1149" 
d="M397 -8c-200 0 -363 163 -363 363s163 363 363 363c137 0 257 -78 319 -191l93 191l350 -718h-168l-51 110h-276c-66 -73 -162 -118 -267 -118zM397 146c115 0 202 95 202 209s-87 209 -202 209s-202 -95 -202 -209s87 -209 202 -209zM742 240h134l-67 148z" />
    <glyph glyph-name="O_C" horiz-adv-x="1274" 
d="M397 -8c-200 0 -363 163 -363 363s163 363 363 363c114 0 216 -53 282 -135c67 82 169 135 283 135c122 0 231 -61 297 -154l-121 -99c-36 58 -100 99 -176 99c-115 0 -203 -95 -203 -209s88 -209 203 -209c76 0 140 41 176 99l121 -99c-66 -93 -175 -154 -297 -154
c-114 0 -216 53 -282 135c-67 -82 -169 -135 -283 -135zM397 146c115 0 203 95 203 209s-88 209 -203 209s-202 -95 -202 -209s87 -209 202 -209z" />
    <glyph glyph-name="O_G" horiz-adv-x="1294" 
d="M397 -8c-200 0 -363 163 -363 363s163 363 363 363c114 0 216 -53 282 -135c67 82 169 135 283 135c122 0 218 -49 287 -134l-121 -99c-43 54 -90 79 -166 79c-115 0 -203 -95 -203 -209s88 -209 203 -209c58 0 102 10 137 35v99h-171l68 150h258v-322
c-70 -80 -172 -116 -292 -116c-114 0 -216 53 -282 135c-67 -82 -169 -135 -283 -135zM397 146c115 0 203 95 203 209s-88 209 -203 209s-202 -95 -202 -209s87 -209 202 -209z" />
    <glyph glyph-name="O_H" horiz-adv-x="1262" 
d="M397 -8c-200 0 -363 163 -363 363s163 363 363 363c173 0 319 -123 354 -286h284v278h160v-710h-160v278h-284c-35 -163 -181 -286 -354 -286zM397 146c115 0 202 95 202 209s-87 209 -202 209s-202 -95 -202 -209s87 -209 202 -209z" />
    <glyph glyph-name="O_K" horiz-adv-x="1204" 
d="M397 -8c-200 0 -363 163 -363 363s163 363 363 363s363 -163 363 -363v-1l248 356h184l-249 -357l281 -353h-198l-267 334c-11 -191 -169 -342 -362 -342zM397 146c115 0 202 95 202 209s-87 209 -202 209s-202 -95 -202 -209s87 -209 202 -209z" />
    <glyph glyph-name="O_M" horiz-adv-x="1322" 
d="M397 -8c-200 0 -363 163 -363 363s163 363 363 363c97 0 187 -37 250 -100l254 -255l354 355v-718h-160v348l-194 -194l-145 145c-27 -174 -178 -307 -359 -307zM397 146c115 0 202 95 202 209s-87 209 -202 209s-202 -95 -202 -209s87 -209 202 -209z" />
    <glyph glyph-name="O_N" horiz-adv-x="1204" 
d="M1137 -8l-379 321c-21 -180 -175 -321 -361 -321c-200 0 -363 163 -363 363s163 363 363 363c88 0 169 -31 232 -84l348 -295v371h160v-718zM397 146c115 0 202 95 202 209s-87 209 -202 209s-202 -95 -202 -209s87 -209 202 -209z" />
    <glyph glyph-name="O_O" horiz-adv-x="1359" 
d="M397 -8c-200 0 -363 163 -363 363s163 363 363 363c114 0 216 -53 282 -135c67 82 169 135 283 135c200 0 363 -163 363 -363s-163 -363 -363 -363c-114 0 -216 53 -282 135c-67 -82 -169 -135 -283 -135zM397 146c115 0 203 95 203 209s-88 209 -203 209
s-202 -95 -202 -209s87 -209 202 -209zM962 146c115 0 202 95 202 209s-87 209 -202 209s-203 -95 -203 -209s88 -209 203 -209z" />
    <glyph glyph-name="O_Q" horiz-adv-x="1379" 
d="M397 -8c-200 0 -363 163 -363 363s163 363 363 363c114 0 216 -53 282 -135c67 82 169 135 283 135c200 0 363 -163 363 -363c0 -61 -15 -119 -42 -169l101 -82l-91 -112l-101 82c-63 -51 -143 -82 -230 -82c-114 0 -216 53 -282 135c-67 -82 -169 -135 -283 -135z
M397 146c115 0 203 95 203 209s-88 209 -203 209s-202 -95 -202 -209s87 -209 202 -209zM962 146c39 0 75 11 105 30l-108 87l91 111l104 -84c7 20 10 42 10 65c0 114 -87 209 -202 209s-203 -95 -203 -209s88 -209 203 -209z" />
    <glyph glyph-name="O_V" horiz-adv-x="1119" 
d="M397 -8c-200 0 -363 163 -363 363s163 363 363 363c151 0 277 -96 336 -227l61 -136l157 355h178l-335 -718l-84 180c-63 -108 -180 -180 -313 -180zM397 146c115 0 202 95 202 209s-87 209 -202 209s-202 -95 -202 -209s87 -209 202 -209z" />
    <glyph glyph-name="O_W" horiz-adv-x="1370" 
d="M397 -8c-200 0 -363 163 -363 363s163 363 363 363c163 0 297 -110 347 -258l28 -83l160 341l160 -341l110 333h163l-246 -718l-187 409l-187 -409l-53 152c-66 -92 -174 -152 -295 -152zM397 146c115 0 202 95 202 209s-87 209 -202 209s-202 -95 -202 -209
s87 -209 202 -209z" />
    <glyph glyph-name="T_H" horiz-adv-x="860" 
d="M189 0v552h-170v158h501v-158h-171v-120h284v278h160v-710h-160v278h-284v-278h-160z" />
    <glyph glyph-name="T_T" horiz-adv-x="983" 
d="M633 0v552h-284v-552h-160v552h-170v158h945v-158h-171v-552h-160z" />
    <glyph glyph-name="T_U" horiz-adv-x="831" 
d="M19 552v158h501v-158h-171v-266c0 -86 53 -140 131 -140s131 54 131 140v424h160v-422c0 -178 -121 -296 -291 -296s-291 118 -291 296v264h-170z" />
    <glyph glyph-name="T_Z" horiz-adv-x="1094" 
d="M478 0l329 552h-458v-552h-160v552h-170v158h1061l-329 -552h308v-158h-581z" />
    <glyph glyph-name="U_F" horiz-adv-x="932" 
d="M351 -8c-170 0 -291 118 -291 296v422h160v-424c0 -86 53 -140 131 -140s131 54 131 140v424h420v-158h-260v-120h200v-154h-200c-5 -173 -125 -286 -291 -286z" />
    <glyph glyph-name="U_H" horiz-adv-x="1153" 
d="M351 -8c-170 0 -291 118 -291 296v422h160v-424c0 -86 53 -140 131 -140s131 54 131 140v424h160v-278h284v278h160v-710h-160v278h-284c-5 -173 -125 -286 -291 -286z" />
    <glyph glyph-name="U_K" horiz-adv-x="1086" 
d="M351 -8c-170 0 -291 118 -291 296v422h160v-424c0 -86 53 -140 131 -140s131 54 131 140v424h160v-356l248 356h184l-249 -357l281 -353h-198l-266 333v-45c0 -178 -121 -296 -291 -296z" />
    <glyph glyph-name="U_M" horiz-adv-x="1257" 
d="M351 -8c-170 0 -291 118 -291 296v422h160v-424c0 -86 53 -140 131 -140s131 54 131 140v432l354 -355l354 355v-718h-160v348l-194 -194l-194 194v-60c0 -178 -121 -296 -291 -296z" />
    <glyph glyph-name="U_N" horiz-adv-x="1157" 
d="M1090 -8l-448 379v-83c0 -178 -121 -296 -291 -296s-291 118 -291 296v422h160v-424c0 -86 53 -140 131 -140s131 54 131 140v432l448 -379v371h160v-718z" />
    <glyph glyph-name="U_P" horiz-adv-x="972" 
d="M351 -8c-170 0 -291 118 -291 296v422h160v-424c0 -86 53 -140 131 -140s131 54 131 140v424h234c139 0 243 -108 243 -241s-104 -241 -243 -241h-79c-24 -144 -136 -236 -286 -236zM642 377h72c52 0 90 44 90 92s-38 91 -90 91h-72v-183z" />
    <glyph glyph-name="U_R" horiz-adv-x="1040" 
d="M351 -8c-170 0 -291 118 -291 296v422h160v-424c0 -86 53 -140 131 -140s131 54 131 140v424h268c116 0 211 -95 211 -211c0 -89 -55 -166 -137 -198l231 -301h-191l-220 288h-2c0 -178 -121 -296 -291 -296zM642 423h90c43 0 74 31 74 70s-31 71 -74 71h-90v-141z" />
    <glyph glyph-name="U_T" horiz-adv-x="831" 
d="M351 -8c-170 0 -291 118 -291 296v422h160v-424c0 -86 53 -140 131 -140s131 54 131 140v266h-171v158h501v-158h-170v-264c0 -178 -121 -296 -291 -296z" />
    <glyph glyph-name="V_A" horiz-adv-x="843" 
d="M321 0l-331 710h178l157 -357l178 365l350 -718h-168l-51 110h-262zM436 240h134l-67 148z" />
    <glyph glyph-name="V_C" horiz-adv-x="1034" 
d="M325 -8l-335 718h178l157 -355l61 136c59 131 185 227 336 227c122 0 231 -61 297 -154l-121 -99c-36 58 -100 99 -176 99c-115 0 -202 -95 -202 -209s87 -209 202 -209c76 0 140 41 176 99l121 -99c-66 -93 -175 -154 -297 -154c-133 0 -250 72 -313 180z" />
    <glyph glyph-name="V_G" horiz-adv-x="1054" 
d="M325 -8l-335 718h178l157 -355l61 136c59 131 185 227 336 227c122 0 218 -49 287 -134l-121 -99c-43 54 -90 79 -166 79c-115 0 -202 -95 -202 -209s87 -209 202 -209c58 0 102 10 137 35v99h-171l68 150h258v-322c-70 -80 -172 -116 -292 -116c-133 0 -250 72 -313 180
z" />
    <glyph glyph-name="V_H" horiz-adv-x="1041" 
d="M325 -8l-335 718h178l157 -355l157 355h178l-130 -278h284v278h160v-710h-160v278h-356z" />
    <glyph glyph-name="V_O" horiz-adv-x="1119" 
d="M325 -8l-335 718h178l157 -355l61 136c59 131 185 227 336 227c200 0 363 -163 363 -363s-163 -363 -363 -363c-133 0 -250 72 -313 180zM722 146c115 0 202 95 202 209s-87 209 -202 209s-202 -95 -202 -209s87 -209 202 -209z" />
    <glyph glyph-name="V_Q" horiz-adv-x="1139" 
d="M1053 -8l-101 82c-63 -52 -143 -82 -230 -82c-133 0 -250 72 -313 180l-84 -180l-335 718h178l157 -355l61 136c59 131 185 227 336 227c200 0 363 -163 363 -363c0 -61 -15 -119 -42 -170l101 -81zM722 146c39 0 75 10 105 29l-108 88l91 111l104 -84c6 20 10 42 10 65
c0 114 -87 209 -202 209s-202 -95 -202 -209s87 -209 202 -209z" />
    <glyph glyph-name="W_A" horiz-adv-x="1143" 
d="M438 401l-187 -409l-246 718h163l110 -333l160 341l179 -382l186 382l350 -718h-168l-51 110h-262l-51 -110zM736 240h134l-67 148z" />
    <glyph glyph-name="W_C" horiz-adv-x="1285" 
d="M251 -8l-246 718h163l110 -333l160 341l160 -341l28 83c50 148 184 258 347 258c122 0 231 -61 297 -154l-121 -99c-36 58 -100 99 -176 99c-115 0 -202 -95 -202 -209s87 -209 202 -209c76 0 140 41 176 99l121 -99c-66 -93 -175 -154 -297 -154
c-121 0 -229 60 -295 152l-53 -152l-187 409z" />
    <glyph glyph-name="W_G" horiz-adv-x="1305" 
d="M251 -8l-246 718h163l110 -333l160 341l160 -341l28 83c50 148 184 258 347 258c122 0 218 -49 287 -134l-121 -99c-43 54 -90 79 -166 79c-115 0 -202 -95 -202 -209s87 -209 202 -209c58 0 102 10 137 35v99h-171l68 150h258v-322c-70 -80 -172 -116 -292 -116
c-121 0 -229 60 -295 152l-53 -152l-187 409z" />
    <glyph glyph-name="W_H" horiz-adv-x="1286" 
d="M251 -8l-246 718h163l110 -333l160 341l160 -341l110 333h163l-95 -278h283v278h160v-710h-160v278h-336l-98 -286l-187 409z" />
    </font>
</defs>
</svg>
